<mxfile host="65bd71144e">
    <diagram name="Page-1" id="gvTWPBcjtusFCW3gq2_S">
        <mxGraphModel dx="1124" dy="751" grid="1" gridSize="10" guides="1" tooltips="1" connect="1" arrows="1" fold="1" page="1" pageScale="1" pageWidth="850" pageHeight="1100" background="#ffffff" math="0" shadow="0">
            <root>
                <mxCell id="IAqKqDlb5OC1OfE6rR6O-0"/>
                <mxCell id="IAqKqDlb5OC1OfE6rR6O-1" parent="IAqKqDlb5OC1OfE6rR6O-0"/>
                <mxCell id="IAqKqDlb5OC1OfE6rR6O-2" value="http://ics2o.mths.ca" style="swimlane;whiteSpace=wrap;html=1;strokeColor=#000000;strokeWidth=1;gradientColor=none;perimeterSpacing=0;glass=0;labelBackgroundColor=none;labelBorderColor=none;" vertex="1" parent="IAqKqDlb5OC1OfE6rR6O-1">
                    <mxGeometry x="40" y="40" width="760" height="610" as="geometry"/>
                </mxCell>
                <mxCell id="IAqKqDlb5OC1OfE6rR6O-3" value="" style="whiteSpace=wrap;html=1;glass=0;labelBackgroundColor=none;labelBorderColor=none;fontSize=22;fillColor=#ffcc99;strokeColor=#36393d;" vertex="1" parent="IAqKqDlb5OC1OfE6rR6O-2">
                    <mxGeometry y="20" width="760" height="590" as="geometry"/>
                </mxCell>
                <mxCell id="IAqKqDlb5OC1OfE6rR6O-4" value="" style="whiteSpace=wrap;html=1;fontSize=22;fillColor=#ffcd28;strokeColor=#d79b00;gradientColor=none;" vertex="1" parent="IAqKqDlb5OC1OfE6rR6O-2">
                    <mxGeometry y="20" width="760" height="50" as="geometry"/>
                </mxCell>
                <mxCell id="IAqKqDlb5OC1OfE6rR6O-5" value="" style="whiteSpace=wrap;html=1;glass=0;labelBackgroundColor=none;labelBorderColor=none;fontSize=22;fontColor=#000000;fillColor=#6D6F6B;gradientColor=none;" vertex="1" parent="IAqKqDlb5OC1OfE6rR6O-2">
                    <mxGeometry x="20" y="142.5" width="150" height="25" as="geometry"/>
                </mxCell>
                <mxCell id="IAqKqDlb5OC1OfE6rR6O-6" value="&lt;span style=&quot;font-size: 24px;&quot;&gt;Enter a layer based on the pattern in the images.&lt;/span&gt;" style="text;html=1;align=center;verticalAlign=middle;resizable=0;points=[];autosize=1;fontSize=26;fontColor=#000000;" vertex="1" parent="IAqKqDlb5OC1OfE6rR6O-2">
                    <mxGeometry x="4" y="70" width="540" height="40" as="geometry"/>
                </mxCell>
                <mxCell id="IAqKqDlb5OC1OfE6rR6O-7" value="&lt;span style=&quot;font-size: 17px;&quot;&gt;Layer&lt;/span&gt;" style="text;align=center;html=1;verticalAlign=middle;whiteSpace=wrap;rounded=0;fontColor=#000000;" vertex="1" parent="IAqKqDlb5OC1OfE6rR6O-2">
                    <mxGeometry x="20" y="112.5" width="110" height="30" as="geometry"/>
                </mxCell>
                <mxCell id="IAqKqDlb5OC1OfE6rR6O-8" value="Calculate" style="whiteSpace=wrap;html=1;fillColor=#999999;" vertex="1" parent="IAqKqDlb5OC1OfE6rR6O-2">
                    <mxGeometry x="30" y="186" width="120" height="30" as="geometry"/>
                </mxCell>
                <mxCell id="IAqKqDlb5OC1OfE6rR6O-9" value="You have not entered data yet." style="text;strokeColor=none;align=left;fillColor=none;html=1;verticalAlign=middle;whiteSpace=wrap;rounded=0;fontSize=18;fontColor=#000000;" vertex="1" parent="IAqKqDlb5OC1OfE6rR6O-2">
                    <mxGeometry x="13" y="227" width="530" height="30" as="geometry"/>
                </mxCell>
                <mxCell id="IAqKqDlb5OC1OfE6rR6O-10" value="Triangle Pattern Calculator" style="text;html=1;align=center;verticalAlign=middle;resizable=0;points=[];autosize=1;fontSize=30;fontColor=#000000;" vertex="1" parent="IAqKqDlb5OC1OfE6rR6O-2">
                    <mxGeometry x="195" y="20" width="380" height="50" as="geometry"/>
                </mxCell>
                <mxCell id="IAqKqDlb5OC1OfE6rR6O-11" value="" style="shape=image;verticalLabelPosition=bottom;labelBackgroundColor=default;verticalAlign=top;aspect=fixed;imageAspect=0;image=data:image/png,iVBORw0KGgoAAAANSUhEUgAAAV8AAAEDCAYAAACS+QcNAAAgAElEQVR4nOzddXRTSRvA4V+kiltxh2VxXdxZZHFbXBZ3dy20FIrLIh8ui7u7w+Lu7loKBeqS3O+PlGxLLW2T3KSd5xzOSZq5M29p8ubeuSMKSZIkYqL9DKhBmSLGooIgCELMlHIHIAiCkBiJ5CsIgiADkXwFQRBkIJKvIAiCDETyFQRBkIFIvoIgCDIQyVcQBEEGIvkKgiDIQC13AIIgyCckOJi3b9+yZeMGHj14SPIUyalZuw7lK1YkabJkKBQKuUNMsBRihpsgJD6SJHH50iWGDxqIj7d3pGUaNG7C6PHjsbGxMXN0iYNIvoKQCG1ct44Z7lNiLJc6dWr2HDqMnb29GaJKXETyFYRE5tmTJ7Ro0tjg8r/mz8/azVtMGFHiJG64CUIi075Vy1iVf3D/PsePHjVRNImXSL6CkIh8+/aNwMDAWB+3bs1qE0STuInkKwiJyJYNG+J03JNHj4wciSCSryAkIs+ePo3Tcb6+voSEhBg5msRNJF9BSETSpk0bp+PUNjao1WJagDGJ5CsIiUid+vXjdFz27NmNHIkgkq8gJCIFChaM03E1atUyciSCSL6CkMiMGjcuVuWTJ09O9169TRRN4iWSryAkMk3/bEGJUqUMKqtQKFixdp2JI0qcRPIVhERGoVCwYMlSkiVPHmPZ/y1fQY6cOc0QVeIjkq8gJEI3b1zH+/t30qVzolnLlqRNlw4AtVpN8ZIlafZnCwCGDx4kZ5gJmljbQRASmZCQEGpUrICvry9zFy6kQqXKAGg0GpRKJQqFAkmS+KNGdTw/fcJlyhTq1m8gc9QJjzjzFYREZuumjfj6+lKsRAnKV6yk/7lKpdKv36tQKFi2eg0AU93cZIkzoRPJVxASkZCQEGa4u6NQKHCZMiXaxdKzZM1Kjpw58fXxYarbJDNGmTiI5CsIicjAProhYzVr1yFTpswxlt+8cxcA2zZv5uOHDyaNLbERyVcQEolnT59y8fx5VCoVLlNiXkgdQKlU0r13H7RaLe6TXE0cYeIikq8gJBKjhw1DkiTGTJgYq3Ua2v/1F46Ojpw5dYo7t2+bMMLERSRfQUgEDuzbx5PHj7Czs6NhY8N3sQBwcHDA2VXX5zu4bx80Go0pQkx0RPIVhAROo9EwxdUFgC27dsWpjuo1a5L3l1/48uUL/54+bczwEi2RfAUhgVu9fDl+vr78Vro0mTJniVMdCoWCca6TUCgUDO7fD61Wa+QoEx+RfAUhAfPy8mLh3/NQKpWMd43fcLECBQpQqUoVAJxHjzZGeImaSL6CkICNHTEcgLYdOpIxU6Z41+fqPhW1Ws3B/fvw+Pgx3vUlZiL5CkIC5eHhwcXz50mRMiU9ehtnScgkSZLQuXsPJEli2MABRqkzsRLJVxASqKb16gLQb+Ag7B0cjFZvt549Abh75w5nT50yWr2JjUi+gpAA7d6xg4CAANJnyEDjZs2MWrdCoWDj9u0AuLlMFDff4kgkX0FIYIKCgpg5bSoAi5YtN0kbufPkJU/evHzy8GBzHLejT+xE8hWEBGbmVHd8fXwoWqw42Uy08aVCoWD63HkAzJ4+je/fvpmknYRMJF9BSEDevH7Nzm3bAPjfihUmbStr1qw0bf4nGo2GGe7uJm0rIRLJVxASkCkuE9FoNAwcOhQbGxuTt9dv8GDs7e3Zv3cP3t7eJm8vIRHJVxASiLu3b3PxwgVsbW1p0bqNWdpMliwZ3UJ3Nm5Qq6ZZ2kwoRPIVhARAowmhb4/uALjPmoWtra3Z2u7YuTPpnJzw8fHh0sWLZmvX2onkKwgJwMH9+/H29iZ/wYJUrlLV7O1PnjYNgOGDBopVzwwkkq8gWDlJknAePRqFQsH4iS6yxFC8ZCly5c6Dj7c3C+fNlSUGayOSryBYuaED+gNQtXoN8ubLJ1scq9avA2DDunV89vSULQ5rIZKvIFgxTw8PTp88idrGhkkyD/dydExC2w4dCAoMZNpkseNxTETyFQQr1qenbpGbnn36YGdvL3c49OqnOws/duQID+7fkzkayyaSryBYqZPHjvH08WPs7Oz4q0tXucMBwN7eHrdp0wEYOWSIWPchGiL5CoIVCgoK0l/aL1/zj8zRhFezdm2y58jBm9evOXtGbDkUFZF8BcEKbVi7Fg8PDwoXKUq+/PnlDiccpVLJeBfdNvPDBog1f6Mikq8gWBkvLy8W/a1b1GbS1KkoFAqZI4qoaPHilClbFo1Gw2SXiXKHY5FE8hUEKzPFxYWQkBBatmlL5ixx2xDTHKbNmYNKpWL7li0EBgTIHY7FEclXEKyIt7c3x48ewc7Ojv6DB8sdTrSSJElKk+bNAejcob3M0VgekXwFwYo0rFMbgD4DBmBnZydzNDEbOXYcKpWKh/fvc+PqVbnDsSgi+QqClThx9Cje37+TPkMG2rTvIHc4Bpu7cBEALuPHiXUfwhDJVxCsgFarxXnsGACmzZ4jczSxU6ZcObJmz86rV6/YsW2r3OFYDJF8BcEKzJw6FT9fX3LnyUPBQoXkDidWFAoFs+f9DcDs6dPFouuhRPIVBAvn5eXF5g3rAVi/xTrPHLPnzEndBg0IDAhg8YL5codjEUTyFQQLJkkSrs7jkSSJjp27oFKr5Q4pThQKBYOHj0ClUrFx3Tq+fv0qd0iyE8lXECzYnVu3OH3iBA4ODnTr1UvucOIlZcqUdO3ZE4AuYuiZSL6CYKlCQkIYO3IEAONdXbG3gFXL4qtzt+6kSZuWl8+fc+vGDbnDkZVIvoJgoU4eO8bbN2/I+8svVP89YWxOqVKpGOei222jf6+eMkcjL5F8BcFCjRkxHICxE11QqVQyR2M8FStVJkOGDPj4+LB4wQK5w5GNSL6CYIHGjRyBRqOhbPnyVje0zBA79h8AYNXyZQQHB8kcjTxE8hUEC+Pj7c2BfftQq9VWN6HCUDY2NtSs8wfBwcFMHDtO7nBkIZKvIFiYnl27ANC6XXscHR1ljsZ0nF1dUavVHNy/jyePHskdjtmJ5CsIFuTi+XM8uHcPpVLJgCFD5A7HpOzt7Rk5TnfWO2Hs2ES35ZBIvoJgIbRaLZMmTABg+T+WtTWQqdRr0JBMmTLx4P49rly6JHc4ZiWSryBYiM0bN/D+3TuyZM1KwUKF5Q7HLGxsbBgzUTf0bEDvXonq7FckX0GwAD4+PsyYMgWABUuWolQmno9mmbJlKfVbaYKDg1m2eLHc4ZhN4vkLC4KFkiSJv2fNAqBh4yYWvTWQqbi6T0GlUrFk4QIC/P3lDscsRPIVBJl99vRk25bN2Ds4WPzWQKaSzik9des3AGBA794yR2MeIvkKgsy6dtTtStG1ew9SpkolczTyGTtxIgqFgmtXr3Dvzh25wzE5kXwFQUZXLl/mzevXOKVPT/tOneQOR1YqlYrpc+ciSRLOY0bLHY7JieQrCDIa1LcPAK5T3BPU+g1xVbVadRwcHXn+7Bm7d+6QOxyTUkiSJMVYSvsZUIMyhekjMjGNRsO9O3eYMGY0L1++1P+8XIWKjHNxwcnJScbohIRGkiQ+fvjAVLdJnDl1Sv/zzFmyUKBgQY4cOkSmTJnYfeiwjFFaltevXtGkXl3s7OyoU68eu3fs4EeaSpEiBcNGjaZ6zZrY2trKHGn8JKrk+/7dOzq3a8unT5+iLFO+YiWmzZ6dINZOFeQVGBDAxHFjOXzwYLTlNu/YSa48ecwUleXTaDQ0rV+Pt2/eRFlGrbZh+T//WPWiQ4mm2+Htmze0btY02sQLcO7sGTq3a0dQYKCZIhMSopCQEHp17RJj4gVo82dzXr96ZYaorIPzmNHRJl6AkJBgOrZuxbWrV8wUlfEliuSr0Wjo17MHPj4+BpV/9PABc0PHXQpCXCz6ex63bt40qOyPRG3IRWhCd+zIEQ7u22dw+b7duxMUZJ1LUiaK5Hv1ymVehenfNcTmDevxjOEsWRCisnrFiliV//D+Pbu2bTNRNNZj9LChsSofFBTEVLdJJorGtBJF8l2xZEmsj5EkiRvXr5kgGiGhO3XiRJyO279vr5EjsS7v379Ho9HE+rjz//5rgmhMzzr3oY4FrVYb59WSTp84ye+1ahs5IiGh27U9bmewt27eZOLYMUaOxno8e/o0Tsd5fPxIcHAwNjY2Ro7ItBJF8o2rr1+9jBiJkFjEtbsqJDiYPbt2GTmaxCHA318kX0ujUqmws7cnMCAg1sdmzZ7dBBEJCV3efPm4d/durI9LlSoVE9wmmyAi63D18iXWrFwZ6+PUajVJkiY1QUSmleCTr0KhoE7duuzavj3Wx1avUcMEEQkJXccuXeL0fiteshQVKlUyQUTWoUSpUnFKvlmyZrPKJTitL+I4aNO+Q6yPsbGxoVCRoiaIRkjosmWL2xVT246xf58mJA4ODtg7OMT6uFbt2pkgGtNLFMk3d5481KlXL1bHOLtOws7OzkQRCQndyrXrYlW+RKlSFC1W3ETRWI+jp8/Eqnzq1Klp3qKFiaIxrUSRfAEmuk3m1wIFDCrbsk3bWCdrQQircNGidO3Z06Cy2bJlY8nKVSaOyDrY29szbdZsFApFjGWTp0jB/mPHzRCVaSSa5KtSqRhgwELV9vb29O7XzwwRCQlduw4dDVojxHmSmxmisR6Vq1UjnQELXPXs0xe12npvWyWahXW0Wi2N69Xl3Zs3/P2/xXh++sTtmzfx8fEmnZMTxUuWZN/uPZw4dpS6DRriMjnx3nUWjGPO9OmsXbOamrXrULdBfa5ducKHDx9IljQpBQoVJkmSJIwaNhTHJEk4feGi3OFajEMH9jNm+HB+yZePQcOGc+XSJd68foWtnR35fs1P7jx56NO9G1qtlos3blrtUpyJJvlu2biRqW6TyJotG9v37ov0siY4OIhyJUqgUCrZsG07ecRKU0IceX35Qs0qlVEqlRw8foLUadJEWq5hndq8e/uWzt2607t/fzNHaZnKFCuKRqNh7abNUXYVjhw6hKOHDlG6TFkWLltm5giNI1F0O/j4+DB9iu5M9u9F/4uyP8nGxhbnSZOQtFpcx401Z4hCAtPtx9ZAPXpGmXgBtu7eA8CalSsJCEgcG0dGZ+SQwWg0GipUqhztPRq3qdNQqVRcuniB9+/emTFC40nwyVeSJBbMnYtWq6V+o0ZkyZYt2vJ169UnZcqU3L1zh6uX4zYtWUjcXr96yYsXL0idOjXdY9gM0tbWlroNGhASEozLuHFmitAy+Xh7c/TwYdRqNdNmz462rEqlYsjIkQAM7NvHKleES/DJ9/Pnz2zZuAE7OzsGDIl5xSSVWo3btOkADOjTh5CQEFOHKCQwLZs0AWDEWMOunsaMd0atVnP44EEePXhgytAsWrdOfwHQrmNHg4Z5tmjVmqRJk/H08WOD1k22NAk++fYI/YN27dGDVAbuDFumXDlKlCpFgL8/G9b+Y8rwhARm1fLlBAUFkS17dmrUrGXQMXb29oxxngDAhLFj0Wpjv7KXtTt39gyPHz5EpVLRd+Agg49bulo3RG/mVHcC4rCEgJwSdPK9dvUqL1+8wMnJiQ6du8TqWOdJbqhUKubOnBmnZe6ExMfPz49l/1sEwOJYjtv9o149MmfJyqOHD7h47rwpwrNYWq0WNxcXAJb/szZWx+bJ+wuly5Tly+fPrFuzxhThmUyCTr6DQ3eGdZ48OdbDUTJnzkzNOnUA6B569iwI0Zni6kJAQADVfv+ddOnSxepYtY0N4ybozn6HDByQqM5+N61fz8f378mRM2es92RTKBSMc3UFYPGC+Xz1sp6VCBNs8p0/dy4+Pj6kTZuOMmXKxqkO1ynuqNVqbl6/ztvXr40coZCQPH/2jAN7dYuhTw69ZxBbJUuXplTpMgQFBrJ4wUJjhmexfLy9mTnVHYB50YxEik7GjBlp1/EvtFoto4cPN3aIJpMgk6+Pjw/r16wGYOeB/XGuR6FQMGq8MwADrPSOqmB6Wq0Wl/G6kQpjJkyI87qyCoWCydOmoVSpWL5ksdX1YcaWJEnMmaH7omravDmZMmeOc129+/cnSZIkXLpwHq8vX4wVokklyOQ7eeJEgoKCqN+oMfb2sV8lKaxGTZqQImVKXjx7xv49e4wUoZCQXLp4gds3b5IuXTrqN2wUr7pSp0lDg0a6Ovp272aM8CzWp0+f2Ll9Ow4ODvSJxU22yNja2jJgyBAAGv1RxxjhmVyCS74PHzzg8MEDqFQqRhlposTSVbqz6NnTp+HvLwbCC/8JCQ5mROiaIc6T3Iyym8IY5wkolUpuXL/Ondu3412fpeoeOhGlW+/epEgR/9mzTf9sQYaMGfHz82PPrp3xrs/UElTy1Wq1jB+tG3itWxIy5kVNDJEzVy4qVKrE169fWb1iuVHqFBKGtWtW4+vjQ8lSpShTrpxR6lQqlcyc9zcAzmNGG6VOS3Px/HnevHlDhowZaRuH9bajMn/xYgCmT5li8aOUElTyvXblMk8fPyFDxozUrlvXaPUqFAr9OMzlixfz5fNno9UtWLf5c+YA4Oo+NU43i6JSqUoVkidPzsvnz9kZxw05LdnQAbp1LCaFThM2lhw5c/FLvl/x8/Vl6iTL3lI+wSRfjUZDzy66sbwTJk0y+kpHTunT06lrNyRJYuTQIeLmm0Cntm0AqFmnDk7p0xu9/rVbtgIw1c0tQd18mzN9Ov7+/mTKlJlixY2/gPz6rbr/t+1bt+Dx8aPR6zeWBJN8ly7SDc0pU64cpUqXMUkb3Xv3JnnyFFy7csWi/6iC6b14/ozbt25hY2PDlOkzTNJGpkyZqFajBsFBQSwLvZy2dt++fWPTxg0AbNm922Tt9O4XemY9wdliT5QSRPL18/Vl2eLFqNVqnE14qWFjY8PAYcMAaN6wgcnaESzfsAEDABjt7GzSdoaPHoNarWbVsqUJorvLbcIEgoOCaN6ypUm36WrToQPJkifn3Nmz3Lx+3WTtxEeCSL4DevcCoGGTpjg5Gf/yL6yGjRuTOXNm/P392bZ5s0nbEizTvt27eP78OclTpKBBo8YmbSudkxN/dekK6Fbvsmb37t7l+NEjqNRqBg8z7WQIe3t7xodOWR41dIhFLpBl9cn39q1b3Lh+HYVSyYgxY8zS5sJluhEPc2ZMR6OxvD+qYDqBgYHMcNfNyFoRy3UI4qpL9+6kSZOGe3fu8OL5M7O0aWxarZZxI0YAMMl9KrZm2Jy2SrXq5C9YkE+fPnE4HpOtTMXqk++EMaORJIn5/1tstu1EMmfJQsFChfD398d1vGkvOwXLsmbFCry9vSlfsRLZc+QwS5s2trYMG607sWhrpTv1XrpwgZcvX5AlS1Zq1KxpljaVSiUTXHXdkM5mOjGLDatOvju3b+PlixckT57caGMsDbV6w0YA9u7exTsrXUlfiJ3Pnz+zeOEClEolY5ydjTq0LCa/16pFxkyZCAwIYO1q69rpWKPR0LdHdwAmuLmhVJov7eTOm5dKVasiSRLDBg00W7uGsNrk6+vry8ypUwFYvXGjLDH8WJx9kvN4i72jKhiHJEmMG6m7bO7QuQvpM2QwewwrQ7s5Fi9ciJ+fn9nbj6u/5+h2pahQqTLFSpQwe/vuM2aitrHh5LFjfPLwMHv7UbHa5Lt88WL8/fyoUbMmWbNGvzWQqbRo3ZqUKVNy6cIFrl25IksMgnm8ffOGSxcukDJlKrr26CFLDGmdnKhctRr+fn5Ms5LdtX18fFi7ahU2traMC70BZm52dnZ069ETSZIs6qalVSZfLy8v1qxcgVKpYtgo+aZf2tnZ6Ye2WeodVcE42rb4E4CBw4Zib2+caetx4T5zJgD79+zm2ZMnssVhqH6h3Q1Nmzcnbdq0ssXRpUcPVCoVD+/f59SJ47LFEZZVJt/eXXUz2br06EHaWC5abWwVKlWmcNGifPnyhT27d8kai2AaWzdtxNfHh4wZM1KvQUNZY7G1tWXshIlotVpcncfLGktMrl+7xu1bt1AqlQwZMVLucFi3eQsAU1xcLGKxeqtLvh8/fuTxo0ekTJmS7r16yR0OSqVSf/brZuIB94I85oaeba5cv8GsN9mi0qBxI5IkScLtW7e4deOG3OFEaeJY3QiDJatWmfUmW1Ry581Lrty58fT0ZNP6DXKHY13JV5IkGoeu1Tl8zFiL+CAA5MiRUz98ZlCf6LcKF6yLy/hx+Pv7U6hwYVkvm8NSqdS4z9LdxOrVtYtFdndt3bSRN69fkyZtWooVN/9NtsgoFApmz18AKJg51Z1v377JGo9VJd91q1cTHBxMtuzZqVXHshZMdnWfiq2tLWfPnBFDzxKIN69fs2enbl3YVRZwphRWufLlKV6yJIGBgWzdJM9on6j4eHvrrxbMNRHFUJmzZOHPVi0BmOE+RdZRSlaTfP39fFkcunjOomWWt6aura0tvfsPQJIkhvTrK3c4ghH8WJRlkImnwsbVeBdXVCoVM9zdLersd/HCBfj7+4fuyJxF7nAi6N1Pt+XQgb17+ezpKVscVpN8p06ejL+fH1WqV5dljKUh2nXsiFqt5vGjRxw9dEjucIR4uH71ClcuXSJZ8uT82aqV3OFEKmu2bPorwH4yDX/72ZcvX9iwdi0qlYrBw0fIHU6kkiVPTo8+uiFnP0axyMEqku+zp0/ZF7r8nKmW7zOWzTt1Ix6muk2yiDuqQuxpQkIY2Fd39eI6xR1bW1uZI4raj62LLl+6yOtXr+QOh64d2gO65VdTpU4tczRRa9W2HekzZOCzpydnT5+WJQaLT76SJOkv/8ZNdLHoDwJAtuzZyVegAF5eXqwN3ftNsC4HDxzA18eHwkWKULFyZbnDiZZarWbkGN1ehUP695O1D/PVq5e8evmSNGnT0qW7ZZyJR0WpVDJjzlwARg8fhlarNX8MZm8xlq5evsytGzdIlSoVdRtYxxq6M2bPQaFQMG/2LL56eckdjhALGo0G59GjUCqVjJ0oz4ys2GrUrBlJkybl2dOnHNi3T5YYJEmiZWPd8pqjxo6TJYbYyl+wIDly5sLP11d/g9CcLDr5hoSE6Pd6cpnibpSdYc0hY6ZMtG7XDgD3Sa5i3Qcr8mPxlRq1apE7Tx6ZozHcirXrAN0O2wEy7LC9YulSgoODyZk7N1Vr1DB7+3G1botu4sXmDevx/PTJrG1bdPLduG4dPj4+FC9ZknIVKsgdTqz06N2HpMmScfTwYTwsaDEPIWpv377lzMmT2Nra4uziKnc4sZIzVy7Kli+P15cvrFll3lXPfH18WLl0CWCZI5GiY2dnR4dOnQkODsbdzBtuWnTynTNjOgqFAhc361hEJKwkSZPSu79uq5k2zZvJHI1giKGhfaZ9Bw7C3sFB7nBiRaFQMC60m2TZ/xaZdcuhKa4uBAQEUOuPPyxmIkps9OjTB5VKxcnjx7h3547Z2rXY5Nu5XVtAd/mXMXNmmaOJmz9btiRjpkx8+/qV40ePyh2OEI0jhw/z+NEjANq0by9zNHGTPkMG/urSBa1Wy6hhQ83S5pNHjzi4X7dLxEQrPEkC3dnvlBm6Pt+hAweYrZvQIpPv2zdvuHXzJjY2NrjPMH9HuLEoFApmzfsbAOcxo9FoxNAzSxQSEsL0yW4A7Ngrzw0rY+nZpy9Jkibl6uXLfPX6YtK2tFotLqGL+0ycPNlq7slEpvrvv5M9R048Pn7k3L9nzdKmxSVfSZIYFLrmprn2ZDOlvPny8cuv+fH382PmtKlyhyNEYu2qlXz5/JmChQuTJZs8a0Mbi9rGhkFDdWe99Uy8Xc+lCxe4d+cO6ZycqP1HXZO2ZQ7Ok3T9/APMtGCXxSXfA/v28uzpU1KkSEHjZs3lDscoVq3T3YnesWULHz98kDkaISyvz59Z+Lfu6mTqzFkWs1hTfDRu1pzMmbMQGBjI7h07TNJGcHAwIwYPAsDFbTJqtdok7ZhTkaLF9OO6J7tMNHl7FpV8AwICmBW6NdCSBDRBwdbWlm49exEcHMwUV+sYO5pYuLm6oNVqadO+PRkyZpQ7HKOZ979FgG7xGFOs+7Bm5Up8fX35rUwZfitb1uj1y+VH98n2LVvw9v5u0rYsKvmuXbWSr1+/Uq58BXLlzi13OEbVqVs31Go1Z0+f5vbNm3KHIwBfvb5w8tgxHB0d6dWvv9zhGFX2HDkpXKQIfn5+uE8y/rC5RX/PQ6lUWuVIpOikSJGSVm3aANC7WzeTtmUxydfLy4v/LVgAwNiJExPE5V9Ytra2TJ+rm844ZEB/MfHCAvwROhmgz4ABOFjZ0DJD/Jh4sXPbNjw+fjRavW3+1HUH1qxTh3Tp0xutXkvRP3Rj3Pt373L18mWTtWMRyVeSJMaG7gzbsYs8O8OaQ6XKVcidNy9fPn/mxLFjcoeTqJ08fozg4GAyZ85CyzZt5Q7HJBQKBf0GDQZ0i8Ib4wv/xbNnPHrwAFtbW9ymTot3fZZIoVCwfM0/ALg6jzfZKCWLSL4fP3zg4rlzpEiRgu495d8ayJTGu7qiUCgYHjqNVTC/kJAQxo8aBcAUGeb0m1Ortm1Jnjw5F86d4/q1a/GqS5IkhgzQTRwaN9H0N6TkVKRYMbJmy8ab16/ZtmmTSdqwiOTbsmkTAPoPHoKdjDvDmkPBgoWoUq0aAONHj5I5msRp9vRp+Pn5UaBQIQoULCh3OCal22FbN4Z59LCh8br5tmfnTl6+eE6q1Kn5o751LHIVVwqFgnn/+x8A82bPMsmWQ7In3x1bt+p3hm3UtKnc4ZiF8yQ3bG1t2b9nj+z7SCU2Hz98YHvoYipLV5p3DQS5VKpShUKFi+D56RP79+6JUx3+/v7Mmq7rZli2eo0xw7NYWbJkpWHjJgQEBLBw3lyj1y978p0VOvFgSSL5gwIkS5aMdh3/AqBH504yR5O4THF1JTg4mB59+iT4q6wflEol40NHPLiOj9t286uWL8PH25vKVaqQLXt2Y4ZnsRQKBYOGDkWlUrFt82a+G/lESdbk6xq6M+wv+fKRMQGNsTRE7/79UXrUc08AACAASURBVCiVPHn0iAvn/pU7nETh1s0bnD19CqVSRcfOXeQOx6xy5cpN5WrVkCSJAb1jd1/ls6cnyxcvRqFQMNp5QoIbiRSdZClS0L23bkfyH92jxiJb8n337h27Q3eGXb91m1xhyGrV+vUAuE2caFEbICZEGo2G0cOGATBt9myL3xHFFKbOnIWNjQ3/njlj8Nq1kiQxerju/61L9x6kTZfOlCFapC7de5DWyYlPHh7cNeKqZ7Ik37BbA/UbNEiOECxCgQIFyZU7N+/fvWPT+nVyh5OgHTtymA/v35M3Xz4qV60qdziysLGxoXvoxpH9ehq2zc/r16+4evkyqVKlpnP37qYMz6KND12us0env4xWpyzJ9+a1a1w6f57kyZPTqm07OUKwCAqFgtmhE0sWzpuHl9hyyGTGjtCNIx/v4opSKfutDtl06tIVGxsbHj96xAkDljlt96dud99Bw4cnyquFH8pXrEiOnDkJCAjgf/PnG6VOs78LQ0JCGBo6xtXZzQ07Oztzh2BRMmfOQrM/WxAYGMi8WQl7zKlcfmyQWLlaNfIXKCB3OLJbu3kzAO5uk6Lt7tq4fh1+fn5kypyFuvXrmys8i7UydMbgmpUr8PHxiXd9Zk++hw8c4KuXFwULF6ZylcR5+fez/oMHo1Kp2LNzJ1+/irNfY/L39+fwgQOo1WqrXhvamHLlzkO+/Pn57OnJxnVroyw3f/ZsAFaujbpMYpIseXIaNG5MUFAQbhOc412fQjJkzqH2M6AGZQqDKv3q5UXvbl159PBh5I0qFGzctp3cefPGJtYE7Z9VK5k7cyY2trYEBwVFeL1ZixYMHDosQa5BEF8BAQEsmDuXDWv/ifCaQqFAkiQ6dulCv4GJ9/7Cz969fUvDOnUASf9/FJZKrUYTEkLhokX1Z3wCBAYGUrlMaTQaDWq1OsKVg1P69MxbuIjcefPGOCrE6Ge+Wzdu5PfKlaJMvKAb55okaVJjN23VcufRfRFFlngBtm3eTPWKFbh/7545w7J4Tx49olbVKpEmXkCfVIoVL2HOsCyerZ0dSZMnA4h0zQdNaFL5o249s8ZlDbJkzQoQaZeNx8ePtGrWlOmTY17tzahnvju3bWOSgafjqVKnZsvOXaRMlcqg8gnZjWvX6PZXR4MWPrG1s2Ptps0JbsnNuPD4+JFGf9QhODg4xrIKhYI5CxZSoVIlM0Rm2YKDg6ldrarBkwYGjxhBm3bWua+dsTWtX49XL18aVLZhkyaMj2YXbKOd+X7y8GCqm+FbL3t9+YKrc9xm2yQkAQEBDO7X1+AVp4ICAxk+aCBardbEkVk2SZLo0bmTQYn3R/lxI0cQGBho4sgs36C+fWI1W2vezJl89vQ0YUTWYdH8vw1OvAC7d+zg3t27Ub5utOS7bfNmgz8IP5w6cSLR/1GvX7vG9++xWzH/xfPn3ErkC7L7+Pjw+tWrWB3z/ft3du/YbqKIrMeFc+diVT4kJIR5s2aZKBrrsW517HfXcRk/LsrXjJZ8N2/cEKfjbt28YawQrNLShQvidNzxw4eNHIl1WTT/7zgddzSR/78dPnAgTsdduXzJyJFYl+fPnhEQEBDr4169eBHla0bp8w0ICKDib6ViHZgQd4n9LnSDWjV5//693GEIQoz2HzuOk5NThJ8bZ8vReK6Qn5gW6vhZXHcXSOzbEGni0ect3m9xI/7f4nhsFO9VoyRfO3t7HJMkwc/XN9bHukyZQt0EvjBzdFo3a8rjR49ifVy+fL+aIBrrUaZcOfaELswUG0WKFtXvbZYY7dq+DVfn2E8QSJM2LYdOnDRBRNbh/r17tG/ZItbHqdVqnKLY584ofb4KhYKGjRvH6diSv/1mjBCsVufuhi1w8rPqNWsaORLr0rNP3zgdV7l6DSNHYl3qNmgYp+OKFC1m5EisS/4CBbCxsYn1cRkzZ47yisFoN9ziskBOoSJFcHJKeLufxkZcxp2mSZuWUqVLmyAa65HOySnWs/1sbGxp2aqViSKyDjY2NmSNw2Log0KX40zMatWpE+tjRo4eHeVrRku+WbJmpWuPngaXVyqVTJs9J1H3IwE4Ojoyc948g8srFAqmzZqNSqUyYVSWT6lUsn7rtli9f4aMGIGDo6MJo7IOm7Ztj9XKbg2bNCFT5swmjMg6TJw8BbXa8LPfnLlyUaZ8hShfN+r04p59+9KoabMYyzk6OrJi3bpI7wAmRlWqVWfQsGEoY0ioKpUK1ylTKFq8uJkis2xZs2Vj7oKF2BqwMl7n7t1p3rKlGaKyfLZ2dmzdvYdkyZLFWLZKterRztJKbE6dP086AxaUL1ioEFt27Y62jEkW1jl7+jTzZs3k2dOn4RtTKPm9Vk1GO08w6A+f2Dy4f49pbpMjHftcplw5xk10IUMi227JEO/fv8fd1YV/z5yJ8FrBwoUZNXYcv4qlJCPw9vZm2mQ3jhw8GGGdghw5c9J34ECqJvI+8sgEBQUxf+4cdm7bFmGQgZOTE526dadZixYxXl2YJPmCbmjG+3fvePbsKYEBAaROnYYCBQsmmk0L4+OzpyePHz3C18eH5ClSkC9/fpInTy53WBbP29ubhw/u8+3rVxwdk5Anb17SiaurGAUEBHD/3j2+fPbEztaOnLlykTl08RghasHBwTx6+ICPHz6iUirJmj07OXPlMrgrzGTJVxAEQYha4t1PRRAEQUYi+QqCIMhAJF9BEAQZiOQrCIIgA5F8BUEQZCCSryAIggxE8hUEQZCBSL6CIAgyEMlXEARBBiL5CoIgyEAkX0EQBBmI5CsIgiADkXwFQRBkIJKvIAiCDKwm+Wo0Gi6eP4+Pt7fcoQiCbL5+/crZ06flDkMwAqNsHQ/w/ds3Fs3/m1Zt25E9Rw5jVYuPjw+rli1j147teH35wrotW8n3a+LeNl2wHEFBQezavp3bt27i5+dH0qRJKVykCA2bNMHGxtZo7dy6cYMVS5dy9vQpkiZLxslz541WtyCPeCdfjUbDyCGDOXv6NMHBwdRr2MgYcfHxwwdGDBnM/bt30Wg0RqlTEIxp/uzZrPtnDcHBweF+vnfXLma4u9O6XTv6Dx4SrzY2rV/P2tWreP/uXbzqESxPnLsdQkJC6NG5M2WLF+PEsWMR3oDxlc7JiYVLl7H74CGj1isIxjBi0CBWrVge5fs+ODiYNStXMqB3r3i1U6dePbbs2k2nrt3iVY9geeKUfO/fvUu/nj3oO2AA7Tt1MnZMgG5rcEdHR9JnyMCv+fObpA1BiItD+/dz7OgR7Ozt6dC5C2cvX+HK7TscPnWacj9tFf7vmTOsWbkyzm2lSJECe3t72nXsGN+wBQtjlD3cShUupH+8av0GChUubKz4AOjbozsXzp0DEH2+gqw0Gg2N6tQmafLkrNmwEVvbiP26t2/dolPbNuF+dur8BZIkTRqvtn98zkSfb8JglNEOdnZ2xqgmSpG9wQVBDg8fPCAwKIjlq9dE+b4sXKQI411cw/3s+fPn8W47pq3IBetilL9mipQpjVFNlJRKlUnrFwRD3bx+nUFDhsZ4Flu7bt1wW4jfvH7d1KEJVsYoQ83UNjbGqCZKYd7DgiCrWnXqGHSyYWdnR7ESJbh+9SpgpKs38UFIUIySfFUWdjnk5+fH4QMHePb0CSqVikKFi1ClenXUaqMNa441T89P7Nm5E89Pn8iZKzcNmzQx6APp6+PDovnzGTxsGEqV7grg8sWLnD19io6dOpM6bVpThy6EkSYW/9+ZMmXWJ99iJUqYKqQoPXr4gNMnTvLly2fSpE1L5apVyftLPrPHEdb5f//l8sWLSJKW8hUr8luZsgYdd+nCBe7fu0fHzp31P1uyaCEO9g5R3vS/f+8uRw8dQqFQUrtuXfL+8gsAu3fsoHbduibvLo2JfNnIyCRJ4v7du3Tt2IHg4GCyZM1KxkyZePvmDf+sWgXohq+t27KF1KnT6I979uwZ/bp35+PHDz/VqCBX7lw0b9mKFq1bh3vl/L//MnfmDJ48fgzo+uKyZc/Bus2bsbO315fTaDRs2biBGe7upEqdGnt7e759+4afry/uk1xxcHBg2569OKVPH65+Pz8/Ll+8yMSxY/j+/TsAA4cOJcDPj2YNGvDJ4yMA69asYdHyFfxWurRR/g8F4/ry5bP+sZOTk1naDA4OZtb0aWzZsIEkSZKQM1cuFAolL1++YNHffwPQul17Bg8fHq5bZMyI4Zw5dQo/X99w9Tk4OJC/YCHmzJ+PY5Ik4V4b0Kc3D+7d47OnJ6C7EVizdm3GOE8IV+7bt2/079mDhw8ekCZtWiRJ4pOHh/5z2fTPFgwbNQqbMFfQP8qsWLKErZs3Abq+9I6dO3Pi2DGGDRygL7ty+TIOnTipP/7+vbu0b9mStOnS8Wv+/EiSxP69e/D4+FF/TI1atUTyNZbrV6/SvdNfAEyfM5dqNWroXzt66BAjhw7hk4cHzRo04NiZs/qbF7ly5WLf0aPMmz2LNStW6I9p2KRxhJsmP5SrUIFyFSrwR41qfPL4hOsUd2rXrRuuTFBQEAN79+bmjevMX7yEsuXLA7o31bzZs/hn1Sr8/f1pWKc2azZu4pd8ujOS6e5TOHzgAF5fvkRot0XjRvh4fw/3s8kuE9mxd19s/7sEE9Nqtdy4dg2AUqXLmPy+COi+7Af168uFf/8lRYoUHD1zVp9gtVotHdu05v7du2xY+w/Jkieje6/e+mPdpk4jMCCAxnX/4NOnT/qfHzv7b5RXaHMXLOT1q1c0qVeXpEmTcvT0mQhXl8+ePqVF40YUKVaMo2fOkDRpMgC+ff3KX23b8PrVK7Zv2czzZ09ZuHQZNjY2+Pr60qtrF16/fIn3T8sJ3Lpxg5FDBqNUKtFqtYBudu29u3cpWqwYL54/o33LltSsXZspM2aGO3bX9u24Oo+P4/+u8VlWf0E8/Ei8qVKnDpd4QfctlylzFgC8v3/Hx8cnwvH9Bw0mQ8aM+ueBgYExtun5yZMcuXJFSLygS4qXLl5g+T9r9YkXQKFQMGDwEGr8XhPQTVYZ0LuXfrB+j959OHLqNAuWLA1X3+zp06hRsxanLlxkwJAhqEK7IEaPt5w3k/Cfr15e+Pv7AzBo2DCztHnl0kUu/PsvAJ26dQt3ZqtUKnGZPEX/fMfWbRGOt7O3j/C+k0ITXFQ+fNBdMTpPcouQeL29venQqiVp0qZlxT9r9YkXdDfpN2zbrn8fX796lQ1r/wF0Z9sr/lnL8X/PUaRoUf0x/v4BjBkxnHWbt3DwxEkKh77mlD49+QsUAGBwv34AuE2bHiHWRk2b0qpt22h/H3NKMMlXL5JhywqFglK//aZ/fuvmzUgPXb1+g/7x8SNHIlyCheXv54ckSbRo1TrCa8+ePmXvrl1UqlI1ygkiE9zc9I8/eXhw7PBhAJInTw4Q4bgTx44xaNgwlEol7f/qxKETJ9l/7Di/lS4TZYyCfJYvXgxA9Zo1zTYu/ezpM/rHikhuzuXMlUt/ae79/VukdeTKk4e6DRron48eHv0Xx54dO1AqlZQpVy7Ca+NHjSIgIIC1mzZHeqy9vT1NmjfXP/979my0Wi1KpRK1Wo1CoQhX79Mnj+kzYAB5fvmF1KlTs3LtOnbu28+Offv1Z+c/vgwCQr/4fmZJMwUTXPLNmClTpD9Pk+6/GyWeHh8jLZM6TRry5MkD6PrOjhyKempz7+7dsLe3p3mLFhFemzXVHYDaf/wR5fEODg7hnp86cTzc859HkGzasTPc85SpUpmtH1GIvU0b1uPg4MCESW4xFzaSwkX+m9xUqHCRSMv8ODuNbjmAnn376R+fOnEiynLfv3/nwL69NGvREkdHxwivnT19CtDda4lKqd/+u18hSZK+K+GHZKEnIwBZs2Wj9h/hrzKzZMsWru82JPT36hnmxlxYqdOkoVCRyP9vzC3B9Pmev3adk8ePU7N27XA/lySJkJAQAv0D9D8LDg6JtA6FQoHb9Bm0bNIYAFfn8dRr2DDC5ZQkSdy+eZNyFSroRyD8V3cwF87rZh+NHTmCsSNHGBT/06dPwz1X/VTvz8lasFztW7UEYNbff0dISqZU64+6ZMqcBQdHB3LnyRvuNUmSCAgI4MeE1ugmtmbKlIky5cpxMfR9PMl5PGMnukQod+HcOSRJonnLlhFeO33ihL6NsDNgY3L75k2Klyypf24bZmW4FClSRHpGH5ZjkiT4eHtz795dGv1RhzUbN5E8eXL9cQqFglXr1hscjyklmORrY2MTLvFKksSL589ZvGA+x48eJclPd2qjkit3bnLmysXzZ88AOHPqVIQ+5I3r1gGR9yuFPaMY7+IS5RnIz1Q24f8UYkSndbp4/hz3796ldfv2Bg+jMqafz+oCAgK4eP4809wm4evnZ9C9DIDhY8bSvEF9JEni4IEDDB8zNtyNN61WyxQXF37Nn5/coVeLYd27c0f/ePNPV23RSR/mvguAIpbDWCtUrsyhfbob0G/fvKFGxQpUqlKFISNGkiVr1ljVZWoJJvn+oNVqOXv6NHNmTOfD+/c0bNKE/UePsW3zZpb+b1GMxysUCgYNH0H/nj0AGD5oIJdv3Q5XZs3KFSRJkkTfPxuu/TDLX6ZMlZpckbwxhYTJ4+NHhg4YQNXq1Rky3LArHlPx8fFh3erVLF+ymJy5ctGjb1/qNWhItQrlo72X8UP27NnJnTcvTx49IsDfnyWLFtJ3wED96589PfH2/k7LtpH/nh8+vNc/NudnwM19Kl8+eXL50kX9z86cOsWZU6eoWLkKg4cPJ1v27GaLJzoJqs/39atXtP2zOYP79aVqjRqcOHeekWPHkTZduljVU7ZcOf0fSJIkjh05on/t4YMHfPLwYPb8BZEeG/bM9/3bt3H4LQRr5O/vT/dOf1GkaFGmzZ4jayxrV62iVpXKrFm5grmLFrFpx04aNm4SoSsrJlNnztI/3rpxI4GB/3XdjRs1kqTJklG3fv1Ij/WP4oaXOSxavpwJbpOxDzPmHuDs6VP82bgRm9avkymy8BJM8j198gTNGtTn8aNHzF+8hP6DBsd5ELVSqaRrj576524TnPWPly7SnT1HNWMp7EDxM2fEdi+JgVajoW+P7iRLnpzZCxbKtgCORqOhV9cuzJk5g5QpU3L87L8RlriMjew5cui763x8fNi2+b9RC1cuXaJi5cpRJvSwn71PHh5xjiGu6jdsyJHTpxk4dGi4v4cmJITpU6awd5fhXSGmkiCS77evXxncrx9arZZGTZqGG1cbV3/Ur68/Y/7+/TvHjh4lICCA0ydP0rpd+yg/YGFvwF3491++enkZ1N7C0NlHgnWRJIlB/fri8fEjK/5ZK+sKfFPdJnH5ou5ye+W69eFmW8bV1t179I8XzJ1LSEgwG9euBWD0eOeoDgs36qh3N8OGd718/tyoO3Y4ODjSruNfnL18hao/3bdxGT9e1rNzSCDJt0/3//64DZo0ibH8z8NZIqNQKOgc5k0zf9ZMdu/YgVariXZh658/fPNmzYr2zjLo7hq/e/smxpgEyzN66BDu37vH9j17w131RMbXgL7WuPLz82P7li0AOIRuQhAdQ5bxBkibLp3+7DcwMJATx46zeOECUqVOHe1IjsJhJkc8f/aUD+/fR1n2hxFDBkc7LM0QHVq3ivC72draMmPOXFau/a+7QavV8u6NvJ85oyRfrTbML2vgHzU2YqrRM3RuOUBgQMzfZkFBQQa126J1G30yff36NXNmTCffr/mjfWOr1Wp+r1VL/3z3zh3s27MnyvL+fn6MHTmCuvUi7zsTLJfz6FFcOH+enfsPYBPDGa/Hxw/UrlbVZLGEnVSgCdHEeIIhSZJBCVihUDB7wX/3NyaMGY23t3e4/uDIVK1eI9yXUatmTaPtfjh25DCvXr2KtsvGkMzy9MmTKF8rXLQo9Ro21D8PkXlvSKMk37Ad8Rqt8X8hTZhxuUGRDJUJ+wf78e0f1quXL9m3Z7f+uWfom+Dbt2/6xXGiEnbAeVBQED379I6mtM7PmyZOGDOaSc7jI3RBPH74kDZ/NidVqtSUq1gx3Gvanz4Yhp6pCKYnSRLjRo7kxLFjbN29B6VSSUBAQLh//v7+fPv2jRfPn7Nh7T80rls32st0g9oNTaiRTfkNOyQrKCiQF5Es3r5h7Vr8/fz0z3+ciR87ciTaZF2kaDFSp9EtRvVjqFqJUqWijdXR0THcTDkfb2+aN2zAof37w7UVEhLCpvXrGD1sGBPd3CIkX22YfKIJMSy3rFy2NMrXatb5b+JTqlSpDKrPVIwy1OzL5/9Wb/Lz9YumZNy8DzNs5dHDh+EuaQBK/vYbB/buBXRvpL9nz6Zn3774+/szf/ZsDuzbS6nSpXkXOvpg184dlK1QAfdJrhHmsv+sQ6dOzJulW6AjabJklDXgBkamzJnpM2AAC+bO1f9s5/bt7N65kxw5c+KYJAleX77w9s0bVGo1m7bviDB4/OcvGT8/P1KkiHwbJ8F8tFotwwcN5ORx3YzE2JzNRjUywBCfPT31X8ABAQH6abg/JEmSBIVCoS/TpX075i9eQoFChbh25Qqzpk3DwdEBWzs7AgN0J0srly7B1s6eyxcuUP3336NsW61WM2jYcMaFThj6q2tXg2IeOXYcZ06e5EvoIlG+vr6MGTGcqW6TyJItG5Ik8erFC3x9fSlRsiTVQ9c7+fn3/sErzCpx0Vk4bx7lK1Tk19D1HsI6f/YsoJtZF98ujviK95nv2VOnwn2TuU+aZPBAbkM8efyYJ48e6Z/Pmj4twrf0uJ9m36xesZwKpUpSvUJ5Tp08wZ5Dh/m91n8TMHy8venXswcjx441aOD1j7Pfho2bxHh5+cNfnbtEWGdUq9Xy7OlT7ty6xdvQ/qZFS5eRI2fOcOUkSWLlsmXhftasQX2j7xAtxI4mJISuHdrrE29s5M0Xv3V0p02Z/F8cGg1zZ4VfscvW1pZxLv99Dry9venYpjVlixejR+dOVKtRncUrVobrp129YgV7du7g78WLY5w5VrN2bf3KbB06RT5192c2Njbs2H8gwpCv79+/c+/OHe7fvYuvry9Zs2dn3qL/RRg58f37d7Zt3ap//uHDBxbNN+zGdMc2rVn2v/+F+9mZU6fYtH4dadM5MX3u3Bh/Z1OL8waatatW5fNnz6iPQffNF9nUQ0PFNC3x/LVr2IROP9RoNFSvUD7cTY3+g4fQ/q+/UCgUaDQa6taooY/50ImTBi+MfeTgQUYNGxqrY0CXRN++fUuz+vXQ/NS/lDJVKg6fPBXhMqtTu7bcjmLhH9BNnzx94WKUrwum8/jRI1o3axqnY9du3syv+SOeicXk56VOf1apSlVmz58P6N5v+/fswXnMaP3rDo6ObNu9h3ROTigUCm7fvEmndrqVvcpVqMC8Rf8zOAk1rFOblClTsnrDxlglLq1Wy9L/LdIP0wyrTfsODBo2LFx9vr6+VCkb/YJRHbt0od/AQRF+XuG3UlSqXJmjoQtVRfgdGjdhnIuL7IkXjLR7cUJXplhR8v2anzUbN8arHj8/P5RKBfb2Yp0Gwbr82JF56erVFC9RMuYDoqDVavn+/btB6zQYy7dv30iaNGmsJ5mYWoKbXmxsXz5/RqPR0KNvn3jXZc5FVgTBmNb/8w/JkiencJGiMReOhlKpJKUZFpYPy1LvlSSIcb6m1L9XLxwdHalQsZLcoQiCLL5+/cqRgwdo0669rPsgJjQi+Ubj2bOnPHxwn9btO8gdiiDIQpIkpk2ejEqlonmrVnKHk6CIr7FQrZo24f279yRNlpQu3XuQNFlSJowZgyRJ9OwT/y4HQbB0L1+8oHP7dmi1Wn7Jl4/Bw4ezZOFCTp04QZPmzWUfF5vQiBtu/LfBZmR2HTxI5tD93wQhIatctkyky02mT5+BfUePyhBRwia6HYC8v/wS4c6rg4MDC5YsFYlXSDTKV6gY4WfZsudgb5glVQXjEWe+ofbv3cu6NasJCQ6meImS9OrXzyzbfQuCpQgODmayy0Ru37xJylSpqN+oMY2bxm1csxAzkXwFQRBkILodBEEQZCCSryAIggxE8hUEQZCBSL6CIAgyEMlXEARBBiL5CoIgyCBBJd/g4GCWLlrEtatX5Q5FEGTz6uVLJk2YILaesnDxSr47tm2l4m+lKFW4EKUKF6JZg/o8DrPrhLn4+fnxZ6NGlCtRnMULF/D65UuzxyAIPzt/9iwdW7fWfz56dzdsC/W4Onn8OGWLF6Np/Xrs3LY15gMEWcVpYZ1nT57QoU3rcDumgm5hjtbNmpI1e3a27tpt8sWLX754Qa+uXfD18THpttyCYCjPT58YMXgQN2/cIFmyZNSuW5e5CxeS0oSL0sydOYNd27fj4+MT467FguWI9Qy3169f0bxBAyRJ4pdffyVlypR4eXnx6MGDcJc5v/z6K+u3mPbbV6vVolAoUCgU4bYcGjfRhUZiWqRgRlqtlrWrV/P37FlIkkSLNm0YPmp0zAcaQVBQELa2tly5fImenf/bX+3yrdsWsV2OELlYdTuEhITQo1MnSpcty8HjJ1i7aTPzFy9h3eYt7Ni3n2zZs+vLPnrwgPt37xo94LCUSqX+zZUjVy6TthWVqZMmydKuYDmCgoIY0r8f82bNRJIkFi5dZrbEC7rNMwFy585jtjbD8vb2ZsXSJbK0bc1ilXwPHThAvl/zM3fhIlKnSRPutSxZs7Lin7XYO/y3P9nq5ct+rsJkMmTIYLa2fvD68oVtWzabvV3Bcmg0Gjq3b8eZU6cAWLl2HaXLlpUlFrufdgk2l+WLF/Pm9WtZ2rZmsUq+z548YcbcuRF23P0hZapUlAnzxvvu7R2/6GJBjv3RFsybZ/Y2BcvS5s/mPLh3D4AJk9woXDR+e5zFR1SfS1MKDAhg66b4bSybWMXqr9Vv0KAYb6KV+O03/eNKVarELao4UJl5b6lvX7+KO8qJ3IK5c3n6+DEAZcqVo36jRrLGY+7kKH4ZHwAAEWNJREFUK0kSkyY4ExAQYNZ2Ewqj/7UC/HQjIFQqFa3btTd29VFSYL4bC56entSoFHHhaSHx8Pj4kVWh3WpKpRJn18TV9y9JEpvWr+PAvn1yh2K1jH66ePXKZQBGOzsbu2qCgoI4efwY587+y4f373BwdKR06TI0jMPIhq9fv3L86BGuXLyEp+cnkiRNSoGCBalUuQq/FigQ5XHXr16lX88e+ueSJHE9zKQOhVJJseLFwx0TGBjI7h07uHj+HN7e3mTNlo0y5cpRtFhxHt6/j0ajoWqNGrH+HQT5DBs4QD+6p0SpUjilT2+2tl+/esXxo0e4df06Pr6+ZMqUmd9r1+K3MrHra5Ykibu3b3Pq5Ake3L1HcEgw6dNnoFTp0lSpVo3kUWy5LkkS8+fMZvWKFfqfffb0DPc5SJ8xI5kyZQp33MMHDziwdy+PHj5ApVJRqEgRSpcpS67cuZk+ZTLjXFyxs7OL1e9gzYy6mLqXlxf1av5Oo8ZNGDF2rJFC1Dl25DCu48fj4+NDm/YdyPdrPh4/esym9etQKpXkypNHP7oipqFm7pNc2bZ5MxkzZaJh4ybY2Npy/NhR7t66BUCx4sVxnzWLtGnThTtu4d/zWLEk+ru6tra2nLt6Tf/80cOHdG7fjtSpUtGxazdSpEjO82fPWLNiBf6h46RHjh1H85Yt4/T/Ipjf40ePaN3sv/fXpu07yJ03r/75Jw8PbG1tTbITyujhwzl8YD9ZsmalZZu2ODg6cmj/Pi5fvEihIkW4E/oehuiHmr17+5bhgwby4P59qv1ek5KlSvLxwwe2bdmCn68varWaTl270SOSzWPr/l4Dj48fo42zc7fu9O7fH9Al61nTp7Hhn3+o36gR5cpXQKPRcOb0KY4cPKg/5uzlK9jLdNNQFpIhNJ6SpPkabZHg4GCpbYs/pTkzZkgajcagag21ddNGqVThQlL5kiUkT0/PcK99+fxZqla+nFSyUEH9v53btkVZV9sWf0olCxWUFv49L0KcF86f19dRpWwZ6cP7d+FeDw4OlgIDA6XAwEB9ud+KFJb8/Pwkfz8/KSAgQAoMDNSXDwgIkCqXKS3VrFI5Qlv+/v5SzSqVpJKFCkpbNm6M63+NIAPnMaP1f/9yJUtIGo1GWrNqpdTojz+k0kWL6F+rUbGCNNPd3Wifh2YNG0glCxWUnMeMlkJCQsK9durEiXCfgZKFCkparTbSel6/fi2VLV5MKleyhPTs6dNwr/n7+Un9evbQ19GlffsIx//4DBw+eEBfbtyokbrPgb+/FBAQIAUHB+vLH9q/TypZqKC0feuWcPVotVrp2tUr+jr8/f3j+l9jlYzS5+v15Qu/V6rIg3v3WLdmNWOGDzNGtQA8ffyYKa6uSJLExm3bSPPTELdUqVOzZddug+oaNXQID+7dw9bWll59+0W4QVG6TBmGjhwFgI+PD03q1SMkJET/ulqtxtbWVj+u8gcHBwfsHRyws7ML99rKZcvw9fVl0LBhEdqyt7dn35FjBsUtWJZjYTaUTJokCRV/K8WqpUv5s1VLxk6cSNZs2QBd19b6tf9Qv1ZNgoOD49Vm/149efHsGY6OSXB2nRThxnelKlWoXbeeQXU1qVeX4OBgRo0dR86fxsfbOzgwe/4C0jk5AXDj+jXcXFzClfnxGVCHucmtVqt1nwN7e+zs7MK9NmbECNQ2NjRu2ixcPQqFguIlStK5m2mnXVuqeCXf3Tt3Ur1CeWpWqYyPjw+gm+lz5NAhKpQqSVBgYLyC02g0dGjdCoDKVauRNXuOSMulSZs2xpk8d+/c4cihQwCsWLs20jIKhYLmLVuSJEkSQNfHPMPdPa7hc/vmDQBOnzgZ6es2NjYUL1kqzvUL5vfi+XP8/fz0z7WSxIZt2zl29l/aduhIg0aN2bFvP6s3bNCX8fj4kXYtW8S5zXNnz3Lu7FkAdh44EOl7XaFQ8FeXzhF+/rMuHdojabUkS5aMBo0bR1pGpVIxxnmC/vmOLZvx/PQpjtHruh1CgoP58P59pK+36dAxUc7Ei1fyLV+xInMXLaJNu/YRbjgEBgbSsU2beAV3/ty/BIYm8IZNmkRbttRvpaN9/X8L5usf58n7S5Tl1Go13Xr11j+PzxhGjUYDwJFDB3n44EGkZQYMGWLyNTAE43n9+lW450dPnyF7jognBQULFaZnmP7Sp48f8/jRw1i3J0kSc6ZP0z9PnTp1lGUzZcocbV1+fn7cvnlTVzZLlmjLVqxcmZRh+qynT5lsSLjRGj5oYLgvrh9SpkxJseIl4l2/tYlX8k2bNi2FixRl8IgR7D18hBFjx4a77H786KH+GzsuRg0Zqn+cO0/0UydTRfOm/Pb1K+fDxBHTeMjyFcMPI7t+LW5LVObMlVv/uF2LP5kzY4b+CuGHQoUL06R58zjVL5jfJw8Pg8u2atsOGxsb/fM+cbi8fvrkCc+ePQOif48D2PzUHfazNSuW6xfeyZ4te7RlAQoULqx/fOnixRjLx+T+vXs0bVCfUydORFjucunq1YnrZhtGHOerVCr5s2UrVq5bFy657dy+Lc51+vv/9y3583Tm2HgZyyUmc+TIEe5Ds3vHzji127l7N/0HQpIk1q5exR/VqzF98mT9Gb1gXby/Gz5rM2myZFStXl3/3MvLK9btXbtyRf/411/zx/r4sC6cO6d/nMqAz1P9hg31j72/f+fjhw9xard7mCvJTx4eDOnfjxaNG3H86JFojkr4jD7JIt+v+alS7b833Mvnz+NUj/dPU5PDJsPYev0qdslXqVLhFGatiGdPHsep3XTpnFi7aXO4LyN/f382bVhPtfLlcBk/Lk71CvKxi+Hs8mdly1fQP/75bM8Q10LHzQM4JonfFPrPnz/rH2s0IdGU1ClWLPx49S9fvsSp3W69etGu41/hfvb82TOGDxpE3Ro1wn3BJCYmmY/oPnOm/nFgUFCc6njzKnzfWlAc6wEi7WeKSbKkyfSP45P4c+fJw8UbN6kS5gwIdL/P7h07qFKubLx+N8G8UqdNG6vyuXLnjrlQND6EOdv8Houz7siEhBlx8cGAs9h0P93HUarili4UCgUDhgxh94GDJEmaNNxrHh4f6d7pL2ZOmxqnuq2ZSZJv2BtI/2/v3IOiuu44/r0rzoKyFJXEQlDxAawPUBOGKCEimCagFQQ00dTwVLBEtKVOUzONj0pm0IREQVI0UAIYYiwjGVA0NqkgiYCARcAgJoCACEhSWEPYZXe7p38Ay73LvhldkfP5a8/Zwz2H3bO/+7vn97KysjLqGmaTucF33TqcurUx7DYzjGLIEKYN9v/wrNvYPBIYhkHisSQUlZbBfcUKjib8S18fgn7LdWmjPL7Y2toaNJ59TmuMRd+MtQ+/q6s1+O/ZWLAyDnZp8Dxgo7peO1s7DSN1wzAM7OztUVxahqS/p2KGyk3ss+xsnDk9sRL0PPRMHLoMZZqY4zCX077doL+lmBBuNn9VK3DLnTs6ryEZGEkWsvG1zXrPzaars5NTWcDS0hIffZyGnNxc2M+apezv7OhAYUGBUXNQHi2OTk4cH9Y+HZn72DdaYxLfzGIZxsZareXXLOHZ1albmWE/kdk98wwERipSqkZKD09PfHm5CDG7dnE+kyPvxuulGD0pPHThGxhsnCVfNZDBkLy5cpUvcLaDAydm/IAeoc9sv0Zj4/YT4uM552zDLHB0Qt75Qs4jaVVFxahxlMcPcwsLeHl7K9tpqalax/ewzklDIyINnm/FCx6c9lhqJLJD7h88EKGutkbLaOD2rXrl61WrVxs9b8hm9cpLxPYoZJ3+nKNhKyZQ0c+HInybh1xj5jg4wHXZMqOvI1w4Yt29XlmJH/TceDKVM1Q+n4/XQ0KU7frvbmo1fnR3d0PU2wsA+H3sLq1zKRQKpT+vOq6VlartZxgGmTmfsTq0TkN5jGDvibO5/9Q69mZdnfL1jp07DZ5L1X99R0S4wdcY5mU/X1iw8l5/8rH2YgeF584BGPR9j44ZneOBY0juF496f5gff9QcoCFcuFCnD/+TikHC939yOdpUDGHqiAoPA8MwyDj1qdELA4DjqSc47ZAtWzSGaVZVjVhMO9ScZ22L3gGBYMSItvvNmFFjhin+92DYL4/HQ2i47s3e3NiofP2vixdRU12tbB/av1/jeS678oDrUuNvUpRHi8PcufBdNxjK29/fj3INN1gAODv0xPbOgYNGHTvMsLGBf+CIxioSiRAXG6t2bGfHPU5bVcFgGB4OsSI2i4su43aD+uAfAPjq0iUAwNr169UeOQgEI33XysqU8xFCEB0RoTxyI4Ro9eyZxyp/NJEi3fTeDYQQPL98GQLXrYWbyxIc+yARAwMDnA+8v78f/n6+EPX2ouDLSxpT0umL9fTp+AMr0EIqHcDKZ5ejvKwUUqkUMpkM3ffvw9tjJR4MaaoAkJOVhdKrV3GCFdXG5/ORmv4P5Zd7taQEhQX5ozbo/a4uJMTHg+Hx8HneFzDT4OnA/iHtfjMGra2tSD95AocO7Odo+3KZDFuCg9RWlR0Ot5xqaUkLfo4z4hMOKw25f4mLG+WxQghB/hd5+OH77/GcuzsCgoPVXUYv/nrgAGxYBqorRZfxaoA/ent6IJPJIJVKcS4/HxtZfrkAsCU4GNcrK5HBqq+22tsHz69cqVzjtpBQ9PVxz60JITia+D7++9NPsLKywr6/HVK7LrbvvUjUi9Tjx9HefhevbQiA9xofzm8kPy8PV4qKRv3eCCH4tuQKAOCNsPAJFe1pQEpJBm5LV416y0koxLz583H71i00NTZigeN8pGVmwlLFpWQsJB39ENkZWWqPChiGQURUJNpa2nDp4mDuhkmTeHAWOuOdgwfh6MQNJb5RXY2d0TsgFg8a1F708kJkVBT4fHNUVVbg/YQEWE+zRsqJVDgLhRrXdK28HDHbozl9FlMscPHrrzF1yB/zj7G7UFI8uLEEAgESk5Ph4DAHPB4PTY1NiAoPh0BgicycTznFRynjh1cDA9HU2IwZNjb4ICkJ9rPsMTAwgDOnzyAzPQ0vvbwG7x55D7wxanRiiQSbg4LQfvee2vetrARIz87CpoBATt+a37yEPXv3cvyTCYB9e/fiwvkLyr639+3DEldXSMQSpCQdQ1VFBdzcn0NqWrrWdYX9bivqaus4fZ5enjiaPKL4uLmOKCPr/P0RGbUd1tbWEIslyMzIwJmcHLy4yhOJyclj/pzGE3oK3x6AiHCrvhHHPvwEzc0t6Pt50PI6ZeoU2No+jSUuQgRv8sO8edpjxo2ltqYBH6Wcwo3/1EEqlcHcnI9ly10QuzsUzsK5ePutw/j2myr4b3gF4ds2Yfo0zZZZBSFIST6F4stX0drSDoVCgcmTzTB/gQNe8fPG61vXY5Iej4jflFQhMyMXP/f9AhcXIf705+0w549oykcOn8Ts2XbouNeNmpp63GluU0ZIPT3zKXj7eCBuT8SEuts/aRACFJ4vwtncC2hqbIFUKsW06dZYvNgZIWFBWLzEUfdFDCA9LRfnC75CW+tdEALMnPkUvNe8gLg9kZDL5fBwD4TzwgXY+kYgfP28oE2W1dc3Ie3kadyovoneHhEAwHrar+C6dBHCIzbCxdVZ53qkUjlSkrNRXnodU6ZaYEOQL/wDuD7tEWFvYe06H1yvrEVDQyPa2zsgl8nBm8TDokVOCA3fCG8f0xQdNSX6Cd/HDIlYzKmSDAwm8jEzMzNYkCkUCkilUvD5/Edy3iSXy0AURGccPoWiDblcDkIIJwCIEAKJWMwxqumLTCYDIWSUl9HDQiIRg883n1BnvKqMS+FLoVAo451HX2uaQqFQKFT4UigUiimgwpdCoVBMABW+FAqFYgKo8KVQKBQTQIUvhUKhmAAqfCkUCsUEUOFLoVAoJoAKXwqFQjEBVPhSKBSKCaDCl0KhUEwAFb4UCoViAqjwpVAoFBPwf+wLntkQhiQ6AAAAAElFTkSuQmCC;" vertex="1" parent="IAqKqDlb5OC1OfE6rR6O-2">
                    <mxGeometry x="550" y="80" width="188.37" height="139" as="geometry"/>
                </mxCell>
                <mxCell id="IAqKqDlb5OC1OfE6rR6O-12" value="" style="shape=image;verticalLabelPosition=bottom;labelBackgroundColor=default;verticalAlign=top;aspect=fixed;imageAspect=0;image=data:image/png,iVBORw0KGgoAAAANSUhEUgAAAokAAAF/CAYAAAAl9FO4AAAgAElEQVR4nOzdZ3xU1brH8d/MpEIoCYQuSIfQe++Q0IuAFAER6UrvJbTQe1d67yi9gwhKURRRUEAQkV4T0ifJzOz7YgJXPJQkzJ49kzzfN/fzOe611//kemae2XutZ+kURVEQQgghhBDiX/RaBxBCCCGEEI5HikQhhBBCCPE/pEgUQgghhBD/Q4pEIYQQQgjxP6RIFEIIIYQQ/8MF83WtMwghhBApSkxMHCaTCb1ej7uHO3qd1omEAAx5gf//l9EFQz7twgghhBAphNls5uSJb5k3azZ3bv3z4j9PkzYt3Xr05IMPP8TDw0PDhCJFe8VDQ530SRRCCCHUFRIczGfdu/Hn1auvvcbNzY2lq1dTtFhxOyYTIp75+v88SZQiUQghhFBRVGQkLZs24fGjR2+91mAwsGbjJgr5+dkhmRD/8ooiUTauCCGEECoaMqB/ggpEsL6S7vdZb+T5jXAEUiQKIYQQKvrhzJlEXf/0yRN2bN+uUhohEk6KRCGEEEIlm9avT9K4IwcP2DiJEIknRaIQQgihkn27dydp3LVr12ycRIjEkyJRCCGEUElYWGiSxsXGxNg4iRCJJ0WiEEIIoZKSpUolaVymzJltnESIxJMiUQghhFDJZ/36J2lc+YqVbJxEiMSTIlEIIYRQSeYsWdAbDIkbpNPRsXNndQIJkQhSJAohhBAqWrV+Q6Kub92mLVmzZVMpjRAJJ0WiEEIIoaIiRYsyfHRggq6tVbcuw0aNUjmREAkjRaIQQgihsqrVq6HXv/0rt0nTZnZII0TCyNnNQgghhMr6fdabUydP0r13bwLqN+DPP69y9/Zt0nv7UMjPD6PRSNdOHUnt5cWJM2e1jitSolec3SxFohBCCKGif27epGWTxnh4ePDNqdO4ubm98rqm9etz7+4d2n7UgcHDh9s5pUjxXlEkyutmIYQQQkWd2rYBYOTYsa8tEAF2HbAexbd18yaePXtml2xCvIkUiUIIIYRKvjlyhMjISPLmz0/Dxk3eeK1Op6N9x05YzGYmjRtrp4RCvJ68bhZCCCFUYLGYKV+iBDqdjnVbtlCosN9bxxiNRupUrUpMjJE1GzdRpFgxOyQVAnndLIQQQtjL2JEjAShXoUKCCkQADw8PxgQFATBq2FDMZrNq+YR4GykShRBCCBt7/OgRh+LXGM5ZuChRY+v6+5M7b17u3L7Nqe++UyOeEAkiRaIQQghhYyOGDMZisdCrT1/c3d0TNdZgMBA4bjwAA/t8rkY8IRJEikQhhBDChk6f+p4L58/j7u5Ol27dknSP4iVLUrlqVQCmBE2wZTwhEkw2rgghhBA2EhcXR4tGDXlw/z5LVq6iTLlySb5XaGgoAbVqYoqL49h335MufXobJhXiP2TjihBCCKGe3Tu+5sH9+/gVKUqpMmXe6V7p0qWjTfv2gPXEFiHsTZ4kCiGEEDYQFRVF7SqVMZlMbNm5k7x5873zPRVFoVxxaxucL5Ytp1zFiu98TyFeSZ4kCiGEEOoIChyNyWSicbNmNikQwdpge82mzdb7S4NtYWdSJAohhBDvyGg0cuTwYdzc3Bg5xrbFnF+RImT09eXe3bts27zZpvcW4k2kSBRCCCHeUYuGDQHo2qPnG89nTgqdTsfKdesBmDVtKhHh4Ta9vxCvI0WiEEII8Q5Ofvstjx8/Im26dHTp3l2VObJlz07jZs0wmUwsnj9PlTmE+C/ZuCKEEEIkkcVioX7tWgQ/far6WcshwcE08q9HbEwMR06cxNvHR7W5RAokG1eEEEII21myaBHBT5/yfp48qhaIAN4+PnTt0QOATzp8pOpcQoAUiUIIIUSShD57xqrlywBYvWGjXebs/GlXMvr6cuf2ba788Ydd5hQplxSJQgghRCIpisKMqVOwWCy079gRLy8vu8yr1+sZMyEIgK4fd0JWjAk1SZEohBBCJNKNv65zcN8+PD096d77M7vOXblqVXK9/z5Go5GlixfbdW6RskiRKIQQQiSCxWJhUN++AAwaPtxuTxH/beX6DQCsW7Oa0NBQu88vUgYpEoUQQohEOHv6NHdu3+b93Llp0qy5JhnSpUtH0xYtMEZHM23SRE0yiORPWuAIIYQQiVChZAnMZjOr1q2nWMmSmuWIjYmhctky6HQ6NmzdRoFChTTLIpIBaYEjhBBCJN3EcWMxm834FSmqaYEI4ObuzuQZM1AUhdEjhmuaRSRPUiQKIYQQCRAWFsaenTsBWLZmjcZprOrU8ydzlizcuH6dH86e0TqOSGakSBRCCCESYOiA/pjNZtp89BHu7u5axwHAYDAwfvJkAPr37o3ZbNY4kUhOpEgUQggh3uL8Tz/x048/YjAYGDJ8hNZxXlK2XHnKV6xIXFwcS6QljrAh2bgihBBCvIHFYqFlk8bcvnWLRUuXUqFSZa0j/Y/Hjx/TxL8eJpOJM+d/wdXVVetIwtnIxhUhhBAicQ7u38/tW7d4L2dOylWoqHWcV/L19aVRkyYAdO3YUeM0IrmQJ4lCCCHEaxijo6lavhwAm7Z/Rf6CBTVO9GblSxTHYrE4RVbhYORJohBCCJFwC+fNA8C/QQOnKLqmzpoFwPAhg7FYLBqnEc5OikQhhBDiFSIjI9m8YT3u7h4MHuYcfQhr162Hb6ZM/PP33+zesUPrOMLJSZEohBBCvELHNh8C0KHzx/hkyKBxmoT7YvlyAObOmklkRITGaYQzkyJRCCGE+I/z537k1j//kDZtWnr06q11nETJ9X5u6vj7ExEezoplS7WOI5yYbFwRQggh/qN+rZo8efKEJatWUaZsOa3jJNrTp08JqFkDgMMnTuLj46NxIuHwZOOKEEII8WYrly3lyZMnpEuXzikLRIAMGTLQtWdPAPr27KFxGuGspEgUQggh4oWFhbFyqfUV7Z7DhzVO82669eyFt48PVy5f5p+bN7WOI5yQFIlCCCFEvHkzZ2I0GmnaogWpUqXWOs47MRgMDB0xEoCPWrfWOI1wRlIkCiGEEMA/N2+ya8fXGAwGBg4ZqnUcm6hXvz7Zc+TAaIxm3erVWscRTkaKRCGEECmeoigM6tcXgCEjR+KVJo3GiWxn1fr1ACxZvIi4uDiN0whnIkWiEEKIFO/an39y88YNMmXOTMvWH2odx6Z8MmSkfMWKGKOjmTAmUOs4wolICxwhhBApXtliRQFY8OWXVKpSVeM0tmcymahcpjQWi4Wvdu8hV+7cWkcSjkZa4AghhBAv+2LBAgCKlyiZLAtEABcXF4bEb2KZMG6snOssEkSKRCGEEClWZGQkq1csR6/XM33OHK3jqKrZBx/g6+vLr+fP8/O5c1rHEU5AikQhhBAp1vDBgzCbzTRs0pSMvr5ax1GVm5sbgROCABg6oD8mk0njRMLRSZEohBAiRfrj0iXOnjoFwJgJEzROYx+VqlShVJkyhIeHs23zZq3jCAcnG1eEEEKkOIqi0K7lB1y/do05CxdRrUYNrSPZzYN792hSPwBFUfjx19/Q6+V5kUA2rgghhBAAhw8c4Pq1a2T09aVy1eS5WeV1smTLhn/9+gB81r27xmmEI5MniUIIIVKU6OgoAmrVIioyknVbtlLYz0/rSHZnMpmoWr4cZpOJrTt3kTtPHq0jCa3Jk0QhhBAp3ZoVK4iKjKRGrVopskAEa0uc4aNHoygKwwYN1DqOcFBSJAohhEgx4uLiWL5kCXq9geGBY7SOo6nmH7TEw8ODG9evc2DvXq3jCAckRaIQQogUo02LFtb/2749vsm85U1CbNm5E4BpkyZilpY44j9ctA4gtBMdFUVERASPHj4kbfr0pEubljRp06LT6d4+WAghHFhkRATh4eGEBAeTNl060qZLR/CTJ9z65yZeadIwaNgwrSM6hOzZc1CmXDl+PneO1StW0L5TJyLCw3ny+DFeadKQNl060qRJIzugUyjZuJICBT99ytSJE/nm6JH/+WfZsmdn/OTJlCxVWopFIYTTuXP7NuMDR/PLzz+/9ppJ06YT0LChHVM5tgcP7tM0IOC1R/VlypKFoClTKVO2rJ2TCbuSjSvi0m+/0aBO7VcWiAD37t6l28cfs3Bu8j6eSgiR/Bw9dIiWTRq/sUAECAkOtlMi5xD85CkGg+G1//zRgwf0+KQz06dMsWMq4QgM48aNG6d1CGEfT58+pVXTJiTk4fGvv/yCm5sbJUuXtkMyIYR4N7//fok+PXq89mnYv505fYoc771H/gIF7ZDMsYWFhdGqaVNMpri3Xvv7xYvExBipUKmSHZIJu1OCQe/Dv58kyuvmFKRJQAD3791N1Jgz53/B1dVVpURCCPHuTCYTtapUJjoqKsFjPDw8OPrd93h4eKiYzPE19q/Hg/v3E3y9Xq9nz8FDZM6aVcVUQhPyujnlunPrVqILRIDxo0erkEYIIWzn3p07iSoQAYxGI3t371IpkXNQFCVRBSKAxWJh8cIFKiUSjkZ2N6cQ27Yk7SD3n386Z+MkQghhW/PnzE7SuKOHDtGgYSMbp3EeWzZuTNK48z/9ZOMkwlFJkZhC3PjrRpLGJfbXuRBC2Nu5H35I0riffvyRGpUq2jhN8vfwwQOtIwg7kSIxhdDrk9bORtrgCCEcnUsS103rdDq8vLxsnMZ5REdHY0pCA239G3ZCi+RFisQUorCfH6e++y7R41Kn4A9QIYRzqFq9BvuSsL6wavUazFm4UIVEzmHHV9uZlIQGJ9myZ1chjXBEsnElhWjboUOSxtWp52/jJEIIYVuf9e2TpHF1AwJsnMS5NG3eIknjKlWubOMkwlFJkZhCpE/vTa5c7yd63IAhQ1RII4QQtuObKTPp06dP1Jh06dLRsHFjlRI5B4PBQGE/v0SNcXFx4fP+A1RKJByNFIkpyJadO3Fzc0vw9fMWL1YxjRBC2IZOp2P1xk24JvDzzWAwMGPuXFlzDSxbvSZR6zIHDx+Op6eniomEI5EiMQVxcXFhz6FDCfpgHDpyFFWqVbdDKiGEeHc53nuPpStXode//Wtt2uw5lC5bzg6pHJ+Hpyebd+zEIwGFX9+Bg2jVpq0dUglHIUViChMXZ0JRFDw8PEiVOvVL/0yn0+Hr6wvA7du3tYgnhBBJ9vjxYywWC6lSpfqfYlGn05M6/jPv5t9JawmWXEVHRWGMjkZvMLzyKWGGDBkA+O3CBXtHExqTY/lSmNpVqxAWGsqIwDE0b9mSx48fERUZhaurKxkyZiTGaKRBndqYTCZ+uPDrGw99F0IIRxETE0OD2rUICwtj1YaNFPbz49HDhxiNRtzd3fH19SU8IoKAmjXw8PDg2PencHd31zq25hRFoXWzZtz8+wYjx4y1fi88ekRkZOSL7wWdTkedqlWIjY3l4DffkNE3k9axhRrkWL6U7fDBg4SFhpIte3Y+aN0ag8FAlixZyZM3L+/lzEmqVKnw9vGhfcdOADSuV0/jxEIIkTDbtmwmLCyM8hUqUrRYMVxcXMiWPTt58uYle44cuLm7kyFDBqpWr4HRaCRoTKDWkR3CH5cucfPvG2TLnp3mLVui1+vJnCXLS98Lnp6edO/VG4DPunfXOLGwJ3mSmEKYzWZqVqpIdHQ0W3fuIk/evG+8/vkTxw1bt1GwcGE7pRRCiMSLioqieoXy6PV6vt67jxzvvffaa81mExVLlUJRFLbt2k3uPHnsmNSxKIpCueLFAFi0dCkVKr25tU3F0qUwxcUxc958ataubY+Iwp7kSWLKNXPKFKKjoyns5/fWAhFg3MRJAPTt1ROLxaJ2PCGESLIh/fsB0PLDNm8sEAEMBhdGjhkLQNDYMSn6823RvLkAlCxd+q0FIsDaTZsBmD55EnGxsapmE45BisQU4P69e+z4ajsAK9dvSNCY6jVrkilzZp4+fcq61avUjCeEEEl25/ZtfjhzhjRp0tB/0KAEjWncrCm+mTLx24ULnDt7VuWEjik8PJx1q1ejNxiYNmt2gsbkL5CfIkWL8ejhQzauX69yQuEIpEhMAaYETcBkMtHr8z64JuKM001ffQ3A8i+/JDwsTK14QgiRZN0/6QxAn4EDcffwSNAYV1c3xgZNBGDY4EGY4uJUy+eoRgwaiNlspmnz5mTImDFBY3Q6PVNmzQTgiwXzCQkOVjOicABSJCZzv124wOnvv8fFxZWOn3ySqLHp0qWjcZOmREdHM29Own5pCiGEveza8TWPHj7Ey8uLD1q1TtTYCpUqUbZcOSLCw1PcU7GLv/3GD/FPUJ+/ek+obNmy065DB0wmE9MnT1IjnnAgsnElGbNYLNSrUZ3QZ8+Yt/gLqlSrluh7RISHU7NyJQC+3ruPnLly2TqmEEIkSc3KlYgID+fIiZN4+/gkevyjR49oWMe6AeOni5dsHc9htW7ejL//+ovFS5dRvlKlRI+PiTFSo1IlTHFxfHvmbKJObBEOTDaupCzfHD1K6LNnFChYMEkFIoBXmjQMGzUagJFDh6ToRd5CCMcxe8Z0IsLDKVKsWJIKRIBMmTIR0KgRAN07f2zLeA7r4P79/P3XX2T09aVshQpJuoe7uwd9B1rXfzYJ8LdlPOFg5EliMvW8tYFOp2Pt5i2JPsT930wmE80a1OfhgwesWLuOEqVK2TCpEEIkzv3792ka4I+iKO/8JMtisVClbBni4uLYtmsXufO8vfuDs4qKiiKgZg2io6PZuG07BQoVeqf7NQnw5/69e8xZuJBqNWraKKXQjDxJTDlGDxsKQK06dd6pQATrmc/P16307tb1nbMJIURSKYrClAnjURSFXp9//s6vOvV6PSPHjAFg6IABtojosFYuW0p0dDS16tR95wIRYMoM6yaWkUOGylumZEqKxGQoJCSYQwcO4Obu/mIH37uqUq0aRYoVIyYmhiWLF9nknkIIkVjXr/3J6e+/J23atHzUyTaviJs0b0Gq1Kn5+8YN9u3eZZN7OprY2FhWL1+OweDC0FGjbHLPosWLk79gQaKjo5g1fZpN7ikcixSJyVCvTz8F4OMun5LahguK5y5ajE6nY8WSJZhMJpvdVwghEkJRFLp2sh4bOnT0aDw8PW127+ctv2ZMmZIsG0W3adEcgHYdO+Dr62uz+67ZuAmA7Zs3S0ucZEiKxGTm1Pffcf3aNfR6PT1697bpvb29valZuzYWi4U+PXvY9N5CCPE23xw9SmRkJPkLFKB+g4Y2vXf27NkpX6ECERERrFm5wqb31to/N29y+9Yt0qZNS/9Bg216bzc3Nz7u0gWz2UzQ2DHINofkRTauJCMmk4lmDRvw8P59Vc9cLle8GIqisGn7V+QvWFCVOYQQ4t9MJhMVS5VEp9Oxcdt2VT57Hj58SJMAfyxmM4eOf5vgJtOOTFEU/GvWICQ4mCkzZ1EvIMDmc8TExFC7ahVijEZWrt9A8RIlbD6HsAPZuJK8bV6/nof375O/QAGbLEp+nYlTrWtPxo4aJYuVhRB2MS5+HV2lKlVV+3GaOXNmPo4/dGDMyBHJ4qnYpvXrCQkOxjdTJlUKRAB3d3fGT5oMWP9ushwp+ZAiMZkICQlm8YL5AMyavwCdTveWEUlXNyAA30yZ+PPqFY4eOqTaPEIIAXDv7l2OHDoIwPQ5c1Sd69PuPUjv7c0PZ85w9+5dVedSW2REBEsWLQRg/Zatqs5Vq04d8hUowJ1bt/j22DFV5xL2I0ViMjF35kxiY2Np3bYd2bJnV3Uug8HArPnWgnTi+HEYjdGqzieESNkChw/DbDbTb9AgPBJ4PnNSeXh60m+QtVH0R61aqjqX2hbMmUNkZCR1AwJUf3VuMBgIHD8BgNHDh6k6l7AfKRKTgdBnz9i3ezcGg4E+/fvbZc7CfkWoVqMGUZGRbFiz1i5zCiFSnlMnT/LrhQsAdOycuPPnk6px02Zky56dyMhIvt6+3S5z2to/N2+yfesWAEaPHWeXOYsULUrVatUxmUyMHTXSLnMKdUmRmAy0atYUgL4DB5IqdWq7zKnT6Rg2OhC9Xs8XCxcQHRVll3mFECmH2Wxmwlhro+vnrVbsQafTsWTlKgDmTJ/mdGvsFEVhfPwaziEjR+KVJo3d5p46axYuLi7s272bKPlecHpSJDq5cz/8QEhwMFmyZbNZY9mEypIlC20++giAXl3lJBYhhG3t2L6Np0+e4Fe0KH5Fi9p17qzZslG8ZEmio6OZEjTBrnO/q98vXeK3334lo68vH7Rqbde5PTw9aduhAwBdP+5k17mF7UkLHCemKArVypfDaDSydNVqSpcta/cMcXFx+NesQXhYGFt27CBvvvx2zyCESH4iIyOpVbkSFouF7bv38H7u3HbPYLFYKF+iOAaDge279/Bezpx2z5AU1SqUJzoqitkLFlK9pjZnKpcvURyLxcKiZcuoULGSJhlEIkkLnORl7swZGI1G8hUooEmBCODq6srQEda1J591765JBiFE8jMhcDQWi4VmLVtqUiCC9VzngUOHYjabmTR+vCYZEmvtypVER0VRpFgxzQpEgBVr1wEwcexYaZXmxKRIdFJhoaFs2WRdo7Nq/QZNszRo3BgvLy+ePH7Mlo3aZhFCOL/IiAiOHTmCp6cng4Zqu1O2ddt2eKZKxU8//sAv589rmuVtLBYLC+bOQafTMWPuXE2zFC1enBzvvcf9e/fYusl+60mFbUmR6KQmjAnEFBdH2/Yf4WnD80uTan98X6yF8+ZhNps1TiOEcGaN/esB8GmPHqRKlUrTLK6urkyfbe3N2LdXT4d+KvZZj+4oikLlqlXJlCmzpll0Oh1fLLcebzhr2lQiIyM1zSOSRopEJ3Tp4kW+/eYbXF1d6Rvfz0trqVKlpmKlytZ1MNOmaR1HCOGkThw/Tnh4ON7e3nT+1DE2xFWqUoUixYsTHRXFgX17tY7zSjf//ptzZ88CMG/xFxqnscqaLRtNW3yAoigsmD07WZxgk9LIxhUnYzabaftBC/6+cYOpM2dRV6VjlpIiPDycOlWrYLFY2LX/ANnfe0/rSEIIJ2IymWhQpzYhwcGs3bwFvyJFtI70wvVr12jfqiUWi4Uff/0Nvd5xnrEoikLHNh9y5fJlxgYF0aR5C60jvRASEkIT/3oYjUb2Hz1GpszaPuEUbyAbV5zfyePH+fvGDXLnyUOtunW1jvOSNGnS8PmAAQCMHxvo0K9lhBCOZ8miRYQEB5O/YEGHKhAB8uXPT11/64/ywf36apzmZd8cPsyVy5fx9vGhUdNmWsd5ibe3N9169QagV9dPNU4jEkueJDoRk8lEtQrliYuNZeW69RQvWVLrSP8jJiaGJv71CA4OZv3WbRQqXFjrSEIIJ/D40SOa1g8gLi6Ob06dJm3atFpH+h/R0dHUrVaVmJgY9h05SuYsWbSOhNFopGGd2oSFhbFm4yaKFCumdaT/YTabaVo/gIcPHrB09RpKlymjdSTxKvIk0bnNnDaVuNhYqlSr5pAFIoC7uzvDRo8G4NOOHTROI4RwFjOnTSUuLo7OXbuSxo4nhCSGp6cnvT7vA1g3sTiCLRs3EBYWRqXKVezecDyhDAYD4ydOAqCfg/zdRMJIkegkTCYT2zdvxmAwMGXGTK3jvFGdev4UKuxHTEwMO5303FMhhP3cuH6dY4cPYzAY+LR7D3Q63dsHaaRD587oDQb+un6db44c0TRLVFQUC+ZYW96MHDvWof9uZStUIFv27ERHR7NA4/Y8IuGkSHQSndq1BaBlmzZ2O5/5XUyeMQO9Xs/E8eOIi43VOo4QwkFZLBb6xD9dCpwQ5BAtvd5m69c7AJg+ZbKmn28DP/8MgA/btSdrtmya5UioLfF/t03r1hIeFqZxGpEQUiQ6gV/On+fPK1dwcXF5cbqJo8uZKxfVali7/Y8aNlTjNEIIR3X61Pc8fPCA3Hny0LBxY63jJEiu3LkpVrw4Tx4/Zv3aNZpkuHPrFj+dO0eatGnp5yCt0N7GM1Uqmrb4gNjYWCaNH6d1HJEAsnHFwSmKQrOGDbh35w5fLF9OuQoVtY6UYHFxcVQqXQq9Xs/WHTt5P08erSMJIRxMueLFURQLqzZsoFjxElrHSbAH9+/T2L8eBhcXDhw9hk+GDHadv37tWjx5/JjR4yfQ/IMP7Dr3u4iNjaVqubJYLBbWb9lKIT8/rSOJ52TjivPZtnkT9+7cIXPWrE5VIIL1pILR48ZjsVgYN3qU1nGEEA5mQmAgimKhdJkyTlUgAmTJmpWPOn2M2WRiysQgu8799fZtPHn8mLRp0zpVgQjg5uZG0JSpAIwZOQJFkVZpjkyeJDqwyMhI6lStgslkYs+hw06x5uS/LBYLlcuUxmQyMXPefGrWrq11JCGEA4iKiqRGResP39M/n8fV1VXjRIkXExND7SqViYmJ4eh335M+fXrV57RYLNSqUpnIiAgOnziJj4+P6nPamsVioWmAPw8ePGDx0mWUr1RJ60gC5EmiM1EUhS8XLMBkMtGwcWOnLBAB9Ho9azZuBKznTcfFxWmcSAjhCPr07ImiKLTp0MEpC0Swtvx6fjRq0/r2Of1q9vRpREZEUKxkSacsEMH6vRA01fo0sXf3bpjNZo0TideRItFBPXr0iE0b1uPm5saAIc698aNgYT9KlSlLWGgo2zdv1jqOEEJjP5/7kV9/+QU3NzcGDx2mdZx30qZde7LnyEFUZCTfHj+u6lz3791j84YN6HQ6Fn65RNW51FaqTFkqVakKWE/aEY5JikQH1b93LwC69eqFt5P+Wvy3wPHj0el0zJo+jaioKK3jCCE0YjKZmDhuPACzFyzUOI1tTJ4+A4DRQ4eo9lRMUZQXO4J79+1LaidohfY2gRMm4OrqysplS4mW7wWHJEWiA/rj0iWu/fknmTJnpmPnT7SOYxM5c+Wi5YcfAjB0QH+N0wghtLJv1y5u3/qHvPnyUb5CBa3j2ESRYsUoXKQIRqORWdOmqjLH1StXOHv6NOnSp6ddh46qzGFvmTJloln8xpve3btpnEa8imxccUBVy5XFaDQyd9FiqlavrnUcm0jIBREAACAASURBVImJicG/Zg0iIyI49O0JMti5ZYQQQltRkZHUqVaVuLg4Nn/9NfnyF9A6ks3ExMRQpWwZDAYD+44eJWNGX5vdW1EUalWuREREBFNmzqJegH3WP9qD2WymctkymE0mp2uDlOzIxhXHt2TRQoxGI1myZktWBSJYF3n37mM997RV0yYapxFC2Nv8OXOIi4ujQePG5M2XX+s4NuXu7k7Xnj0xm81MHGvbRtGHDhwgIiKCgoUKUdff36b31prBYGDe4sUAjBkxQuM04r+kSHQg0VFRrF21CoDNX3+tcRp1tGn/Eem9fQgPC+Pgvn1axxFC2El0dDTbt2zG1c2NIcNHOPQ5w0nVpVt33N3d+f7kCS788otN7mkymRg9bCg6nY6gqdOS5d+tYqXKeHt7c/vWLb7atlXrOOJfpEh0IEFjxxATE0O9+vXx8vLSOo5qlq1eDcCMqVOIlXOdhUgR2rRoDkDnLp+SNl06jdOow83NjYnTpgMwduQITCbTO98zcPhwACpXrUqevHnf+X6OavXGTQDMnzWLiIgIjdOI56RIdBB/XrnC4YMHrb8Wp6iz8NlR5M6ThxIlSxH67BmL58/XOo4QQmXnfvyBe3fvkj59err37q11HFXVqFWLAgULcvfOHb45cuSd7nXn9m2OHbXeY/qcubaI57CyZc9OvYD6REZGsuyLL7SOI+JJkegAFEVhfOBoAMZPmoyLi4vGidQ3N34NyuYN63lw757GaYQQaho1ZAgAU2fNTpavS/9Nr9cTOMF6TF/giOG8y97QwBHDsZjNDBo2DHd3d1tFdEg6nY7BI0ag1+vZsHYNT58+0TqSQIpEh3Duh7NcvXKFjL6+BDRooHUcu/Dy8qLX530wmUxMmzRJ6zhCCJUs+WIxwcHBpE/vTdny5bWOYxeF/fyoXrMWZrOZUcOS1iz85PHjXPz1VwwGQ7JpefM2GTJkoFsv65Pm3l2lJY4jkBY4GjOZTFQqXQpFUViyciVlyqWMD1GwtoyoVaUysTExbNmxI9ntdhQipYuMjKR21SqYTSZ+uGAteFKK2NhYqlcoj8lk4vsfz+Hh6ZngsWazmfq1ahISEsKGbdspWKiQikkdT70a1QkJDmbv4SNkyZpV6zgph7TAcTxrV61EURQqVK6cogpEsLaMGDNhAgA9unTBYrFonEgIYUszJk/GbDLRvGXLFFUggnUTy0edOgHQuX27RI39ausWQkJCKFqsGAUKFlQjnkMbNsq6/KpZg/oaJxFSJGooxmhk8fz5uLi4MHqcbftqOYv6DRuRL38BnoWE8M3Ro1rHEULYyI2//mLv7l24ubnRb9BgreNoos+AgRhcXLh+/TpnT59O0JiIiAhmTJmCTqdj/OTJyX4N56vU9ffn/dy5MZvNrF21Uus4KZoUiRr6rEd3AJo0b07WrNk0TqOdcZMmodPpGD5ooNZRhBA2YLFYGD7YWhgOGjacNGnSaJxIOyvWrgNg4rgxCTrXeXzgaBRFoUWr1uR6P7fa8RzWomXLAVj6xRdER0drnCblkiJRI1cvX+bCL7/g5ub24tF6SlWocGHKlree4Tpy6BCN0wgh3tWFX85z4/o1cuTI8eJs3pSqaLFi5Mqdmwf3H7Blw4Y3XhsWGsrxo0dJlTo1AwanzKevz2XOnJmatetgjI5m8oTxWsdJsWTjikY+aNyIW//8w/S586hdp47WcTRnMpmoWKokOp2OIye/I3369FpHEkIkUfkSxbFYLCxetozyFStpHUdz9+/fp4l/PfR6PUe/+560adO+8rpalSsRHh5Ov0GD6Nj5EzundDxms4kKJUsCsG3nLnIn42biDuEVG1cM48al0MVwdhATE8OfV67w5aKFrF25krOnTuGZKhVnz5xm/549pEqVigmTp2gd0yHo9XpA4edz57jw888UK1WSlUuXsmr5Mr49dgwUhcxZsiT7XmFCOIvo6Ggu/vorXyxcwMa16zj/80/4+GRgy+ZNXDh/nuIlStK7bz+tYzqENGnS8PjxIy7//juhYaFkzZqVLxcvYt2qVZz+7jvcPdy5euUyB/buxcfHh5nz5JABsH4vZM6ShZPfHufq5cuUKluOlUuXsHrFco4fPYrJZCJL1qy4ubmlyLWbNqcEg96HfxeJ8iRRBRaLhUMH9jNu1Kg3rkHZdeAA2XO8Z8dkju/5E4jXadq8OUNHjkpUOwkhhO2YzWY2r1/P3FkzX9soWqfTcfjESby9ve2cznE9e/aMgJo13roucd2WLRT2K2KnVI4vLi6OutWqEhkZ+dpr6jdqzJgJE3Bzc7NjsmRIWuDYx7RJkwgcPvytHwaBI0bYKZFz2Lhu7Vvb4OzeuZM2LZoTExNjp1RCiOfMJhOD+/VlzswZbzxJRFEUpgZNsGMyx6YoCquWLUvQxpWgsWMTdF1KsXfXrjcWiAAH9+2lfu1aGGWDi81JkWhjX2/dyldbtyTo2t8uXGBI//4qJ3IOv5w/z+zp0xN07d27d+n44YcqJxJC/NeSxYv57sSJBF177MgRln0pZ/ACHD96lA1r1yTo2j+vXGH44EEqJ3IOd+/cYdL4hK2ICwsNpWPbNionSnnkdbONVShZItG/Ag8e/5aMGTOqlMg5NKxXl0cPHiRqzPI1aylZurRKiYQQ/xYSHEy9GtUTNcZgMHDg2Df4ZMigUirnkNjvBZ1Ox9rNWyjs56diKsdXtVxZjEZjosZMmDKFho2bqJQomZPXzeravWNHkl4TTA0KUiGN8/jj0qVEF4gAw6SvohB2s3fXrkSPMZvNfPvNMRXSOI8rly8n+ntBURS2btyoUiLnEBUVlegCEWDTunUqpEm5XLQOkJzs2534D1GAq1ev8PeNGzZO4zz2JvHvFhkRYeMkQojX2bIpaUXLoQMHKFWmrI3TOI9F8+YmadxPP/6Qor8XDuzfl6RxN/66gaIostvZRuR1sw21b9WSP69e1TpGiuHi4sLZXy5oHUOIFKFssaJaRxAiQU6d+wl3Dw+tYzifV7xulieJNuSaxO33qVN7Ua9+gI3TOI/fL13iWhKKa2tvRSGEPaROnfqtu0xfJVOmTFSuVk2FRM7hzKlTPEzCcppUqVLh36CBComcw7U//+T3ixcTPc5gMCT5u1j8LykSbahipcpJ+pc6f8ECjB6Xco8dOnH8OIP69kn0OE/plSiE3fg3aMiO7dsSPa7ZBy3p8dlnKiRyDvv37mFMEtqdlS5bLkV/L9z46zofNm+e6HHZsmeXBwg2JH9JG+rSrVuSxnXv1dvGSZxLtRo1SJUqVaLHfdzlUxXSCCFe5eNPk/a/tzr16tk4iXNp0KhxksY1bpKyd+jmyZsvSeNq1K5t4yQpmxSJNuTu4UHZ8uUTNSa9tzflK1ZUKZFz0Ov1dPj440SP6dSli0qJhBD/lSNHDoqXKJmoMdVq1CBfgQIqJXIOOp2Olm3aJmpMzlzvU7d+fZUSOY+gaQnrnfucZ6pU9B80WKU0KZNsXFFBo3p1E7QGxdPTk+Onz+DiIm/9ATq1bcMfv//+1utcXFzYuf8AWbJmtUMqIcRzYWFhtGzSmJDg4LdemylLFnbs3SfnrWM9Wu6j1q248ddfb73Ww8OT3YcO4ePjY4dkjk1RFPr07MHZ06cTdP2m7V+Rv2BBlVMlY6/YuCJFogqiIiOpXrHCW687cPQYvpkz2yGR83jb2c0AcxcuomqNGnZKJIT4t7t37tCswZufcun1eo6fOk1qLy87pXJ8kRER1KlWFZPJ9Mbrduzbz3s5c9opleMzmUw0qF2LkJCQN143Z8FCqtWsaadUyZQ007aPPfFNZ4sULUaDRo1Ily4dAB4eHlSpVv3Fmomxo0dpltERXfz1VywWC76ZM9OqTRt8M/kCYHBxoVTpMrSKP4pv5vRpby0khRDqWLtyJQA1atWiRq3apE6dGgCvNGmoU8+fwn5+WCwW5s+erWVMh3Po4AFMJhP5ChSgYeMmpE+fHrAuU6pYpQp1/P0BCBw+TMuYDufK5cuEhITg7eND67btyBT/YMXFxYXiJUvxYbt2AASOTPzmIPF28iRRBc/7if37F6HZbMZgMAAQYzQSULsWEeHh7D967MW/9CldlbJliImJYcGXS6hUpQrw8t/NbDbTpkVzbv7990vXCCHs45+bN2nVtAmKovDtmbN4eXmhKAoWi+X/P99iYqhStgwuLi7sOniIzPL5RkREBPWqVyMuLo4tO3aSN591U8Z/P9+qlC2DyWRi+dp1lCxVSsvIDkFRFGpXqUx4eDjTZs95sQnKbDaj1+tfNMxu1qA+d+/cYeSYMXzQ+kMtIzs3eZKovk87dQQgoEGDl14ZPP8gAOsvx8/7DwCg7Qct7BvQQS2cO5eYmBhyvJfzpeLv3383g8FA4PgJAPTt1dPuGYVI6QJHDEdRFIaPGo1X/KtknU738uebuzs9P/sck8nExLFjtYrqUObMmE5cXByNmzUjT968L/7z/36+LfxyCQDjRo20e0ZHtGfXLsLDwylcpAi169Z98Z8bDIaXTlRZumo1ALNnzLB7xuROikQbevjgAb/+8gtubm5MfMuurFYffoi3jw9hYWHs3b3bTgkdkzE6mo3r1gKw6auv3nhtiVKlKFmqNIqiMG3iRHvEE0IAVy7/wR+XLuHt7U2L1q3feG2nLl1wdXXlzKnv+eXnn+2U0DHFxMSw6+uvcXV1ZfDwEW88Lq5shQqkS5eOO7dvs23zZjumdDxms5kJgaPR6XRMnDrtjX+3zFmyUNivMMboaMbJMi6bkiLRhnp36wpAv0GDE3Ru5Io11sJo9vRpxMTEqJrNkQWOGklsbCwBDRsmqEH2vMWL0ev1fL19G6GhoXZIKITo0qEDAIETgl56AvYqbm5uTJ9jPbM4cMTwt27WSM5aNGoIWPvoeiVgI8+GbdsBmD97FhEp+Hz64YMGAVC1eg1yvf/+W69ft8Xa6H3f7t3cvXNH1WwpiRSJNnJg3z7+uXmTVKlT0aZ9+wSNyfn++5QsXZqw0NAkHwLv7K5cvszxI0fQ6/VMmDwlQWNSe3nxYdt2mM1mhg7or3JCIcT6NWuIjY2laLHiVE/gDtIq1apRsFAhHty/z5FDB1VO6Jh+OHOGRw8fkt7bh24JPDQhS9asBDRoSHR0NEsWLVI5oWO69c8/nDj+DQDT58xJ8Lj+gwejKIosc7Ah2bhiA7GxsTSqV5eQ4GC279rN+3nyJHhsREQENStVxGAwsGPffrJlz65iUsdisVj46MPWXLt6laCpUxN9MsHzDUJLVq2mTNmyakQUIsWLi4ujcpnS6HQ6du4/kKjPqKtXrvBR61bo9Xp++OUCuhR2XFrd6tV4FhLC0lWrKZ2Iz6jg4Kc0qF0bs9nMwW+Ok9HXV8WUjufjdu34/dJFhowYmeCHLmD9Lg6oVZPwsDCWrFxFmXLlVEyZDMnGFXWsXbmSkOBgypQtR67cuRM11svLi8/69cNsNjMlKEilhI7pzKlTXLt6lcxZsuBfP/EH2X+5chUAQWMCkd86Qqhj4OefoygKNWvVTvSP2IKFClGzTh0sFgvDh6SskzC+WLCAZyEhZPT1TVSBCODjk4Eeva1PHnsn8bhXZ/XtsWP8fukiLi4uiSoQwbrMYeLUaQAMHdA/RS9zsBV5kviOgp8+xb+mtbFzUtvZxMbGUqNiBeLi4ti6c2eSz6x0JiaTiYqlrEd8LVu9hlJlyiT6HhaLhcb+9Xj08CETJk+hYQo/61QIW7v1zz980LgRAOd+u5igtdb/FRcXR7Xy5TCZTJz66ecUcQJLVGQktapUxmw28+Ovv6FPwhNURVEIqFWT4KdP2XPoMFmzZVMhqWOxWCzUqVaV8LCwl1oFJYaiKHT+qD2/X7zIhClTaNhYvhcSTJ4k2paiKASNHQPAx59+muR+h25uboyfPBmATzt1ShGNolctXwZApcpVklQggvVUhwVffAnAuNGjiIqKslk+IVI6RVEYEf/0b2zQxCQViACurq507PwJAO1bt7JZPkelKApTJ03EbDbTsnXrJBWIYG0tNHx0IABN6wekiLclWzZtIjwsjGLFiyepQATr323MhCD0ej1jRozAbDbbOGXKIkXiO7h79w7fnThBmrRp6dq9xzvdy79+AwoULER4WBhHDibvRd7G+AXZLq6ujB4//p3ulTd/fgIaNMRisfDFgvkp4oNUCHs4eugQVy9fxtvbm0ZNm77TvT7r1w9XV1f++ftvTn3/nY0SOqa/rl9j/549uLu703fgoHe6V+26dcmTNy+KorB6xXIbJXRMERERzJo6BZ1Ox/gEbmJ8nbz58lE3/gQb2dz4bqRIfAed448D6jtgIJ6pUr3z/cZNmoROp2PUsKHJ+mlir/hWQc0++IDMWbK88/0GDhuGu7s7m9avxxgd/c73EyKlM0ZHM23SJADmLf4iyU/D/m35WmvLr8njxifbtWJms5kRg4cAMGTESJucXb1wqfWty4olS4iMjHzn+zmqMfHH6rX6sA05c+V65/sFTgjCzd2dE8ePc+/u3Xe+X0olRWIS7du1i2fPnpE9Rw6at2xpk3sWKFiQipWtp42MGjrEJvd0NL9fusjFX3/Fzd2docNtc9ZmhgwZ6NC5MwBt5AQbId7ZxnXrePYshMpVqlK4SBGb3LNI0WLkzZ+fhw8fvGien9z8/OOP/H3jL3LmzEXjZs1scs9MmTJR1z8Ao9HI5Hd88+KoQoKDOXn8OKm9vOgzcKBN7unp6Unvz/sAMKDP5za5Z0okG1eSqGq5chiN0Xy1dx+5bPCr57nY2FiqlLWu0Ttw7Jtk1/qgeaOG3Ll1i9nzF1C9Vi2b3ddisVCvRnVCnz1j5bp1FC8p554KkRRRUVHUqFgBRVHYc/gIWbNmtdm9Hzy4T+N69TAYDBw+cZJ06dLZ7N6OoELJEpjNZr5cuYqyNmy/8nyjn06nY+O27eQvWNBm93YEtapUJjwsjEHDhtMuvmm7rTxvlTZl1izq+QfY9N7JjmxcsY1xo0dhNEaTL39+mxaIYN3E0iu+5cSgfn2T1Rq77Vu2cOfWLTw8PG1aIIJ1E8uk+KMQB/VNXn83Iezp8+7dURSFNu3b27RABMiSJSut27TFbDYzb+aMZPW/09nTp2M2mylRqpRNC0QAFxcXgqZMRVEUJowdm6z+bkcOHiQ8LAwfHx+bF4gAuw9Y1/hPnzgpWS/jUosUiYn08MED9u/ZA8Dmr3eoMkeX7j3w8PDk94sX+f7kSVXmsLeoqCjmz54FwFd796oyR8XKlcmQMSMhISGsWrZMlTmESM7u37vHb79ewCtNGgYMGarKHL369sXdw4PdO3fy4P59Veawt8iICDZvWI9er2fOgoWqzFGvfn0yZMjA5d8vcfb0KVXmsLe4uDimTrT2B168YqUqc2TNnp3Cfn6EhASzZuUKVeZIzqRITKSgMWOwWCz06tNH1XkWLl0KwNSJQcTGxqo6lz0s/WIxUVFR1KpTl0yZMqk2z1d7rAXoqhXLCZNznYVIlE7t2gLW8+ddXFxUmSNt2rR83rcfAD0/7aLKHPY2qF8/LBYLTVt8QFqVXqG7uLgwMf5tybCBA4mLi1NlHntaOHcuoaGhFPbzI18SW968jU6nY+a8+YC1wXnw06eqzJNcSZGYCD//9BNnz5wmVerUL/p+qaV4iRIULVachw8esGP7NlXnUtvjR49Yv3o1er2e4aNHJ7nfWkJ4eXnRtHkLoqOimD1jhmrzCJHc7Ni+nZDgYLx9fGhho814r/Nh+/Zky5aNu3fucPb0aVXnUtuFX87z048/ADB63DhV5ypXoQLlKlQgKiqK9atXqzqX2h7cv8+WjRsA69GqasqcJQvt43sQT50YlKxe16tNisQEMplMjIxvLDt5+nTc3NxUnU+v1zMuvgXF7BnTiQgPV3U+tSiKwsC+1qeu3Xv3JkPGjKrPOWj4cAD27trJjRs3VJ9PCGdnMpmYF78cZN3mzarPZzAYGD9lKmBdQ+zMgsaOBWDBl0vsMt+4oIno9XoWzZ9nl/nUMn3yZEwmE9179SaVDVrIvU3P3p+RKnVqvjl6lKdPnqg+X3IhRWICfXPkME+fPKGwnx9VqlW3y5zv585Ni5atMJvMLz6InM2jhw+5/PvvpPf2pku37naZM3Xq1IwaZ20VMbR/P/nVKMRbPP8hWrxkSbJktc/xb6VKlyZnzlzExBiZMWWyXea0tf179/DP33+TIUMGKlSqZJc5M2fNSv1G1qMSO3zY2i5z2tq1q1c5+e1xXFxc+PjTT+0yZ6rUqenT39pYu0X830+8nbTASQCLxUL5EsXR6XSs37qNgoUK2W1uo9FInapViImJ4eQPP9rlF5ctPW8/MHn6DPwbNLDbvBaLhcb16vHo0UNWb9xE0WLF7Da3EM7k/r17NAnwR6fTceLsD3b9jDGZ4qhYqhQGFxeOnfwOrzRp7Db3u4qOjqZmpYqYzWa27thJHpXW1L1O5TKliY2NtXkbNrVZ25VVI/RZKJNnzMC/vv2+FwCaNajP3Tt3bN6GLVmQFjhJMzK+sXUdf3+7FogAHh4edO/dG4DmdiyybGHDmjUA5MmTx64FIlhf1wfGN57t0uEju84thLNQFIVJE6z/O+nVp6/df4S6uLjSqk0bzCYTY0eOtOvc70JRFJZ9+QVms5m6/v52LxABRowZA0D/3r2c6m3JyW+PE/oslLz58tu9QATrAwuwfq8n15N/bEmKxLd49PAhRw8dwt3dncBx2nS7/7jLp/j4ZCA4+CnHjx3TJENiRUdHs3jhAgDmLv5CkwyVqlalRKlS1nOd47MIIf7fH79f4uypU6T39qZ9x46aZBg0bDiurq6c+PY4l377TZMMiRUZGcnalStxc3Nj0LDhmmRo0qw56dKn5/atW+zeoU47NltTFIXB/fqh0+kYExSkSYYixYpRpGhRjEYjs6dP0ySDM5Ei8S369uoJQJdu3W1yDmdSzV28GICJY8c4RUPQSePHEWM0Uq1GDbJlz65ZjqmzZmMwGFi1bBlGo1GzHEI4GovFQr/4txTDRo3Gw8NDkxyurq4ETbVuYhk3aiQWs1mTHInx/O3ER5064atiS6+3WbXeujt43qyZREdFaZYjocbEbyqsWKkyRYoW1SzHlytXAdYd/Q8fPNAshzOQIvENvj12jOvXrgHQpbt9Nl28jl+RIuTMlYvQ0FAWzp2jaZa3uXH9OocPHAB40Z9KK76+vgQ0aoTFYmHA559pmkUIR7Jv1y6ehYRQsHBh6vr7a5qlVp265MqVi5s3b3LyxAlNs7zNlT/+4MZff5He25sen2l7JvB7OXNSpXp1wsLCWLncsQ8QCAkO5uCB/egNBmbMnatpFk9PT7r17ElcXByTJyTP87BtRTauvEFArZo8ffKE3YcOkS2bdk/DnouNjaVymdLodDqOnvyOdOnTax3plT7p8BEXf/2VsUETadK8udZxUBSFcsWtG1c2bNtu93WlQjii55vKvt67j5wOsPHhtwsX6NLReizb2V8uqNbM+13VqVaV0GfPmDV/ATUcYOPDk8ePqV/bmuPgN8fJ6OurcaJX+7h9O36/eJFPunbjs379tI7z4vsUYMW69ZQoWVLjRA5ANq4k3JqVK3j65Am58+Qhq51aQryNm5sbHTp3RlEUpgRNcMjFymdOn+Lir7+SJm3aF20atKbT6Zg22/r0dezIEU7xul4INQ3ub/2Srli5skMUiADFS5akWo2aAC+O8HQ0a1asIPTZM3wyZHCIAhEgo68vXXv2AmD0sKGO+b1w6hS/X7yIq5ubQxSIYP0+nbPQeoTiqCGDMTvBMgctSJH4CiHBwSyeb31NunDpMlVPCEmsbj174ZkqFUcPH+bPK1e0jvOSuNhYRgy2NhyfPnsOrq6uGif6f7Xq1ME3UyauX7vGwf37tI4jhGbu3rnDyePH0el0zF20WOs4LwkcPx5XV1c2rlvncAcIREREsCL+uNRtu3ZpnOZlXbp2JX16b346d47bt25pHeclcXFxTJkwAYDFS5ZqnOZlVapVJ1+BAjx48IBjhw9rHcchSZH4CjOnTcNsNtOmfXsyZ86sdZyXpE6dmmEjRwEwZOAAh/r1s3XzZiLCwylTthzlKlTQOs5L9Ho9cxYuAmD6pElERUZqnEgIbYwcOsS6aWXQIId7peuTIQOt27YDoFdX+zRZTqg5M6YTFRWJf/36pEvnWEt93NzdGTh0KAAd2nyocZqX7di+nXv37lKgUCFKlC6tdZyX6PV6xgRNBGD08GHylukVpEj8j0cPH3Jo/z48PT3p9XkfreO8UoPGjcmTNy/37tzh9HffaR3nhTkzpqPT6wmM/9XoaAoWKkTN2rWJiIhg9coVWscRwu5OHD/O7xcv4u7uToePO2sd55X6Dx6Mq6srl//4g/PnzmkdB4C/b9x40WZmlEat0N6mYZMmvPfee0RFRrJl40at4wAQHh7OnBnTAZg0bTp6veOVHH5+ftSsXRuLxcKYESO0juNwHO//Yxpr38p6sH3vvv0ctvu/wWBgzHhrITaon2Oce9r5o/YA1G/QkBzvvadxmlfT6XQMDwwEYOXSpRijozVOJIT9mM0mgsZaGzAvX7tW4zSvp9frWbTMulN33OhRGqexGhW/1m/EmDGkTp1a6ziv9by1y/w5sx1ibeKMqVOIi4ujWYsPyJ0nj9ZxXito6jRcXV05uH8f0fK98BIpEv/l5x9/5NmzZ2TLnp12HTpoHeeNipYoQcnSpbFYLEyI77yvlYcPHnDpt99wc3N70e/MUWXM6Ev7jp0A6Ni2jcZphLCfr7dt51lICH5Fi1LYr4jWcd6odJmypE2Xjnv37rFpw3pNs1z+43f+vHIFbx8fWrRspWmWt8mcJQtFixUjxmgkcIQ2Tb6fi4uLY//u3bi4ujJouLZZ3sbT05N2HazN5J31PGy1SJEYz2w206e3dYfY+MnOcdj8ax20QgAAIABJREFU/C++RK83sHfXTkJDQzXJoCgKPT/tAsCAIUM1yZBY/QcPJm3atPx94wY3b9zQOo4QqouMiGDapInodDqCpjj2D7nnNn9tfb27cM4cTTexdG5vfUsyZkKQQ74u/a/VGzcBcHDfPu7cvq1ZjoZ16wDQrWdPux/3mBR9Bw7ExcWFf27e5OzpU1rHcRiO/2+8ncydOYPYmBgK+/lRqnQZreMkSKpUqWj70UdYLBYG9dVm/eT+PXu4fesWXmnS0LptW00yJJZer2do/Oafrp0/1jiNEOobH7/MokXr1uR6/32N0yRMpkyZaNCoMTExMZodq7l6xQrMZjMlSpakWo0ammRIioFDhwEwYUygJq+dT5/6npDgYHx8MvBp9x52nz+plq5aDcDEcePkXOd4UiQCT5484autWwH4cuVKjdMkzsChQ9Hr9Vw4f55zP5y169xGo5E5M62Hpa9xkIXSCVW/USMyZMjIs5AQNq5bp3UcIVTz9MkTvjl6hNReXvQdMFDrOIkycOhQXFxc2LJxI48ePbTr3LGxsSycOwe9Xs/Eac51xm+rNm1Ily4d53/6ye7fC4qiEBj/ennaHMc+Hey/ipcsSZ68+Xhw/z6b12u7zMFRSJEITBo3jtjYWDp2/oTUqbU7nzmpnhe2QWPH2nUL/6rly3gWEkL5ipXImcs5nk7826avvgLgy4ULiImJ0TiNEOpo39q6jq577954aXj+fFJ4+/jQM77LxGfdutl17gGfW4/cq+vvT1YHOHErMazrw62F7YjBgzHFxdlt7kXz5xH67BlZs2WjlIO1vEmIuYusrdIWL5jPs2fPNE6jvRRfJP524QLfnfgWgN59HWOncGKVLFWa7DlycO/uXfbu3m2XOZ88fszK+May4ydNcqiG4wnlkyEDVatVJyoqilnTnGOdlhCJcfTQIZ4+eUL69OlpH78w39l0+uQTfH0z8feNG9y6edMuc/51/To/nDkNwMRp0+0yp61VqlKFEiVLEhoayh47fS+EhYWybpV1h/WOffvtMqetZc2WjZYftiE2Npb5sxzz5B97StFFosViebEDbPb8BQ51QkhiWBtFW48XmhA4mkiVG0UrisL4QOtaly7duuObKZOq86lp0vTp6PQ6vt62jdu3/tE6jhA2YzabmRJkbZW1ZNVqp/whB9bPt+GBowH4oElj1dfYWV+XWtf0TZw2zSk2q7yKTqcjcEIQOp2OSePGqn7wgqIoTJ84CbPZTOt27RyuUXtC6XQ6Pu/fHxcXF3bv3MGjh/Zd5uBonPPffhs5fuwod+/cIVfu3FR1okXJr5Inbz4aNm4CwIK5c1T9IL1z+zZnTn1PmrRp6dK9u2rz2ENqLy/6DxoCQNCYMdJxXyQbC+fOJTQ0lLz585M3Xz6t47yTGrVqv/jvsGLJElXnOrR/P39evUp6b28CGjRUdS61vZ87NwENGgAwsM/nqs7159WrHDywH3d3dz7/P/bOOi6K7Q3jz2ywICWloqICNpjYhYXd3mtidwOKQbcKYmB3XLtbr92BccXuwAAURJplY35/zMLP60XYXXZ2ZuP7z/18YM45z13ZmXfOed/nneFB61p0Y2pqiqke1P/DOB0vbtTZIFEsFsPHmwoOgsPCNfZt8Wc8vb0hMDTE/t27ad1NHDF4UMF6hoaGtK2jLv4YOBDWNja4f+8eHj98yLQcPXpKTFJSEnZtpwqytuzQrKKy35FvsL15w3raLHFycnIQOZ+yQFuxZq3G7r7+jH9ICASGhrh+9So+f6LHEkcikcB3NvU8nePnz2rDcXkZMmw4ytna4vOnT7gTe5tpOYyh+ZGRkkSGh0EikcC1XTs4163LtByVYGFpiRGjKM/C/M4xqubIoYNIT0+HXaVK6NWnLy1rqBuBQIC5ftRx1nSZV6YePZpMVEQExGIxRo8bDyMjI6blqARraxt07tYNQqEQYUGBtKyxfcsWpKeloWXrNqhRqxYta6gbgcCwYGcvvxhH1dy+eRPv371D5SpV0K1HD1rWUDccDgdBYeEAAI/JkxlWwxw6GSTmCYU4uH8/eDwegsLDmZajUsZMmAALS0t8+fwZ9+7eVfn8kbLPa+nKVSqfm0lc27VHbWdnZGZk6C1x9Gg0r1++xKUL58Hn8zFKzRXBdBMSMR8AcP7sWTx/9kylc2dmZmLdauq+5hMQoBW7iPkMdncHQRB4++YN/j55QuXz5x9l+wYFaWwuYmE0atIEVarYQygUYnFUFNNyGEEng8RB/fsBoI4ZTU3NGFajWrhcLhYsWgQAmO2p2rwQ/7lzIRQKUb1GDY0x5JUXgiCwaOkyAMDiSM3yRNOjJx+SJDF+9CgAQGBYmNbsIubD5XIxP2oRSJJEaIC/SueeMGoUSJLEYHd3lC1XTqVzs4GT588DACIjIlSas74gLAxisRj1GjRAQ5dGKpuXLew5fJj6747tyM3NZViN+tG5IPH+3buI//ABBgYGmDV3HtNyaMGlcRNYWVkh7ccPrF+9WiVzJiYm4LTsDXTn/gMqmZNtlClbFm1kBUzTJ01kWI0ePYpz/do1pKelwd7REV26dWdaDi20d3ODlZUVXjx/juvXrqpkzoSEL3jx/BlMTU3hMctbJXOyDWtrG9RyckZaWlqBfVlJyc7OxoF9e8HhcBGzSjXPGrbB5XLRp19/Ku9yjma0nlUlOhUkSiQSBPlR7di07bj0Vw6dPAUA2LJpI9JKaAhKkiSC/fxAkmRBxZe2siiGav918/p1vH/3jmE1evTIj1QqhcfkSSAIAgEhoUzLoQ0ul4v5iyj/ujleXsjLyyvxnEP//BMA4DnLG1wut8TzsRGCIBC9bBkIgsCalSuQkpJS4jmnT5oIUipF3/79YaxhRu2KMMfPD3w+H5cvXMCTx4+YlqNWdCpI3L1jB758/gy7SpXQpFkzpuXQSqlSpdCnf38Ic3MRXcLj07uxsbhz+zZMTEwxZNhwFSlkJxwOB75BQSBJEn4yrzQ9ejSBsMAAAECTZs1QR0uK8X5Hw0aN0Kx5C+Tm5GDb5pK1Ut2/Zw/S09JgY2ODXv36qUghOylTtizcR44ESZKYHxJcomPnf+7dw4P790EQBOYFBKhQJfvg8/kICqeq3oP9/Wn3nGQTBMlE928GSEtLQ/eOHZCbm4ujp/9G+Qqa1WZJGbKystCuRXNIpVLsOXQIjlWrKTyHSCRCj05uSElOxrJVq9GydWsalLILkiTRtnkzZGVlYWF0NDp06sy0JD16iuR7Sgq6tG8HALh4/YZW7+rkk5iYiF5dOkMqkeD2gzildgBFeXlwc22DzMxMHD9zFuVsbWlQyi6ys7PRtUN7ZJXg/5kkSfTv0QPx8R+wcv16NG3WnAal7EIsFmNAn96I//AB0TExcG3XnmlJqkfyGuA6Avh/0ZbO7CSujlmG3Nxc9O7bF7blyzMtRy0YGxvDNygYADDbw1Opt8bTJ08gJTkZTnXqonnLlqqWyEoIgsC6LVsBUP2wRSo4ztKjh05mecyAVCrF8FGjdCJABIBy5cqhe89eAIBhgwYqNcfiyIXIzMxEo6ZNdSJABKhTpmmengCAAX16KzXHsSNHEB//AWXKlkXjJk1VKY+18Hg8BISGAaDSHNTZD5tJdCJITEpKwv69e8HhcDBj5iytsjYojl59+qBsuXL48OG9wkbR+bmIAGXIqg2G4/JSo2ZNuDRujMzMTOzdvZtpOXr0/JbbN2/i4YMH4HA4mOrhybQctRIYGgqBQICXz5/jg4J9nb98/ox9e/YAoNqy6hJ/DBiIinZ2yM7OxsVz5xQam5OdXVBZvnLdep16LtRv0AAtW7eGWCzGimVLmZajFnTiX3fKuLEAgGkeHjAzN2dYjXohCAL+wVT/1lHuQxUam2+h06lLF1TV8LZeyuAfFEz1xY6KRAZNHR706CkJYrEYESHUacHajSXLzdNUfAODAAAzpkyW+7SEJEmEBVHjpnt6oVSpUrTpYyv5xT9+c+dALBbLNYYkSaxdtRIkSaJTly6wd3CgUyIrCQoNA4/Hw/atW5Gdnc20HNrR+iDx8cOHeP/uHcqWLYshw3WzB2OzFi3QsBHlX7VSzrefpKQkXDx/HgJDw4IgU9eoWKkS/hxEtSD0mTWTYTV69PyXIwcP4vOnT3CsWhX1GjZkWg4jdOvZExaWlvgUH4/DB+Sz53r88CFib91EaQsLDBgyhGaF7KRW7dpwrlsXQqGwoBVhcWSkp2P71q0wMDCA12zdLOyzsLJCf1k1/ESZJ6k2o/VBYn5zbt/AIK21NpCHiMgocLlcbNm0Sa63n2kTxgMAxk2YCCMdfMvOZ6qHJ0zNzHDzxg18+fyZaTl69BSQmZGBRQsXAKB2hXTp2O9XNv21HQAQs2Rxsfc3qVQKz6lTAAA+/gFa0X9eWfJ3n48ePIjEhIRirx89fBgAYNjIUbC2saFVG5uZOXce+Hw+nj55ggf37zMth1a0+q6yYulSiEQi2Ds4oIUOVOUWhbWNDbr36gVSKi1oofQ7zp89i7dv3gAARo4dqw55rMXIyKig7+nIobq546CHnSyOXAhRXh669+4NB0dHpuUwSkU7O7i2a4eM9HRsWLumyGsPHzyAHz9+oJaTE9p17KgmhexEYGiIiVOmQiwWIzw4qMhrHz2Mw/u3b2FhaYlxk3S7xz2Hw8GSFSsBAIG+PgyroRettcDJyxPCtVkziEQiXI29o3XtqZSBJEk0rlsHALB15y441alT6HVurm2Q+v07jv19RmcqwYuCJEl0aN0K6WlpCAgNRa8+fZmWpEfHkUqlaFKvLng8Hi5cu45SxsZMS2KclORkdG7XFgBw8vwFlClTptDrGtVxBgAcPnESFStVUps+tiISidDCpSFIksT6LVvRwMWl0Os6tG6FtB8/sHTVarTS8U2XfNq1bIGM9HR4+/hg4GAt2EQoxAJHo4NEqVSKN69fIyI4CI9+qtyt5eQEPp+Phw8ewK1zF8yX9TLWA1y9fBmeU6egcuXKqGxvjyuXLhX8zrZ8BdSpVw9nTp2EvYMj9h05wqBSdpGYkIAendxgYmoKt06dcfjggYIkeVMzM3jP80EHNzcIBAKGlerRFqRSKZ4/fYoAXx+8f/u24OeNmzbFy+fPkZaWhvGTJmP85MkMqmQXG9aswZqVK1Cnbl1wuFzE/fNPwe+q16gBQyMjPHzwAM1btMDytappTacN3Lx2DdMmTYSVtTXq1W+AC+fOFvyubLlyaOjSCKdOHIellRXOXLrMoFJ28e3rV3Tt0B4GBgbo3rs3Du/fX/BcMDMzg8fs2ejcpavmPBe0KUjMzMjAtEkT8SgursjrLt24CRNTUzWpYj9isRjNGtQv9rqtu3bDydlZDYo0h1aNGxXZ4N3IyAir1m9AnXr11KhKjzaSlJSEccOH48uX3+fBCgQCnLtyVadzhn8l9ft3dG7XFlKptMjrTl+4qNM5db8iFArRybUNsrKyirxu+569qFm7tppUsR+pVIoBffv86yXuV3g8HtZu2ox6DRqoUZmSaIuZtkQiQb+ePYoNEAGgS4f2EBbxYNc13AcMkOu6UUOHIPX7d5rVaA5zPD2LDBABICcnB6Pch/5r90KPHkVJTEzE4H59iwwQAerBPnzwoGL/LnWF7KwsjB7mXmyACAB/9umtv7/JkEgkmD5pYrEBIgAMHzwI74oIiHSN8ODgIgNEgNqYGTN8GG7fvKkmVapFI4PEEUMG47uczclzc3IwdqRuWt/8SkRIMF6/einXtVKpFH26daVZkWZwaN8+nP/p+KU4xo8aSaMaPdqMVCrFjEkTkZ6eLtf1796+RVREOM2q2A9Jkgj09cHH+Hi5rs9ITy+2gE9X2LxhPe7duSPXtVKpFBPHjJYrENd2rl+5giMH5bNcAoDpkydp5AudxgWJP1JT8fzpU4XGPHvyBM+fPaNJkWYgkUhw5NAhhcZkZWXhxPFjNCnSHFatUKwbg0QiwcKwMJrU6NFmnjx+hDevXys05sihQ0j88oUmRZpBdlYWLp4/r9CYRw8f4m5sLE2KNIc1K1YodH1KcjJ279hBkxrNYc5MxbxzJWJxQQczTULjgsToyIVKjdu6caOKlWgWhw8cgEROV/2f2bimaDsJbefhgwdKHUsd3L+PBjV6tJ2Na9cqNe727VsqVqJZ7NqxXalxJ48fV7ESzeKOkn83f586qWIlmsX3lBTk5uYoPE7eHVs2oXGFKz07d0KCEm/NZubmcG3blgZFmsGd2Fi5zFJ/hc/no0u3bjQo0gzevn6NJ0+eKDX27qPHKlajR5uRSqVoWr+e3K3lfqZc+fJo3LgxDao0g/NnzyrVIs3E1BTt2renQZFm8M/9+/j08aPC47hcLrr16EGDIs0g/sMHxD14oNTY63fvsbfaWRuqm7t17ICvSUlMy9Cjp1j0QaIeRcj3PtSjR4/2cubSZVhaWTEto3AKCRJ5zKlRDmVbKNk7OMJj1iwVq9Ecdu/YjpvXrys8ztTMDGELlDvi1wZu3biOXdsVP8oiCKL4i/To+QmCIGBiYoLMzEyFx7Zs3RoDtMHMV0liFkcrnMsJAFXsHeDp7U2DIs3g+JHDOPv33wqPMzMzQ6gOPxcexcUV29mnMDhcLsxLl6ZBEX1oXJDYvWcvrFawkAAAWrZpjZY67BJPcDhKBYlV7O11+nOr4uCgVJDI42ncV0sPwxAEgZ59+ij19/bHwEE6/T0VCoWY7emh8Lj2bh11+nNzrFpVqSDRuW5dnf7cGjdpolSQaGtrCy6XS4Mi+tC4whVleglzOBxM0PGuBM1btICxEq27dHkXEQAqVKgAx6pVFR4XtWQpDWr0aDvK7AZyuVw00uF8RABKByx9+/VXsRLNopytrVLj3Efots2XgUAAS0vFj4z/HDiIBjX0onFBIpfLxaSp0xQa07tfPxgZ6XZXAoIgsGDxEoXGODg6okLFijQp0hwWK2gRYWpqhlaurjSp0aPN2FWqhL5//KHQmDm+fjrfdUUgEMAvKEihMX3694dthQo0KdIcdh84qND1tZyc0KRZM5rUaA4nzp1T6HoTU1O4j9S84JobFKTgN4sFNHBxwdMnT/Dxw4dir61brz6iY2LUoIr92NnZITMz4199rn9HxUqVcOCYbttD5GNmZgbbCuVx+cKFYq+1sLTEkdOnYWBgoAZlerSRVm1a4/bNm0iSo0Cvb/8/MGHKFDWoYj81a9fGx4/xeP2y+IYBDVxcsGjpMjWoYj+WVlYwEAgQe6t4Oxzb8uWx78hRNahiP1wuF8516uD0yeLtgExMTXHuylVwOCzflyO/AxxLaHxbPoIg4OMfINe1S1aupFmNZjHN00uuoorAkFA1qNEcevbuI5dtwaix42BiYqIGRXq0FQ6Hixmzii+mMDAwwHQvLzUo0hymzvCQ60EcoL+//YsBgwejlBy70f7BIWpQozk0bdECtuXLF3vdiFGjNTZPXeMscACqBdNo96F49PAhxoyfgKrVq+HB/fv4npICCwtL1GvQAK9fvcLmDetRvkIFHD2teGKuthIaGIAjBw/CtV079On/B+7fvYPEhASYmJrCybkOOFwOQvz9YWxigss3ddug92cO7tuHiJBgVK5SBfP8/XHndiw+foyHgYEBatZ2QpXKlTF14gRwuVycu3oNpqamTEvWo6FIpVIM6NMb79+9Q9TSpcjKzMKjh3HISE+HtU0ZNGjYEBfOn8Op48fRvqMbIpcolkaizXhNm4orly5hzPgJqFajBh7cv4eUlBSYm5dGvfr1kJycjGXR0ahib4/9R/XdpPJZs3IlNqxZjdaurvhj4EDcjb2DxMQEGBsbo7azMyxKW8Db0wMGBga4ce8+03JZw5VLl+A1bSrsHRww188Pd2Jj8fHDB/ANDFCzZi1Uq1EDk8ePg0Qsxu0HcewvWinEAgekBvLh3TvSxdmJ7NTWlRQKhYVeIxGLSbc2bUgXZyfy1o0balbITrKyskgXZyeyecMGZFpaWqHXSKVScsTgwaSLsxO5bfNmNStkJxKJhGzesAHp4uxExn94/9vrQgMDSRdnJ3K2p6ca1enRNo4dPky6ODuR3d06khKJpNBrJBIJ6eLsRDaq40w+efxYzQrZyfNnT0kXZyeyRSMXMjs7+7fXNalXl3RxdiJPHDuqRnXsJSM9veBvKTEx8bfXDejbh3RxdiKj5keoUR27aVq/Huni7EQ+uH//t9cE+/uRLs5O5Ighg9WoTEnEr0iSlP7rRxp53Pxnn94AgFlz5/0294vD5SJyKfWG7eOtu/6IPzN0wJ8AgEFDhsLMzKzQawiCQNQyqjJ3WfQitWljM/7z5iIvLw/OdevCrlLl317nPW8eDAQCnD97Bnl5eWpUqEdbyMnJQWhQIABg2cpVvz065XA4iFy8BCRJIiTAX50SWYlUKsXEMZTzRVBIKIyMjH577YmzZwEAi+bPh1QqVYs+NjN+FFVMMXTECJQtW/a31+3YsxcAsG/3bmQp4eWpbYQHBUEsFqNho0ao16DBb6/zCwqGQCDA44cPES9HHQXb0LggccfWrZBIJKji4AC3zp2LvLZ+g4awtrZGWloaVi9X3FtRm7gr2wY3MDDA9GIak9vYlIFru3YAgMnjFLcc0iYSvnzB37LE5C07dhZ5rUAgwPhJlNWSm2sb2rXp0S5IksSGNashEYvRsVMnOFarVuT1ru3bw8raGq9fvsS1y5fVpJKdXLt6FRnpaXCsVg1uXbsWea21TRk416mD9PR0pbzutImkhAS8fPECpqZmmO5ZdH4rj89H/wEDIJFI4Dd3rpoUspOc7GwcPngAHA4HMatWF3kth8OBTwD14jdj8iSl2m4yiUYFiTk5OVglM9JeuWatXGOOnD4NAPhr6xakpf2gTRubkUgkCPLzBQCsWLtOrjHRMdTnHHvrFt69fUObNjZDkmTB5yZvt56RY8bAysoKWZmZuHyx+GpoPXryyczIwNZNm8A3MMCsufOKvZ7L5WJh9GIAwOyZXjq7ey2VSuE1dQoIgpC7ICVq6TIQBIF1q1Yh+ds3mhWyl4H9+gIAZs6dI1fBj7fs9O7q5Ut4HBdHtzzWMnX8OJAkif4DB8KwiF3rfLr36gUzc3N8jI/H0UOH1KBQdWhUkBgWFAhhbi5atWmDsnKagAoEhuj35wDkCYWIiphPs0J2svOvbUhMSEClypXRsFEjuccFhYUDAHxnz6FLGquJvXUL9+7cgZm5OQYOGSr3uGjZrnWIfwAkEgld8vRoGfnHfsNGjIC1jY1cY+o3bIgWrVohTyjE5vXr6ZTHWoL8/AAALVq2gpOzs1xjbMqUwfBRowEAESFBGre7owr27tqJzMxMlClXDj169ZZrDI/PR8j8BQCA4AB/nby/3btzB3FxceBwOJjj4yv3uK07dwGgWkhmZ2fTJU/laEyQ+Ob1a5yV7QouXq6YufGMmTPB5XJx+uQJvHpVvIeWNvEjNRVrZTZAq9ZvUGhsj969YWZmhpcvnuPv06fokMdaRHl5CJhH7eaEL4wEn8+Xe6xznbpwrFoVaWk/sCpG78Wmp3iePHqEVy9fwsLSEuMnK+Z76BsUDC6Ph/VrVkMsFtOkkJ0kf/uG0yeOg8vlIiIqSqGxYyZMgJmZGa5cuowvnz/TpJCd5ObmYuUy6t606a+/FBrbtn17VLG3x7u3b3FJDu9YbUIqlRbkDK9cJ9+pXD4V7ezQ2rUt0tLSsGm9YmOZRGOCxLCgQEilUgSEhCpsSGlsbAw/mb/THE9PnXprXL5sKXJzc9Hvjz9Rtlw5hcev3rgJADA/JAR5eUJVy2Mtx48eQUpKMurWr4+mzZsrPD4/f3HHtm1ISU5WtTw9WobHFCqXNSA4RGE/tbJly6JPH+rYcPggzWv7VRK8PT0glUoxatx4GCvoT1qqVClM96Lys4f+qViXG01n8cKFyMrKQvOWLVGunGKt+Xg8HgJCwwAAfnNmQ6RDaQ5HDx7Ep/h4VKhQEY2aNFVoLEEQ8JX1Ltm6cSO+fv1Kh0SVoxFBYuytW3gUFwcjIyN069lTqTl69OqFcra2iP/wAY90JJfi69ckHDlwAAAwzUs+E+1fqV6jBpo0a47MjAzs2Vl04Ya2QJIkwoODAQABISFKueQbGhlhxOgxEIvFiJofoWqJerSILRvWIzU1FcbGxmjdtq1Sc8wNCIDA0BAvXzzHu7dvVayQndy4fq3gXj5h8mSl5ujdrx/s7CohMzMTZ/8+rUp5rOXTx484uH8fACBSyR7zderWRWtXV4hEIixbHK1KeawlJzsb4SHUc2HZ6tVKPU+tra0xbiJVvDJ3pmYY4bM+SBSJRJg5nerVvGTlKqVdywmCQKDs7Wf0MHed2E0cL+sT6eE9W2lz5/y3Hw6Hg2XR0chIT1elRFbiOZU67uvSrRuq2DsoNQdBEBgzYQIMBAKcO3MGL549U6VEPVpCdnY2NsiOrU6dV/7ojiAIBMnubx5TJoPUcmsXsViM+bLToS07dir1wAZkll9LqUApyNdX64/rpVIpwmTHpZ7es4u0CioKgiAQFB4BHo+H3Tt2ICcnR5UyWQdJklgVEwOSJNGtew9UsbdXeq7R48fDzMwcDx88wJcvX1Sokh5YHyTu37sHOTk5cGncGI0aNy7RXI2bNkWjJk0AADFLFqtCHmt59DAOnz5+RDlbWwxxdy/RXBUqVMCgoVThxhwNeftRlqSkJFy7cgWGhoYFKQrKUqpUKfgGUscLs708dTLJW0/RRC9YgNycHHTs3BmljI1LNJdbly6wtLTE50+fcGDfPhUpZCeH9u9HQsIXVKteHbXlLFb5HVWrV0e9Bg0gFAqxIFS72/U9jIvD3dhYWFha4o+BA0s0l7m5Of6QpTeMGTZMFfJYS3paGnbt2A6BQIAZ3sW3zCwKPp+PWfMoC6E/eyl3MqpOWB0kSiQSRC9YAC6XW/CwLSnhkZHg8XjYvmVNQFifAAAgAElEQVQLMjMyVDInGxk7fAQAqtemKpqKT54+A2bm5oi9dQsf4+NLPB9bmSLzhZwwZSoMDQ1LPF/X7t3h4OiIz58+4dqVKyWeT4/28P7tWxw5dBAcDkdlPXG3yCooVy5bprWGx+np6YiOXAgAmL8oWiX3t9UbNgKgcpG1tYhFIpFg5rSpAADfoCC5etEXx8zZc2BgYICXL57j/t27JZ6PrYwZTgXBI0ZTFmclpVuPnqhcpQqEQiH27d5V4vnohNVB4oTRlEVB1x49UKny7ztdKIKVlTV69+0HkiQLjrG1jWXR0ZBIxKharbpSRReFYWhoiBmyJO/RWvrWeOb0abx/9w5cLhfDZEf1JYXD4RR4t8329FDJnHo0H5Ik4S+rnp/t4wPjEu4i5mNbvjzad3RDRkY61q0p2uRXU1m0YAHEIhF69+tXomO/nzEwMMCUGR4Qi8UIlx3HahsH9+5FWloanOrUgWvbdiqZkyAILF21CgAQ6OujkjnZxoN/7uP9u3ewsrLGmPHjVTbvMpkJ99JFi1id5sDaIPHLly94cP8eBIaG8AsKVuncc2S+Wvfu3sXDuAcqnZtpcnNzsGs7ZWmweft2lc7dq29flLawQOr3FBzUsuMskiQRGUH5Qh4+qVq7H+e6ddGwUWNIJBIE+snvq6VHe3n6+DGePX0Caxsb9P3jT5XNSxAE5vlTbfp2btuGpMRElc3NBvLy8nDy2FEYGBjAS8X+re4jRoDH4+H2rVu4d/eOSudmAwtl97eIqCilczgLo0nTZrC0skLCly/YpaCdjibgNZXaTAqJiABXyZqIwqhoZ4cGLi4QCoUFXp9shJVBIkmSmDx2DADAa/ZspYtVfgeHwyk4XgjxD9CqIpZ53t4Qi8Xo2rMnjEqVUuncBEFg94GDAChDUG3Ksdu4dg1+pKaiavXqsC1fXuXzr1y3DhwOByePHtUoI1U99DBiyGAAVF9XLper0rktLC0xecYMkCSJ2Z4eWnV/c2vTGgDlcaiq3dd8+Hw+YlZTbfrmenlBqkX3tymyHbCWrdugQoWKKp8//7mwNDoa2dlZKp+fKdatXoX09DRYWlqiaYsWKp9//ZatAIDTJ47jM0vTHFgZJJ48fgyfPn6EsbEx+v85gJY1XBo3hk2ZMnj/7i2OHT5Myxrq5umTJ7h66RJ4PB6CZd1SVI21jQ3q1KuHzMxMLJblBWk635OTsVZ2ZLJCznaPisLn8zFwyBCQJImpKjyy0KN5bN1EvaDWa9AArdrQ0+N7+MhRsLC0xJPHj/Hh/Xta1lA3sbduIisrC1bW1hgzfgItazRp1gw1atVCamoq/j6lHQ0EPn/6hNhbN0FwOFgqa6ygaiytrNC1e3dIJGKsiomhZQ11k98mEwAOn6LPHmnmHGpHPNjPj5UvdKwLEnNzc7BU5pz/1176jjQ5HE6BY3rUgvnIytLsJG+JRILQgAAAQEjEfJUkc/+O/F3Yfbt34/OnT7Stow5IksTCiHCQJIlhI0fK3Q5NGWbOmQsej4eHcQ9wNzaWtnX0sJfcnBwsX7IEXC4XobL2ZnTA4/EwW9YyTBuMoqVSKebJ+qfPj1pE61qBIaEgCAL+8+ZqxWnJHC+qgYT33HkqPWb+FU9ZEcvuHTuQmJBA2zrqInJ+BIS5uejeqzdKqfhU7mf6DxgI89Klcf/uHcTevEnbOsrCuiBxy4aNSE1NRdPmzWFnZ0frWg6OVeHWuTNysrOxnqYdJHVx5eJFvHr5AhXt7NDezY3WtQwNDTHNg+p0kG8uqql8+fQJ58+ehYmJCcZOmEj7ejGyv7OwoECteADpUYzZXp4AgE5du6J8hQq0ruXWuTMcHBwgFAqxfetWWteim9XLlyMtLQ2VqlRRqP+8MlSvWRNuXboAAHxnl8zuhGnOnz2L58+ewdjEBAMGD6Z1LUtLS0yYQnnM5nvNaipvXr3CyWPHwOFwMNeX3jxyAwODghdGf595rOtgw6og8WtSUkFPw6DwcFrfevKZNc8HXC4X27ds1thcsby8PPjLfJeCZQandDPI3R0mJiaIvXkTz588oX09uhjpTvk/TvPyUritlzI0atwY9g4O+PTxI44dOkT7enrYw8vnz3Hz+nUAKDD2p5vl69YDAFbFLGN1BWVR/EhNxfZtVJC7Y89etazpFxgEgcAQ586cwY8fP9SypqrJy8vD/FDKWmndps1qWXPo8OEoW7YsXr18iVcvXqhlTVVDkiR8ZUfAvkFBKs/tL4zmLVqgfoOG+J6SgsMHD9K+niKwKkgM9vODVCrF2IkTYWNTRi1rWllZYfgoympnyB/91bKmqlm3ahVyc3PRqk0b1K1fXy1rCgSGBdYu40aNhFQDOzxcvXwZqd+/o1LlyuinwgrTouBwOFi4eAkAICI0ROPTHPTIT6CvD0iSRNTSZWp5kQOovs5NmjVDXl6exu6KRUZEQJSXh8Huw9TywAaAUsbGGCXzTB01dIha1lQ1e3ftxI/UVDRs1AjVa9ZUy5o8Hh9z/am0p6ED1HNPVTWP4uLw+tVLlClbFj1791HLmgSHgwCZkfvCcPW8QMoLa4LExIQE3L51E8YmJhgzTr2J/VNmzEBpCwt8+vgRb9++UevaJSUvLw9bNm4Ah8NBYFiYWnZf82nv5oaatWsjJycHZ//+W23rqgKJRFLgWxi+MFKtn5uDoyO69eoFqVSKFUuXsTJZWY9q+fvkSbx6+RImJiZo2769WtdetX4DCILA+bNnEf9Bs4pYXj5/jjOnT4HH42HyNPX62o6dMBF8AwN8jI/H1cuX1bp2SUlPT8fSRYtAEAQCZDmW6qK1qyvsHRwglUqxfvUqta2rKkYPozqUBYSG0Zrb/yuVKldGp65dAQCTWVTcyJogcUCf3gCoSh++gYHa158ne/sZ465ZfZ1Hy45L/xgwEBYWlmpfP0j2RfKd7a1Rx1mREREQiURwrlsXtZyc1L6+1yxvCAQC7Nu9S6s7/+ihilXmh1G7BOu3blPrAzufuX6Ud2KQnx9IUjN2/SUSCXxku59+wSFq20X8mS07dgIA5oeEQCQSqX19ZQn0oYzaBw4Zgoo05/YXxjqZtcuWjRs1qvPPOpnLhUujxmimokYUihAcHgGBQIDYmzeQkMCOvs6sCBKPHT6M7OxsVK5SBb369GVEQwc3N9iWL4+MjAxs26ye/I2S8vjhQzx/9gyGhoaYJeveoG6qVq+OVq6uAADfObMZ0aAoSUlJOHKIyvtYs3ETIxpKW1hg5BjqOGv44EGMaNCjHv7auhWZGRlo2bo1qlarxoiGXn37wsrKCg8fPMCNa9cZ0aAot2/cwPt371C5ShV07d6dEQ01atZEjZo18fVrErZv2cKIBkVJSkzE1cuXYWpmhinTZzCiwcLCAm6du0AoFCI0UDM62ORkZ2Pd6lXg8XgIWUCf80BR8Pl8TJlB/ZtNm0CPzZOiMB4kSqVSLJC9ZS9atoxRLfl9TzesXYOsLPYbgvrIgrKIqCi1bov/SkQktf7Fc+c0whInLDAAYpEI4yZOVEl/ZmUZM348LC0t8TE+Hndu32ZMhx76yMzMxNqVK6hOKAEBjOwiAtTDJ2xhJAAgYN5c5LGsgrIwvGRtU+kwHFeExSsob8H1a1bje0oKYzrkxX0g5S08ZfoMRnZf8wmPpP7ezp89gxfPnjGmQ17y/9669eyFsmXLMqZjyLDh4PP5eP/uHf4+dZIxHfkwHiQG+/lBKBSiXoMGsHdwZFSLlZUV3Lp0RU52NqIZepOQlz07d+LLp08wMzNHGxX14VSW/L7OUqkUPt7sTo6/f/cubl6/Dg6HgzFqsLwpCg6Xi/mLKM+3ebNmMqpFDz1MHT8OAHXjL1fOllEtjZo0QaMmTZCWlob9e3YzqqU4FoSGQiwWw6VRIzRwcWFUS5kyZTDEfRjy8vKwWObhy1aOHzmC1O/fYWlpif4D6GlEIS8cDgcRUVEgSRLB/uxtOwdQjSjyvWt9WbDzuf/oMQBAVEQE42lcBMlgAt63r1/RtQOVxH3n4SPG3rJ/Jjs7G22aNgFA/UOpqoG8KhEKhWjbojlEeXk4d/UaSpcuzbQkAECjOs4AgOiY5XBtx2zgWhgkSaJr+/ZITv6GVes3oEmzZkxLAgC0a9ECGRnpGDthIiZOncq0HD0q4vv3FHRydYWJiQku3rjJivtbwpcv6Nm5EwDg7qPHDKspHLFYjOYNGwAArsXegYDB3f58crKz4dq8GaRSKU5fuEir6X5JaNuiOTIzMnD8zFmUs2X2pQSg8ko7ubZBWloaVqxdh2Y0tLZTBQP69MbbN28Qs3oNWrRqxbQckCSJEYMG4enTJ5g0dRrGqOvoWfIa4DoC+P+9irGdRJIkC5Jrp3l6seIGCgClSpWCj6yIJcjPl5XWLitjYiDKy0NHt06sCRABYOe+/QCAiJBgiFmY5H32zN9ITv4Gx6pV0bhpU6blFHBGVjm5dfMmfRGLFtFXlkfnNXsOa+5vtuXLo0evXgCA8SNHMKymcMaPHAGSJNGnf39WBIgAYFSqFGbOobxo2WrtEjU/ApkZGahWvTorAkQA4HK5WLSMatPnMXUKK9Mcjh85grdv3qB06dJo3rIl03IAAARBYFFMDAiCwOoVyxlNc2AsSLxz+zZib9+Gqakphri7MyWjUHr27YsyZcrg8cOHeHD/PtNy/kViQgJ2bttKtd2i2QleUarVqAHnunWRkpyMfSw7zhKJRPD19gZBEAgOj2DNQxug8sV69+0HUV4eIiMimJajRwUc2LsHWZmZKFO2HHr1ZaYY73f4BQXD0MgI9+/dw8f4D0zL+RcP/vkHD+PiwOVy4RsYxLScfzFwyBBUqFgRKcnJuH3zBtNy/kViQgL279kDAPhr9x6G1fybBi4uaN6yJcQiEbZvZVfxT3Z2NqIWzAcArNu6lVXPhTJly2LYyFEAgPmhIYy5rjASJIpEIgT5+gAAwiOjGLG8KQo+nw+/YMqp3mPKZNZY4pAkiTkzvQAAE6ZMhaWVFcOK/g1BEAiNoL5wS6KikJGezrCi/xMRHASSJNGxc2fUrF2baTn/wWvOHPD4fJw8fgxvXr1iWo6eEpCbm4vlSyjD9PUseygCAI/Ph+csKnd4+uTJDKv5P1KpFKEBlFXP0pXs9NcLDqde4tj0uQHAgrBQSCQSTJwyBTw+n2k5/8EnIBA8Hg+rYmJYZSW0ecN6ZGVmol2HDrC3d2Bazn8YM2ECzMzMcPH8ecaKQhkJEk8cO4qvX7/CuV491uYotGjVCvXqN0B2dja2bNzItBwAwNvXr/Dk0SPYlCmDocOHMy2nUOwqV8YfAwdCKpUixN+faTkAgMzMDBw7cgQCgaAglYBtGBsbY57My26e9yxWpjnokY9l0YuQmZmJ5i1aoEKFikzLKZT+AwbAwECAjx8+4PiRI0zLAQAcPXQIH96/R0U7OzRlwKNOHuo3bIiatWpDIhazZtf/6dMnuHblCkoZG8NdtvPENmzLly/YUR87gh3ProyMDGxevx4cDgezfXxZtYuYj7GxMaZ6Uv3emer8o/YgkSRJRAQHAwACQkIYtW4pjoWLF4MgCKxctpRpKQAA94EDAQCzfXxgwLLd15/xmOUNQyMjXLxwHrm5OUzLwbBBlA/h0BEjYGpmxrCa39Ojd2+Ur1ABb9+8wcMH/zAtR48SfIyPx4G9VH/hhUvYcd/4HUdOnQIAREcuZLyCMjsrq6Ad2eLly1n9XNj4118AqJSC9PQ0RrVIpVJMHU8VNQSEhDJq6VUcc3z9IDA0xJNHj/Dm9Wum5RTk5A4fOQo2ZdTTBlgZ+vb/AxUrVUJqairOnj6t9vXV/k30nDoFUqkUbp07w4Fhy5visLaxQbsOHQAA4xhO8t6yaSNEIhHsHRzQrkNHRrUUh6GhISZOmQIA6Ni6NaNabt+8iY8fPkAgEGDytOmMaikOLpcLvyDqBWrsiBGsSXPQIx/UC3AQpFIpZs6Zi1IMetTJg02ZMqjfoAEy0tOxfs1qxnSQJIl1q1dDJBKhS7ducHCsypgWeRAIBBjs7g6JRAL/ufMY/Z5evXwZ6Wk/UK1GDXTs1IkxHfLA5XIREEq9CMycPo3Rzy0hIQGvXr6Embl5wU4dWyEIAtExywEAgQwU06o1SPyekoJrV65AIBAgKJwdW/XFESnbDfjn3j28fcNMX+fcnJyCdkGrNrDj6Ls43EeMhE2ZMsjNzcWlC+cZ0SCRSBAiy3FiqrOKojRp1gwNGzUCAKxaHsOwGj2K8PjRI9yJjYWpmTn6/cnOCthfWbB4CQgOBxvXrsW3b98Y0ZCeno7tW7eAz+fDa/YcRjQoyoyZs2BgYIDrV6/g0YMHjGiQSCSYOX0aCIJAYEgoIxoUpXOXLjAzM8Onjx9x+MB+xnQMlLUB9vbxYUyDIjg6OqK2kzPyhMKCFp/qQq1B4oRRIwEAYydOgkAgUOfSJSJkPlWM4Tvbm5G3n2B/f+QJhXBt1w42LPXnKoz8t5+QgABGjrO2b9mCpMREVLG3R5169dS+vrJEREaBy+Nhy4YNyNSgvqe6jEQigcfkSQCoNBpNub9ZW1tj9FjK8DssMJCR+1v+sd/IMWNZV4z3O3g8HsIjKWPtkEBm7m/5FnKt2rRhZTHe79gus0pbvmQJshnobLZr+1/Izs6Gbfny6NqNmXaPypCf5nDs0CEkJiaqbV21BYkXzp7Fu3fvwOPxMGrsWHUtqxK69egJC0tLvHr5Uu1tcl6/fInzZ88AQIHflKZQ28kJNWrWRHpaGlaqueVi6vfvWLea2n1drSG7r/lY29igZ+8+IEkS3h4eTMvRIwdHDh5AWloaajvXQdv27ZmWoxAjx4yBeenSuH71Cj7Gx6t17YdxD/Dm9WtYWllh7ERmOyApSpu2beHgWBXv373DhXNn1bp2UlIizpw+/a9gVVOwtbWFa7v2SE9Px/q1a9S6dk5ODlavWAEA2LB1m1rXLil8Ph8Tp0yBWCxGmBq7wqglSJRKJQVJyXsOHVbHkipn5br1AIAFYWEQ5uaqbd3QwABIpVLWefvJS/4XcfeO7fialKS2dWOWLIZQKMSfgwaxtjtCUfgEUFXYd2Nv41FcHMNq9BRHRAhlmRW+YIHGfU+NSpWCx8xZAIARQwardW0vWYehwLAwRvszKwOXy0VgKHX0F+jjA5EajaLneHlBKpVi3MSJrM99/RWCIApa3+Wf9qiL6IULkJ2VBdd27VC2XDm1rasqRowZCwMDA9y6cR3/3LunljXVEiRuXr8BKSkpcKxaFZWrVFHHkiqnWvXqaNm6NTIzMrBjm3reQG7duI4njx/D1NQUXbprzrb4zxgaGWHMhIkQiUSInK+ePNSkxEQcO3wYBMHBlBkeGvfQBqi+pyvXrQdJkgV5lXrYybSJVHVpi1YtYVe5MsNqlKNH796obG+PjPR0nDx2VC1rblizBj9+/ICFhQVatmK2wE1Zajs7w7Vde4hEIkRHLlTLmteuXMbjhw8BAKPHq6ldm4qxtLLCpGlU8cpsL/UUjnz48B5HDh4EAIQtjFTLmqqGz+dj8XJqJ3TuTC+1FLHQHiT+SE3F6hVUblr+bpwmQhAE5vkHgMPhYNXyGKSn0Wt9IBKJMHM6VY27ZMVKjXvLzocgCIwaOxZ8Ph+Xzp/H82dPaV9z9PBhAICZc+bAxMSE9vXookmzZihtYYF3b9+q7cGtRzGSEhNx8/p1EASBmNVrmZajNFQFJZXOEhYUBIlEQut6OTk52LyBeh4cO6Peo1pVQhAEgiMiwOPxsH/PHgiFQlrXk0gkmC/btd6xd59GvgDnM3LMWJiXLo0njx7hy5cvtK5FkiTCAqic29m+vjAyMqJ1PTpp1qIFqlWvjpSUFJw/S/93h9YgkSRJRMmKPoYMG6aRx34/U87WFkOHUQHIbE96c8X27toJoVCIxk2bon7DhrSuRTeGhoYIDAsHAMzy8KD1AfQwLg5JCQmwLV8BA4cwYz6qKgiCwLrNmwEA80NDkZOdzbAiPb8yawb1IuflPZthJSWnShV71G/YEHl5ebTnPEWGh0EoFKJz166s9vaTBxMTEwwcMhQAMHzQQFrX2r9nN5KSklC9eg1Ur1mT1rXohsvlwnsuVXzTvwe9J2Vx9+/jn/v3YGlpib79+tO6ljoIDA2jNq5mzaT9hY7WIPHzp0/4+9RJmJiYYPwkdrUxUpZJ06bD3Lw07t65g/gP9PQ9FYvFWBIVxcr+pcrSqUsXOFarhsQvX3Dl0kXa1hkr20UMCA7W6LfsfBwcq6KDmxtycnKwcf06puXo+YmL58/h2dOnMDYxwWDZy6Omk1/kdfL4MdragL198wbHjhyh7m8yX1BNx9PbGwKBAG9ev8bdO3doWSM9PR2LI6lj0oVLFmvF/a1L9+6wd3SESCTCnp07aVlDIpHAcxqV++ofEsq6NsDKULN2bXRwo3wx81sc0wWtQeJ4meXNVA9PmJia0rmU2jAQCODpTfU9HT3MnZY1Jo6mWiv17NMHFe3saFlD3XA4HATI+mHP8fKiZY2li6IglUpRs1ZNNG7WjJY1mGDWPB9wuVxs2bAB2frdRFaQl5eHBWFUMd6q9RsYVqM6+Hw+ZsycBYlEgtBA1bewlEqlCJg3FwAw189P44ouiiJmFWVIHkzTQzsyIhwSiQT9/vgTdpU0M/e1MJbIcuxiFkfT0td5766dyMjIQN169dHa1VXl8zOFb1AQBAJDnDpxAj9SU2lbh7Yg8eqlS/ialAS7SpU0xlhWXnr07g1LSyv8SE3Fvt27VTr3xw8f8OCff2BkZIQ5vn4qnZtpnOrUQZNmzSCVSuE/V7WmuVlZWdi9g3oTXbt5q0rnZhobGxu4j6BeuIYPHsSwGj0AsG/3bqQkJ6Nho0ao7eTEtByVMtjdHQYGBrgbG4s7sbEqnftR3AM8f/YMZcqWRc8+fVU6N9O4NGmCMmXKICEhATu2qvYelJOTg9MnTsDQ0BAzZs1S6dxMU9HODs2aN4dQKEQADebW0QupgqLwheopLFIXpqamGDFmNABgnGxDjg5oCxLzK5bmRy1idR9OZdl7mLLyWb5ksUrnnSqrlPT28QWfz1fp3GwgZvUacDgcnD55ErkqtBLy8Z4FsViE3v36wdjYWGXzsoWpHh4wNzfH+7dvaTsG1CMfGRkZWBJFHfsFhIRqxbHfz/B4PCxfQxXhzPH0UGkF5ZjhwwEA/sEh4PF4KpuXLeyQGUXHLFms0hxitzZU9ffYCRO18v62fC2VSnP29Cl8+vhRZfPmn2a2cm0D2woVVDYvWxg3cRIIDgfv3rzB9atXaVmDluhtQVgYRCIRatSspVFO8IpQ2sIC9Rs2RHZ2NuaHqCav5ujhw/j86ROMSpVCrz59VDIn2+DxeBgybDhIksQE2bF6SXn86BGuX70KHo+nNTmcv0IQBOb6U8d/Qwf8qe/rzCBBfr4AgAGDB2tNOsivuDRujNpOTkhPT8fJE8dVMuem9VQ1cwMXFzRv2VIlc7INC0tL9OjdGxKJBDGLF6vke3rr+nXk5ubCxsYGIzWsEYW8EASBOX7UyVmwn69KPrfPHz/i/t274HC5WLpiVYnnYyMEQWDH3n0AgIiQYFo6/6g8SExOTsbhgwcAAJu2b1f19Kxi5br1IAgCB/fvx6cS7u7k5OQgJnoRAGDvwUOqkMdaPGbNAp/Px5NHj3D75s0SzSWRSBAq8xEMj4zUyl3rfNw6d0Y5W1tkZmRgp5q8OvX8m29fv+LyhQswNjHBNA/1+LsxBbVLykGQj0+JHz45OTlYFbMMXC4XYQu069jvVzxmzoKBQIB9e3YjoYTWLhKJBD6zqRz4iEXRqpDHWvr064/SFhb45/593Lp+vcTzzZI5kMzx8S3xXGymeo0acHB0RFJiosrTHAAagsTQAH+IRSKMGDNGY/qXKotAIMB0r5kgSRLhwUElevvZuG4tfvz4geYtW6Jc+fIqVMlO8j0zS/r2c/HcObx5/RqVKldG23aa1Q5NGbbk512uXoUsBvqe6jruA6j86slTp8FIi4ouCqNq9ero3K0rAGCed8ny4PKtgrp0666RnS4UobSFBSZPnQYA8Jo2tUTPhVXLY5Ceng4HR0c00HArtOLg8/mIkFVvB/j6IK8EHWzOnD6FVy9ewMzMDP0HDFCVRNayfC2VHrJ21Uqkfv+u0rlVGiQ+uH+/4Nhv0pSpqpyatQwYPBjmpUvjzq1bePL4sVJzJCUlYdumTQCAoLBwrctxKoz6DRvCsVo1fP70qcAFX1GEQmHB0V9weAS4Wpjj9CvWNjbo4NYJ2VlZWBqlWT1bNZ1TJ04gJSUFllZWGDh0KNNy1IKPfwCMjIxw8dw5pKSkKDXHs6dPEXvrFgAgQNbGTtsZ5O4OW1tbvH71Ck+fPFFqjpSUFOz66y8AwNZdqi2QZCuNmzaDS6NGSP3+HQf371NqDqFQiIXhlC9vvqWTtlO2bDkMGDwEeXl5WLJokUrnVlmQKJVK4SerWF28YgV4Wlh0URgCgQD+Mq+vyePGKpXkHegzD1KpFBOmTIGVtbWqJbISDoeDBbLjk8j5EcjMyFB4jtXLlyM3Nxdt2rWDc926qpbIWvIftIcPHsC7d+8YVqM7RMr6z2/Y9hfDStRHKWPjgtZv+R6kihLk6wOSJLE4ZrnGdo5SFB6PB58AypB8tLtyLxRREeHIy8vDsBEjNbpDiCIQBAH/EOr+Fr1ggVJz7NqxHWk/fqBxs2YabziuCFNmzACPx8PJY0eR/O2byuZVWZB4+dJFJCYkoHKVKmjRspWqptUI2nbogNpOzsjOysLpEycUGpuUlIi7sbEwNjHBqLHjaFLITuwdHNCrT19IxGKFk7wlYjG2b90CDodT4D6vKxgbG2Oevz/V19nfT1/EogYWLZiPjIwMVKpSBZUqVWJajlrJb6v5MT4eF8+fV2jsyePH8eb1axgbG6N127Y0KWQnzb5WX+AAACAASURBVFu1QhV7e0gkEqyWtTyUlxfPn+PcmTPgcDiYMGUKTQrZSUU7O3Tu3h0kSWLsiOEKjU1LS8OKJUtAEAQCgkN07rngMXMmAGBw/34qm1clQaJIJIL3jBkAgFAlo39NJyg8nDKM9pmnUI5d/x49AACz5/lopSVEcXjMopK8D+7fh4z0dLnHDZXlhv05aBDMzc3pksdaevftB0srKzyKi8OjuDim5Wg1375+xd5duwAAe7S8qOx35FdQLgwPk9vwODc3BwvDqF2hzTt26tQDO59N23cAAP7aukXuHGKpRIK5M6mGAyHz58NQR3YRfyY4LByGhoZ4cP8+EhIS5B4XIDvNHOw+DLY6kNv/K4Pch8G2QgWkpqbiwf37KplTJUFi5PwIAEAHNzfUdnJWxZQah4OjI1xlhRPz5DQ7PXLwIHJzc2Hv4IDuvXrRKY+1mJmbY8z48QAA94HyJRg/iovD61evYGRkBO959LYkYis8Pr+gg83UCeP1u4k0Mj8sFFKpFGMnTtRK71J5cKhaFTVr1ULyt28F+dPFsXXTZmRlZaG1qyscHB1pVshOzMzM0KVbN+Tl5SFQzk4s169fw8f4eFSxt0enLl1pVshOeDwepsk6c00ZJ5/tT8KXL7h+7RrMzMwwefp0OuWxmiBZOtKE0aNU8lwocZCYkZGBQ/v2QSAQFORg6CphCxeCw+Hg8sUL+BgfX+S1YrEYC8OpY9KopcvUpJCdjBo7DlbW1vjy+TNi5bDEmSezhFig5ZYQxdHK1RV169VHdnY2ttNgfaAHeP70Ca5cvAhjY2OMGD2GaTmMsmQl5TW3Ye0apCQnF3ltRkYG1q9eBQ6Hg7l+/uqQx1rCFlIVu5cvXMBzOYpYZskCnICQEK229CqOgYOHQGBoiPgPH3BKDq/O/E2GqR6eMDQ0pFsea3Fp3AQ1a9WCRCLBkkUlL24s8V9gfv/iwcOGwbx06RIL0mQEAgG8Zs+BVCot8Lb6HcF+vsjLy0PDRo1Rxd5eTQrZCYfDwYJoKuArzmpj1/btSPzyBRaWlmjZpo065LGaiKgocDgcLItepNLOGHooj7oZsnww38BAnSke+B02NjYYNnIkRCIRFi0sOq1osmz3x33ECK23vJGHBdHRIEkSwQFFB8zhwcGQSCRo0rQp6tZvoCZ17GXvIaqz2aIFC4tM4zp68CDSfvyAtY2N1rUBVoa1mzcDAPbt2oW0tLQSzVWiIPHOrVt49+YN+Hw+pkyfUSIh2sKgoUNBEASePXmCC2fPFnpNwpcvOH3yJABglawLga7ToKELLCwsqcTjZYXvrObk5CBmMRVM5t88dJ1ytrZo064dAGDyWN3e6VI1169dRUpyMqpVrwE3HT32+5Xxk6eAx+Ph7OnT+Pb1a6HXJCUm4tmTJzA3N8eUGR5qVshO2nd0g5W1NV69fIkbV68Ueo1QKMThA/vB4XCweMVKNStkJ+UrVEDd+vWR9iMVm9av++110ZGUQfvWnbvUJY3VGBubYMDgIRCJRAiSM83hdxBkMYfWmRkZCPTzxeULF/7zOy6XC4lEgk3bd6BuvXolEqJNvHn9GgP79gGPxyv07Sf/516zZ2PIMMWqt7QZiUSCpvV//3eU/7l16toVEZF6j8CfaVSHygXO/07+jJWVFVauWw/HatV0snigKNJ+/MC0SRPx9DcepwRBYOvu3ahd20nNytjLvj27sTAsDDw+H+IiilhCIiLQradu5loXRtw//2BMETZCHA4HUqkUfw4ciDk6fkT/M8nfvqFrh/YgSRIEQfwnzy7/uVC9Rg3s3H+AIZXsQywWo2UjF0gkkkJjEUsrK8SsXo0aNWv9/7kgeQ1wHQH8/zlR5E7ijWvX0K5li0IDRAAFDyNtbDheEjiyD/x32+P5P69UqbLaNGkCGRkZRVZ4539utWo76Qs1fiI3N7egwvvXABGgTHkH9e+HyPDwQn+vqxw9dAgdWrf6bYAIAEalSsHM1EyNqthPlSr2IAiiyACRw+HATn9/+xfm5uZFFj7lp4s0atpMXZI0Ah6PV5DKVth9P/+50KV7d7XqYj0kCXtZwVhhscj3lBS4DxiA0KDAIp+n3KCgoKDCfvH86VOMGzlCLi0H9+1Ft549YWamv5mmpaWhRyc3ua49ffIkGjdtqpOl+r+Sl5eHTq5t5LLXuH3zBqytbVDbSb+7Q5IkBvfvh6TExGKvffrkMdLS0tCyVWud31E8deI4gnyL7+kqEolw8tgxdO/dG6W0vA2fPDx9/BjjRo4o9iWNJEmcPHYMbdq21ZkGAUXxPSUF/Xv3gkiOVnPnz5xBteo1YO/goAZl7EYqlaJX1y74kZpa7LW3b94E34CPBg1d1KCM/Qzq3w9vXr8u9roXz57h/du36NipM0B+BziW+Hkn8bfHzS1cGirUO9GuUiUcOnFS7uu1lW4dOuDr1yS5rzcwMMCNe6rxM9Jkpk+aiBvXrik05sa9+zAwMKBJkWawKiamyFydwjhy6jQqVKxIkyL2k/r9O3p0coNQKJR7TNPmzQv6jesqeXl56Naxg1wP7HwqVrTDwRMndLpKFwD+7N0L796+lft6Y2NjnL54SeeLpWbOmIbLFy7KfT2Xy8XR03/rfLHU1k0bsXzJEoXGbNi6DfXrmcl33Hz+7FmFm2t/jI/H3dhYhcZoG+/fvVMoQASoG++ObbptX5KdnY1bN24oPM6nmEpobYckSezdtVPhcUXlRekCx44cUShABKhdikQFTH21kedPnyoUIALAp08fcef2bZoUaQZisVihABEAsrKylPpuaxuKBIgAlW4TXUzlvS6wSYmC2GB/v0J/XmiQuEhmjq0oJ44dVWqctqDojk4+J48dU7ESzeLU8WNK2bfo+kvJw7g4ZGZmKjxOlX09NZGd27YpNe5OrG4HO2tWLFdq3Nm//1axEs1i3SrlKpUvKdgCUdu4evmSUuPi/nmgYiWaxefPn5ClxHMh4cuXQn9e6HFz66ZNkJOdrbg6PXr0aAR3H/2+WEObycvLQwuXhkzL0KNHjx7WceT4GlSo3BI/HzcXWkpakpR2XU6IL0nFrf5zUw7956ZHnej/3pRD/7kph/5zUw7956Yc0kLGFhoklipVCtlK7CR27d4DoQt0Nx9gjpcnzv/GQLsoqlarht0HD9GgSDPY+ddfWCwzQ1UEY2NjXL6lu0eA9+7cwYTRo5iWoVHw+XyYm5sr1YVgjq8f/hw0iAZVmsHIoUPx+GGcwuO69eiJkPnzaVCkGSxasAC7d2xXeFzNWrWwfe8+GhRpBmdOn1Yq79zc3Bznr12nQZFm8PbtGwzo3VvhcRwuF+XLl/nvzwu7eOzESYorA9BBTusXbWXYqNFKjcvvmKGrdOneTalxNWrXVrESzaJOvXoQKNGj1NjEhAY1mgFBEPhjwEClxjZr0ULFajSL8ZMmKjWug5tuPxcmTJ6s1DhdbzvavmNHpcbVcnJWsRLNwsHBEUZK2HXZ2NiAy+X+5+eFBon9BwxQeAFra2u4tmuv8DhtwrlOHYUtWXg8HsZPUu4moi1YWlqheo0aCo9bquOtqwwMDNClm+IGshu3/UWDGs2h/0DFg8TqNWqgop0dDWo0B5fGTRS2sjEzN0crV1eaFGkGpmZmMDE1VWgMl8uF+4iRNCnSDHg8HqpVV/y54D1vLg1qNIsevRTfSfSeV3j7vkK/8QRBYP1WxWxZVm7YqNN5APmcUrBkP2xhZJFdRnSFbbv3KPQAGjp8uN7cGIB/cDAsLCzkvr5RkyaoWq0ajYrYT5myZTHd00vu6zkcDqKWLtP5+5tAIMDyNWvlH0AQWLAoutDdCV1jz8FDCv39TPP0hKmCgaU2smPvXoX+fjp06oTKVexpVKQZzPH1LbK7z6+ULVcObdsXvsn326dyg4YumO3jU+yDm8PhIDomBo6y9i+6jrm5OdZu2izXP9DEqVPRsVMnNahiPzweDyfOnkMpOVo8duvZEx6zvNWgSjM49vcZWFpZFXtdfRcXrFirnE2TtjF89GgMGjK02Ae3oaEh1m7arNPm4z/TtHlzzPXzL/bBzeFw4BcYhCbN9C3mAOohvHrDRhjKkR4yZPhwnd9FzIfD5eLwqVMwk7UdLYoWrVphYfRiNajSDK7G3pHLVLx6jZo4fub3tRS/bcsHAE516qB127Z4/fIlkpL+bRJNEASaNm+B9Vu2oLazbucA/Er5ChXQq09fvH/3Dp8/ffpPtZFTnTqIjlmOzl2Vy8XTVoyNjTFoqDsSEhLw4d17SKX/7jNcxd4e/iGhGDV2rM7v6vwMj8/HsJGjkJ7+A2/fvPlPa8MyZcpgqqcn5vn563zni59p0bo16tVvgJfPX+D795R//Y4gCLTr2BFrN25CFX17tH9R29kZ7dp3wOvXrwo1GG/UpAlWr9+AxvoA8V+Ur1ABPfr0wcf4eMR/+PCf39esVQtRS5ehT7/+DKhjL6ampvhjwECkpCTj3du3kP7Sf96uUiX4BARg8vQZ+ufCT3A4HAwYPBiiPBFev371n5aQ1tbWmDRtGgJCQv//XFCkLd+vJCcn49WLF8jKyoK5mRlq1KolV3Sv66Snp+Pl82f48eMHShkbo1q16rAp898KIj3/JjcnBy+eP0dy8jcYGAhg7+Cg8zlh8iASifDyxXMkJSaBy+HArlIlOFStyrQsVkOSJBITE/Hu9Wvk5ObAwsIStZycdL4lmjykfv+OF8+fIyszEyZmZqhZqxbM9c+FYsnKzMTzZ8/w40cqjIxKoWq1aihTtizTsliPUCjEi2fPkJz8DXy+AarY28OuUiWmZbEesViMVy+eIyEhERwOBxXt7ODg6PjfTQPJ6/+05ZM7SNSjR8//2rvrqKiWOA7g34UlFUxUbMXGFgsbURADFVRQMVGxu8AObMVO7MYCxcJAbLAxsJ6kKGUAK8vGfX+Al73sLrmE+vuc4zk3Zwbf8/K7d2Z+QwghhPylFASJ1PdECCGEEELkUJBICCGEEELkUJBICCGEEELkUJBICCGEEELkUJBICCGEEELkUJBICCGEEELkUJBICCGEEELkUJBICCGEEELkUJBICCGEEELkUJBICCGEEELkUJBICCGEEELkUJBICCGEEELkUJBICCGEEELkUJBICCGEEELkUJD4BxOJRLh96xYYhinophBCyD9FKpXi2ePHiAgPL+imEJJn+AXdgL/Nwwf3cfPaNcTGxEJDUwM1atSEzYABKFasmMrqiI6Owt5du+Dt5QWBQIAHT5+Bz6f/lIQQosjWjRvx38cP6D9wIFq2ap2rskQiEQ7t24czpzzwJTISs5xd0N/eXkUtJaRwochCReJiYzFq2FCEBAdzjl/FJezYugU2/QdgtotLrup4/+4dFjjPxcf37yGVSnNVFiGE/Avu3b2LfXt2AwDad+qU43JiYmKwyMUFjwP8IRKJVNU8Qgo16m5Wge/fv6OXpYVcgPibVCqFx/Fj2LB2ba7qqVqtGvYeOoyDx47nqhxCCPkXJCYmYsq4sSopq2TJklixZg1u3L2nkvII+RNQkJhLUqkUo4YOQVE9PXj7XMOjwJfsnxVr13G6gY8dOojEhIQc16WhoQEdHR3UqVcPpUqXVkXzCSHkr+U4dIjKel3U1NSgp68PHR0d1KhVSyVlElLYUZCYS743brABYtly5TjnulhYYOvu3eDxeABSAspTJ06opN6iRYuqpBxCCPkbXfb2xod372DSooXKy65YqZLKyySkMKIgMRcYhoG3lyd27HGHurq6wmuamTRHhYoV2f0vXyJVUreGhoZKyiGEkL9NTEwM5s+dg27de6BVa1OVl6+jo6PyMgkpjChIzAUej4d1mzZDS1s7w+tMWrZkt2vXqauiuuk/HSGEKDJ6+DBoa2tjyYoVeVI+ZZMg/wr6Pz0faKQ+ULS0tNC9Vy+VlJnag00IIUTGZrcNCA0OxlXfW3lWB72kk38FBYn54HFAAABg5JgxBdZNHBcXhysXLyIsNAS6RYqgmUlztDI1ZcdLFoS3b17jus81CAQCNGrSGOZdLbLUnk8fP+L40SOYO38Be+yMhweivn7FmPHjFZbxJTISZ0+dglCYhA4dO6GJiQkAwP/BA9SrX5/GeBLyF3j/9i0OuLvDecFClChZsqCbwxKJRLh66RKCgt5ATU0NderWg6WVVYE+f6O+foW3lxeio6NQzcgIPXpZZ6kbXZCYiK2bNmLqzJng81N+nz28fx/37tyB/eDBKGdoKHdPQnw8zp4+jcjPEWjUuAksrKwAABHh4YiPj0eduqrpYSOqx2NouY48lZSUhE5tTFGzZk0cPK6aSSsAMNDWBu/evgUApcm0GYaB740bmDV1CtTV1VGlWjWULFkKoSHB+PrlCwCgrrEx3A8egqamJnvfzevXsGLpUsTFxnLKU1dXR+06dTDLZR7qN2jAObdjyxZcvuiN8LAwAICmpiaqGRnhyEkPznXCpCSsWLoUF7w8YWBgAHU+H7GxsRAlJwMAjI3rY9uePSgiE7QxDIPv37/h/Llz2LpxIyQSCQDgUeBL/PfhA+xtbdhjAHDHPwDaqQ+7sLAwDOid8vCrXbcedHV18TboDb5ERrIr1Vy56UuzxQn5wwmFQvSy6AqDMmVw6MRJNgDbv2cPtmx0AwDMX7IE1n365rquJQsWwOvsGQDIMJl2aEgI+ve2hkQiQYWKFVG+QgVEfv6M8LAwMAwDPX19HPXwgGH5Cuw9P378wKB+tvgSyR2/zuPxULVaNfS2tcUghyGcc08fP8Zq1+X4+OEDpFIpe+3RU6c5HyYkEgk8z56B6+LFKFGiBLR1dPDz508260bJkiWx7/ARVEg3MUcgECDA/yGcZ8yEUJgEALgb8AgSqRRWnc2QIJO1Y/3mLWjfsWPqfYkYNmgQIsLDUatWLRiWr4C3QW8QER4OsVgMAFi9YQPMzLtk/S+f5B3JB0DdCEDaywt9ScxDEokE0ydNRPMWLbBp+458r//UyRNYtWwZ1NTUcPikB2rUrMme275lM9x37sSbV6/g0L8/Tpw7x57r1NkcnTqbw8lxJB49fMgeX7BkqdLucqcJE+Do5IRWTRpDTV0dh096oLqREeea79++YVA/W0ilDM5fuQrD8uUBpATSM6dMxv27d/Hq1UvY9OqJk2fPQT91lZpJY53w5vVrfP/2jVPezx8/YG9rAz6fzwkSL3t7o7etLWJjYzHQpi+qVq+Oox6nOPc+vH8PE52cKCk5IX8BhmGwYc1qCAQCbNi8pUC/0P32MvAFRjg4QCqRYM68+bAdMIA998jfH04jRyD+5084DLDDhatX2RfbYsWK4cJVHxw5eBAb1qxm76lVpy6OnDypsK4mzZrh2OkzsOvbBx/ev4fLwoXobWPLuUYqlWLmlMkIePgQ6zZvRoeOndjj27dsxr7duxEXFwdrq2446+2NSpWrAAB279gOjxMn8C02lrMErEQiwcB+tkj/lenyRW+079gRDMNgQJ8++CUQwOvyFZQqVYq9JiY6Gg52AxAdFZX9v1iSr2hgRR75FheHsY4j8fD+fYR8+oTrV6/mextWLVsGAKhdty4nQASAkaPHsBNuPn78oPD+HXvcOV8Yk1O/9ikjTEp5w7To1k0uQBSLxXAaOQKxcXE4ff48GyACgLa2Njbv2Al9/ZSgMCY6GgtdnNnza9w24prfbQwdOZL7MwxxwOoNG3DN7zYsU7svAMDc0hIAsG3TJvz69QvrNm6Sa2vL1qaYM29+hj8PIeTP8OrlS5w6cQIuixbDoGzZgm4OAMBl9mxIU19eZQNEADBp0QLFihcHAHz//g0P7t+Xu3/QkCFo3LQpuy8WZfz8BYCEhASoq6vLBYgAsHj+PNy+dQubtu9gA0QgJf/j+EmTYds/rY221tbstsOw4bh60xe7DxzklLdloxvMu3aF7737mDJ9Bnu8p3VvAClBcuTnz7Ds3p0TIAJAaQMDbNy2PdOfhxQ8ChJV7PmzZ5gxeTKszDvjyaNHAICIiAjMnj4Nc6ZPz7d2xMbEpO0oGFGgqakJoxo12P34nz8VlrPGbSO7vXPb1gy/vD3y9wcAOAwdJnfO6+xZfHj/HtNnz4ZukSIK71+4bCm7ffvWLbbrWjs1mG1tyk1l0dLUFB06mUFHVxfLVq3G+as+8HvwkB1f+PDeXQAp3TeK9O3XT+nPQgj5czgOcYBpm7acl8WClJCQgIjU55cyPXqlBWKREREKr1mxZi3U1FJ+TYeGhCBZKFRaXlhoKL5++YIFS5bKnYuOioK3lxdq1KyFJs2aKbzf3sGB3ZaIxbh66RKAtOdv4yZNONe/CwrC2ImTwOPxMHjYMFy/fQeXb/qidZs2AICNa9cBAL6l6wH6rVbt2mjazETpz0MKBwoSVUwiFqOVaWuUk/lS9tu1q1ew2nV5vrSjpMyg7epGNRReUyz1yx0AxMbFKbymZevW0NJKeUjEREfjc0S40jpdZs9ClWrVUKtOHc5xqVSKjetSliRsIZMOKL12HTpy9l8GBnL2tbW5g6qnz5rN2Tc0NOQEoPGp42ScRgxXWmcXC0ul5wghhZ99P1uoq6tj/ZYtBd0UVpEiRdjhMspUrVaN3Y5PiFd4jUGZMqiZ2gskEomwZeNGhdcBwJ4d28EwDDspRNb0yZMAAL1tbJTeX7lKFTYgBQD3XTszbL/zwkWc/MDFihdHaZmx3ZGRKYHvdR8fRCnpVu7VN/fjQ0neoiBRxZqamMB2gB3OXvDGg6fP5N7aTh47hq9fv+R5O3hqavC55Qe3rduw2NWVc45hGCQnJyNZpvtCrKQrmc/nY878eez+sIGDFF6XnJyMpKQk2Ck4//XrFyQmJgIAbHr2hEmD+gr/tGjUkHNf0JvXnH11PjdheWbjjn6vipCQkIBWTRojOioK6edprVi7liatEPKHuuDpifdBQTjrfbFQ5S7k8Xi4fOMGlq9ajYAXgXLnxWIxEhPTJnvIjqlOb7v7Xnb79MkTEIlECsu7dvUqzLp0Ufj3EPzpEwBgzQpXpc/f5g0bcHqKfirpXfqtQoUKGZ5v0659SttEIlh1NsOD+/fleqJ69OpFk1YKucLzr+ovxOfzsXv/AezdtQvbNqeNi/P2Oo8Ro0blef0lSpZE2/bt2X2pVIp3b99i/aqVCHzxQukqMel1teyGNa6uEAgE+P79G2Kio1HawIBzzeRxY6GlpYV+dnZy98dER7Pbu/btR/HUsTiZ0Uv3Js5D9gaj2/TvD9fFiwGkPES7dTZD7Tp1sGjZctSoVatQDG4nhORMXGwsXJcsxoBBg1CmkIxDlKWpqcX5qscwDMLDwrB/z254nj3L6e3JiH6xYihtYICY6GgIhUIcO3wIQ4aP4Fzjc/kyhEIhxk+aLHe/UCiEIPUlfeGy5TA2Ns5SvVn9/aDMzLnOOOORlt1iwuhR0NXVxbpNm9HUxCTX5ZP8QUFiPhgxejROHDvKjhN8/vRpvtYvFotx5eJFbFizGhKpFP3s7LBh6zY4z5yBu7dvZ3q/lpYWHIYPx86tWwEAjkOH4NzFS+x5qVSKxwEBaN2mrcL7P35ImxhjWL48Z9JKXupr2w/vgoI462W/DQqCva0NjBs0wCxnZxjXb5BBCYSQwohhGEydOAHJyckwMjKC55kzSq99/fIlu/308WP8no5brFgxdOzcOa+bCiAlH+tmtw34+P49LKy64+K16/B/+ACLXFyydP/B4ydg1dkMALBn5070t7NnZ0MzDIMD+/bCsHx5VKpcWe7esNBQdltXVwfVaygefqRqGhoaWL5qNebPncN+QRQIBBjrOBIlSpbEbBcXdO7SlV7WCzkKEvPJ9j3u6N87ZaDyz5+KJ1LkhSePH2PB3Dn4EhmJ6bPnwG7QoBz9oxw8dBgO7tuHXwIBwsPCEB4WxnbnnjpxHFKpVOkSWPE/08bb/Pj+Pd+CRACYM28+OnU2x5wZ0zjteBUYiKH29hgwcCBmznXOoARCSGEjlUrxKnXMsuuSJVm+74KnJy54egIAatepk+dBYkxUFGZMmYKXgS/Qx9YWW3buQrFMxioqYmBggPIVKuBzRAQEiYnw8bmKnqkTX8JCQ/Hh3TssWLqUM6bwt99DfQDgxbPn6Nyla85/oGyysLJCXWNjLJg7hzPG/FtcHOZMnw6TFi3gtnUbOzmGFD40JjGfyA5S1tPTy5c69+3ZjdHDhiI6Kgonz3nCfvDgHL+16ejooFv37uy+bIqawwcOQEdHR+nDr4jMZJKnTx7nqP7caNm6Na753cGKtes4KX0A4MTRo/k2mYgQ8u94eO8eenazxMvAF1jjthEuCxflKEAEUsY4rlizlt1ftXQpm4z62OFD4PP5MO9qofBeHd20CX/3797JUf25UblKFew7chQHjh5FyXSpcB75+2OovT3lqy3EKEjMJ7LBWX4sQfTu7VtsTZ0JN8vZWS5vYU7MdpnHjiN5/vQpIj9/xof37/E5IgJbdiqfCVezdi12e+vGjVl6ICQkJODihQu5bvNv6urq6GJhAb+H/hg5xolzzuP4ccTERCu5kxBS2KipqcHvoX+W/owZO469b/a8eexx90OH86x9MTExmDjWCaLkZNQ1NkYnFXyxrFe/PgxSx4InJSXhsb8/kpOT4XH8OLpYWEJXV1fhfVWrpn2g+PTfJwgEgizVNyN1RrQq8Hg8GDdoiCs3feF+kJtv8eOH93jz6pXK6iKqRUFiPpGdVZs+1UteGNw/LQdgO5nEqcpIshC4qaurszmwAGDDmtVw37WTfQAoU6ZM2qDypKQk3Ll1K9O69u3ZDU2N3I2GGGpvJzebmc/nY+yECfC6fJntmmEYBn43fXNVFyEk//B4POjq6mbpj4ZM74GmpiZ7PC+7OA/udWdfhuenTp7LSFZWx+XxeJgzP20BgPFjRuPlixcAILfQgCxNTU12mVOGkWLB3LmZ1hf5+TO+fMldFo4xI4bLfRDgy596GgAAHKRJREFU8Xho1KQpbvsHcLJKrF+9Ov3tpJCgIDGfxMamTFqpWasWGjRqlOf1yT4ERJmslAIAoixk8weAdZs2s9s3rl3DzWvXYD94cIbpJwzKlGHfgAFg2qSJeBsUpPT64E+fcGjffjRuqjjpa1bFxcYhJDhY4bnyFSpi3MS0N+Wk1NViCCEkU5kEWUEyz7eE+IQMrkwhSe06zky7Dh05mSUmjRuLylWqyK2olV6Dhmkv8b43ruPIwYNKA8Xk5GT0tuqGGbPnZFhm5mEtcFrJMoI6Ojqc3yX5OU6fZA8FibkkFoszzScFAANtbcHn87FslWremGTzamUWBF68cF7u2JPHj/Hi2TN2PzY2JZl2aEgIYmNjlZalrq6O5jIJscViMewGDc6wfjU1NbnJIYP798P+vXshTLeCgJ/vTTgM6A/rvn3k0uxIs/C2nd6OrVuVPgz72duz27XTJQAnhBBlkoRpL5WKchzqyCT+X7Zwodz56Kgo7Nmxg93/PalOKpXi1Uv5vIq/qampwXHMmLR2/PoFh3TpcBRZuW49Z99t7RosnjcPP9OtRvX+3Tv0s+4FXV1dzpKAimS0+stvu7ZvU/r8rVW7Nrvd1ZIWNSisKEjMBWFSEszbtYVZG1PY9e2De3fkBwVLJBKMHTkC3+LisHqDG2cpvNyQDeTev38nd75CxYrs9u7t2+Fx7BikUim+REZi5pTJmD1tKgzLpyVDdd+xHVcuX8KEMaOhraWVYd2yD5y69eplabZyJ3NztO3Qgd1nGAZbNqyHWRtTDOpni2ED7WHRsQOmTZwI3aJFMXXmLLkyEhMyfyNP79qVy7juo3jd7KuXLgJIScujbKkqQghJT7Yn5KuCbtkWrdJepENDQ7B04UIkC4VIiI+H29o16NG1C2foju/NG3hw7y56WVqgVKmMk/v3trFlc83yNTRg3adPpu0tWrQoZjtz0+1c8PKEWds26N/bGsMGDYR1N0vY2/RFRHg4Tp7zzLTM4E//ZXrNt7g4LJZZjEFWqEwvT1YCXVIwKEjMBZFIhITUwOXD+/eYNNYJVuad4bp4MQ4fPIBZU6egc9s2ePrkCc56X0T7jqoZi+jnexPfZdbDdJk5U+6awyfTkphKpVKscl2OVk2boEfXLoiNjYXnxUto2Lgxe83rV6+wcO5cbN6+gx2/ooy+vj5MWrQAAAx3HJWlGdM8Hg9rNrjJBWNCoRBvg4LwMjAQsbGx0NLSwpGTJ+UGYacsSeXGOTZ53NhM6wWAOdOnY8FcbtdJ0JvXWLF0KTQ0NOB+8JDC1BGEEJJeQkICQlJXMAFSUoB9S7esab8Bdpxk2Z5nTqNNcxN0NG0Nby8vnL9yFUNHpI0jjIuNxYQxYzDHZR7KGRpmWD+fz8eA1JWtTNu0zfKzy9bODhOnTpU7/t/Hj3j54gUiwlOWXN3h7i7XiwMAK5dx14ReMHcuJ72OMhc8PTFs8CBOj9vPnz8xaVzKhKJN23dQCpxCjMdkZcQsUYhhGJw8fgxr0i1791tpAwOs3rABDRo2UknCUKFQiDYmyr94aWvr4E5AALsfHRWFHl27cLpD3LZuQ5t27cDj8RAfHw+Ljh2QnJyMonp6uHLjJrSy+I91oYszrvv4wO/Bw2wFWAzD4PYtX0ybOFHuXMPGjeF+8JDc35VJg/oZlmnSvDl27N0nd7xn166oXacO7tz2Y9NFyGrUuDH2KKiPEPL32L9nD/uCOX/JElj3ydl6wQzDoHnDjJPvPwpMS9wtFovQy8KCs26xw7BhmDRtOng8HiQSCazMOyM2JgY8Hg8nz3miarVqWXoeeZ45g6ULF8D/+YtsP38jwsPhYDcA8emGSRmUKYOjHqdQvEQJThsWujjD28srw3Jlf+7fxowYDj6fj48fPnBW3fqttIEBjnqcQomSJekZXFhIPgDqRoDM6mYUJJJsS04WwrRZM/Szs8NsF8VdCVkVHx8PbW1taGhoqKh1mdenpaUlly+REEL+FP2seyE6Ohq+9+7nqhyBQAAejwcdHZ3ML1aBX79+QSwW51uuYJJNCoJEWnGFZNv9u3ehpqaG4Y6OuS4rvx8W9HAihPzJgj99wqf//sNOBb0n2aUst2Jeya9glKgODcQi2eY8axZq1KyJMmXLFXRTCCHkn7J31y6oqanlSyo1QihIJNlyydsbwqQkTM8khxYhhBDVCv70CZcvesNxjBMNmSH5grqbiUJSqRTdzDpBKBSitIEBJk2dho8fP2Dbpk0oVqwYmjVvXtBNJISQvxLDMBjrOBJvXr+GjrY2hjmOQqXKlTF7+jTweDwMHDKkoJtI/hE0cYUotGr5MngcPy53XE1NDf7PXxRAiwgh5N/w4tkzjHBQvEiB25atnJyzhKiMgokr1N1MFGrWzETuWIkSJXDhqk8BtIYQQv4dpUqVkktto6GhgcXLXSlAJPmKviQSpfbs2A6fK1fA19BA2/btMXLUaGhmshoLIYSQ3Lvj54fdO7bjl0AA4/oNMHnGDHalFULyBOVJJIQQQgghcqi7mRBCCCGEZAUFiYQQQgghRA4FiYQQQgghRA4FiYQQQgghRA4FiYQQQgghRA4FiYQQQgghRA4FiSTLwsJCsWzRwoJuBiGE/HN+/fqFdatWITw0tKCbQv4hFCTmof8+fkRH09aI+vo1R/czDIM9O3agZeNGMGlQH+1btUTAw4cqbmXmbt+6BdNmTdHHygrnTp/O9/oJISS7pFIprLtZ4sSRIzku4/u3bwj+9CnDP4mJiSpstbyI8HB0aNUS7Vo0x7HDhxD3LS5P6yNEFr+gG/C3YRgGr1+9xOSx4/D9+7cclxP44jmGDxoEbW1t2A0chMZNm+LcmdMY6zgSFStVwsHjJ6Cvr6/ClsvbsnEjTp88AUFiIiQSSZ7WRQghucUwDCLCwzBr6lS8e/s21+V16dAeGa03oaWlhRt37ua6HkX8HzyA86yZECQKkJwszJM6CMkMBYkqIpVKce/2bSxaMB/f43L3pnfvzh1MGusEbR0dHPM4hUpVqgAAOpmb47qPD2ZPm4r+1r3g4ekFvTwMFEePHYsJkyfD/+FDjHMcmWf1EEJIbjAMg9cvX2L96lV4/uyZSsq8eOF8hgEiAFj3tYGWtrZK6kuvmYkJrvndhkgkQuumTfKkDkIyQ93NKhL86RNiYmJwzOMUFruuyHE5UV+/YvK4sQAAp/ET2ADxNzNzc9SrXx8xMTGY4DQGUqk0V+3OiKamJgCgTt26eVZHRn78+IEjBw8USN2EkD+HSCTCw/v3sHDpMrgfPMQ+u3Jj49q1MChTBnXq1lP4p55xfThNmKCC1iumzk/5hqOhoZFndWRELBZjoYtLgdRNCg/6kqgi1Y2MUN3ICADQ1dISC53n5qicyePGgmEYaOvoYKCDg9x5Ho+HUU5OmDphAl4FBuKO3y2079gpV23PjI6OTp6Wr8ymdeugo1swdRNC/hyampoYMXoMAKBy1aqoWKkS/vv4McfleXt5ITY2Fr73H6Bo0aKqauYf5cO7dwh6/bqgm0EKGH1JzAN8Ph8aGtl/kw18/hzv370DABgaGkJNTfF/nuYtW7HbM6dMyVkjs0FdXT3P60gv6dcvXPK+kO/1EkL+fLq6RXJ1/85tW9HMxARFiuSunD/Z+DGjC7oJpBCgIDEP8Hg86BbRzfZ97rt2sts9e/dWep22tjZq1a4NAJBIJIj8/Dn7jcwGZcFqXmEYBs6zZyE5OTlf6yWE/B1y8/Xvho8PPkdEYMHSZeDxeCps1Z/jgqcnfnz/XtDNIIUABYl5hM/PXk++WCyG/4MH7H77jh0zvN6oRk12e/GC+dlrXCHGMAz27dkNv5s3C7ophJA/lHo2n7+/SSQSbNqwAQAw0mEw1q9ehbdBb/6pF9bnz55h0Twai0hS0JjEPJLd9883r15xHkRVq1XP8PoKlSqx20GvXmWzNsUiwsNx3ecqnj99hvj4nyhfvgLMLSzQtn37bJcV+OI5/G764s2rVxBLxChnaAiT5i3QwcwMenp6Cu9hGAbrVq3C8SOH2WNRUVF4+vgxu1+hUiWUKVOGc9/LwEBcueiND+/eQ0NTE40aN0bzli1RuUoVLF+8CCvXrS+QLnNCSMHI6fe/J48eITwsJVl1TEwMjh46hKOHDkFHVxeOY5xgN2gQtLS0VNdQGfE/f+LG9Wvwf/AAMdHRKF68ONq0a49uPXpku6yw0FDcunEDT588QUJCPIoXL47GTZuhfceOqFCxosJ7GIaB17mzWL5oEXvs1y8B5/mrzldHw0aNOfd9iYzEec9zePHsOSQSMWrVroMWrVrBuEED7N+zGyPHjEHRooqf+aTwoyCxkPg9FjGrypUry24nJSXluv5FLs644OWF8hUrwm7gIBQpUgQ+Vy5jyvhxaNS4ceYFpAoPC8PsaVPxNigInbt0QdsO7RH5+TPOnj6NC56e4PP5GDl6NEaNHSd3r0WnjoiLjeUcu+Hjgxs+Puz+9NlzYD94MICUtEOuixfh3Jkz6GvbD3362UKULMKNaz7YvmVzWiGZpLEghBCpVKr0C9ovgQCbN6zH8cOHsHH7Dna4j6ocPXQIm902gJFKMXL0GLQ2NcWTR4+xdOECbN20McvliEQizJ42FX6+vjBu0ACdu3SFMCkJ586cwXUfH6xfvQoW3bph/uIlcql7nEaOwOOAAM6xzxERGDVsKLtftGhR+N5P6/E64+GBFUuXoKWpKay694A6n4+njx9hyvhxbOaNoSMpfdqfjILEQiL406dsXa+vX4zdFovFEIvF2e7i/q2ftTU+/fcRFt26YbHrCrYc67594ed7E9MmTsxSOcHBwbDv2wc8Hg8enl6oVj3ta6jThImYNnECAh4+xM5t2/Ds6VNs3bWbc/+FqynB4Plz57Bi6RIAgE3//pgyYyZ4PB54PB7nZzx14gTOnTmDlevWwbyrBXvcqmdP3PHzw9QJ43P090EI+fcwDIMlK1biS+RnvAoMxG1fX0RGRnKuiY6OxkBbG6zbtBkdOqkmq8SaFStw4ugRVK5SBUc8TrHZJHpY98YwR0fY9e2TpXIEiYno0707YmNjsHHbdrRp14495+jkhAN73bHFzQ2XL15E4ItAHD9zhpO5YsuOnWCQssqMlXlnAEC16kY4ePw4+/yVHaP5MjAQK5ctRT87e8xydmaPW3TrhhGjRrNlkD8bjUksJL5++ZKt6zXTdXl8Tfcwy6rJ48fh038fUaJESSxbtVou0GzXoSN69embpbL6W/eCSCTCvMWLOQEikJJGZ8vOXShZqhQA4OH9+1i/ejXnGk1NTWhqanLaoKGhAR0dHWhra0NLS4vTbbzadTl0dHXRuUtXTjk8Hg/tOnSAdd+stZsQQtTV1dHMxATde/bCLGcXnL/qg3uPn2D1Bje5a6dPmojQ4OBc13nrxg2cOJqybOD+o8fk0o1VrlIFC5Yuy1JZI4c4IDY2Bp06m3MCRCDlmTh0xEg0b9kSABARHgbHIQ6cZOEaqc9fDZkck2pqapznr2z+ye2bNkEqlWLcpElybSlTtiwOHj+epXaTwo2CxEIiISE+W9enn3WXKBBku86nT57grp8fAGD73r0KZ/LxeDzYDRyYaVkjBg+CVCqFvr4+rHr0VHiNuro65i1ewu4fO3wIMTEx2W63rF8CAb5/U7z8oeMYp1yVTQj5t2lqasLM3BwBLwLRqbM555zjsKG5WsxAKBRi+uSUAGvU2HFKl1m1tLLKtCyvc2fZIUvL0718/8bj8bBsVdq5t0FBePniRXabzXrzOmUsfGhoqMLzdesZ/7Ozw/8mFCQWEtl92EhVsJbyupUr2e0aNWoova5q9Ywn0SQlJSEw9WFTPYNyAKB9hw7Q0UlJD8QwDLZuzPp4G2WcZ86AUCi/tqlh+fKoUatWrssnhPzbeDwe1ri5YdCQIeyxuNhYeJ45k+MyN61fx26b5aJrViKRYItb2tfOjIYdlSpVipM5Y/SI4TmuV5z6O2iYvZ3CF3UejwebAQOQ82lEpDCgILGQ0NbO3soiSemCImVvocqEBH9C0JuUbPqZpYvIbImrA+7ubLeFYfnymdZdr74xu+3nezPT9VEzE+Dvj37WvfDg3j25so6fPpPjdBiEECJr6sxZqN+wIbufm4T/J44eBZDSpVutulGOy/n033/shD99/WKZ5rW16tmL3RYlJ+f4+Vu1WjUAKR84LDub4bTHSUjSfbyY4zIPxYsXz1H5pHCgILGQKG1QOlvXJyQkcPYN0qWFyYzsLLZqqf/Yc+rm9WvsdvESJTK9vq9tP3b7x/fviImOzlG99jLLFn6OiMCEMaMx0NYG9+7cyVF5hBCSme2797DbOV36TyAzPKhYseI5nnQIAE8fP2K3S5XO/PdIjZo1Ofs57XIeOTptRRaxSIQVS5agexdzHD98OFfd8KRwoSCxkKhSNXuB2re4OHabr6GR7TyALwMD2W3dXC499ePHD3Y7K93gJqmDpxXdnx1TZ8xEHxtbzrH3795h0lgn9LK0oHVHCSEqp6OrC8MKFQAAiele1rPq3m0/dltDUyNX7Xn29Bm7LZaIM72+bNmynP2PHz7kqN4OncywYBl3Uk1MdDTWrloJ8/btcP7cuRyVSwoXChILCaNMxvKlFx0VxW7nJLlrdFTa17sf33MWpP0m+9YoW64yJUuW5OzndNk/NTU1OC9ciJPnzkE7Xc6vzxERGDygP/a771FyNyGE5IzD0GEAcvbsBYDg4BB2O1mYu9VcBIlpgWpWslxo6+hwnrm5CVJ7WfdGwItAGBhwe7J+/viBxfPnwd6GMkz86ShILCQaNm7EmQkmFmf8RvhF5mFQt169bNenzk/78hgSnL0cjenJpuOJivqa6fXpZ7ylX0ElO3g8Hqob1cCdgEdYuW69XHf3Fjc3+N64kePyCSEkvapVqwIAKlWunKP7+Rpp3cvfv39TOPFOqXRDCMuWLcduJycny40LTI/H43F6npo0bZb1upWUd+nGDZz19kblKlU4596/e4cZk+VT5JA/BwWJhUSRIkVRv2Ejdj+zcXWhIWk5umbNdc7gSsXKl6+Q7XuUkX2LDAsJyXQgtGwAXKVqVRRVskxfZmLTrc5i3rUrrvndxnBHR04gSg8pQogqfUwdi9i6bdsc3V+nTl3O/odsrLiV/vnaonVrzn5mQaJUKoVIJGL3y1fI2e+CqK/cDwKVKlfBmQvecF2zFrq6uuxx3xs3EBYWlqM6SMGjILEQGSCTj/DEkSNKrxMIBAgNSemu4PF4maadUaRx06ac/Uf+/tku47fBMmkhfvz4gVeBGQ+EfvvmDbudPhF2dkwYM1rh8fGTp2C7+94cl0sIIRnZ774HWlpaGDJ8RI7ub55uXPaVSxezfK9Eyg0CjevX5+yfO30qw/tllz41NMw8G4Uy40eNUhiQdrW0hNflK5xjL54+zXE9pGBRkJhHZMfpZTXFgEW3bihtYAAAeJ2aqFSR50+fsmXKJkfNjlamppxxKXNnzshROQBg1qULZ3be4QMHMrz+3OnTAFIm3DgMGyZ3XrZdggyShIdksJShSfPmaN9RNctmEUL+LBIm7fkrZVQ70zYkOBixMTEY5uiIokWL5qgMdXV1zjPzxNGjWV5YIP0YxjJly3K+Jq5btSrD+z/KzMjeuH273HnZ569ILJI7/1t8fDz7sSK94iVKYLGra9oBSpX4x6IgMY8kJaWNMclqOgAej4f1mzYBAOJ//sSTR48UXndw3z4AQMlSpWDeNWdf4vT19WEts9zet7g4TBk/TuG1IVlYfspt6zZ2+7qPD/7LYMbc1cuXAAB9bG2hpyC/o2z3851babMAGYaB04gRbICcnJyMzRs2KK0n/fgYQsi/QfjrF7st+yzOyKkTJ9DNrBO2bd6k9Jr4nz8xqJ8tqlU3yvWKTvsOp/UWSSQSDLTpm2lXMcCdtAik/N5wWbCQU5bHCeVL4nmlJgCvUbOm3PKpAKCvn/b8/RoZyfnIMXaUI2d/oYuz0o8g7TqkJe2uW89Y4TWk8KMgMQ+IxWIIBIns/i+ZB1Zm6tVvAItu3QAASxbM5zw0GIbBk0cBCHj4AOrq6jh26nS2U9/Iclm0CGXLpQ16vuPnB5uePREXFweRSITk5GRc9PZG/97WnPv697bG00ePcGj/fvZYK1NTtG3Xnm3nEHt7CBITOfcxDIPVrq5ITExE2XKGmO3sorBdhoaG7HZcXCz27t6NkOBg9OluBeu+fTnjDQ/sdcfjgAC5BxXDMHgUkNKFPn327Oz8tRBC/nA/f6YtcxoepnjZuPRWLluK6Oho7N21C22bN0dIcDDEYjGkEknKs/D8eXRqY4qq1avDw9Mz10vO1TU2RgczM3Y/Li4OLRs3QkhICEQiEUQiEd6+eY3WTZtw7nNbtxZPHz3CkoUL2GMVKlbELJnn6erlyxEayv3KxzAMAp8/x5VLF6GpqYXd+w8oWYpVjT0uFAox0ckJX75EYuJYJ4iEyZx7Xr98icP79ysMFLdtSllNq0mzZqhulPNk4aRg8RipKHfLXRBWZORXCAQCnD55EiePHWOP6+npYeuuXdDT14dBmdLQzkLahLkzZ8HnylVUr1EDi5Ytg66uLjzPnMWh/ftgaFgOuw/sRzmZAC+nxGIxbHtZIzw8QuF5PX097D9yCDY9e7PH9PX1YGZuhhlznTk/i5RhsGieCy5euMjOwHNZtAj16zfAr1+/sGnDejx78gTNWzbH9t27M2zXwP4D8C7oLedYV8uucJVZl9SkYWN2u7+9PewHD0axYvpITBRg26bNuOR9AZZWlli6ciX1dhDyl4uKjoEgUQD/Bw+x2nU5e1xDQxPL16xGjRpGKFGiBPT0FHcRO9jZ483rNwrPAYCeXlFMmDIZNv36Kb0mu6QMg1lTp8D3xi2F5zU0NOC6ZhVmTpnGHtPS0kSTZk2xxNVVLp3Y8SNHsH7NOrb3aqCDA6x69gQPPHieO4uTR4+iarWq2L1/H0pksPDBfGdnXLrAHSdpWL4czl++zO5bmpmzXeT1jOtjwdIlKG1QGmKRCNevXsOalStgVKM6jnh4gJ+LjxkkH0mDAXUjyI4P4DHiTxQkqsj6tXshFCofwwEAtv0tUbNm1rpBAwIC4b7zON6+/QiRWIQqVSqhVx8LDBjQTRXN5Tiw7yzOe11FSHA4GIZBmTKl0dHMFNNmjASfrw6Txj1Qu04NDBzcG917dMywrDdvPmLPzhN4/vwVvn9LycFYomQxNGxkjJGO/VHPOPOJNkKhCJvc9uFRwAvo6RWFbX8rWHZrz7lm7Jj56GRmiiePA/E26CM+R3yBRCIBn8+HcYM6GDXaDq1aN1ZSAyHkb7Jzx3HExWac87V1mybo2LGFwnMSqRTbNh+G360H+PolGmKxBMWK68HIqCrMu7ZFj55m4PPzJti55euPfe4eePP6LSQSKfT0iqJlq6aYNsMRZcqWhEnjHjAoUxq2/btj4OBe0NFW/qEhPj4RG9btRcDDp4iMTOma1tXVQZ26NWBjawWLbu2y1KYjh7xw+ZIvAKB9h1YYMcoW6jLjFSdPXIIOHVvhVeBbvHr9HuGhEUhKEoLH46FatcrobWOJgYN65uJvhRQI9SrgBom5XTiX/FXEYjGkUqnces2/BALoyKQ1yCqRSASGYTJd/1lVkpJ+QUtLO9ddQYQQkt8YhoFQKJRbHEAgEHDSymSVRCKBWCyCpqZWvjwThUIh+Hx+roZBkcKFgkRCCCGEECKHJq4QQgghhBA5FCQSQgghhBA5FCQSQgghhBA5FCQSQgghhBA5/wNbiBqki6b21QAAAABJRU5ErkJggg==;" vertex="1" parent="IAqKqDlb5OC1OfE6rR6O-2">
                    <mxGeometry x="460" y="230.47" width="278.37" height="164.28" as="geometry"/>
                </mxCell>
            </root>
        </mxGraphModel>
    </diagram>
    <diagram name="Page-2" id="yNNghg7_keq9ccHV3dap">
        <mxGraphModel dx="1124" dy="751" grid="1" gridSize="10" guides="1" tooltips="1" connect="1" arrows="1" fold="1" page="1" pageScale="1" pageWidth="850" pageHeight="1100" background="#ffffff" math="0" shadow="0">
            <root>
                <mxCell id="mub_gCMMnNci_3UeIq6J-0"/>
                <mxCell id="mub_gCMMnNci_3UeIq6J-1" parent="mub_gCMMnNci_3UeIq6J-0"/>
                <mxCell id="mub_gCMMnNci_3UeIq6J-2" value="http://ics2o.mths.ca" style="swimlane;whiteSpace=wrap;html=1;strokeColor=#000000;strokeWidth=1;gradientColor=none;perimeterSpacing=0;glass=0;labelBackgroundColor=none;labelBorderColor=none;" vertex="1" parent="mub_gCMMnNci_3UeIq6J-1">
                    <mxGeometry x="40" y="40" width="760" height="610" as="geometry"/>
                </mxCell>
                <mxCell id="mub_gCMMnNci_3UeIq6J-3" value="" style="whiteSpace=wrap;html=1;glass=0;labelBackgroundColor=none;labelBorderColor=none;fontSize=22;fillColor=#ffcc99;strokeColor=#36393d;" vertex="1" parent="mub_gCMMnNci_3UeIq6J-2">
                    <mxGeometry y="20" width="760" height="590" as="geometry"/>
                </mxCell>
                <mxCell id="mub_gCMMnNci_3UeIq6J-4" value="" style="whiteSpace=wrap;html=1;fontSize=22;fillColor=#ffcd28;strokeColor=#d79b00;gradientColor=none;" vertex="1" parent="mub_gCMMnNci_3UeIq6J-2">
                    <mxGeometry y="20" width="760" height="50" as="geometry"/>
                </mxCell>
                <mxCell id="mub_gCMMnNci_3UeIq6J-5" value="4" style="whiteSpace=wrap;html=1;glass=0;labelBackgroundColor=none;labelBorderColor=none;fontSize=22;fontColor=#000000;fillColor=#6D6F6B;gradientColor=none;" vertex="1" parent="mub_gCMMnNci_3UeIq6J-2">
                    <mxGeometry x="20" y="142.5" width="150" height="25" as="geometry"/>
                </mxCell>
                <mxCell id="mub_gCMMnNci_3UeIq6J-6" value="&lt;span style=&quot;font-size: 24px;&quot;&gt;Enter a layer based on the pattern in the images.&lt;/span&gt;" style="text;html=1;align=center;verticalAlign=middle;resizable=0;points=[];autosize=1;fontSize=26;fontColor=#000000;" vertex="1" parent="mub_gCMMnNci_3UeIq6J-2">
                    <mxGeometry x="4" y="70" width="540" height="40" as="geometry"/>
                </mxCell>
                <mxCell id="mub_gCMMnNci_3UeIq6J-7" value="&lt;span style=&quot;font-size: 17px;&quot;&gt;Layer&lt;/span&gt;" style="text;align=center;html=1;verticalAlign=middle;whiteSpace=wrap;rounded=0;fontColor=#000000;" vertex="1" parent="mub_gCMMnNci_3UeIq6J-2">
                    <mxGeometry x="20" y="112.5" width="110" height="30" as="geometry"/>
                </mxCell>
                <mxCell id="mub_gCMMnNci_3UeIq6J-8" value="Calculate" style="whiteSpace=wrap;html=1;fillColor=#999999;" vertex="1" parent="mub_gCMMnNci_3UeIq6J-2">
                    <mxGeometry x="30" y="186" width="120" height="30" as="geometry"/>
                </mxCell>
                <mxCell id="mub_gCMMnNci_3UeIq6J-9" value="Layer 4 has 15 dots." style="text;strokeColor=none;align=left;fillColor=none;html=1;verticalAlign=middle;whiteSpace=wrap;rounded=0;fontSize=18;fontColor=#000000;" vertex="1" parent="mub_gCMMnNci_3UeIq6J-2">
                    <mxGeometry x="13" y="227" width="530" height="30" as="geometry"/>
                </mxCell>
                <mxCell id="mub_gCMMnNci_3UeIq6J-10" value="Triangle Pattern Calculator" style="text;html=1;align=center;verticalAlign=middle;resizable=0;points=[];autosize=1;fontSize=30;fontColor=#000000;" vertex="1" parent="mub_gCMMnNci_3UeIq6J-2">
                    <mxGeometry x="195" y="20" width="380" height="50" as="geometry"/>
                </mxCell>
                <mxCell id="mub_gCMMnNci_3UeIq6J-11" value="" style="shape=image;verticalLabelPosition=bottom;labelBackgroundColor=default;verticalAlign=top;aspect=fixed;imageAspect=0;image=data:image/png,iVBORw0KGgoAAAANSUhEUgAAAV8AAAEDCAYAAACS+QcNAAAgAElEQVR4nOzddXRTSRvA4V+kiltxh2VxXdxZZHFbXBZ3dy20FIrLIh8ui7u7w+Lu7loKBeqS3O+PlGxLLW2T3KSd5xzOSZq5M29p8ubeuSMKSZIkYqL9DKhBmSLGooIgCELMlHIHIAiCkBiJ5CsIgiADkXwFQRBkIJKvIAiCDETyFQRBkIFIvoIgCDIQyVcQBEEGIvkKgiDIQC13AIIgyCckOJi3b9+yZeMGHj14SPIUyalZuw7lK1YkabJkKBQKuUNMsBRihpsgJD6SJHH50iWGDxqIj7d3pGUaNG7C6PHjsbGxMXN0iYNIvoKQCG1ct44Z7lNiLJc6dWr2HDqMnb29GaJKXETyFYRE5tmTJ7Ro0tjg8r/mz8/azVtMGFHiJG64CUIi075Vy1iVf3D/PsePHjVRNImXSL6CkIh8+/aNwMDAWB+3bs1qE0STuInkKwiJyJYNG+J03JNHj4wciSCSryAkIs+ePo3Tcb6+voSEhBg5msRNJF9BSETSpk0bp+PUNjao1WJagDGJ5CsIiUid+vXjdFz27NmNHIkgkq8gJCIFChaM03E1atUyciSCSL6CkMiMGjcuVuWTJ09O9169TRRN4iWSryAkMk3/bEGJUqUMKqtQKFixdp2JI0qcRPIVhERGoVCwYMlSkiVPHmPZ/y1fQY6cOc0QVeIjkq8gJEI3b1zH+/t30qVzolnLlqRNlw4AtVpN8ZIlafZnCwCGDx4kZ5gJmljbQRASmZCQEGpUrICvry9zFy6kQqXKAGg0GpRKJQqFAkmS+KNGdTw/fcJlyhTq1m8gc9QJjzjzFYREZuumjfj6+lKsRAnKV6yk/7lKpdKv36tQKFi2eg0AU93cZIkzoRPJVxASkZCQEGa4u6NQKHCZMiXaxdKzZM1Kjpw58fXxYarbJDNGmTiI5CsIicjAProhYzVr1yFTpswxlt+8cxcA2zZv5uOHDyaNLbERyVcQEolnT59y8fx5VCoVLlNiXkgdQKlU0r13H7RaLe6TXE0cYeIikq8gJBKjhw1DkiTGTJgYq3Ua2v/1F46Ojpw5dYo7t2+bMMLERSRfQUgEDuzbx5PHj7Czs6NhY8N3sQBwcHDA2VXX5zu4bx80Go0pQkx0RPIVhAROo9EwxdUFgC27dsWpjuo1a5L3l1/48uUL/54+bczwEi2RfAUhgVu9fDl+vr78Vro0mTJniVMdCoWCca6TUCgUDO7fD61Wa+QoEx+RfAUhAfPy8mLh3/NQKpWMd43fcLECBQpQqUoVAJxHjzZGeImaSL6CkICNHTEcgLYdOpIxU6Z41+fqPhW1Ws3B/fvw+Pgx3vUlZiL5CkIC5eHhwcXz50mRMiU9ehtnScgkSZLQuXsPJEli2MABRqkzsRLJVxASqKb16gLQb+Ag7B0cjFZvt549Abh75w5nT50yWr2JjUi+gpAA7d6xg4CAANJnyEDjZs2MWrdCoWDj9u0AuLlMFDff4kgkX0FIYIKCgpg5bSoAi5YtN0kbufPkJU/evHzy8GBzHLejT+xE8hWEBGbmVHd8fXwoWqw42Uy08aVCoWD63HkAzJ4+je/fvpmknYRMJF9BSEDevH7Nzm3bAPjfihUmbStr1qw0bf4nGo2GGe7uJm0rIRLJVxASkCkuE9FoNAwcOhQbGxuTt9dv8GDs7e3Zv3cP3t7eJm8vIRHJVxASiLu3b3PxwgVsbW1p0bqNWdpMliwZ3UJ3Nm5Qq6ZZ2kwoRPIVhARAowmhb4/uALjPmoWtra3Z2u7YuTPpnJzw8fHh0sWLZmvX2onkKwgJwMH9+/H29iZ/wYJUrlLV7O1PnjYNgOGDBopVzwwkkq8gWDlJknAePRqFQsH4iS6yxFC8ZCly5c6Dj7c3C+fNlSUGayOSryBYuaED+gNQtXoN8ubLJ1scq9avA2DDunV89vSULQ5rIZKvIFgxTw8PTp88idrGhkkyD/dydExC2w4dCAoMZNpkseNxTETyFQQr1qenbpGbnn36YGdvL3c49OqnOws/duQID+7fkzkayyaSryBYqZPHjvH08WPs7Oz4q0tXucMBwN7eHrdp0wEYOWSIWPchGiL5CoIVCgoK0l/aL1/zj8zRhFezdm2y58jBm9evOXtGbDkUFZF8BcEKbVi7Fg8PDwoXKUq+/PnlDiccpVLJeBfdNvPDBog1f6Mikq8gWBkvLy8W/a1b1GbS1KkoFAqZI4qoaPHilClbFo1Gw2SXiXKHY5FE8hUEKzPFxYWQkBBatmlL5ixx2xDTHKbNmYNKpWL7li0EBgTIHY7FEclXEKyIt7c3x48ewc7Ojv6DB8sdTrSSJElKk+bNAejcob3M0VgekXwFwYo0rFMbgD4DBmBnZydzNDEbOXYcKpWKh/fvc+PqVbnDsSgi+QqClThx9Cje37+TPkMG2rTvIHc4Bpu7cBEALuPHiXUfwhDJVxCsgFarxXnsGACmzZ4jczSxU6ZcObJmz86rV6/YsW2r3OFYDJF8BcEKzJw6FT9fX3LnyUPBQoXkDidWFAoFs+f9DcDs6dPFouuhRPIVBAvn5eXF5g3rAVi/xTrPHLPnzEndBg0IDAhg8YL5codjEUTyFQQLJkkSrs7jkSSJjp27oFKr5Q4pThQKBYOHj0ClUrFx3Tq+fv0qd0iyE8lXECzYnVu3OH3iBA4ODnTr1UvucOIlZcqUdO3ZE4AuYuiZSL6CYKlCQkIYO3IEAONdXbG3gFXL4qtzt+6kSZuWl8+fc+vGDbnDkZVIvoJgoU4eO8bbN2/I+8svVP89YWxOqVKpGOei222jf6+eMkcjL5F8BcFCjRkxHICxE11QqVQyR2M8FStVJkOGDPj4+LB4wQK5w5GNSL6CYIHGjRyBRqOhbPnyVje0zBA79h8AYNXyZQQHB8kcjTxE8hUEC+Pj7c2BfftQq9VWN6HCUDY2NtSs8wfBwcFMHDtO7nBkIZKvIFiYnl27ANC6XXscHR1ljsZ0nF1dUavVHNy/jyePHskdjtmJ5CsIFuTi+XM8uHcPpVLJgCFD5A7HpOzt7Rk5TnfWO2Hs2ES35ZBIvoJgIbRaLZMmTABg+T+WtTWQqdRr0JBMmTLx4P49rly6JHc4ZiWSryBYiM0bN/D+3TuyZM1KwUKF5Q7HLGxsbBgzUTf0bEDvXonq7FckX0GwAD4+PsyYMgWABUuWolQmno9mmbJlKfVbaYKDg1m2eLHc4ZhN4vkLC4KFkiSJv2fNAqBh4yYWvTWQqbi6T0GlUrFk4QIC/P3lDscsRPIVBJl99vRk25bN2Ds4WPzWQKaSzik9des3AGBA794yR2MeIvkKgsy6dtTtStG1ew9SpkolczTyGTtxIgqFgmtXr3Dvzh25wzE5kXwFQUZXLl/mzevXOKVPT/tOneQOR1YqlYrpc+ciSRLOY0bLHY7JieQrCDIa1LcPAK5T3BPU+g1xVbVadRwcHXn+7Bm7d+6QOxyTUkiSJMVYSvsZUIMyhekjMjGNRsO9O3eYMGY0L1++1P+8XIWKjHNxwcnJScbohIRGkiQ+fvjAVLdJnDl1Sv/zzFmyUKBgQY4cOkSmTJnYfeiwjFFaltevXtGkXl3s7OyoU68eu3fs4EeaSpEiBcNGjaZ6zZrY2trKHGn8JKrk+/7dOzq3a8unT5+iLFO+YiWmzZ6dINZOFeQVGBDAxHFjOXzwYLTlNu/YSa48ecwUleXTaDQ0rV+Pt2/eRFlGrbZh+T//WPWiQ4mm2+Htmze0btY02sQLcO7sGTq3a0dQYKCZIhMSopCQEHp17RJj4gVo82dzXr96ZYaorIPzmNHRJl6AkJBgOrZuxbWrV8wUlfEliuSr0Wjo17MHPj4+BpV/9PABc0PHXQpCXCz6ex63bt40qOyPRG3IRWhCd+zIEQ7u22dw+b7duxMUZJ1LUiaK5Hv1ymVehenfNcTmDevxjOEsWRCisnrFiliV//D+Pbu2bTNRNNZj9LChsSofFBTEVLdJJorGtBJF8l2xZEmsj5EkiRvXr5kgGiGhO3XiRJyO279vr5EjsS7v379Ho9HE+rjz//5rgmhMzzr3oY4FrVYb59WSTp84ye+1ahs5IiGh27U9bmewt27eZOLYMUaOxno8e/o0Tsd5fPxIcHAwNjY2Ro7ItBJF8o2rr1+9jBiJkFjEtbsqJDiYPbt2GTmaxCHA318kX0ujUqmws7cnMCAg1sdmzZ7dBBEJCV3efPm4d/durI9LlSoVE9wmmyAi63D18iXWrFwZ6+PUajVJkiY1QUSmleCTr0KhoE7duuzavj3Wx1avUcMEEQkJXccuXeL0fiteshQVKlUyQUTWoUSpUnFKvlmyZrPKJTitL+I4aNO+Q6yPsbGxoVCRoiaIRkjosmWL2xVT246xf58mJA4ODtg7OMT6uFbt2pkgGtNLFMk3d5481KlXL1bHOLtOws7OzkQRCQndyrXrYlW+RKlSFC1W3ETRWI+jp8/Eqnzq1Klp3qKFiaIxrUSRfAEmuk3m1wIFDCrbsk3bWCdrQQircNGidO3Z06Cy2bJlY8nKVSaOyDrY29szbdZsFApFjGWTp0jB/mPHzRCVaSSa5KtSqRhgwELV9vb29O7XzwwRCQlduw4dDVojxHmSmxmisR6Vq1UjnQELXPXs0xe12npvWyWahXW0Wi2N69Xl3Zs3/P2/xXh++sTtmzfx8fEmnZMTxUuWZN/uPZw4dpS6DRriMjnx3nUWjGPO9OmsXbOamrXrULdBfa5ducKHDx9IljQpBQoVJkmSJIwaNhTHJEk4feGi3OFajEMH9jNm+HB+yZePQcOGc+XSJd68foWtnR35fs1P7jx56NO9G1qtlos3blrtUpyJJvlu2biRqW6TyJotG9v37ov0siY4OIhyJUqgUCrZsG07ecRKU0IceX35Qs0qlVEqlRw8foLUadJEWq5hndq8e/uWzt2607t/fzNHaZnKFCuKRqNh7abNUXYVjhw6hKOHDlG6TFkWLltm5giNI1F0O/j4+DB9iu5M9u9F/4uyP8nGxhbnSZOQtFpcx401Z4hCAtPtx9ZAPXpGmXgBtu7eA8CalSsJCEgcG0dGZ+SQwWg0GipUqhztPRq3qdNQqVRcuniB9+/emTFC40nwyVeSJBbMnYtWq6V+o0ZkyZYt2vJ169UnZcqU3L1zh6uX4zYtWUjcXr96yYsXL0idOjXdY9gM0tbWlroNGhASEozLuHFmitAy+Xh7c/TwYdRqNdNmz462rEqlYsjIkQAM7NvHKleES/DJ9/Pnz2zZuAE7OzsGDIl5xSSVWo3btOkADOjTh5CQEFOHKCQwLZs0AWDEWMOunsaMd0atVnP44EEePXhgytAsWrdOfwHQrmNHg4Z5tmjVmqRJk/H08WOD1k22NAk++fYI/YN27dGDVAbuDFumXDlKlCpFgL8/G9b+Y8rwhARm1fLlBAUFkS17dmrUrGXQMXb29oxxngDAhLFj0Wpjv7KXtTt39gyPHz5EpVLRd+Agg49bulo3RG/mVHcC4rCEgJwSdPK9dvUqL1+8wMnJiQ6du8TqWOdJbqhUKubOnBmnZe6ExMfPz49l/1sEwOJYjtv9o149MmfJyqOHD7h47rwpwrNYWq0WNxcXAJb/szZWx+bJ+wuly5Tly+fPrFuzxhThmUyCTr6DQ3eGdZ48OdbDUTJnzkzNOnUA6B569iwI0Zni6kJAQADVfv+ddOnSxepYtY0N4ybozn6HDByQqM5+N61fz8f378mRM2es92RTKBSMc3UFYPGC+Xz1sp6VCBNs8p0/dy4+Pj6kTZuOMmXKxqkO1ynuqNVqbl6/ztvXr40coZCQPH/2jAN7dYuhTw69ZxBbJUuXplTpMgQFBrJ4wUJjhmexfLy9mTnVHYB50YxEik7GjBlp1/EvtFoto4cPN3aIJpMgk6+Pjw/r16wGYOeB/XGuR6FQMGq8MwADrPSOqmB6Wq0Wl/G6kQpjJkyI87qyCoWCydOmoVSpWL5ksdX1YcaWJEnMmaH7omravDmZMmeOc129+/cnSZIkXLpwHq8vX4wVokklyOQ7eeJEgoKCqN+oMfb2sV8lKaxGTZqQImVKXjx7xv49e4wUoZCQXLp4gds3b5IuXTrqN2wUr7pSp0lDg0a6Ovp272aM8CzWp0+f2Ll9Ow4ODvSJxU22yNja2jJgyBAAGv1RxxjhmVyCS74PHzzg8MEDqFQqRhlposTSVbqz6NnTp+HvLwbCC/8JCQ5mROiaIc6T3Iyym8IY5wkolUpuXL/Ondu3412fpeoeOhGlW+/epEgR/9mzTf9sQYaMGfHz82PPrp3xrs/UElTy1Wq1jB+tG3itWxIy5kVNDJEzVy4qVKrE169fWb1iuVHqFBKGtWtW4+vjQ8lSpShTrpxR6lQqlcyc9zcAzmNGG6VOS3Px/HnevHlDhowZaRuH9bajMn/xYgCmT5li8aOUElTyvXblMk8fPyFDxozUrlvXaPUqFAr9OMzlixfz5fNno9UtWLf5c+YA4Oo+NU43i6JSqUoVkidPzsvnz9kZxw05LdnQAbp1LCaFThM2lhw5c/FLvl/x8/Vl6iTL3lI+wSRfjUZDzy66sbwTJk0y+kpHTunT06lrNyRJYuTQIeLmm0Cntm0AqFmnDk7p0xu9/rVbtgIw1c0tQd18mzN9Ov7+/mTKlJlixY2/gPz6rbr/t+1bt+Dx8aPR6zeWBJN8ly7SDc0pU64cpUqXMUkb3Xv3JnnyFFy7csWi/6iC6b14/ozbt25hY2PDlOkzTNJGpkyZqFajBsFBQSwLvZy2dt++fWPTxg0AbNm922Tt9O4XemY9wdliT5QSRPL18/Vl2eLFqNVqnE14qWFjY8PAYcMAaN6wgcnaESzfsAEDABjt7GzSdoaPHoNarWbVsqUJorvLbcIEgoOCaN6ypUm36WrToQPJkifn3Nmz3Lx+3WTtxEeCSL4DevcCoGGTpjg5Gf/yL6yGjRuTOXNm/P392bZ5s0nbEizTvt27eP78OclTpKBBo8YmbSudkxN/dekK6Fbvsmb37t7l+NEjqNRqBg8z7WQIe3t7xodOWR41dIhFLpBl9cn39q1b3Lh+HYVSyYgxY8zS5sJluhEPc2ZMR6OxvD+qYDqBgYHMcNfNyFoRy3UI4qpL9+6kSZOGe3fu8OL5M7O0aWxarZZxI0YAMMl9KrZm2Jy2SrXq5C9YkE+fPnE4HpOtTMXqk++EMaORJIn5/1tstu1EMmfJQsFChfD398d1vGkvOwXLsmbFCry9vSlfsRLZc+QwS5s2trYMG607sWhrpTv1XrpwgZcvX5AlS1Zq1KxpljaVSiUTXHXdkM5mOjGLDatOvju3b+PlixckT57caGMsDbV6w0YA9u7exTsrXUlfiJ3Pnz+zeOEClEolY5ydjTq0LCa/16pFxkyZCAwIYO1q69rpWKPR0LdHdwAmuLmhVJov7eTOm5dKVasiSRLDBg00W7uGsNrk6+vry8ypUwFYvXGjLDH8WJx9kvN4i72jKhiHJEmMG6m7bO7QuQvpM2QwewwrQ7s5Fi9ciJ+fn9nbj6u/5+h2pahQqTLFSpQwe/vuM2aitrHh5LFjfPLwMHv7UbHa5Lt88WL8/fyoUbMmWbNGvzWQqbRo3ZqUKVNy6cIFrl25IksMgnm8ffOGSxcukDJlKrr26CFLDGmdnKhctRr+fn5Ms5LdtX18fFi7ahU2traMC70BZm52dnZ069ETSZIs6qalVSZfLy8v1qxcgVKpYtgo+aZf2tnZ6Ye2WeodVcE42rb4E4CBw4Zib2+caetx4T5zJgD79+zm2ZMnssVhqH6h3Q1Nmzcnbdq0ssXRpUcPVCoVD+/f59SJ47LFEZZVJt/eXXUz2br06EHaWC5abWwVKlWmcNGifPnyhT27d8kai2AaWzdtxNfHh4wZM1KvQUNZY7G1tWXshIlotVpcncfLGktMrl+7xu1bt1AqlQwZMVLucFi3eQsAU1xcLGKxeqtLvh8/fuTxo0ekTJmS7r16yR0OSqVSf/brZuIB94I85oaeba5cv8GsN9mi0qBxI5IkScLtW7e4deOG3OFEaeJY3QiDJatWmfUmW1Ry581Lrty58fT0ZNP6DXKHY13JV5IkGoeu1Tl8zFiL+CAA5MiRUz98ZlCf6LcKF6yLy/hx+Pv7U6hwYVkvm8NSqdS4z9LdxOrVtYtFdndt3bSRN69fkyZtWooVN/9NtsgoFApmz18AKJg51Z1v377JGo9VJd91q1cTHBxMtuzZqVXHshZMdnWfiq2tLWfPnBFDzxKIN69fs2enbl3YVRZwphRWufLlKV6yJIGBgWzdJM9on6j4eHvrrxbMNRHFUJmzZOHPVi0BmOE+RdZRSlaTfP39fFkcunjOomWWt6aura0tvfsPQJIkhvTrK3c4ghH8WJRlkImnwsbVeBdXVCoVM9zdLersd/HCBfj7+4fuyJxF7nAi6N1Pt+XQgb17+ezpKVscVpN8p06ejL+fH1WqV5dljKUh2nXsiFqt5vGjRxw9dEjucIR4uH71ClcuXSJZ8uT82aqV3OFEKmu2bPorwH4yDX/72ZcvX9iwdi0qlYrBw0fIHU6kkiVPTo8+uiFnP0axyMEqku+zp0/ZF7r8nKmW7zOWzTt1Ix6muk2yiDuqQuxpQkIY2Fd39eI6xR1bW1uZI4raj62LLl+6yOtXr+QOh64d2gO65VdTpU4tczRRa9W2HekzZOCzpydnT5+WJQaLT76SJOkv/8ZNdLHoDwJAtuzZyVegAF5eXqwN3ftNsC4HDxzA18eHwkWKULFyZbnDiZZarWbkGN1ehUP695O1D/PVq5e8evmSNGnT0qW7ZZyJR0WpVDJjzlwARg8fhlarNX8MZm8xlq5evsytGzdIlSoVdRtYxxq6M2bPQaFQMG/2LL56eckdjhALGo0G59GjUCqVjJ0oz4ys2GrUrBlJkybl2dOnHNi3T5YYJEmiZWPd8pqjxo6TJYbYyl+wIDly5sLP11d/g9CcLDr5hoSE6Pd6cpnibpSdYc0hY6ZMtG7XDgD3Sa5i3Qcr8mPxlRq1apE7Tx6ZozHcirXrAN0O2wEy7LC9YulSgoODyZk7N1Vr1DB7+3G1botu4sXmDevx/PTJrG1bdPLduG4dPj4+FC9ZknIVKsgdTqz06N2HpMmScfTwYTwsaDEPIWpv377lzMmT2Nra4uziKnc4sZIzVy7Kli+P15cvrFll3lXPfH18WLl0CWCZI5GiY2dnR4dOnQkODsbdzBtuWnTynTNjOgqFAhc361hEJKwkSZPSu79uq5k2zZvJHI1giKGhfaZ9Bw7C3sFB7nBiRaFQMC60m2TZ/xaZdcuhKa4uBAQEUOuPPyxmIkps9OjTB5VKxcnjx7h3547Z2rXY5Nu5XVtAd/mXMXNmmaOJmz9btiRjpkx8+/qV40ePyh2OEI0jhw/z+NEjANq0by9zNHGTPkMG/urSBa1Wy6hhQ83S5pNHjzi4X7dLxEQrPEkC3dnvlBm6Pt+hAweYrZvQIpPv2zdvuHXzJjY2NrjPMH9HuLEoFApmzfsbAOcxo9FoxNAzSxQSEsL0yW4A7Ngrzw0rY+nZpy9Jkibl6uXLfPX6YtK2tFotLqGL+0ycPNlq7slEpvrvv5M9R048Pn7k3L9nzdKmxSVfSZIYFLrmprn2ZDOlvPny8cuv+fH382PmtKlyhyNEYu2qlXz5/JmChQuTJZs8a0Mbi9rGhkFDdWe99Uy8Xc+lCxe4d+cO6ZycqP1HXZO2ZQ7Ok3T9/APMtGCXxSXfA/v28uzpU1KkSEHjZs3lDscoVq3T3YnesWULHz98kDkaISyvz59Z+Lfu6mTqzFkWs1hTfDRu1pzMmbMQGBjI7h07TNJGcHAwIwYPAsDFbTJqtdok7ZhTkaLF9OO6J7tMNHl7FpV8AwICmBW6NdCSBDRBwdbWlm49exEcHMwUV+sYO5pYuLm6oNVqadO+PRkyZpQ7HKOZ979FgG7xGFOs+7Bm5Up8fX35rUwZfitb1uj1y+VH98n2LVvw9v5u0rYsKvmuXbWSr1+/Uq58BXLlzi13OEbVqVs31Go1Z0+f5vbNm3KHIwBfvb5w8tgxHB0d6dWvv9zhGFX2HDkpXKQIfn5+uE8y/rC5RX/PQ6lUWuVIpOikSJGSVm3aANC7WzeTtmUxydfLy4v/LVgAwNiJExPE5V9Ytra2TJ+rm844ZEB/MfHCAvwROhmgz4ABOFjZ0DJD/Jh4sXPbNjw+fjRavW3+1HUH1qxTh3Tp0xutXkvRP3Rj3Pt373L18mWTtWMRyVeSJMaG7gzbsYs8O8OaQ6XKVcidNy9fPn/mxLFjcoeTqJ08fozg4GAyZ85CyzZt5Q7HJBQKBf0GDQZ0i8Ib4wv/xbNnPHrwAFtbW9ymTot3fZZIoVCwfM0/ALg6jzfZKCWLSL4fP3zg4rlzpEiRgu495d8ayJTGu7qiUCgYHjqNVTC/kJAQxo8aBcAUGeb0m1Ortm1Jnjw5F86d4/q1a/GqS5IkhgzQTRwaN9H0N6TkVKRYMbJmy8ab16/ZtmmTSdqwiOTbsmkTAPoPHoKdjDvDmkPBgoWoUq0aAONHj5I5msRp9vRp+Pn5UaBQIQoULCh3OCal22FbN4Z59LCh8br5tmfnTl6+eE6q1Kn5o751LHIVVwqFgnn/+x8A82bPMsmWQ7In3x1bt+p3hm3UtKnc4ZiF8yQ3bG1t2b9nj+z7SCU2Hz98YHvoYipLV5p3DQS5VKpShUKFi+D56RP79+6JUx3+/v7Mmq7rZli2eo0xw7NYWbJkpWHjJgQEBLBw3lyj1y978p0VOvFgSSL5gwIkS5aMdh3/AqBH504yR5O4THF1JTg4mB59+iT4q6wflEol40NHPLiOj9t286uWL8PH25vKVaqQLXt2Y4ZnsRQKBYOGDkWlUrFt82a+G/lESdbk6xq6M+wv+fKRMQGNsTRE7/79UXrUc08AACAASURBVCiVPHn0iAvn/pU7nETh1s0bnD19CqVSRcfOXeQOx6xy5cpN5WrVkCSJAb1jd1/ls6cnyxcvRqFQMNp5QoIbiRSdZClS0L23bkfyH92jxiJb8n337h27Q3eGXb91m1xhyGrV+vUAuE2caFEbICZEGo2G0cOGATBt9myL3xHFFKbOnIWNjQ3/njlj8Nq1kiQxerju/61L9x6kTZfOlCFapC7de5DWyYlPHh7cNeKqZ7Ik37BbA/UbNEiOECxCgQIFyZU7N+/fvWPT+nVyh5OgHTtymA/v35M3Xz4qV60qdziysLGxoXvoxpH9ehq2zc/r16+4evkyqVKlpnP37qYMz6KND12us0env4xWpyzJ9+a1a1w6f57kyZPTqm07OUKwCAqFgtmhE0sWzpuHl9hyyGTGjtCNIx/v4opSKfutDtl06tIVGxsbHj96xAkDljlt96dud99Bw4cnyquFH8pXrEiOnDkJCAjgf/PnG6VOs78LQ0JCGBo6xtXZzQ07Oztzh2BRMmfOQrM/WxAYGMi8WQl7zKlcfmyQWLlaNfIXKCB3OLJbu3kzAO5uk6Lt7tq4fh1+fn5kypyFuvXrmys8i7UydMbgmpUr8PHxiXd9Zk++hw8c4KuXFwULF6ZylcR5+fez/oMHo1Kp2LNzJ1+/irNfY/L39+fwgQOo1WqrXhvamHLlzkO+/Pn57OnJxnVroyw3f/ZsAFaujbpMYpIseXIaNG5MUFAQbhOc412fQjJkzqH2M6AGZQqDKv3q5UXvbl159PBh5I0qFGzctp3cefPGJtYE7Z9VK5k7cyY2trYEBwVFeL1ZixYMHDosQa5BEF8BAQEsmDuXDWv/ifCaQqFAkiQ6dulCv4GJ9/7Cz969fUvDOnUASf9/FJZKrUYTEkLhokX1Z3wCBAYGUrlMaTQaDWq1OsKVg1P69MxbuIjcefPGOCrE6Ge+Wzdu5PfKlaJMvKAb55okaVJjN23VcufRfRFFlngBtm3eTPWKFbh/7545w7J4Tx49olbVKpEmXkCfVIoVL2HOsCyerZ0dSZMnA4h0zQdNaFL5o249s8ZlDbJkzQoQaZeNx8ePtGrWlOmTY17tzahnvju3bWOSgafjqVKnZsvOXaRMlcqg8gnZjWvX6PZXR4MWPrG1s2Ptps0JbsnNuPD4+JFGf9QhODg4xrIKhYI5CxZSoVIlM0Rm2YKDg6ldrarBkwYGjxhBm3bWua+dsTWtX49XL18aVLZhkyaMj2YXbKOd+X7y8GCqm+FbL3t9+YKrc9xm2yQkAQEBDO7X1+AVp4ICAxk+aCBardbEkVk2SZLo0bmTQYn3R/lxI0cQGBho4sgs36C+fWI1W2vezJl89vQ0YUTWYdH8vw1OvAC7d+zg3t27Ub5utOS7bfNmgz8IP5w6cSLR/1GvX7vG9++xWzH/xfPn3ErkC7L7+Pjw+tWrWB3z/ft3du/YbqKIrMeFc+diVT4kJIR5s2aZKBrrsW517HfXcRk/LsrXjJZ8N2/cEKfjbt28YawQrNLShQvidNzxw4eNHIl1WTT/7zgddzSR/78dPnAgTsdduXzJyJFYl+fPnhEQEBDr4169eBHla0bp8w0ICKDib6ViHZgQd4n9LnSDWjV5//693GEIQoz2HzuOk5NThJ8bZ8vReK6Qn5gW6vhZXHcXSOzbEGni0ect3m9xI/7f4nhsFO9VoyRfO3t7HJMkwc/XN9bHukyZQt0EvjBzdFo3a8rjR49ifVy+fL+aIBrrUaZcOfaELswUG0WKFtXvbZYY7dq+DVfn2E8QSJM2LYdOnDRBRNbh/r17tG/ZItbHqdVqnKLY584ofb4KhYKGjRvH6diSv/1mjBCsVufuhi1w8rPqNWsaORLr0rNP3zgdV7l6DSNHYl3qNmgYp+OKFC1m5EisS/4CBbCxsYn1cRkzZ47yisFoN9ziskBOoSJFcHJKeLufxkZcxp2mSZuWUqVLmyAa65HOySnWs/1sbGxp2aqViSKyDjY2NmSNw2Log0KX40zMatWpE+tjRo4eHeVrRku+WbJmpWuPngaXVyqVTJs9J1H3IwE4Ojoyc948g8srFAqmzZqNSqUyYVSWT6lUsn7rtli9f4aMGIGDo6MJo7IOm7Ztj9XKbg2bNCFT5swmjMg6TJw8BbXa8LPfnLlyUaZ8hShfN+r04p59+9KoabMYyzk6OrJi3bpI7wAmRlWqVWfQsGEoY0ioKpUK1ylTKFq8uJkis2xZs2Vj7oKF2BqwMl7n7t1p3rKlGaKyfLZ2dmzdvYdkyZLFWLZKterRztJKbE6dP086AxaUL1ioEFt27Y62jEkW1jl7+jTzZs3k2dOn4RtTKPm9Vk1GO08w6A+f2Dy4f49pbpMjHftcplw5xk10IUMi227JEO/fv8fd1YV/z5yJ8FrBwoUZNXYcv4qlJCPw9vZm2mQ3jhw8GGGdghw5c9J34ECqJvI+8sgEBQUxf+4cdm7bFmGQgZOTE526dadZixYxXl2YJPmCbmjG+3fvePbsKYEBAaROnYYCBQsmmk0L4+OzpyePHz3C18eH5ClSkC9/fpInTy53WBbP29ubhw/u8+3rVxwdk5Anb17SiaurGAUEBHD/3j2+fPbEztaOnLlykTl08RghasHBwTx6+ICPHz6iUirJmj07OXPlMrgrzGTJVxAEQYha4t1PRRAEQUYi+QqCIMhAJF9BEAQZiOQrCIIgA5F8BUEQZCCSryAIggxE8hUEQZCBSL6CIAgyEMlXEARBBiL5CoIgyEAkX0EQBBmI5CsIgiADkXwFQRBkIJKvIAiCDKwm+Wo0Gi6eP4+Pt7fcoQiCbL5+/crZ06flDkMwAqNsHQ/w/ds3Fs3/m1Zt25E9Rw5jVYuPjw+rli1j147teH35wrotW8n3a+LeNl2wHEFBQezavp3bt27i5+dH0qRJKVykCA2bNMHGxtZo7dy6cYMVS5dy9vQpkiZLxslz541WtyCPeCdfjUbDyCGDOXv6NMHBwdRr2MgYcfHxwwdGDBnM/bt30Wg0RqlTEIxp/uzZrPtnDcHBweF+vnfXLma4u9O6XTv6Dx4SrzY2rV/P2tWreP/uXbzqESxPnLsdQkJC6NG5M2WLF+PEsWMR3oDxlc7JiYVLl7H74CGj1isIxjBi0CBWrVge5fs+ODiYNStXMqB3r3i1U6dePbbs2k2nrt3iVY9geeKUfO/fvUu/nj3oO2AA7Tt1MnZMgG5rcEdHR9JnyMCv+fObpA1BiItD+/dz7OgR7Ozt6dC5C2cvX+HK7TscPnWacj9tFf7vmTOsWbkyzm2lSJECe3t72nXsGN+wBQtjlD3cShUupH+8av0GChUubKz4AOjbozsXzp0DEH2+gqw0Gg2N6tQmafLkrNmwEVvbiP26t2/dolPbNuF+dur8BZIkTRqvtn98zkSfb8JglNEOdnZ2xqgmSpG9wQVBDg8fPCAwKIjlq9dE+b4sXKQI411cw/3s+fPn8W47pq3IBetilL9mipQpjVFNlJRKlUnrFwRD3bx+nUFDhsZ4Flu7bt1wW4jfvH7d1KEJVsYoQ83UNjbGqCZKYd7DgiCrWnXqGHSyYWdnR7ESJbh+9SpgpKs38UFIUIySfFUWdjnk5+fH4QMHePb0CSqVikKFi1ClenXUaqMNa441T89P7Nm5E89Pn8iZKzcNmzQx6APp6+PDovnzGTxsGEqV7grg8sWLnD19io6dOpM6bVpThy6EkSYW/9+ZMmXWJ99iJUqYKqQoPXr4gNMnTvLly2fSpE1L5apVyftLPrPHEdb5f//l8sWLSJKW8hUr8luZsgYdd+nCBe7fu0fHzp31P1uyaCEO9g5R3vS/f+8uRw8dQqFQUrtuXfL+8gsAu3fsoHbduibvLo2JfNnIyCRJ4v7du3Tt2IHg4GCyZM1KxkyZePvmDf+sWgXohq+t27KF1KnT6I979uwZ/bp35+PHDz/VqCBX7lw0b9mKFq1bh3vl/L//MnfmDJ48fgzo+uKyZc/Bus2bsbO315fTaDRs2biBGe7upEqdGnt7e759+4afry/uk1xxcHBg2569OKVPH65+Pz8/Ll+8yMSxY/j+/TsAA4cOJcDPj2YNGvDJ4yMA69asYdHyFfxWurRR/g8F4/ry5bP+sZOTk1naDA4OZtb0aWzZsIEkSZKQM1cuFAolL1++YNHffwPQul17Bg8fHq5bZMyI4Zw5dQo/X99w9Tk4OJC/YCHmzJ+PY5Ik4V4b0Kc3D+7d47OnJ6C7EVizdm3GOE8IV+7bt2/079mDhw8ekCZtWiRJ4pOHh/5z2fTPFgwbNQqbMFfQP8qsWLKErZs3Abq+9I6dO3Pi2DGGDRygL7ty+TIOnTipP/7+vbu0b9mStOnS8Wv+/EiSxP69e/D4+FF/TI1atUTyNZbrV6/SvdNfAEyfM5dqNWroXzt66BAjhw7hk4cHzRo04NiZs/qbF7ly5WLf0aPMmz2LNStW6I9p2KRxhJsmP5SrUIFyFSrwR41qfPL4hOsUd2rXrRuuTFBQEAN79+bmjevMX7yEsuXLA7o31bzZs/hn1Sr8/f1pWKc2azZu4pd8ujOS6e5TOHzgAF5fvkRot0XjRvh4fw/3s8kuE9mxd19s/7sEE9Nqtdy4dg2AUqXLmPy+COi+7Af168uFf/8lRYoUHD1zVp9gtVotHdu05v7du2xY+w/Jkieje6/e+mPdpk4jMCCAxnX/4NOnT/qfHzv7b5RXaHMXLOT1q1c0qVeXpEmTcvT0mQhXl8+ePqVF40YUKVaMo2fOkDRpMgC+ff3KX23b8PrVK7Zv2czzZ09ZuHQZNjY2+Pr60qtrF16/fIn3T8sJ3Lpxg5FDBqNUKtFqtYBudu29u3cpWqwYL54/o33LltSsXZspM2aGO3bX9u24Oo+P4/+u8VlWf0E8/Ei8qVKnDpd4QfctlylzFgC8v3/Hx8cnwvH9Bw0mQ8aM+ueBgYExtun5yZMcuXJFSLygS4qXLl5g+T9r9YkXQKFQMGDwEGr8XhPQTVYZ0LuXfrB+j959OHLqNAuWLA1X3+zp06hRsxanLlxkwJAhqEK7IEaPt5w3k/Cfr15e+Pv7AzBo2DCztHnl0kUu/PsvAJ26dQt3ZqtUKnGZPEX/fMfWbRGOt7O3j/C+k0ITXFQ+fNBdMTpPcouQeL29venQqiVp0qZlxT9r9YkXdDfpN2zbrn8fX796lQ1r/wF0Z9sr/lnL8X/PUaRoUf0x/v4BjBkxnHWbt3DwxEkKh77mlD49+QsUAGBwv34AuE2bHiHWRk2b0qpt22h/H3NKMMlXL5JhywqFglK//aZ/fuvmzUgPXb1+g/7x8SNHIlyCheXv54ckSbRo1TrCa8+ePmXvrl1UqlI1ygkiE9zc9I8/eXhw7PBhAJInTw4Q4bgTx44xaNgwlEol7f/qxKETJ9l/7Di/lS4TZYyCfJYvXgxA9Zo1zTYu/ezpM/rHikhuzuXMlUt/ae79/VukdeTKk4e6DRron48eHv0Xx54dO1AqlZQpVy7Ca+NHjSIgIIC1mzZHeqy9vT1NmjfXP/979my0Wi1KpRK1Wo1CoQhX79Mnj+kzYAB5fvmF1KlTs3LtOnbu28+Offv1Z+c/vgwCQr/4fmZJMwUTXPLNmClTpD9Pk+6/GyWeHh8jLZM6TRry5MkD6PrOjhyKempz7+7dsLe3p3mLFhFemzXVHYDaf/wR5fEODg7hnp86cTzc859HkGzasTPc85SpUpmtH1GIvU0b1uPg4MCESW4xFzaSwkX+m9xUqHCRSMv8ODuNbjmAnn376R+fOnEiynLfv3/nwL69NGvREkdHxwivnT19CtDda4lKqd/+u18hSZK+K+GHZKEnIwBZs2Wj9h/hrzKzZMsWru82JPT36hnmxlxYqdOkoVCRyP9vzC3B9Pmev3adk8ePU7N27XA/lySJkJAQAv0D9D8LDg6JtA6FQoHb9Bm0bNIYAFfn8dRr2DDC5ZQkSdy+eZNyFSroRyD8V3cwF87rZh+NHTmCsSNHGBT/06dPwz1X/VTvz8lasFztW7UEYNbff0dISqZU64+6ZMqcBQdHB3LnyRvuNUmSCAgI4MeE1ugmtmbKlIky5cpxMfR9PMl5PGMnukQod+HcOSRJonnLlhFeO33ihL6NsDNgY3L75k2Klyypf24bZmW4FClSRHpGH5ZjkiT4eHtz795dGv1RhzUbN5E8eXL9cQqFglXr1hscjyklmORrY2MTLvFKksSL589ZvGA+x48eJclPd2qjkit3bnLmysXzZ88AOHPqVIQ+5I3r1gGR9yuFPaMY7+IS5RnIz1Q24f8UYkSndbp4/hz3796ldfv2Bg+jMqafz+oCAgK4eP4809wm4evnZ9C9DIDhY8bSvEF9JEni4IEDDB8zNtyNN61WyxQXF37Nn5/coVeLYd27c0f/ePNPV23RSR/mvguAIpbDWCtUrsyhfbob0G/fvKFGxQpUqlKFISNGkiVr1ljVZWoJJvn+oNVqOXv6NHNmTOfD+/c0bNKE/UePsW3zZpb+b1GMxysUCgYNH0H/nj0AGD5oIJdv3Q5XZs3KFSRJkkTfPxuu/TDLX6ZMlZpckbwxhYTJ4+NHhg4YQNXq1Rky3LArHlPx8fFh3erVLF+ymJy5ctGjb1/qNWhItQrlo72X8UP27NnJnTcvTx49IsDfnyWLFtJ3wED96589PfH2/k7LtpH/nh8+vNc/NudnwM19Kl8+eXL50kX9z86cOsWZU6eoWLkKg4cPJ1v27GaLJzoJqs/39atXtP2zOYP79aVqjRqcOHeekWPHkTZduljVU7ZcOf0fSJIkjh05on/t4YMHfPLwYPb8BZEeG/bM9/3bt3H4LQRr5O/vT/dOf1GkaFGmzZ4jayxrV62iVpXKrFm5grmLFrFpx04aNm4SoSsrJlNnztI/3rpxI4GB/3XdjRs1kqTJklG3fv1Ij/WP4oaXOSxavpwJbpOxDzPmHuDs6VP82bgRm9avkymy8BJM8j198gTNGtTn8aNHzF+8hP6DBsd5ELVSqaRrj576524TnPWPly7SnT1HNWMp7EDxM2fEdi+JgVajoW+P7iRLnpzZCxbKtgCORqOhV9cuzJk5g5QpU3L87L8RlriMjew5cui763x8fNi2+b9RC1cuXaJi5cpRJvSwn71PHh5xjiGu6jdsyJHTpxk4dGi4v4cmJITpU6awd5fhXSGmkiCS77evXxncrx9arZZGTZqGG1cbV3/Ur68/Y/7+/TvHjh4lICCA0ydP0rpd+yg/YGFvwF3491++enkZ1N7C0NlHgnWRJIlB/fri8fEjK/5ZK+sKfFPdJnH5ou5ye+W69eFmW8bV1t179I8XzJ1LSEgwG9euBWD0eOeoDgs36qh3N8OGd718/tyoO3Y4ODjSruNfnL18hao/3bdxGT9e1rNzSCDJt0/3//64DZo0ibH8z8NZIqNQKOgc5k0zf9ZMdu/YgVariXZh658/fPNmzYr2zjLo7hq/e/smxpgEyzN66BDu37vH9j17w131RMbXgL7WuPLz82P7li0AOIRuQhAdQ5bxBkibLp3+7DcwMJATx46zeOECUqVOHe1IjsJhJkc8f/aUD+/fR1n2hxFDBkc7LM0QHVq3ivC72draMmPOXFau/a+7QavV8u6NvJ85oyRfrTbML2vgHzU2YqrRM3RuOUBgQMzfZkFBQQa126J1G30yff36NXNmTCffr/mjfWOr1Wp+r1VL/3z3zh3s27MnyvL+fn6MHTmCuvUi7zsTLJfz6FFcOH+enfsPYBPDGa/Hxw/UrlbVZLGEnVSgCdHEeIIhSZJBCVihUDB7wX/3NyaMGY23t3e4/uDIVK1eI9yXUatmTaPtfjh25DCvXr2KtsvGkMzy9MmTKF8rXLQo9Ro21D8PkXlvSKMk37Ad8Rqt8X8hTZhxuUGRDJUJ+wf78e0f1quXL9m3Z7f+uWfom+Dbt2/6xXGiEnbAeVBQED379I6mtM7PmyZOGDOaSc7jI3RBPH74kDZ/NidVqtSUq1gx3Gvanz4Yhp6pCKYnSRLjRo7kxLFjbN29B6VSSUBAQLh//v7+fPv2jRfPn7Nh7T80rls32st0g9oNTaiRTfkNOyQrKCiQF5Es3r5h7Vr8/fz0z3+ciR87ciTaZF2kaDFSp9EtRvVjqFqJUqWijdXR0THcTDkfb2+aN2zAof37w7UVEhLCpvXrGD1sGBPd3CIkX22YfKIJMSy3rFy2NMrXatb5b+JTqlSpDKrPVIwy1OzL5/9Wb/Lz9YumZNy8DzNs5dHDh+EuaQBK/vYbB/buBXRvpL9nz6Zn3774+/szf/ZsDuzbS6nSpXkXOvpg184dlK1QAfdJrhHmsv+sQ6dOzJulW6AjabJklDXgBkamzJnpM2AAC+bO1f9s5/bt7N65kxw5c+KYJAleX77w9s0bVGo1m7bviDB4/OcvGT8/P1KkiHwbJ8F8tFotwwcN5ORx3YzE2JzNRjUywBCfPT31X8ABAQH6abg/JEmSBIVCoS/TpX075i9eQoFChbh25Qqzpk3DwdEBWzs7AgN0J0srly7B1s6eyxcuUP3336NsW61WM2jYcMaFThj6q2tXg2IeOXYcZ06e5EvoIlG+vr6MGTGcqW6TyJItG5Ik8erFC3x9fSlRsiTVQ9c7+fn3/sErzCpx0Vk4bx7lK1Tk19D1HsI6f/YsoJtZF98ujviK95nv2VOnwn2TuU+aZPBAbkM8efyYJ48e6Z/Pmj4twrf0uJ9m36xesZwKpUpSvUJ5Tp08wZ5Dh/m91n8TMHy8venXswcjx441aOD1j7Pfho2bxHh5+cNfnbtEWGdUq9Xy7OlT7ty6xdvQ/qZFS5eRI2fOcOUkSWLlsmXhftasQX2j7xAtxI4mJISuHdrrE29s5M0Xv3V0p02Z/F8cGg1zZ4VfscvW1pZxLv99Dry9venYpjVlixejR+dOVKtRncUrVobrp129YgV7du7g78WLY5w5VrN2bf3KbB06RT5192c2Njbs2H8gwpCv79+/c+/OHe7fvYuvry9Zs2dn3qL/RRg58f37d7Zt3ap//uHDBxbNN+zGdMc2rVn2v/+F+9mZU6fYtH4dadM5MX3u3Bh/Z1OL8waatatW5fNnz6iPQffNF9nUQ0PFNC3x/LVr2IROP9RoNFSvUD7cTY3+g4fQ/q+/UCgUaDQa6taooY/50ImTBi+MfeTgQUYNGxqrY0CXRN++fUuz+vXQ/NS/lDJVKg6fPBXhMqtTu7bcjmLhH9BNnzx94WKUrwum8/jRI1o3axqnY9du3syv+SOeicXk56VOf1apSlVmz58P6N5v+/fswXnMaP3rDo6ObNu9h3ROTigUCm7fvEmndrqVvcpVqMC8Rf8zOAk1rFOblClTsnrDxlglLq1Wy9L/LdIP0wyrTfsODBo2LFx9vr6+VCkb/YJRHbt0od/AQRF+XuG3UlSqXJmjoQtVRfgdGjdhnIuL7IkXjLR7cUJXplhR8v2anzUbN8arHj8/P5RKBfb2Yp0Gwbr82JF56erVFC9RMuYDoqDVavn+/btB6zQYy7dv30iaNGmsJ5mYWoKbXmxsXz5/RqPR0KNvn3jXZc5FVgTBmNb/8w/JkiencJGiMReOhlKpJKUZFpYPy1LvlSSIcb6m1L9XLxwdHalQsZLcoQiCLL5+/cqRgwdo0669rPsgJjQi+Ubj2bOnPHxwn9btO8gdiiDIQpIkpk2ejEqlonmrVnKHk6CIr7FQrZo24f279yRNlpQu3XuQNFlSJowZgyRJ9OwT/y4HQbB0L1+8oHP7dmi1Wn7Jl4/Bw4ezZOFCTp04QZPmzWUfF5vQiBtu/LfBZmR2HTxI5tD93wQhIatctkyky02mT5+BfUePyhBRwia6HYC8v/wS4c6rg4MDC5YsFYlXSDTKV6gY4WfZsudgb5glVQXjEWe+ofbv3cu6NasJCQ6meImS9OrXzyzbfQuCpQgODmayy0Ru37xJylSpqN+oMY2bxm1csxAzkXwFQRBkILodBEEQZCCSryAIggxE8hUEQZCBSL6CIAgyEMlXEARBBiL5CoIgyCBBJd/g4GCWLlrEtatX5Q5FEGTz6uVLJk2YILaesnDxSr47tm2l4m+lKFW4EKUKF6JZg/o8DrPrhLn4+fnxZ6NGlCtRnMULF/D65UuzxyAIPzt/9iwdW7fWfz56dzdsC/W4Onn8OGWLF6Np/Xrs3LY15gMEWcVpYZ1nT57QoU3rcDumgm5hjtbNmpI1e3a27tpt8sWLX754Qa+uXfD18THpttyCYCjPT58YMXgQN2/cIFmyZNSuW5e5CxeS0oSL0sydOYNd27fj4+MT467FguWI9Qy3169f0bxBAyRJ4pdffyVlypR4eXnx6MGDcJc5v/z6K+u3mPbbV6vVolAoUCgU4bYcGjfRhUZiWqRgRlqtlrWrV/P37FlIkkSLNm0YPmp0zAcaQVBQELa2tly5fImenf/bX+3yrdsWsV2OELlYdTuEhITQo1MnSpcty8HjJ1i7aTPzFy9h3eYt7Ni3n2zZs+vLPnrwgPt37xo94LCUSqX+zZUjVy6TthWVqZMmydKuYDmCgoIY0r8f82bNRJIkFi5dZrbEC7rNMwFy585jtjbD8vb2ZsXSJbK0bc1ilXwPHThAvl/zM3fhIlKnSRPutSxZs7Lin7XYO/y3P9nq5ct+rsJkMmTIYLa2fvD68oVtWzabvV3Bcmg0Gjq3b8eZU6cAWLl2HaXLlpUlFrufdgk2l+WLF/Pm9WtZ2rZmsUq+z548YcbcuRF23P0hZapUlAnzxvvu7R2/6GJBjv3RFsybZ/Y2BcvS5s/mPLh3D4AJk9woXDR+e5zFR1SfS1MKDAhg66b4bSybWMXqr9Vv0KAYb6KV+O03/eNKVarELao4UJl5b6lvX7+KO8qJ3IK5c3n6+DEAZcqVo36jRrLGY+7kKH4ZHwAAEWNJREFUK0kSkyY4ExAQYNZ2Ewqj/7UC/HQjIFQqFa3btTd29VFSYL4bC56entSoFHHhaSHx8Pj4kVWh3WpKpRJn18TV9y9JEpvWr+PAvn1yh2K1jH66ePXKZQBGOzsbu2qCgoI4efwY587+y4f373BwdKR06TI0jMPIhq9fv3L86BGuXLyEp+cnkiRNSoGCBalUuQq/FigQ5XHXr16lX88e+ueSJHE9zKQOhVJJseLFwx0TGBjI7h07uHj+HN7e3mTNlo0y5cpRtFhxHt6/j0ajoWqNGrH+HQT5DBs4QD+6p0SpUjilT2+2tl+/esXxo0e4df06Pr6+ZMqUmd9r1+K3MrHra5Ykibu3b3Pq5Ake3L1HcEgw6dNnoFTp0lSpVo3kUWy5LkkS8+fMZvWKFfqfffb0DPc5SJ8xI5kyZQp33MMHDziwdy+PHj5ApVJRqEgRSpcpS67cuZk+ZTLjXFyxs7OL1e9gzYy6mLqXlxf1av5Oo8ZNGDF2rJFC1Dl25DCu48fj4+NDm/YdyPdrPh4/esym9etQKpXkypNHP7oipqFm7pNc2bZ5MxkzZaJh4ybY2Npy/NhR7t66BUCx4sVxnzWLtGnThTtu4d/zWLEk+ru6tra2nLt6Tf/80cOHdG7fjtSpUtGxazdSpEjO82fPWLNiBf6h46RHjh1H85Yt4/T/Ipjf40ePaN3sv/fXpu07yJ03r/75Jw8PbG1tTbITyujhwzl8YD9ZsmalZZu2ODg6cmj/Pi5fvEihIkW4E/oehuiHmr17+5bhgwby4P59qv1ek5KlSvLxwwe2bdmCn68varWaTl270SOSzWPr/l4Dj48fo42zc7fu9O7fH9Al61nTp7Hhn3+o36gR5cpXQKPRcOb0KY4cPKg/5uzlK9jLdNNQFpIhNJ6SpPkabZHg4GCpbYs/pTkzZkgajcagag21ddNGqVThQlL5kiUkT0/PcK99+fxZqla+nFSyUEH9v53btkVZV9sWf0olCxWUFv49L0KcF86f19dRpWwZ6cP7d+FeDw4OlgIDA6XAwEB9ud+KFJb8/Pwkfz8/KSAgQAoMDNSXDwgIkCqXKS3VrFI5Qlv+/v5SzSqVpJKFCkpbNm6M63+NIAPnMaP1f/9yJUtIGo1GWrNqpdTojz+k0kWL6F+rUbGCNNPd3Wifh2YNG0glCxWUnMeMlkJCQsK9durEiXCfgZKFCkparTbSel6/fi2VLV5MKleyhPTs6dNwr/n7+Un9evbQ19GlffsIx//4DBw+eEBfbtyokbrPgb+/FBAQIAUHB+vLH9q/TypZqKC0feuWcPVotVrp2tUr+jr8/f3j+l9jlYzS5+v15Qu/V6rIg3v3WLdmNWOGDzNGtQA8ffyYKa6uSJLExm3bSPPTELdUqVOzZddug+oaNXQID+7dw9bWll59+0W4QVG6TBmGjhwFgI+PD03q1SMkJET/ulqtxtbWVj+u8gcHBwfsHRyws7ML99rKZcvw9fVl0LBhEdqyt7dn35FjBsUtWJZjYTaUTJokCRV/K8WqpUv5s1VLxk6cSNZs2QBd19b6tf9Qv1ZNgoOD49Vm/149efHsGY6OSXB2nRThxnelKlWoXbeeQXU1qVeX4OBgRo0dR86fxsfbOzgwe/4C0jk5AXDj+jXcXFzClfnxGVCHucmtVqt1nwN7e+zs7MK9NmbECNQ2NjRu2ixcPQqFguIlStK5m2mnXVuqeCXf3Tt3Ur1CeWpWqYyPjw+gm+lz5NAhKpQqSVBgYLyC02g0dGjdCoDKVauRNXuOSMulSZs2xpk8d+/c4cihQwCsWLs20jIKhYLmLVuSJEkSQNfHPMPdPa7hc/vmDQBOnzgZ6es2NjYUL1kqzvUL5vfi+XP8/fz0z7WSxIZt2zl29l/aduhIg0aN2bFvP6s3bNCX8fj4kXYtW8S5zXNnz3Lu7FkAdh44EOl7XaFQ8FeXzhF+/rMuHdojabUkS5aMBo0bR1pGpVIxxnmC/vmOLZvx/PQpjtHruh1CgoP58P59pK+36dAxUc7Ei1fyLV+xInMXLaJNu/YRbjgEBgbSsU2beAV3/ty/BIYm8IZNmkRbttRvpaN9/X8L5usf58n7S5Tl1Go13Xr11j+PzxhGjUYDwJFDB3n44EGkZQYMGWLyNTAE43n9+lW450dPnyF7jognBQULFaZnmP7Sp48f8/jRw1i3J0kSc6ZP0z9PnTp1lGUzZcocbV1+fn7cvnlTVzZLlmjLVqxcmZRh+qynT5lsSLjRGj5oYLgvrh9SpkxJseIl4l2/tYlX8k2bNi2FixRl8IgR7D18hBFjx4a77H786KH+GzsuRg0Zqn+cO0/0UydTRfOm/Pb1K+fDxBHTeMjyFcMPI7t+LW5LVObMlVv/uF2LP5kzY4b+CuGHQoUL06R58zjVL5jfJw8Pg8u2atsOGxsb/fM+cbi8fvrkCc+ePQOif48D2PzUHfazNSuW6xfeyZ4te7RlAQoULqx/fOnixRjLx+T+vXs0bVCfUydORFjucunq1YnrZhtGHOerVCr5s2UrVq5bFy657dy+Lc51+vv/9y3583Tm2HgZyyUmc+TIEe5Ds3vHzji127l7N/0HQpIk1q5exR/VqzF98mT9Gb1gXby/Gz5rM2myZFStXl3/3MvLK9btXbtyRf/411/zx/r4sC6cO6d/nMqAz1P9hg31j72/f+fjhw9xard7mCvJTx4eDOnfjxaNG3H86JFojkr4jD7JIt+v+alS7b833Mvnz+NUj/dPU5PDJsPYev0qdslXqVLhFGatiGdPHsep3XTpnFi7aXO4LyN/f382bVhPtfLlcBk/Lk71CvKxi+Hs8mdly1fQP/75bM8Q10LHzQM4JonfFPrPnz/rH2s0IdGU1ClWLPx49S9fvsSp3W69etGu41/hfvb82TOGDxpE3Ro1wn3BJCYmmY/oPnOm/nFgUFCc6njzKnzfWlAc6wEi7WeKSbKkyfSP45P4c+fJw8UbN6kS5gwIdL/P7h07qFKubLx+N8G8UqdNG6vyuXLnjrlQND6EOdv8Houz7siEhBlx8cGAs9h0P93HUarili4UCgUDhgxh94GDJEmaNNxrHh4f6d7pL2ZOmxqnuq2ZSZJv2BtI/2/v3IOiuu44/r0rzoKyFJXEQlDxAawPUBOGKCEimCagFQQ00dTwVLBEtKVOUzONj0pm0IREQVI0UAIYYiwjGVA0NqkgiYCARcAgJoCACEhSWEPYZXe7p38Ay73LvhldkfP5a8/Zwz2H3bO/+7vn97KysjLqGmaTucF33TqcurUx7DYzjGLIEKYN9v/wrNvYPBIYhkHisSQUlZbBfcUKjib8S18fgn7LdWmjPL7Y2toaNJ59TmuMRd+MtQ+/q6s1+O/ZWLAyDnZp8Dxgo7peO1s7DSN1wzAM7OztUVxahqS/p2KGyk3ss+xsnDk9sRL0PPRMHLoMZZqY4zCX077doL+lmBBuNn9VK3DLnTs6ryEZGEkWsvG1zXrPzaars5NTWcDS0hIffZyGnNxc2M+apezv7OhAYUGBUXNQHi2OTk4cH9Y+HZn72DdaYxLfzGIZxsZareXXLOHZ1albmWE/kdk98wwERipSqkZKD09PfHm5CDG7dnE+kyPvxuulGD0pPHThGxhsnCVfNZDBkLy5cpUvcLaDAydm/IAeoc9sv0Zj4/YT4uM552zDLHB0Qt75Qs4jaVVFxahxlMcPcwsLeHl7K9tpqalax/ewzklDIyINnm/FCx6c9lhqJLJD7h88EKGutkbLaOD2rXrl61WrVxs9b8hm9cpLxPYoZJ3+nKNhKyZQ0c+HInybh1xj5jg4wHXZMqOvI1w4Yt29XlmJH/TceDKVM1Q+n4/XQ0KU7frvbmo1fnR3d0PU2wsA+H3sLq1zKRQKpT+vOq6VlartZxgGmTmfsTq0TkN5jGDvibO5/9Q69mZdnfL1jp07DZ5L1X99R0S4wdcY5mU/X1iw8l5/8rH2YgeF584BGPR9j44ZneOBY0juF496f5gff9QcoCFcuFCnD/+TikHC939yOdpUDGHqiAoPA8MwyDj1qdELA4DjqSc47ZAtWzSGaVZVjVhMO9ScZ22L3gGBYMSItvvNmFFjhin+92DYL4/HQ2i47s3e3NiofP2vixdRU12tbB/av1/jeS678oDrUuNvUpRHi8PcufBdNxjK29/fj3INN1gAODv0xPbOgYNGHTvMsLGBf+CIxioSiRAXG6t2bGfHPU5bVcFgGB4OsSI2i4su43aD+uAfAPjq0iUAwNr169UeOQgEI33XysqU8xFCEB0RoTxyI4Ro9eyZxyp/NJEi3fTeDYQQPL98GQLXrYWbyxIc+yARAwMDnA+8v78f/n6+EPX2ouDLSxpT0umL9fTp+AMr0EIqHcDKZ5ejvKwUUqkUMpkM3ffvw9tjJR4MaaoAkJOVhdKrV3GCFdXG5/ORmv4P5Zd7taQEhQX5ozbo/a4uJMTHg+Hx8HneFzDT4OnA/iHtfjMGra2tSD95AocO7Odo+3KZDFuCg9RWlR0Ot5xqaUkLfo4z4hMOKw25f4mLG+WxQghB/hd5+OH77/GcuzsCgoPVXUYv/nrgAGxYBqorRZfxaoA/ent6IJPJIJVKcS4/HxtZfrkAsCU4GNcrK5HBqq+22tsHz69cqVzjtpBQ9PVxz60JITia+D7++9NPsLKywr6/HVK7LrbvvUjUi9Tjx9HefhevbQiA9xofzm8kPy8PV4qKRv3eCCH4tuQKAOCNsPAJFe1pQEpJBm5LV416y0koxLz583H71i00NTZigeN8pGVmwlLFpWQsJB39ENkZWWqPChiGQURUJNpa2nDp4mDuhkmTeHAWOuOdgwfh6MQNJb5RXY2d0TsgFg8a1F708kJkVBT4fHNUVVbg/YQEWE+zRsqJVDgLhRrXdK28HDHbozl9FlMscPHrrzF1yB/zj7G7UFI8uLEEAgESk5Ph4DAHPB4PTY1NiAoPh0BgicycTznFRynjh1cDA9HU2IwZNjb4ICkJ9rPsMTAwgDOnzyAzPQ0vvbwG7x55D7wxanRiiQSbg4LQfvee2vetrARIz87CpoBATt+a37yEPXv3cvyTCYB9e/fiwvkLyr639+3DEldXSMQSpCQdQ1VFBdzcn0NqWrrWdYX9bivqaus4fZ5enjiaPKL4uLmOKCPr/P0RGbUd1tbWEIslyMzIwJmcHLy4yhOJyclj/pzGE3oK3x6AiHCrvhHHPvwEzc0t6Pt50PI6ZeoU2No+jSUuQgRv8sO8edpjxo2ltqYBH6Wcwo3/1EEqlcHcnI9ly10QuzsUzsK5ePutw/j2myr4b3gF4ds2Yfo0zZZZBSFIST6F4stX0drSDoVCgcmTzTB/gQNe8fPG61vXY5Iej4jflFQhMyMXP/f9AhcXIf705+0w549oykcOn8Ts2XbouNeNmpp63GluU0ZIPT3zKXj7eCBuT8SEuts/aRACFJ4vwtncC2hqbIFUKsW06dZYvNgZIWFBWLzEUfdFDCA9LRfnC75CW+tdEALMnPkUvNe8gLg9kZDL5fBwD4TzwgXY+kYgfP28oE2W1dc3Ie3kadyovoneHhEAwHrar+C6dBHCIzbCxdVZ53qkUjlSkrNRXnodU6ZaYEOQL/wDuD7tEWFvYe06H1yvrEVDQyPa2zsgl8nBm8TDokVOCA3fCG8f0xQdNSX6Cd/HDIlYzKmSDAwm8jEzMzNYkCkUCkilUvD5/Edy3iSXy0AURGccPoWiDblcDkIIJwCIEAKJWMwxqumLTCYDIWSUl9HDQiIRg883n1BnvKqMS+FLoVAo451HX2uaQqFQKFT4UigUiimgwpdCoVBMABW+FAqFYgKo8KVQKBQTQIUvhUKhmAAqfCkUCsUEUOFLoVAoJoAKXwqFQjEBVPhSKBSKCaDCl0KhUEwAFb4UCoViAqjwpVAoFBPwf+wLntkQhiQ6AAAAAElFTkSuQmCC;" vertex="1" parent="mub_gCMMnNci_3UeIq6J-2">
                    <mxGeometry x="550" y="80" width="188.37" height="139" as="geometry"/>
                </mxCell>
                <mxCell id="mub_gCMMnNci_3UeIq6J-12" value="" style="shape=image;verticalLabelPosition=bottom;labelBackgroundColor=default;verticalAlign=top;aspect=fixed;imageAspect=0;image=data:image/png,iVBORw0KGgoAAAANSUhEUgAAAokAAAF/CAYAAAAl9FO4AAAgAElEQVR4nOzdZ3xU1brH8d/MpEIoCYQuSIfQe++Q0IuAFAER6UrvJbTQe1d67yi9gwhKURRRUEAQkV4T0ifJzOz7YgJXPJQkzJ49kzzfN/fzOe611//kemae2XutZ+kURVEQQgghhBDiX/RaBxBCCCGEEI5HikQhhBBCCPE/pEgUQgghhBD/Q4pEIYQQQgjxP6RIFEIIIYQQ/8MF83WtMwghhBApSkxMHCaTCb1ej7uHO3qd1omEAAx5gf//l9EFQz7twgghhBAphNls5uSJb5k3azZ3bv3z4j9PkzYt3Xr05IMPP8TDw0PDhCJFe8VDQ530SRRCCCHUFRIczGfdu/Hn1auvvcbNzY2lq1dTtFhxOyYTIp75+v88SZQiUQghhFBRVGQkLZs24fGjR2+91mAwsGbjJgr5+dkhmRD/8ooiUTauCCGEECoaMqB/ggpEsL6S7vdZb+T5jXAEUiQKIYQQKvrhzJlEXf/0yRN2bN+uUhohEk6KRCGEEEIlm9avT9K4IwcP2DiJEIknRaIQQgihkn27dydp3LVr12ycRIjEkyJRCCGEUElYWGiSxsXGxNg4iRCJJ0WiEEIIoZKSpUolaVymzJltnESIxJMiUQghhFDJZ/36J2lc+YqVbJxEiMSTIlEIIYRQSeYsWdAbDIkbpNPRsXNndQIJkQhSJAohhBAqWrV+Q6Kub92mLVmzZVMpjRAJJ0WiEEIIoaIiRYsyfHRggq6tVbcuw0aNUjmREAkjRaIQQgihsqrVq6HXv/0rt0nTZnZII0TCyNnNQgghhMr6fdabUydP0r13bwLqN+DPP69y9/Zt0nv7UMjPD6PRSNdOHUnt5cWJM2e1jitSolec3SxFohBCCKGif27epGWTxnh4ePDNqdO4ubm98rqm9etz7+4d2n7UgcHDh9s5pUjxXlEkyutmIYQQQkWd2rYBYOTYsa8tEAF2HbAexbd18yaePXtml2xCvIkUiUIIIYRKvjlyhMjISPLmz0/Dxk3eeK1Op6N9x05YzGYmjRtrp4RCvJ68bhZCCCFUYLGYKV+iBDqdjnVbtlCosN9bxxiNRupUrUpMjJE1GzdRpFgxOyQVAnndLIQQQtjL2JEjAShXoUKCCkQADw8PxgQFATBq2FDMZrNq+YR4GykShRBCCBt7/OgRh+LXGM5ZuChRY+v6+5M7b17u3L7Nqe++UyOeEAkiRaIQQghhYyOGDMZisdCrT1/c3d0TNdZgMBA4bjwAA/t8rkY8IRJEikQhhBDChk6f+p4L58/j7u5Ol27dknSP4iVLUrlqVQCmBE2wZTwhEkw2rgghhBA2EhcXR4tGDXlw/z5LVq6iTLlySb5XaGgoAbVqYoqL49h335MufXobJhXiP2TjihBCCKGe3Tu+5sH9+/gVKUqpMmXe6V7p0qWjTfv2gPXEFiHsTZ4kCiGEEDYQFRVF7SqVMZlMbNm5k7x5873zPRVFoVxxaxucL5Ytp1zFiu98TyFeSZ4kCiGEEOoIChyNyWSicbNmNikQwdpge82mzdb7S4NtYWdSJAohhBDvyGg0cuTwYdzc3Bg5xrbFnF+RImT09eXe3bts27zZpvcW4k2kSBRCCCHeUYuGDQHo2qPnG89nTgqdTsfKdesBmDVtKhHh4Ta9vxCvI0WiEEII8Q5Ofvstjx8/Im26dHTp3l2VObJlz07jZs0wmUwsnj9PlTmE+C/ZuCKEEEIkkcVioX7tWgQ/far6WcshwcE08q9HbEwMR06cxNvHR7W5RAokG1eEEEII21myaBHBT5/yfp48qhaIAN4+PnTt0QOATzp8pOpcQoAUiUIIIUSShD57xqrlywBYvWGjXebs/GlXMvr6cuf2ba788Ydd5hQplxSJQgghRCIpisKMqVOwWCy079gRLy8vu8yr1+sZMyEIgK4fd0JWjAk1SZEohBBCJNKNv65zcN8+PD096d77M7vOXblqVXK9/z5Go5GlixfbdW6RskiRKIQQQiSCxWJhUN++AAwaPtxuTxH/beX6DQCsW7Oa0NBQu88vUgYpEoUQQohEOHv6NHdu3+b93Llp0qy5JhnSpUtH0xYtMEZHM23SRE0yiORPWuAIIYQQiVChZAnMZjOr1q2nWMmSmuWIjYmhctky6HQ6NmzdRoFChTTLIpIBaYEjhBBCJN3EcWMxm834FSmqaYEI4ObuzuQZM1AUhdEjhmuaRSRPUiQKIYQQCRAWFsaenTsBWLZmjcZprOrU8ydzlizcuH6dH86e0TqOSGakSBRCCCESYOiA/pjNZtp89BHu7u5axwHAYDAwfvJkAPr37o3ZbNY4kUhOpEgUQggh3uL8Tz/x048/YjAYGDJ8hNZxXlK2XHnKV6xIXFwcS6QljrAh2bgihBBCvIHFYqFlk8bcvnWLRUuXUqFSZa0j/Y/Hjx/TxL8eJpOJM+d/wdXVVetIwtnIxhUhhBAicQ7u38/tW7d4L2dOylWoqHWcV/L19aVRkyYAdO3YUeM0IrmQJ4lCCCHEaxijo6lavhwAm7Z/Rf6CBTVO9GblSxTHYrE4RVbhYORJohBCCJFwC+fNA8C/QQOnKLqmzpoFwPAhg7FYLBqnEc5OikQhhBDiFSIjI9m8YT3u7h4MHuYcfQhr162Hb6ZM/PP33+zesUPrOMLJSZEohBBCvELHNh8C0KHzx/hkyKBxmoT7YvlyAObOmklkRITGaYQzkyJRCCGE+I/z537k1j//kDZtWnr06q11nETJ9X5u6vj7ExEezoplS7WOI5yYbFwRQggh/qN+rZo8efKEJatWUaZsOa3jJNrTp08JqFkDgMMnTuLj46NxIuHwZOOKEEII8WYrly3lyZMnpEuXzikLRIAMGTLQtWdPAPr27KFxGuGspEgUQggh4oWFhbFyqfUV7Z7DhzVO82669eyFt48PVy5f5p+bN7WOI5yQFIlCCCFEvHkzZ2I0GmnaogWpUqXWOs47MRgMDB0xEoCPWrfWOI1wRlIkCiGEEMA/N2+ya8fXGAwGBg4ZqnUcm6hXvz7Zc+TAaIxm3erVWscRTkaKRCGEECmeoigM6tcXgCEjR+KVJo3GiWxn1fr1ACxZvIi4uDiN0whnIkWiEEKIFO/an39y88YNMmXOTMvWH2odx6Z8MmSkfMWKGKOjmTAmUOs4wolICxwhhBApXtliRQFY8OWXVKpSVeM0tmcymahcpjQWi4Wvdu8hV+7cWkcSjkZa4AghhBAv+2LBAgCKlyiZLAtEABcXF4bEb2KZMG6snOssEkSKRCGEEClWZGQkq1csR6/XM33OHK3jqKrZBx/g6+vLr+fP8/O5c1rHEU5AikQhhBAp1vDBgzCbzTRs0pSMvr5ax1GVm5sbgROCABg6oD8mk0njRMLRSZEohBAiRfrj0iXOnjoFwJgJEzROYx+VqlShVJkyhIeHs23zZq3jCAcnG1eEEEKkOIqi0K7lB1y/do05CxdRrUYNrSPZzYN792hSPwBFUfjx19/Q6+V5kUA2rgghhBAAhw8c4Pq1a2T09aVy1eS5WeV1smTLhn/9+gB81r27xmmEI5MniUIIIVKU6OgoAmrVIioyknVbtlLYz0/rSHZnMpmoWr4cZpOJrTt3kTtPHq0jCa3Jk0QhhBAp3ZoVK4iKjKRGrVopskAEa0uc4aNHoygKwwYN1DqOcFBSJAohhEgx4uLiWL5kCXq9geGBY7SOo6nmH7TEw8ODG9evc2DvXq3jCAckRaIQQogUo02LFtb/2749vsm85U1CbNm5E4BpkyZilpY44j9ctA4gtBMdFUVERASPHj4kbfr0pEubljRp06LT6d4+WAghHFhkRATh4eGEBAeTNl060qZLR/CTJ9z65yZeadIwaNgwrSM6hOzZc1CmXDl+PneO1StW0L5TJyLCw3ny+DFeadKQNl060qRJIzugUyjZuJICBT99ytSJE/nm6JH/+WfZsmdn/OTJlCxVWopFIYTTuXP7NuMDR/PLzz+/9ppJ06YT0LChHVM5tgcP7tM0IOC1R/VlypKFoClTKVO2rJ2TCbuSjSvi0m+/0aBO7VcWiAD37t6l28cfs3Bu8j6eSgiR/Bw9dIiWTRq/sUAECAkOtlMi5xD85CkGg+G1//zRgwf0+KQz06dMsWMq4QgM48aNG6d1CGEfT58+pVXTJiTk4fGvv/yCm5sbJUuXtkMyIYR4N7//fok+PXq89mnYv505fYoc771H/gIF7ZDMsYWFhdGqaVNMpri3Xvv7xYvExBipUKmSHZIJu1OCQe/Dv58kyuvmFKRJQAD3791N1Jgz53/B1dVVpURCCPHuTCYTtapUJjoqKsFjPDw8OPrd93h4eKiYzPE19q/Hg/v3E3y9Xq9nz8FDZM6aVcVUQhPyujnlunPrVqILRIDxo0erkEYIIWzn3p07iSoQAYxGI3t371IpkXNQFCVRBSKAxWJh8cIFKiUSjkZ2N6cQ27Yk7SD3n386Z+MkQghhW/PnzE7SuKOHDtGgYSMbp3EeWzZuTNK48z/9ZOMkwlFJkZhC3PjrRpLGJfbXuRBC2Nu5H35I0riffvyRGpUq2jhN8vfwwQOtIwg7kSIxhdDrk9bORtrgCCEcnUsS103rdDq8vLxsnMZ5REdHY0pCA239G3ZCi+RFisQUorCfH6e++y7R41Kn4A9QIYRzqFq9BvuSsL6wavUazFm4UIVEzmHHV9uZlIQGJ9myZ1chjXBEsnElhWjboUOSxtWp52/jJEIIYVuf9e2TpHF1AwJsnMS5NG3eIknjKlWubOMkwlFJkZhCpE/vTa5c7yd63IAhQ1RII4QQtuObKTPp06dP1Jh06dLRsHFjlRI5B4PBQGE/v0SNcXFx4fP+A1RKJByNFIkpyJadO3Fzc0vw9fMWL1YxjRBC2IZOp2P1xk24JvDzzWAwMGPuXFlzDSxbvSZR6zIHDx+Op6eniomEI5EiMQVxcXFhz6FDCfpgHDpyFFWqVbdDKiGEeHc53nuPpStXode//Wtt2uw5lC5bzg6pHJ+Hpyebd+zEIwGFX9+Bg2jVpq0dUglHIUViChMXZ0JRFDw8PEiVOvVL/0yn0+Hr6wvA7du3tYgnhBBJ9vjxYywWC6lSpfqfYlGn05M6/jPv5t9JawmWXEVHRWGMjkZvMLzyKWGGDBkA+O3CBXtHExqTY/lSmNpVqxAWGsqIwDE0b9mSx48fERUZhaurKxkyZiTGaKRBndqYTCZ+uPDrGw99F0IIRxETE0OD2rUICwtj1YaNFPbz49HDhxiNRtzd3fH19SU8IoKAmjXw8PDg2PencHd31zq25hRFoXWzZtz8+wYjx4y1fi88ekRkZOSL7wWdTkedqlWIjY3l4DffkNE3k9axhRrkWL6U7fDBg4SFhpIte3Y+aN0ag8FAlixZyZM3L+/lzEmqVKnw9vGhfcdOADSuV0/jxEIIkTDbtmwmLCyM8hUqUrRYMVxcXMiWPTt58uYle44cuLm7kyFDBqpWr4HRaCRoTKDWkR3CH5cucfPvG2TLnp3mLVui1+vJnCXLS98Lnp6edO/VG4DPunfXOLGwJ3mSmEKYzWZqVqpIdHQ0W3fuIk/evG+8/vkTxw1bt1GwcGE7pRRCiMSLioqieoXy6PV6vt67jxzvvffaa81mExVLlUJRFLbt2k3uPHnsmNSxKIpCueLFAFi0dCkVKr25tU3F0qUwxcUxc958ataubY+Iwp7kSWLKNXPKFKKjoyns5/fWAhFg3MRJAPTt1ROLxaJ2PCGESLIh/fsB0PLDNm8sEAEMBhdGjhkLQNDYMSn6823RvLkAlCxd+q0FIsDaTZsBmD55EnGxsapmE45BisQU4P69e+z4ajsAK9dvSNCY6jVrkilzZp4+fcq61avUjCeEEEl25/ZtfjhzhjRp0tB/0KAEjWncrCm+mTLx24ULnDt7VuWEjik8PJx1q1ejNxiYNmt2gsbkL5CfIkWL8ejhQzauX69yQuEIpEhMAaYETcBkMtHr8z64JuKM001ffQ3A8i+/JDwsTK14QgiRZN0/6QxAn4EDcffwSNAYV1c3xgZNBGDY4EGY4uJUy+eoRgwaiNlspmnz5mTImDFBY3Q6PVNmzQTgiwXzCQkOVjOicABSJCZzv124wOnvv8fFxZWOn3ySqLHp0qWjcZOmREdHM29Own5pCiGEveza8TWPHj7Ey8uLD1q1TtTYCpUqUbZcOSLCw1PcU7GLv/3GD/FPUJ+/ek+obNmy065DB0wmE9MnT1IjnnAgsnElGbNYLNSrUZ3QZ8+Yt/gLqlSrluh7RISHU7NyJQC+3ruPnLly2TqmEEIkSc3KlYgID+fIiZN4+/gkevyjR49oWMe6AeOni5dsHc9htW7ejL//+ovFS5dRvlKlRI+PiTFSo1IlTHFxfHvmbKJObBEOTDaupCzfHD1K6LNnFChYMEkFIoBXmjQMGzUagJFDh6ToRd5CCMcxe8Z0IsLDKVKsWJIKRIBMmTIR0KgRAN07f2zLeA7r4P79/P3XX2T09aVshQpJuoe7uwd9B1rXfzYJ8LdlPOFg5EliMvW8tYFOp2Pt5i2JPsT930wmE80a1OfhgwesWLuOEqVK2TCpEEIkzv3792ka4I+iKO/8JMtisVClbBni4uLYtmsXufO8vfuDs4qKiiKgZg2io6PZuG07BQoVeqf7NQnw5/69e8xZuJBqNWraKKXQjDxJTDlGDxsKQK06dd6pQATrmc/P16307tb1nbMJIURSKYrClAnjURSFXp9//s6vOvV6PSPHjAFg6IABtojosFYuW0p0dDS16tR95wIRYMoM6yaWkUOGylumZEqKxGQoJCSYQwcO4Obu/mIH37uqUq0aRYoVIyYmhiWLF9nknkIIkVjXr/3J6e+/J23atHzUyTaviJs0b0Gq1Kn5+8YN9u3eZZN7OprY2FhWL1+OweDC0FGjbHLPosWLk79gQaKjo5g1fZpN7ikcixSJyVCvTz8F4OMun5LahguK5y5ajE6nY8WSJZhMJpvdVwghEkJRFLp2sh4bOnT0aDw8PW127+ctv2ZMmZIsG0W3adEcgHYdO+Dr62uz+67ZuAmA7Zs3S0ucZEiKxGTm1Pffcf3aNfR6PT1697bpvb29valZuzYWi4U+PXvY9N5CCPE23xw9SmRkJPkLFKB+g4Y2vXf27NkpX6ECERERrFm5wqb31to/N29y+9Yt0qZNS/9Bg216bzc3Nz7u0gWz2UzQ2DHINofkRTauJCMmk4lmDRvw8P59Vc9cLle8GIqisGn7V+QvWFCVOYQQ4t9MJhMVS5VEp9Oxcdt2VT57Hj58SJMAfyxmM4eOf5vgJtOOTFEU/GvWICQ4mCkzZ1EvIMDmc8TExFC7ahVijEZWrt9A8RIlbD6HsAPZuJK8bV6/nof375O/QAGbLEp+nYlTrWtPxo4aJYuVhRB2MS5+HV2lKlVV+3GaOXNmPo4/dGDMyBHJ4qnYpvXrCQkOxjdTJlUKRAB3d3fGT5oMWP9ushwp+ZAiMZkICQlm8YL5AMyavwCdTveWEUlXNyAA30yZ+PPqFY4eOqTaPEIIAXDv7l2OHDoIwPQ5c1Sd69PuPUjv7c0PZ85w9+5dVedSW2REBEsWLQRg/Zatqs5Vq04d8hUowJ1bt/j22DFV5xL2I0ViMjF35kxiY2Np3bYd2bJnV3Uug8HArPnWgnTi+HEYjdGqzieESNkChw/DbDbTb9AgPBJ4PnNSeXh60m+QtVH0R61aqjqX2hbMmUNkZCR1AwJUf3VuMBgIHD8BgNHDh6k6l7AfKRKTgdBnz9i3ezcGg4E+/fvbZc7CfkWoVqMGUZGRbFiz1i5zCiFSnlMnT/LrhQsAdOycuPPnk6px02Zky56dyMhIvt6+3S5z2to/N2+yfesWAEaPHWeXOYsULUrVatUxmUyMHTXSLnMKdUmRmAy0atYUgL4DB5IqdWq7zKnT6Rg2OhC9Xs8XCxcQHRVll3mFECmH2Wxmwlhro+vnrVbsQafTsWTlKgDmTJ/mdGvsFEVhfPwaziEjR+KVJo3d5p46axYuLi7s272bKPlecHpSJDq5cz/8QEhwMFmyZbNZY9mEypIlC20++giAXl3lJBYhhG3t2L6Np0+e4Fe0KH5Fi9p17qzZslG8ZEmio6OZEjTBrnO/q98vXeK3334lo68vH7Rqbde5PTw9aduhAwBdP+5k17mF7UkLHCemKArVypfDaDSydNVqSpcta/cMcXFx+NesQXhYGFt27CBvvvx2zyCESH4iIyOpVbkSFouF7bv38H7u3HbPYLFYKF+iOAaDge279/Bezpx2z5AU1SqUJzoqitkLFlK9pjZnKpcvURyLxcKiZcuoULGSJhlEIkkLnORl7swZGI1G8hUooEmBCODq6srQEda1J591765JBiFE8jMhcDQWi4VmLVtqUiCC9VzngUOHYjabmTR+vCYZEmvtypVER0VRpFgxzQpEgBVr1wEwcexYaZXmxKRIdFJhoaFs2WRdo7Nq/QZNszRo3BgvLy+ePH7Mlo3aZhFCOL/IiAiOHTmCp6cng4Zqu1O2ddt2eKZKxU8//sAv589rmuVtLBYLC+bOQafTMWPuXE2zFC1enBzvvcf9e/fYusl+60mFbUmR6KQmjAnEFBdH2/Yf4WnD80uTan98X6yF8+ZhNps1TiOEcGaN/esB8GmPHqRKlUrTLK6urkyfbe3N2LdXT4d+KvZZj+4oikLlqlXJlCmzpll0Oh1fLLcebzhr2lQiIyM1zSOSRopEJ3Tp4kW+/eYbXF1d6Rvfz0trqVKlpmKlytZ1MNOmaR1HCOGkThw/Tnh4ON7e3nT+1DE2xFWqUoUixYsTHRXFgX17tY7zSjf//ptzZ88CMG/xFxqnscqaLRtNW3yAoigsmD07WZxgk9LIxhUnYzabaftBC/6+cYOpM2dRV6VjlpIiPDycOlWrYLFY2LX/ANnfe0/rSEIIJ2IymWhQpzYhwcGs3bwFvyJFtI70wvVr12jfqiUWi4Uff/0Nvd5xnrEoikLHNh9y5fJlxgYF0aR5C60jvRASEkIT/3oYjUb2Hz1GpszaPuEUbyAbV5zfyePH+fvGDXLnyUOtunW1jvOSNGnS8PmAAQCMHxvo0K9lhBCOZ8miRYQEB5O/YEGHKhAB8uXPT11/64/ywf36apzmZd8cPsyVy5fx9vGhUdNmWsd5ibe3N9169QagV9dPNU4jEkueJDoRk8lEtQrliYuNZeW69RQvWVLrSP8jJiaGJv71CA4OZv3WbRQqXFjrSEIIJ/D40SOa1g8gLi6Ob06dJm3atFpH+h/R0dHUrVaVmJgY9h05SuYsWbSOhNFopGGd2oSFhbFm4yaKFCumdaT/YTabaVo/gIcPHrB09RpKlymjdSTxKvIk0bnNnDaVuNhYqlSr5pAFIoC7uzvDRo8G4NOOHTROI4RwFjOnTSUuLo7OXbuSxo4nhCSGp6cnvT7vA1g3sTiCLRs3EBYWRqXKVezecDyhDAYD4ydOAqCfg/zdRMJIkegkTCYT2zdvxmAwMGXGTK3jvFGdev4UKuxHTEwMO5303FMhhP3cuH6dY4cPYzAY+LR7D3Q63dsHaaRD587oDQb+un6db44c0TRLVFQUC+ZYW96MHDvWof9uZStUIFv27ERHR7NA4/Y8IuGkSHQSndq1BaBlmzZ2O5/5XUyeMQO9Xs/E8eOIi43VOo4QwkFZLBb6xD9dCpwQ5BAtvd5m69c7AJg+ZbKmn28DP/8MgA/btSdrtmya5UioLfF/t03r1hIeFqZxGpEQUiQ6gV/On+fPK1dwcXF5cbqJo8uZKxfVali7/Y8aNlTjNEIIR3X61Pc8fPCA3Hny0LBxY63jJEiu3LkpVrw4Tx4/Zv3aNZpkuHPrFj+dO0eatGnp5yCt0N7GM1Uqmrb4gNjYWCaNH6d1HJEAsnHFwSmKQrOGDbh35w5fLF9OuQoVtY6UYHFxcVQqXQq9Xs/WHTt5P08erSMJIRxMueLFURQLqzZsoFjxElrHSbAH9+/T2L8eBhcXDhw9hk+GDHadv37tWjx5/JjR4yfQ/IMP7Dr3u4iNjaVqubJYLBbWb9lKIT8/rSOJ52TjivPZtnkT9+7cIXPWrE5VIIL1pILR48ZjsVgYN3qU1nGEEA5mQmAgimKhdJkyTlUgAmTJmpWPOn2M2WRiysQgu8799fZtPHn8mLRp0zpVgQjg5uZG0JSpAIwZOQJFkVZpjkyeJDqwyMhI6lStgslkYs+hw06x5uS/LBYLlcuUxmQyMXPefGrWrq11JCGEA4iKiqRGResP39M/n8fV1VXjRIkXExND7SqViYmJ4eh335M+fXrV57RYLNSqUpnIiAgOnziJj4+P6nPamsVioWmAPw8ePGDx0mWUr1RJ60gC5EmiM1EUhS8XLMBkMtGwcWOnLBAB9Ho9azZuBKznTcfFxWmcSAjhCPr07ImiKLTp0MEpC0Swtvx6fjRq0/r2Of1q9vRpREZEUKxkSacsEMH6vRA01fo0sXf3bpjNZo0TideRItFBPXr0iE0b1uPm5saAIc698aNgYT9KlSlLWGgo2zdv1jqOEEJjP5/7kV9/+QU3NzcGDx2mdZx30qZde7LnyEFUZCTfHj+u6lz3791j84YN6HQ6Fn65RNW51FaqTFkqVakKWE/aEY5JikQH1b93LwC69eqFt5P+Wvy3wPHj0el0zJo+jaioKK3jCCE0YjKZmDhuPACzFyzUOI1tTJ4+A4DRQ4eo9lRMUZQXO4J79+1LaidohfY2gRMm4OrqysplS4mW7wWHJEWiA/rj0iWu/fknmTJnpmPnT7SOYxM5c+Wi5YcfAjB0QH+N0wghtLJv1y5u3/qHvPnyUb5CBa3j2ESRYsUoXKQIRqORWdOmqjLH1StXOHv6NOnSp6ddh46qzGFvmTJloln8xpve3btpnEa8imxccUBVy5XFaDQyd9FiqlavrnUcm0jIBREAACAASURBVImJicG/Zg0iIyI49O0JMti5ZYQQQltRkZHUqVaVuLg4Nn/9NfnyF9A6ks3ExMRQpWwZDAYD+44eJWNGX5vdW1EUalWuREREBFNmzqJegH3WP9qD2WymctkymE0mp2uDlOzIxhXHt2TRQoxGI1myZktWBSJYF3n37mM997RV0yYapxFC2Nv8OXOIi4ujQePG5M2XX+s4NuXu7k7Xnj0xm81MHGvbRtGHDhwgIiKCgoUKUdff36b31prBYGDe4sUAjBkxQuM04r+kSHQg0VFRrF21CoDNX3+tcRp1tGn/Eem9fQgPC+Pgvn1axxFC2El0dDTbt2zG1c2NIcNHOPQ5w0nVpVt33N3d+f7kCS788otN7mkymRg9bCg6nY6gqdOS5d+tYqXKeHt7c/vWLb7atlXrOOJfpEh0IEFjxxATE0O9+vXx8vLSOo5qlq1eDcCMqVOIlXOdhUgR2rRoDkDnLp+SNl06jdOow83NjYnTpgMwduQITCbTO98zcPhwACpXrUqevHnf+X6OavXGTQDMnzWLiIgIjdOI56RIdBB/XrnC4YMHrb8Wp6iz8NlR5M6ThxIlSxH67BmL58/XOo4QQmXnfvyBe3fvkj59err37q11HFXVqFWLAgULcvfOHb45cuSd7nXn9m2OHbXeY/qcubaI57CyZc9OvYD6REZGsuyLL7SOI+JJkegAFEVhfOBoAMZPmoyLi4vGidQ3N34NyuYN63lw757GaYQQaho1ZAgAU2fNTpavS/9Nr9cTOMF6TF/giOG8y97QwBHDsZjNDBo2DHd3d1tFdEg6nY7BI0ag1+vZsHYNT58+0TqSQIpEh3Duh7NcvXKFjL6+BDRooHUcu/Dy8qLX530wmUxMmzRJ6zhCCJUs+WIxwcHBpE/vTdny5bWOYxeF/fyoXrMWZrOZUcOS1iz85PHjXPz1VwwGQ7JpefM2GTJkoFsv65Pm3l2lJY4jkBY4GjOZTFQqXQpFUViyciVlyqWMD1GwtoyoVaUysTExbNmxI9ntdhQipYuMjKR21SqYTSZ+uGAteFKK2NhYqlcoj8lk4vsfz+Hh6ZngsWazmfq1ahISEsKGbdspWKiQikkdT70a1QkJDmbv4SNkyZpV6zgph7TAcTxrV61EURQqVK6cogpEsLaMGDNhAgA9unTBYrFonEgIYUszJk/GbDLRvGXLFFUggnUTy0edOgHQuX27RI39ausWQkJCKFqsGAUKFlQjnkMbNsq6/KpZg/oaJxFSJGooxmhk8fz5uLi4MHqcbftqOYv6DRuRL38BnoWE8M3Ro1rHEULYyI2//mLv7l24ubnRb9BgreNoos+AgRhcXLh+/TpnT59O0JiIiAhmTJmCTqdj/OTJyX4N56vU9ffn/dy5MZvNrF21Uus4KZoUiRr6rEd3AJo0b07WrNk0TqOdcZMmodPpGD5ooNZRhBA2YLFYGD7YWhgOGjacNGnSaJxIOyvWrgNg4rgxCTrXeXzgaBRFoUWr1uR6P7fa8RzWomXLAVj6xRdER0drnCblkiJRI1cvX+bCL7/g5ub24tF6SlWocGHKlree4Tpy6BCN0wgh3tWFX85z4/o1cuTI8eJs3pSqaLFi5Mqdmwf3H7Blw4Y3XhsWGsrxo0dJlTo1AwanzKevz2XOnJmatetgjI5m8oTxWsdJsWTjikY+aNyIW//8w/S586hdp47WcTRnMpmoWKokOp2OIye/I3369FpHEkIkUfkSxbFYLCxetozyFStpHUdz9+/fp4l/PfR6PUe/+560adO+8rpalSsRHh5Ov0GD6Nj5EzundDxms4kKJUsCsG3nLnIn42biDuEVG1cM48al0MVwdhATE8OfV67w5aKFrF25krOnTuGZKhVnz5xm/549pEqVigmTp2gd0yHo9XpA4edz57jw888UK1WSlUuXsmr5Mr49dgwUhcxZsiT7XmFCOIvo6Ggu/vorXyxcwMa16zj/80/4+GRgy+ZNXDh/nuIlStK7bz+tYzqENGnS8PjxIy7//juhYaFkzZqVLxcvYt2qVZz+7jvcPdy5euUyB/buxcfHh5nz5JABsH4vZM6ShZPfHufq5cuUKluOlUuXsHrFco4fPYrJZCJL1qy4ubmlyLWbNqcEg96HfxeJ8iRRBRaLhUMH9jNu1Kg3rkHZdeAA2XO8Z8dkju/5E4jXadq8OUNHjkpUOwkhhO2YzWY2r1/P3FkzX9soWqfTcfjESby9ve2cznE9e/aMgJo13roucd2WLRT2K2KnVI4vLi6OutWqEhkZ+dpr6jdqzJgJE3Bzc7NjsmRIWuDYx7RJkwgcPvytHwaBI0bYKZFz2Lhu7Vvb4OzeuZM2LZoTExNjp1RCiOfMJhOD+/VlzswZbzxJRFEUpgZNsGMyx6YoCquWLUvQxpWgsWMTdF1KsXfXrjcWiAAH9+2lfu1aGGWDi81JkWhjX2/dyldbtyTo2t8uXGBI//4qJ3IOv5w/z+zp0xN07d27d+n44YcqJxJC/NeSxYv57sSJBF177MgRln0pZ/ACHD96lA1r1yTo2j+vXGH44EEqJ3IOd+/cYdL4hK2ICwsNpWPbNionSnnkdbONVShZItG/Ag8e/5aMGTOqlMg5NKxXl0cPHiRqzPI1aylZurRKiYQQ/xYSHEy9GtUTNcZgMHDg2Df4ZMigUirnkNjvBZ1Ox9rNWyjs56diKsdXtVxZjEZjosZMmDKFho2bqJQomZPXzeravWNHkl4TTA0KUiGN8/jj0qVEF4gAw6SvohB2s3fXrkSPMZvNfPvNMRXSOI8rly8n+ntBURS2btyoUiLnEBUVlegCEWDTunUqpEm5XLQOkJzs2534D1GAq1ev8PeNGzZO4zz2JvHvFhkRYeMkQojX2bIpaUXLoQMHKFWmrI3TOI9F8+YmadxPP/6Qor8XDuzfl6RxN/66gaIostvZRuR1sw21b9WSP69e1TpGiuHi4sLZXy5oHUOIFKFssaJaRxAiQU6d+wl3Dw+tYzifV7xulieJNuSaxO33qVN7Ua9+gI3TOI/fL13iWhKKa2tvRSGEPaROnfqtu0xfJVOmTFSuVk2FRM7hzKlTPEzCcppUqVLh36CBComcw7U//+T3ixcTPc5gMCT5u1j8LykSbahipcpJ+pc6f8ECjB6Xco8dOnH8OIP69kn0OE/plSiE3fg3aMiO7dsSPa7ZBy3p8dlnKiRyDvv37mFMEtqdlS5bLkV/L9z46zofNm+e6HHZsmeXBwg2JH9JG+rSrVuSxnXv1dvGSZxLtRo1SJUqVaLHfdzlUxXSCCFe5eNPk/a/tzr16tk4iXNp0KhxksY1bpKyd+jmyZsvSeNq1K5t4yQpmxSJNuTu4UHZ8uUTNSa9tzflK1ZUKZFz0Ov1dPj440SP6dSli0qJhBD/lSNHDoqXKJmoMdVq1CBfgQIqJXIOOp2Olm3aJmpMzlzvU7d+fZUSOY+gaQnrnfucZ6pU9B80WKU0KZNsXFFBo3p1E7QGxdPTk+Onz+DiIm/9ATq1bcMfv//+1utcXFzYuf8AWbJmtUMqIcRzYWFhtGzSmJDg4LdemylLFnbs3SfnrWM9Wu6j1q248ddfb73Ww8OT3YcO4ePjY4dkjk1RFPr07MHZ06cTdP2m7V+Rv2BBlVMlY6/YuCJFogqiIiOpXrHCW687cPQYvpkz2yGR83jb2c0AcxcuomqNGnZKJIT4t7t37tCswZufcun1eo6fOk1qLy87pXJ8kRER1KlWFZPJ9Mbrduzbz3s5c9opleMzmUw0qF2LkJCQN143Z8FCqtWsaadUyZQ007aPPfFNZ4sULUaDRo1Ily4dAB4eHlSpVv3Fmomxo0dpltERXfz1VywWC76ZM9OqTRt8M/kCYHBxoVTpMrSKP4pv5vRpby0khRDqWLtyJQA1atWiRq3apE6dGgCvNGmoU8+fwn5+WCwW5s+erWVMh3Po4AFMJhP5ChSgYeMmpE+fHrAuU6pYpQp1/P0BCBw+TMuYDufK5cuEhITg7eND67btyBT/YMXFxYXiJUvxYbt2AASOTPzmIPF28iRRBc/7if37F6HZbMZgMAAQYzQSULsWEeHh7D967MW/9CldlbJliImJYcGXS6hUpQrw8t/NbDbTpkVzbv7990vXCCHs45+bN2nVtAmKovDtmbN4eXmhKAoWi+X/P99iYqhStgwuLi7sOniIzPL5RkREBPWqVyMuLo4tO3aSN591U8Z/P9+qlC2DyWRi+dp1lCxVSsvIDkFRFGpXqUx4eDjTZs95sQnKbDaj1+tfNMxu1qA+d+/cYeSYMXzQ+kMtIzs3eZKovk87dQQgoEGDl14ZPP8gAOsvx8/7DwCg7Qct7BvQQS2cO5eYmBhyvJfzpeLv3383g8FA4PgJAPTt1dPuGYVI6QJHDEdRFIaPGo1X/KtknU738uebuzs9P/sck8nExLFjtYrqUObMmE5cXByNmzUjT968L/7z/36+LfxyCQDjRo20e0ZHtGfXLsLDwylcpAi169Z98Z8bDIaXTlRZumo1ALNnzLB7xuROikQbevjgAb/+8gtubm5MfMuurFYffoi3jw9hYWHs3b3bTgkdkzE6mo3r1gKw6auv3nhtiVKlKFmqNIqiMG3iRHvEE0IAVy7/wR+XLuHt7U2L1q3feG2nLl1wdXXlzKnv+eXnn+2U0DHFxMSw6+uvcXV1ZfDwEW88Lq5shQqkS5eOO7dvs23zZjumdDxms5kJgaPR6XRMnDrtjX+3zFmyUNivMMboaMbJMi6bkiLRhnp36wpAv0GDE3Ru5Io11sJo9vRpxMTEqJrNkQWOGklsbCwBDRsmqEH2vMWL0ev1fL19G6GhoXZIKITo0qEDAIETgl56AvYqbm5uTJ9jPbM4cMTwt27WSM5aNGoIWPvoeiVgI8+GbdsBmD97FhEp+Hz64YMGAVC1eg1yvf/+W69ft8Xa6H3f7t3cvXNH1WwpiRSJNnJg3z7+uXmTVKlT0aZ9+wSNyfn++5QsXZqw0NAkHwLv7K5cvszxI0fQ6/VMmDwlQWNSe3nxYdt2mM1mhg7or3JCIcT6NWuIjY2laLHiVE/gDtIq1apRsFAhHty/z5FDB1VO6Jh+OHOGRw8fkt7bh24JPDQhS9asBDRoSHR0NEsWLVI5oWO69c8/nDj+DQDT58xJ8Lj+gwejKIosc7Ah2bhiA7GxsTSqV5eQ4GC279rN+3nyJHhsREQENStVxGAwsGPffrJlz65iUsdisVj46MPWXLt6laCpUxN9MsHzDUJLVq2mTNmyakQUIsWLi4ujcpnS6HQ6du4/kKjPqKtXrvBR61bo9Xp++OUCuhR2XFrd6tV4FhLC0lWrKZ2Iz6jg4Kc0qF0bs9nMwW+Ok9HXV8WUjufjdu34/dJFhowYmeCHLmD9Lg6oVZPwsDCWrFxFmXLlVEyZDMnGFXWsXbmSkOBgypQtR67cuRM11svLi8/69cNsNjMlKEilhI7pzKlTXLt6lcxZsuBfP/EH2X+5chUAQWMCkd86Qqhj4OefoygKNWvVTvSP2IKFClGzTh0sFgvDh6SskzC+WLCAZyEhZPT1TVSBCODjk4Eeva1PHnsn8bhXZ/XtsWP8fukiLi4uiSoQwbrMYeLUaQAMHdA/RS9zsBV5kviOgp8+xb+mtbFzUtvZxMbGUqNiBeLi4ti6c2eSz6x0JiaTiYqlrEd8LVu9hlJlyiT6HhaLhcb+9Xj08CETJk+hYQo/61QIW7v1zz980LgRAOd+u5igtdb/FRcXR7Xy5TCZTJz66ecUcQJLVGQktapUxmw28+Ovv6FPwhNURVEIqFWT4KdP2XPoMFmzZVMhqWOxWCzUqVaV8LCwl1oFJYaiKHT+qD2/X7zIhClTaNhYvhcSTJ4k2paiKASNHQPAx59+muR+h25uboyfPBmATzt1ShGNolctXwZApcpVklQggvVUhwVffAnAuNGjiIqKslk+IVI6RVEYEf/0b2zQxCQViACurq507PwJAO1bt7JZPkelKApTJ03EbDbTsnXrJBWIYG0tNHx0IABN6wekiLclWzZtIjwsjGLFiyepQATr323MhCD0ej1jRozAbDbbOGXKIkXiO7h79w7fnThBmrRp6dq9xzvdy79+AwoULER4WBhHDibvRd7G+AXZLq6ujB4//p3ulTd/fgIaNMRisfDFgvkp4oNUCHs4eugQVy9fxtvbm0ZNm77TvT7r1w9XV1f++ftvTn3/nY0SOqa/rl9j/549uLu703fgoHe6V+26dcmTNy+KorB6xXIbJXRMERERzJo6BZ1Ox/gEbmJ8nbz58lE3/gQb2dz4bqRIfAed448D6jtgIJ6pUr3z/cZNmoROp2PUsKHJ+mlir/hWQc0++IDMWbK88/0GDhuGu7s7m9avxxgd/c73EyKlM0ZHM23SJADmLf4iyU/D/m35WmvLr8njxifbtWJms5kRg4cAMGTESJucXb1wqfWty4olS4iMjHzn+zmqMfHH6rX6sA05c+V65/sFTgjCzd2dE8ePc+/u3Xe+X0olRWIS7du1i2fPnpE9Rw6at2xpk3sWKFiQipWtp42MGjrEJvd0NL9fusjFX3/Fzd2docNtc9ZmhgwZ6NC5MwBt5AQbId7ZxnXrePYshMpVqlK4SBGb3LNI0WLkzZ+fhw8fvGien9z8/OOP/H3jL3LmzEXjZs1scs9MmTJR1z8Ao9HI5Hd88+KoQoKDOXn8OKm9vOgzcKBN7unp6Unvz/sAMKDP5za5Z0okG1eSqGq5chiN0Xy1dx+5bPCr57nY2FiqlLWu0Ttw7Jtk1/qgeaOG3Ll1i9nzF1C9Vi2b3ddisVCvRnVCnz1j5bp1FC8p554KkRRRUVHUqFgBRVHYc/gIWbNmtdm9Hzy4T+N69TAYDBw+cZJ06dLZ7N6OoELJEpjNZr5cuYqyNmy/8nyjn06nY+O27eQvWNBm93YEtapUJjwsjEHDhtMuvmm7rTxvlTZl1izq+QfY9N7JjmxcsY1xo0dhNEaTL39+mxaIYN3E0iu+5cSgfn2T1Rq77Vu2cOfWLTw8PG1aIIJ1E8uk+KMQB/VNXn83Iezp8+7dURSFNu3b27RABMiSJSut27TFbDYzb+aMZPW/09nTp2M2mylRqpRNC0QAFxcXgqZMRVEUJowdm6z+bkcOHiQ8LAwfHx+bF4gAuw9Y1/hPnzgpWS/jUosUiYn08MED9u/ZA8Dmr3eoMkeX7j3w8PDk94sX+f7kSVXmsLeoqCjmz54FwFd796oyR8XKlcmQMSMhISGsWrZMlTmESM7u37vHb79ewCtNGgYMGarKHL369sXdw4PdO3fy4P59Veawt8iICDZvWI9er2fOgoWqzFGvfn0yZMjA5d8vcfb0KVXmsLe4uDimTrT2B168YqUqc2TNnp3Cfn6EhASzZuUKVeZIzqRITKSgMWOwWCz06tNH1XkWLl0KwNSJQcTGxqo6lz0s/WIxUVFR1KpTl0yZMqk2z1d7rAXoqhXLCZNznYVIlE7t2gLW8+ddXFxUmSNt2rR83rcfAD0/7aLKHPY2qF8/LBYLTVt8QFqVXqG7uLgwMf5tybCBA4mLi1NlHntaOHcuoaGhFPbzI18SW968jU6nY+a8+YC1wXnw06eqzJNcSZGYCD//9BNnz5wmVerUL/p+qaV4iRIULVachw8esGP7NlXnUtvjR49Yv3o1er2e4aNHJ7nfWkJ4eXnRtHkLoqOimD1jhmrzCJHc7Ni+nZDgYLx9fGhho814r/Nh+/Zky5aNu3fucPb0aVXnUtuFX87z048/ADB63DhV5ypXoQLlKlQgKiqK9atXqzqX2h7cv8+WjRsA69GqasqcJQvt43sQT50YlKxe16tNisQEMplMjIxvLDt5+nTc3NxUnU+v1zMuvgXF7BnTiQgPV3U+tSiKwsC+1qeu3Xv3JkPGjKrPOWj4cAD27trJjRs3VJ9PCGdnMpmYF78cZN3mzarPZzAYGD9lKmBdQ+zMgsaOBWDBl0vsMt+4oIno9XoWzZ9nl/nUMn3yZEwmE9179SaVDVrIvU3P3p+RKnVqvjl6lKdPnqg+X3IhRWICfXPkME+fPKGwnx9VqlW3y5zv585Ni5atMJvMLz6InM2jhw+5/PvvpPf2pku37naZM3Xq1IwaZ20VMbR/P/nVKMRbPP8hWrxkSbJktc/xb6VKlyZnzlzExBiZMWWyXea0tf179/DP33+TIUMGKlSqZJc5M2fNSv1G1qMSO3zY2i5z2tq1q1c5+e1xXFxc+PjTT+0yZ6rUqenT39pYu0X830+8nbTASQCLxUL5EsXR6XSs37qNgoUK2W1uo9FInapViImJ4eQPP9rlF5ctPW8/MHn6DPwbNLDbvBaLhcb16vHo0UNWb9xE0WLF7Da3EM7k/r17NAnwR6fTceLsD3b9jDGZ4qhYqhQGFxeOnfwOrzRp7Db3u4qOjqZmpYqYzWa27thJHpXW1L1O5TKliY2NtXkbNrVZ25VVI/RZKJNnzMC/vv2+FwCaNajP3Tt3bN6GLVmQFjhJMzK+sXUdf3+7FogAHh4edO/dG4DmdiyybGHDmjUA5MmTx64FIlhf1wfGN57t0uEju84thLNQFIVJE6z/O+nVp6/df4S6uLjSqk0bzCYTY0eOtOvc70JRFJZ9+QVms5m6/v52LxABRowZA0D/3r2c6m3JyW+PE/oslLz58tu9QATrAwuwfq8n15N/bEmKxLd49PAhRw8dwt3dncBx2nS7/7jLp/j4ZCA4+CnHjx3TJENiRUdHs3jhAgDmLv5CkwyVqlalRKlS1nOd47MIIf7fH79f4uypU6T39qZ9x46aZBg0bDiurq6c+PY4l377TZMMiRUZGcnalStxc3Nj0LDhmmRo0qw56dKn5/atW+zeoU47NltTFIXB/fqh0+kYExSkSYYixYpRpGhRjEYjs6dP0ySDM5Ei8S369uoJQJdu3W1yDmdSzV28GICJY8c4RUPQSePHEWM0Uq1GDbJlz65ZjqmzZmMwGFi1bBlGo1GzHEI4GovFQr/4txTDRo3Gw8NDkxyurq4ETbVuYhk3aiQWs1mTHInx/O3ER5064atiS6+3WbXeujt43qyZREdFaZYjocbEbyqsWKkyRYoW1SzHlytXAdYd/Q8fPNAshzOQIvENvj12jOvXrgHQpbt9Nl28jl+RIuTMlYvQ0FAWzp2jaZa3uXH9OocPHAB40Z9KK76+vgQ0aoTFYmHA559pmkUIR7Jv1y6ehYRQsHBh6vr7a5qlVp265MqVi5s3b3LyxAlNs7zNlT/+4MZff5He25sen2l7JvB7OXNSpXp1wsLCWLncsQ8QCAkO5uCB/egNBmbMnatpFk9PT7r17ElcXByTJyTP87BtRTauvEFArZo8ffKE3YcOkS2bdk/DnouNjaVymdLodDqOnvyOdOnTax3plT7p8BEXf/2VsUETadK8udZxUBSFcsWtG1c2bNtu93WlQjii55vKvt67j5wOsPHhtwsX6NLReizb2V8uqNbM+13VqVaV0GfPmDV/ATUcYOPDk8ePqV/bmuPgN8fJ6OurcaJX+7h9O36/eJFPunbjs379tI7z4vsUYMW69ZQoWVLjRA5ANq4k3JqVK3j65Am58+Qhq51aQryNm5sbHTp3RlEUpgRNcMjFymdOn+Lir7+SJm3aF20atKbT6Zg22/r0dezIEU7xul4INQ3ub/2Srli5skMUiADFS5akWo2aAC+O8HQ0a1asIPTZM3wyZHCIAhEgo68vXXv2AmD0sKGO+b1w6hS/X7yIq5ubQxSIYP0+nbPQeoTiqCGDMTvBMgctSJH4CiHBwSyeb31NunDpMlVPCEmsbj174ZkqFUcPH+bPK1e0jvOSuNhYRgy2NhyfPnsOrq6uGif6f7Xq1ME3UyauX7vGwf37tI4jhGbu3rnDyePH0el0zF20WOs4LwkcPx5XV1c2rlvncAcIREREsCL+uNRtu3ZpnOZlXbp2JX16b346d47bt25pHeclcXFxTJkwAYDFS5ZqnOZlVapVJ1+BAjx48IBjhw9rHcchSZH4CjOnTcNsNtOmfXsyZ86sdZyXpE6dmmEjRwEwZOAAh/r1s3XzZiLCwylTthzlKlTQOs5L9Ho9cxYuAmD6pElERUZqnEgIbYwcOsS6aWXQIId7peuTIQOt27YDoFdX+zRZTqg5M6YTFRWJf/36pEvnWEt93NzdGTh0KAAd2nyocZqX7di+nXv37lKgUCFKlC6tdZyX6PV6xgRNBGD08GHylukVpEj8j0cPH3Jo/z48PT3p9XkfreO8UoPGjcmTNy/37tzh9HffaR3nhTkzpqPT6wmM/9XoaAoWKkTN2rWJiIhg9coVWscRwu5OHD/O7xcv4u7uToePO2sd55X6Dx6Mq6srl//4g/PnzmkdB4C/b9x40WZmlEat0N6mYZMmvPfee0RFRrJl40at4wAQHh7OnBnTAZg0bTp6veOVHH5+ftSsXRuLxcKYESO0juNwHO//Yxpr38p6sH3vvv0ctvu/wWBgzHhrITaon2Oce9r5o/YA1G/QkBzvvadxmlfT6XQMDwwEYOXSpRijozVOJIT9mM0mgsZaGzAvX7tW4zSvp9frWbTMulN33OhRGqexGhW/1m/EmDGkTp1a6ziv9by1y/w5sx1ibeKMqVOIi4ujWYsPyJ0nj9ZxXito6jRcXV05uH8f0fK98BIpEv/l5x9/5NmzZ2TLnp12HTpoHeeNipYoQcnSpbFYLEyI77yvlYcPHnDpt99wc3N70e/MUWXM6Ev7jp0A6Ni2jcZphLCfr7dt51lICH5Fi1LYr4jWcd6odJmypE2Xjnv37rFpw3pNs1z+43f+vHIFbx8fWrRspWmWt8mcJQtFixUjxmgkcIQ2Tb6fi4uLY//u3bi4ujJouLZZ3sbT05N2HazN5J31PGy1SJEYz2w206e3dYfY+MnOcdj8ax20QgAAIABJREFU/C++RK83sHfXTkJDQzXJoCgKPT/tAsCAIUM1yZBY/QcPJm3atPx94wY3b9zQOo4QqouMiGDapInodDqCpjj2D7nnNn9tfb27cM4cTTexdG5vfUsyZkKQQ74u/a/VGzcBcHDfPu7cvq1ZjoZ16wDQrWdPux/3mBR9Bw7ExcWFf27e5OzpU1rHcRiO/2+8ncydOYPYmBgK+/lRqnQZreMkSKpUqWj70UdYLBYG9dVm/eT+PXu4fesWXmnS0LptW00yJJZer2do/Oafrp0/1jiNEOobH7/MokXr1uR6/32N0yRMpkyZaNCoMTExMZodq7l6xQrMZjMlSpakWo0ammRIioFDhwEwYUygJq+dT5/6npDgYHx8MvBp9x52nz+plq5aDcDEcePkXOd4UiQCT5484autWwH4cuVKjdMkzsChQ9Hr9Vw4f55zP5y169xGo5E5M62Hpa9xkIXSCVW/USMyZMjIs5AQNq5bp3UcIVTz9MkTvjl6hNReXvQdMFDrOIkycOhQXFxc2LJxI48ePbTr3LGxsSycOwe9Xs/Eac51xm+rNm1Ily4d53/6ye7fC4qiEBj/ennaHMc+Hey/ipcsSZ68+Xhw/z6b12u7zMFRSJEITBo3jtjYWDp2/oTUqbU7nzmpnhe2QWPH2nUL/6rly3gWEkL5ipXImcs5nk7826avvgLgy4ULiImJ0TiNEOpo39q6jq577954aXj+fFJ4+/jQM77LxGfdutl17gGfW4/cq+vvT1YHOHErMazrw62F7YjBgzHFxdlt7kXz5xH67BlZs2WjlIO1vEmIuYusrdIWL5jPs2fPNE6jvRRfJP524QLfnfgWgN59HWOncGKVLFWa7DlycO/uXfbu3m2XOZ88fszK+May4ydNcqiG4wnlkyEDVatVJyoqilnTnGOdlhCJcfTQIZ4+eUL69OlpH78w39l0+uQTfH0z8feNG9y6edMuc/51/To/nDkNwMRp0+0yp61VqlKFEiVLEhoayh47fS+EhYWybpV1h/WOffvtMqetZc2WjZYftiE2Npb5sxzz5B97StFFosViebEDbPb8BQ51QkhiWBtFW48XmhA4mkiVG0UrisL4QOtaly7duuObKZOq86lp0vTp6PQ6vt62jdu3/tE6jhA2YzabmRJkbZW1ZNVqp/whB9bPt+GBowH4oElj1dfYWV+XWtf0TZw2zSk2q7yKTqcjcEIQOp2OSePGqn7wgqIoTJ84CbPZTOt27RyuUXtC6XQ6Pu/fHxcXF3bv3MGjh/Zd5uBonPPffhs5fuwod+/cIVfu3FR1okXJr5Inbz4aNm4CwIK5c1T9IL1z+zZnTn1PmrRp6dK9u2rz2ENqLy/6DxoCQNCYMdJxXyQbC+fOJTQ0lLz585M3Xz6t47yTGrVqv/jvsGLJElXnOrR/P39evUp6b28CGjRUdS61vZ87NwENGgAwsM/nqs7159WrHDywH3d3dz7/P/bOOi6K7Q3jz2ywICWloqICNpjYhYXd3mtidwOKQbcKYmB3XLtbr92BccXuwAAURJplY35/zMLP60XYXXZ2ZuP7z/18YM45z13ZmXfOed/nneFB61p0Y2pqiqke1P/DOB0vbtTZIFEsFsPHmwoOgsPCNfZt8Wc8vb0hMDTE/t27ad1NHDF4UMF6hoaGtK2jLv4YOBDWNja4f+8eHj98yLQcPXpKTFJSEnZtpwqytuzQrKKy35FvsL15w3raLHFycnIQOZ+yQFuxZq3G7r7+jH9ICASGhrh+9So+f6LHEkcikcB3NvU8nePnz2rDcXkZMmw4ytna4vOnT7gTe5tpOYyh+ZGRkkSGh0EikcC1XTs4163LtByVYGFpiRGjKM/C/M4xqubIoYNIT0+HXaVK6NWnLy1rqBuBQIC5ftRx1nSZV6YePZpMVEQExGIxRo8bDyMjI6blqARraxt07tYNQqEQYUGBtKyxfcsWpKeloWXrNqhRqxYta6gbgcCwYGcvvxhH1dy+eRPv371D5SpV0K1HD1rWUDccDgdBYeEAAI/JkxlWwxw6GSTmCYU4uH8/eDwegsLDmZajUsZMmAALS0t8+fwZ9+7eVfn8kbLPa+nKVSqfm0lc27VHbWdnZGZk6C1x9Gg0r1++xKUL58Hn8zFKzRXBdBMSMR8AcP7sWTx/9kylc2dmZmLdauq+5hMQoBW7iPkMdncHQRB4++YN/j55QuXz5x9l+wYFaWwuYmE0atIEVarYQygUYnFUFNNyGEEng8RB/fsBoI4ZTU3NGFajWrhcLhYsWgQAmO2p2rwQ/7lzIRQKUb1GDY0x5JUXgiCwaOkyAMDiSM3yRNOjJx+SJDF+9CgAQGBYmNbsIubD5XIxP2oRSJJEaIC/SueeMGoUSJLEYHd3lC1XTqVzs4GT588DACIjIlSas74gLAxisRj1GjRAQ5dGKpuXLew5fJj6747tyM3NZViN+tG5IPH+3buI//ABBgYGmDV3HtNyaMGlcRNYWVkh7ccPrF+9WiVzJiYm4LTsDXTn/gMqmZNtlClbFm1kBUzTJ01kWI0ePYpz/do1pKelwd7REV26dWdaDi20d3ODlZUVXjx/juvXrqpkzoSEL3jx/BlMTU3hMctbJXOyDWtrG9RyckZaWlqBfVlJyc7OxoF9e8HhcBGzSjXPGrbB5XLRp19/Ku9yjma0nlUlOhUkSiQSBPlR7di07bj0Vw6dPAUA2LJpI9JKaAhKkiSC/fxAkmRBxZe2siiGav918/p1vH/3jmE1evTIj1QqhcfkSSAIAgEhoUzLoQ0ul4v5iyj/ujleXsjLyyvxnEP//BMA4DnLG1wut8TzsRGCIBC9bBkIgsCalSuQkpJS4jmnT5oIUipF3/79YaxhRu2KMMfPD3w+H5cvXMCTx4+YlqNWdCpI3L1jB758/gy7SpXQpFkzpuXQSqlSpdCnf38Ic3MRXcLj07uxsbhz+zZMTEwxZNhwFSlkJxwOB75BQSBJEn4yrzQ9ejSBsMAAAECTZs1QR0uK8X5Hw0aN0Kx5C+Tm5GDb5pK1Ut2/Zw/S09JgY2ODXv36qUghOylTtizcR44ESZKYHxJcomPnf+7dw4P790EQBOYFBKhQJfvg8/kICqeq3oP9/Wn3nGQTBMlE928GSEtLQ/eOHZCbm4ujp/9G+Qqa1WZJGbKystCuRXNIpVLsOXQIjlWrKTyHSCRCj05uSElOxrJVq9GydWsalLILkiTRtnkzZGVlYWF0NDp06sy0JD16iuR7Sgq6tG8HALh4/YZW7+rkk5iYiF5dOkMqkeD2gzildgBFeXlwc22DzMxMHD9zFuVsbWlQyi6ys7PRtUN7ZJXg/5kkSfTv0QPx8R+wcv16NG3WnAal7EIsFmNAn96I//AB0TExcG3XnmlJqkfyGuA6Avh/0ZbO7CSujlmG3Nxc9O7bF7blyzMtRy0YGxvDNygYADDbw1Opt8bTJ08gJTkZTnXqonnLlqqWyEoIgsC6LVsBUP2wRSo4ztKjh05mecyAVCrF8FGjdCJABIBy5cqhe89eAIBhgwYqNcfiyIXIzMxEo6ZNdSJABKhTpmmengCAAX16KzXHsSNHEB//AWXKlkXjJk1VKY+18Hg8BISGAaDSHNTZD5tJdCJITEpKwv69e8HhcDBj5iytsjYojl59+qBsuXL48OG9wkbR+bmIAGXIqg2G4/JSo2ZNuDRujMzMTOzdvZtpOXr0/JbbN2/i4YMH4HA4mOrhybQctRIYGgqBQICXz5/jg4J9nb98/ox9e/YAoNqy6hJ/DBiIinZ2yM7OxsVz5xQam5OdXVBZvnLdep16LtRv0AAtW7eGWCzGimVLmZajFnTiX3fKuLEAgGkeHjAzN2dYjXohCAL+wVT/1lHuQxUam2+h06lLF1TV8LZeyuAfFEz1xY6KRAZNHR706CkJYrEYESHUacHajSXLzdNUfAODAAAzpkyW+7SEJEmEBVHjpnt6oVSpUrTpYyv5xT9+c+dALBbLNYYkSaxdtRIkSaJTly6wd3CgUyIrCQoNA4/Hw/atW5Gdnc20HNrR+iDx8cOHeP/uHcqWLYshw3WzB2OzFi3QsBHlX7VSzrefpKQkXDx/HgJDw4IgU9eoWKkS/hxEtSD0mTWTYTV69PyXIwcP4vOnT3CsWhX1GjZkWg4jdOvZExaWlvgUH4/DB+Sz53r88CFib91EaQsLDBgyhGaF7KRW7dpwrlsXQqGwoBVhcWSkp2P71q0wMDCA12zdLOyzsLJCf1k1/ESZJ6k2o/VBYn5zbt/AIK21NpCHiMgocLlcbNm0Sa63n2kTxgMAxk2YCCMdfMvOZ6qHJ0zNzHDzxg18+fyZaTl69BSQmZGBRQsXAKB2hXTp2O9XNv21HQAQs2Rxsfc3qVQKz6lTAAA+/gFa0X9eWfJ3n48ePIjEhIRirx89fBgAYNjIUbC2saFVG5uZOXce+Hw+nj55ggf37zMth1a0+q6yYulSiEQi2Ds4oIUOVOUWhbWNDbr36gVSKi1oofQ7zp89i7dv3gAARo4dqw55rMXIyKig7+nIobq546CHnSyOXAhRXh669+4NB0dHpuUwSkU7O7i2a4eM9HRsWLumyGsPHzyAHz9+oJaTE9p17KgmhexEYGiIiVOmQiwWIzw4qMhrHz2Mw/u3b2FhaYlxk3S7xz2Hw8GSFSsBAIG+PgyroRettcDJyxPCtVkziEQiXI29o3XtqZSBJEk0rlsHALB15y441alT6HVurm2Q+v07jv19RmcqwYuCJEl0aN0K6WlpCAgNRa8+fZmWpEfHkUqlaFKvLng8Hi5cu45SxsZMS2KclORkdG7XFgBw8vwFlClTptDrGtVxBgAcPnESFStVUps+tiISidDCpSFIksT6LVvRwMWl0Os6tG6FtB8/sHTVarTS8U2XfNq1bIGM9HR4+/hg4GAt2EQoxAJHo4NEqVSKN69fIyI4CI9+qtyt5eQEPp+Phw8ewK1zF8yX9TLWA1y9fBmeU6egcuXKqGxvjyuXLhX8zrZ8BdSpVw9nTp2EvYMj9h05wqBSdpGYkIAendxgYmoKt06dcfjggYIkeVMzM3jP80EHNzcIBAKGlerRFqRSKZ4/fYoAXx+8f/u24OeNmzbFy+fPkZaWhvGTJmP85MkMqmQXG9aswZqVK1Cnbl1wuFzE/fNPwe+q16gBQyMjPHzwAM1btMDytappTacN3Lx2DdMmTYSVtTXq1W+AC+fOFvyubLlyaOjSCKdOHIellRXOXLrMoFJ28e3rV3Tt0B4GBgbo3rs3Du/fX/BcMDMzg8fs2ejcpavmPBe0KUjMzMjAtEkT8SgursjrLt24CRNTUzWpYj9isRjNGtQv9rqtu3bDydlZDYo0h1aNGxXZ4N3IyAir1m9AnXr11KhKjzaSlJSEccOH48uX3+fBCgQCnLtyVadzhn8l9ft3dG7XFlKptMjrTl+4qNM5db8iFArRybUNsrKyirxu+569qFm7tppUsR+pVIoBffv86yXuV3g8HtZu2ox6DRqoUZmSaIuZtkQiQb+ePYoNEAGgS4f2EBbxYNc13AcMkOu6UUOHIPX7d5rVaA5zPD2LDBABICcnB6Pch/5r90KPHkVJTEzE4H59iwwQAerBPnzwoGL/LnWF7KwsjB7mXmyACAB/9umtv7/JkEgkmD5pYrEBIgAMHzwI74oIiHSN8ODgIgNEgNqYGTN8GG7fvKkmVapFI4PEEUMG47uczclzc3IwdqRuWt/8SkRIMF6/einXtVKpFH26daVZkWZwaN8+nP/p+KU4xo8aSaMaPdqMVCrFjEkTkZ6eLtf1796+RVREOM2q2A9Jkgj09cHH+Hi5rs9ITy+2gE9X2LxhPe7duSPXtVKpFBPHjJYrENd2rl+5giMH5bNcAoDpkydp5AudxgWJP1JT8fzpU4XGPHvyBM+fPaNJkWYgkUhw5NAhhcZkZWXhxPFjNCnSHFatUKwbg0QiwcKwMJrU6NFmnjx+hDevXys05sihQ0j88oUmRZpBdlYWLp4/r9CYRw8f4m5sLE2KNIc1K1YodH1KcjJ279hBkxrNYc5MxbxzJWJxQQczTULjgsToyIVKjdu6caOKlWgWhw8cgEROV/2f2bimaDsJbefhgwdKHUsd3L+PBjV6tJ2Na9cqNe727VsqVqJZ7NqxXalxJ48fV7ESzeKOkn83f586qWIlmsX3lBTk5uYoPE7eHVs2oXGFKz07d0KCEm/NZubmcG3blgZFmsGd2Fi5zFJ/hc/no0u3bjQo0gzevn6NJ0+eKDX27qPHKlajR5uRSqVoWr+e3K3lfqZc+fJo3LgxDao0g/NnzyrVIs3E1BTt2renQZFm8M/9+/j08aPC47hcLrr16EGDIs0g/sMHxD14oNTY63fvsbfaWRuqm7t17ICvSUlMy9Cjp1j0QaIeRcj3PtSjR4/2cubSZVhaWTEto3AKCRJ5zKlRDmVbKNk7OMJj1iwVq9Ecdu/YjpvXrys8ztTMDGELlDvi1wZu3biOXdsVP8oiCKL4i/To+QmCIGBiYoLMzEyFx7Zs3RoDtMHMV0liFkcrnMsJAFXsHeDp7U2DIs3g+JHDOPv33wqPMzMzQ6gOPxcexcUV29mnMDhcLsxLl6ZBEX1oXJDYvWcvrFawkAAAWrZpjZY67BJPcDhKBYlV7O11+nOr4uCgVJDI42ncV0sPwxAEgZ59+ij19/bHwEE6/T0VCoWY7emh8Lj2bh11+nNzrFpVqSDRuW5dnf7cGjdpolSQaGtrCy6XS4Mi+tC4whVleglzOBxM0PGuBM1btICxEq27dHkXEQAqVKgAx6pVFR4XtWQpDWr0aDvK7AZyuVw00uF8RABKByx9+/VXsRLNopytrVLj3Efots2XgUAAS0vFj4z/HDiIBjX0onFBIpfLxaSp0xQa07tfPxgZ6XZXAoIgsGDxEoXGODg6okLFijQp0hwWK2gRYWpqhlaurjSp0aPN2FWqhL5//KHQmDm+fjrfdUUgEMAvKEihMX3694dthQo0KdIcdh84qND1tZyc0KRZM5rUaA4nzp1T6HoTU1O4j9S84JobFKTgN4sFNHBxwdMnT/Dxw4dir61brz6iY2LUoIr92NnZITMz4199rn9HxUqVcOCYbttD5GNmZgbbCuVx+cKFYq+1sLTEkdOnYWBgoAZlerSRVm1a4/bNm0iSo0Cvb/8/MGHKFDWoYj81a9fGx4/xeP2y+IYBDVxcsGjpMjWoYj+WVlYwEAgQe6t4Oxzb8uWx78hRNahiP1wuF8516uD0yeLtgExMTXHuylVwOCzflyO/AxxLaHxbPoIg4OMfINe1S1aupFmNZjHN00uuoorAkFA1qNEcevbuI5dtwaix42BiYqIGRXq0FQ6Hixmzii+mMDAwwHQvLzUo0hymzvCQ60EcoL+//YsBgwejlBy70f7BIWpQozk0bdECtuXLF3vdiFGjNTZPXeMscACqBdNo96F49PAhxoyfgKrVq+HB/fv4npICCwtL1GvQAK9fvcLmDetRvkIFHD2teGKuthIaGIAjBw/CtV079On/B+7fvYPEhASYmJrCybkOOFwOQvz9YWxigss3ddug92cO7tuHiJBgVK5SBfP8/XHndiw+foyHgYEBatZ2QpXKlTF14gRwuVycu3oNpqamTEvWo6FIpVIM6NMb79+9Q9TSpcjKzMKjh3HISE+HtU0ZNGjYEBfOn8Op48fRvqMbIpcolkaizXhNm4orly5hzPgJqFajBh7cv4eUlBSYm5dGvfr1kJycjGXR0ahib4/9R/XdpPJZs3IlNqxZjdaurvhj4EDcjb2DxMQEGBsbo7azMyxKW8Db0wMGBga4ce8+03JZw5VLl+A1bSrsHRww188Pd2Jj8fHDB/ANDFCzZi1Uq1EDk8ePg0Qsxu0HcewvWinEAgekBvLh3TvSxdmJ7NTWlRQKhYVeIxGLSbc2bUgXZyfy1o0balbITrKyskgXZyeyecMGZFpaWqHXSKVScsTgwaSLsxO5bfNmNStkJxKJhGzesAHp4uxExn94/9vrQgMDSRdnJ3K2p6ca1enRNo4dPky6ODuR3d06khKJpNBrJBIJ6eLsRDaq40w+efxYzQrZyfNnT0kXZyeyRSMXMjs7+7fXNalXl3RxdiJPHDuqRnXsJSM9veBvKTEx8bfXDejbh3RxdiKj5keoUR27aVq/Huni7EQ+uH//t9cE+/uRLs5O5Ighg9WoTEnEr0iSlP7rRxp53Pxnn94AgFlz5/0294vD5SJyKfWG7eOtu/6IPzN0wJ8AgEFDhsLMzKzQawiCQNQyqjJ3WfQitWljM/7z5iIvLw/OdevCrlLl317nPW8eDAQCnD97Bnl5eWpUqEdbyMnJQWhQIABg2cpVvz065XA4iFy8BCRJIiTAX50SWYlUKsXEMZTzRVBIKIyMjH577YmzZwEAi+bPh1QqVYs+NjN+FFVMMXTECJQtW/a31+3YsxcAsG/3bmQp4eWpbYQHBUEsFqNho0ao16DBb6/zCwqGQCDA44cPES9HHQXb0LggccfWrZBIJKji4AC3zp2LvLZ+g4awtrZGWloaVi9X3FtRm7gr2wY3MDDA9GIak9vYlIFru3YAgMnjFLcc0iYSvnzB37LE5C07dhZ5rUAgwPhJlNWSm2sb2rXp0S5IksSGNashEYvRsVMnOFarVuT1ru3bw8raGq9fvsS1y5fVpJKdXLt6FRnpaXCsVg1uXbsWea21TRk416mD9PR0pbzutImkhAS8fPECpqZmmO5ZdH4rj89H/wEDIJFI4Dd3rpoUspOc7GwcPngAHA4HMatWF3kth8OBTwD14jdj8iSl2m4yiUYFiTk5OVglM9JeuWatXGOOnD4NAPhr6xakpf2gTRubkUgkCPLzBQCsWLtOrjHRMdTnHHvrFt69fUObNjZDkmTB5yZvt56RY8bAysoKWZmZuHyx+GpoPXryyczIwNZNm8A3MMCsufOKvZ7L5WJh9GIAwOyZXjq7ey2VSuE1dQoIgpC7ICVq6TIQBIF1q1Yh+ds3mhWyl4H9+gIAZs6dI1fBj7fs9O7q5Ut4HBdHtzzWMnX8OJAkif4DB8KwiF3rfLr36gUzc3N8jI/H0UOH1KBQdWhUkBgWFAhhbi5atWmDsnKagAoEhuj35wDkCYWIiphPs0J2svOvbUhMSEClypXRsFEjuccFhYUDAHxnz6FLGquJvXUL9+7cgZm5OQYOGSr3uGjZrnWIfwAkEgld8vRoGfnHfsNGjIC1jY1cY+o3bIgWrVohTyjE5vXr6ZTHWoL8/AAALVq2gpOzs1xjbMqUwfBRowEAESFBGre7owr27tqJzMxMlClXDj169ZZrDI/PR8j8BQCA4AB/nby/3btzB3FxceBwOJjj4yv3uK07dwGgWkhmZ2fTJU/laEyQ+Ob1a5yV7QouXq6YufGMmTPB5XJx+uQJvHpVvIeWNvEjNRVrZTZAq9ZvUGhsj969YWZmhpcvnuPv06fokMdaRHl5CJhH7eaEL4wEn8+Xe6xznbpwrFoVaWk/sCpG78Wmp3iePHqEVy9fwsLSEuMnK+Z76BsUDC6Ph/VrVkMsFtOkkJ0kf/uG0yeOg8vlIiIqSqGxYyZMgJmZGa5cuowvnz/TpJCd5ObmYuUy6t606a+/FBrbtn17VLG3x7u3b3FJDu9YbUIqlRbkDK9cJ9+pXD4V7ezQ2rUt0tLSsGm9YmOZRGOCxLCgQEilUgSEhCpsSGlsbAw/mb/THE9PnXprXL5sKXJzc9Hvjz9Rtlw5hcev3rgJADA/JAR5eUJVy2Mtx48eQUpKMurWr4+mzZsrPD4/f3HHtm1ISU5WtTw9WobHFCqXNSA4RGE/tbJly6JPH+rYcPggzWv7VRK8PT0glUoxatx4GCvoT1qqVClM96Lys4f+qViXG01n8cKFyMrKQvOWLVGunGKt+Xg8HgJCwwAAfnNmQ6RDaQ5HDx7Ep/h4VKhQEY2aNFVoLEEQ8JX1Ltm6cSO+fv1Kh0SVoxFBYuytW3gUFwcjIyN069lTqTl69OqFcra2iP/wAY90JJfi69ckHDlwAAAwzUs+E+1fqV6jBpo0a47MjAzs2Vl04Ya2QJIkwoODAQABISFKueQbGhlhxOgxEIvFiJofoWqJerSILRvWIzU1FcbGxmjdtq1Sc8wNCIDA0BAvXzzHu7dvVayQndy4fq3gXj5h8mSl5ujdrx/s7CohMzMTZ/8+rUp5rOXTx484uH8fACBSyR7zderWRWtXV4hEIixbHK1KeawlJzsb4SHUc2HZ6tVKPU+tra0xbiJVvDJ3pmYY4bM+SBSJRJg5nerVvGTlKqVdywmCQKDs7Wf0MHed2E0cL+sT6eE9W2lz5/y3Hw6Hg2XR0chIT1elRFbiOZU67uvSrRuq2DsoNQdBEBgzYQIMBAKcO3MGL549U6VEPVpCdnY2NsiOrU6dV/7ojiAIBMnubx5TJoPUcmsXsViM+bLToS07dir1wAZkll9LqUApyNdX64/rpVIpwmTHpZ7es4u0CioKgiAQFB4BHo+H3Tt2ICcnR5UyWQdJklgVEwOSJNGtew9UsbdXeq7R48fDzMwcDx88wJcvX1Sokh5YHyTu37sHOTk5cGncGI0aNy7RXI2bNkWjJk0AADFLFqtCHmt59DAOnz5+RDlbWwxxdy/RXBUqVMCgoVThxhwNeftRlqSkJFy7cgWGhoYFKQrKUqpUKfgGUscLs708dTLJW0/RRC9YgNycHHTs3BmljI1LNJdbly6wtLTE50+fcGDfPhUpZCeH9u9HQsIXVKteHbXlLFb5HVWrV0e9Bg0gFAqxIFS72/U9jIvD3dhYWFha4o+BA0s0l7m5Of6QpTeMGTZMFfJYS3paGnbt2A6BQIAZ3sW3zCwKPp+PWfMoC6E/eyl3MqpOWB0kSiQSRC9YAC6XW/CwLSnhkZHg8XjYvmVNQFifAAAgAElEQVQLMjMyVDInGxk7fAQAqtemKpqKT54+A2bm5oi9dQsf4+NLPB9bmSLzhZwwZSoMDQ1LPF/X7t3h4OiIz58+4dqVKyWeT4/28P7tWxw5dBAcDkdlPXG3yCooVy5bprWGx+np6YiOXAgAmL8oWiX3t9UbNgKgcpG1tYhFIpFg5rSpAADfoCC5etEXx8zZc2BgYICXL57j/t27JZ6PrYwZTgXBI0ZTFmclpVuPnqhcpQqEQiH27d5V4vnohNVB4oTRlEVB1x49UKny7ztdKIKVlTV69+0HkiQLjrG1jWXR0ZBIxKharbpSRReFYWhoiBmyJO/RWvrWeOb0abx/9w5cLhfDZEf1JYXD4RR4t8329FDJnHo0H5Ik4S+rnp/t4wPjEu4i5mNbvjzad3RDRkY61q0p2uRXU1m0YAHEIhF69+tXomO/nzEwMMCUGR4Qi8UIlx3HahsH9+5FWloanOrUgWvbdiqZkyAILF21CgAQ6OujkjnZxoN/7uP9u3ewsrLGmPHjVTbvMpkJ99JFi1id5sDaIPHLly94cP8eBIaG8AsKVuncc2S+Wvfu3sXDuAcqnZtpcnNzsGs7ZWmweft2lc7dq29flLawQOr3FBzUsuMskiQRGUH5Qh4+qVq7H+e6ddGwUWNIJBIE+snvq6VHe3n6+DGePX0Caxsb9P3jT5XNSxAE5vlTbfp2btuGpMRElc3NBvLy8nDy2FEYGBjAS8X+re4jRoDH4+H2rVu4d/eOSudmAwtl97eIqCilczgLo0nTZrC0skLCly/YpaCdjibgNZXaTAqJiABXyZqIwqhoZ4cGLi4QCoUFXp9shJVBIkmSmDx2DADAa/ZspYtVfgeHwyk4XgjxD9CqIpZ53t4Qi8Xo2rMnjEqVUuncBEFg94GDAChDUG3Ksdu4dg1+pKaiavXqsC1fXuXzr1y3DhwOByePHtUoI1U99DBiyGAAVF9XLper0rktLC0xecYMkCSJ2Z4eWnV/c2vTGgDlcaiq3dd8+Hw+YlZTbfrmenlBqkX3tymyHbCWrdugQoWKKp8//7mwNDoa2dlZKp+fKdatXoX09DRYWlqiaYsWKp9//ZatAIDTJ47jM0vTHFgZJJ48fgyfPn6EsbEx+v85gJY1XBo3hk2ZMnj/7i2OHT5Myxrq5umTJ7h66RJ4PB6CZd1SVI21jQ3q1KuHzMxMLJblBWk635OTsVZ2ZLJCznaPisLn8zFwyBCQJImpKjyy0KN5bN1EvaDWa9AArdrQ0+N7+MhRsLC0xJPHj/Hh/Xta1lA3sbduIisrC1bW1hgzfgItazRp1gw1atVCamoq/j6lHQ0EPn/6hNhbN0FwOFgqa6ygaiytrNC1e3dIJGKsiomhZQ11k98mEwAOn6LPHmnmHGpHPNjPj5UvdKwLEnNzc7BU5pz/1176jjQ5HE6BY3rUgvnIytLsJG+JRILQgAAAQEjEfJUkc/+O/F3Yfbt34/OnT7Stow5IksTCiHCQJIlhI0fK3Q5NGWbOmQsej4eHcQ9wNzaWtnX0sJfcnBwsX7IEXC4XobL2ZnTA4/EwW9YyTBuMoqVSKebJ+qfPj1pE61qBIaEgCAL+8+ZqxWnJHC+qgYT33HkqPWb+FU9ZEcvuHTuQmJBA2zrqInJ+BIS5uejeqzdKqfhU7mf6DxgI89Klcf/uHcTevEnbOsrCuiBxy4aNSE1NRdPmzWFnZ0frWg6OVeHWuTNysrOxnqYdJHVx5eJFvHr5AhXt7NDezY3WtQwNDTHNg+p0kG8uqql8+fQJ58+ehYmJCcZOmEj7ejGyv7OwoECteADpUYzZXp4AgE5du6J8hQq0ruXWuTMcHBwgFAqxfetWWteim9XLlyMtLQ2VqlRRqP+8MlSvWRNuXboAAHxnl8zuhGnOnz2L58+ewdjEBAMGD6Z1LUtLS0yYQnnM5nvNaipvXr3CyWPHwOFwMNeX3jxyAwODghdGf595rOtgw6og8WtSUkFPw6DwcFrfevKZNc8HXC4X27ds1thcsby8PPjLfJeCZQandDPI3R0mJiaIvXkTz588oX09uhjpTvk/TvPyUritlzI0atwY9g4O+PTxI44dOkT7enrYw8vnz3Hz+nUAKDD2p5vl69YDAFbFLGN1BWVR/EhNxfZtVJC7Y89etazpFxgEgcAQ586cwY8fP9SypqrJy8vD/FDKWmndps1qWXPo8OEoW7YsXr18iVcvXqhlTVVDkiR8ZUfAvkFBKs/tL4zmLVqgfoOG+J6SgsMHD9K+niKwKkgM9vODVCrF2IkTYWNTRi1rWllZYfgoympnyB/91bKmqlm3ahVyc3PRqk0b1K1fXy1rCgSGBdYu40aNhFQDOzxcvXwZqd+/o1LlyuinwgrTouBwOFi4eAkAICI0ROPTHPTIT6CvD0iSRNTSZWp5kQOovs5NmjVDXl6exu6KRUZEQJSXh8Huw9TywAaAUsbGGCXzTB01dIha1lQ1e3ftxI/UVDRs1AjVa9ZUy5o8Hh9z/am0p6ED1HNPVTWP4uLw+tVLlClbFj1791HLmgSHgwCZkfvCcPW8QMoLa4LExIQE3L51E8YmJhgzTr2J/VNmzEBpCwt8+vgRb9++UevaJSUvLw9bNm4Ah8NBYFiYWnZf82nv5oaatWsjJycHZ//+W23rqgKJRFLgWxi+MFKtn5uDoyO69eoFqVSKFUuXsTJZWY9q+fvkSbx6+RImJiZo2769WtdetX4DCILA+bNnEf9Bs4pYXj5/jjOnT4HH42HyNPX62o6dMBF8AwN8jI/H1cuX1bp2SUlPT8fSRYtAEAQCZDmW6qK1qyvsHRwglUqxfvUqta2rKkYPozqUBYSG0Zrb/yuVKldGp65dAQCTWVTcyJogcUCf3gCoSh++gYHa158ne/sZ465ZfZ1Hy45L/xgwEBYWlmpfP0j2RfKd7a1Rx1mREREQiURwrlsXtZyc1L6+1yxvCAQC7Nu9S6s7/+ihilXmh1G7BOu3blPrAzufuX6Ud2KQnx9IUjN2/SUSCXxku59+wSFq20X8mS07dgIA5oeEQCQSqX19ZQn0oYzaBw4Zgoo05/YXxjqZtcuWjRs1qvPPOpnLhUujxmimokYUihAcHgGBQIDYmzeQkMCOvs6sCBKPHT6M7OxsVK5SBb369GVEQwc3N9iWL4+MjAxs26ye/I2S8vjhQzx/9gyGhoaYJeveoG6qVq+OVq6uAADfObMZ0aAoSUlJOHKIyvtYs3ETIxpKW1hg5BjqOGv44EGMaNCjHv7auhWZGRlo2bo1qlarxoiGXn37wsrKCg8fPMCNa9cZ0aAot2/cwPt371C5ShV07d6dEQ01atZEjZo18fVrErZv2cKIBkVJSkzE1cuXYWpmhinTZzCiwcLCAm6du0AoFCI0UDM62ORkZ2Pd6lXg8XgIWUCf80BR8Pl8TJlB/ZtNm0CPzZOiMB4kSqVSLJC9ZS9atoxRLfl9TzesXYOsLPYbgvrIgrKIqCi1bov/SkQktf7Fc+c0whInLDAAYpEI4yZOVEl/ZmUZM348LC0t8TE+Hndu32ZMhx76yMzMxNqVK6hOKAEBjOwiAtTDJ2xhJAAgYN5c5LGsgrIwvGRtU+kwHFeExSsob8H1a1bje0oKYzrkxX0g5S08ZfoMRnZf8wmPpP7ezp89gxfPnjGmQ17y/9669eyFsmXLMqZjyLDh4PP5eP/uHf4+dZIxHfkwHiQG+/lBKBSiXoMGsHdwZFSLlZUV3Lp0RU52NqIZepOQlz07d+LLp08wMzNHGxX14VSW/L7OUqkUPt7sTo6/f/cubl6/Dg6HgzFqsLwpCg6Xi/mLKM+3ebNmMqpFDz1MHT8OAHXjL1fOllEtjZo0QaMmTZCWlob9e3YzqqU4FoSGQiwWw6VRIzRwcWFUS5kyZTDEfRjy8vKwWObhy1aOHzmC1O/fYWlpif4D6GlEIS8cDgcRUVEgSRLB/uxtOwdQjSjyvWt9WbDzuf/oMQBAVEQE42lcBMlgAt63r1/RtQOVxH3n4SPG3rJ/Jjs7G22aNgFA/UOpqoG8KhEKhWjbojlEeXk4d/UaSpcuzbQkAECjOs4AgOiY5XBtx2zgWhgkSaJr+/ZITv6GVes3oEmzZkxLAgC0a9ECGRnpGDthIiZOncq0HD0q4vv3FHRydYWJiQku3rjJivtbwpcv6Nm5EwDg7qPHDKspHLFYjOYNGwAArsXegYDB3f58crKz4dq8GaRSKU5fuEir6X5JaNuiOTIzMnD8zFmUs2X2pQSg8ko7ubZBWloaVqxdh2Y0tLZTBQP69MbbN28Qs3oNWrRqxbQckCSJEYMG4enTJ5g0dRrGqOvoWfIa4DoC+P+9irGdRJIkC5Jrp3l6seIGCgClSpWCj6yIJcjPl5XWLitjYiDKy0NHt06sCRABYOe+/QCAiJBgiFmY5H32zN9ITv4Gx6pV0bhpU6blFHBGVjm5dfMmfRGLFtFXlkfnNXsOa+5vtuXLo0evXgCA8SNHMKymcMaPHAGSJNGnf39WBIgAYFSqFGbOobxo2WrtEjU/ApkZGahWvTorAkQA4HK5WLSMatPnMXUKK9Mcjh85grdv3qB06dJo3rIl03IAAARBYFFMDAiCwOoVyxlNc2AsSLxz+zZib9+Gqakphri7MyWjUHr27YsyZcrg8cOHeHD/PtNy/kViQgJ2bttKtd2i2QleUarVqAHnunWRkpyMfSw7zhKJRPD19gZBEAgOj2DNQxug8sV69+0HUV4eIiMimJajRwUc2LsHWZmZKFO2HHr1ZaYY73f4BQXD0MgI9+/dw8f4D0zL+RcP/vkHD+PiwOVy4RsYxLScfzFwyBBUqFgRKcnJuH3zBtNy/kViQgL279kDAPhr9x6G1fybBi4uaN6yJcQiEbZvZVfxT3Z2NqIWzAcArNu6lVXPhTJly2LYyFEAgPmhIYy5rjASJIpEIgT5+gAAwiOjGLG8KQo+nw+/YMqp3mPKZNZY4pAkiTkzvQAAE6ZMhaWVFcOK/g1BEAiNoL5wS6KikJGezrCi/xMRHASSJNGxc2fUrF2baTn/wWvOHPD4fJw8fgxvXr1iWo6eEpCbm4vlSyjD9PUseygCAI/Ph+csKnd4+uTJDKv5P1KpFKEBlFXP0pXs9NcLDqde4tj0uQHAgrBQSCQSTJwyBTw+n2k5/8EnIBA8Hg+rYmJYZSW0ecN6ZGVmol2HDrC3d2Bazn8YM2ECzMzMcPH8ecaKQhkJEk8cO4qvX7/CuV491uYotGjVCvXqN0B2dja2bNzItBwAwNvXr/Dk0SPYlCmDocOHMy2nUOwqV8YfAwdCKpUixN+faTkAgMzMDBw7cgQCgaAglYBtGBsbY57My26e9yxWpjnokY9l0YuQmZmJ5i1aoEKFikzLKZT+AwbAwECAjx8+4PiRI0zLAQAcPXQIH96/R0U7OzRlwKNOHuo3bIiatWpDIhazZtf/6dMnuHblCkoZG8NdtvPENmzLly/YUR87gh3ProyMDGxevx4cDgezfXxZtYuYj7GxMaZ6Uv3emer8o/YgkSRJRAQHAwACQkIYtW4pjoWLF4MgCKxctpRpKQAA94EDAQCzfXxgwLLd15/xmOUNQyMjXLxwHrm5OUzLwbBBlA/h0BEjYGpmxrCa39Ojd2+Ur1ABb9+8wcMH/zAtR48SfIyPx4G9VH/hhUvYcd/4HUdOnQIAREcuZLyCMjsrq6Ad2eLly1n9XNj4118AqJSC9PQ0RrVIpVJMHU8VNQSEhDJq6VUcc3z9IDA0xJNHj/Dm9Wum5RTk5A4fOQo2ZdTTBlgZ+vb/AxUrVUJqairOnj6t9vXV/k30nDoFUqkUbp07w4Fhy5visLaxQbsOHQAA4xhO8t6yaSNEIhHsHRzQrkNHRrUUh6GhISZOmQIA6Ni6NaNabt+8iY8fPkAgEGDytOmMaikOLpcLvyDqBWrsiBGsSXPQIx/UC3AQpFIpZs6Zi1IMetTJg02ZMqjfoAEy0tOxfs1qxnSQJIl1q1dDJBKhS7ducHCsypgWeRAIBBjs7g6JRAL/ufMY/Z5evXwZ6Wk/UK1GDXTs1IkxHfLA5XIREEq9CMycPo3Rzy0hIQGvXr6Embl5wU4dWyEIAtExywEAgQwU06o1SPyekoJrV65AIBAgKJwdW/XFESnbDfjn3j28fcNMX+fcnJyCdkGrNrDj6Ls43EeMhE2ZMsjNzcWlC+cZ0SCRSBAiy3FiqrOKojRp1gwNGzUCAKxaHsOwGj2K8PjRI9yJjYWpmTn6/cnOCthfWbB4CQgOBxvXrsW3b98Y0ZCeno7tW7eAz+fDa/YcRjQoyoyZs2BgYIDrV6/g0YMHjGiQSCSYOX0aCIJAYEgoIxoUpXOXLjAzM8Onjx9x+MB+xnQMlLUB9vbxYUyDIjg6OqK2kzPyhMKCFp/qQq1B4oRRIwEAYydOgkAgUOfSJSJkPlWM4Tvbm5G3n2B/f+QJhXBt1w42LPXnKoz8t5+QgABGjrO2b9mCpMREVLG3R5169dS+vrJEREaBy+Nhy4YNyNSgvqe6jEQigcfkSQCoNBpNub9ZW1tj9FjK8DssMJCR+1v+sd/IMWNZV4z3O3g8HsIjKWPtkEBm7m/5FnKt2rRhZTHe79gus0pbvmQJshnobLZr+1/Izs6Gbfny6NqNmXaPypCf5nDs0CEkJiaqbV21BYkXzp7Fu3fvwOPxMGrsWHUtqxK69egJC0tLvHr5Uu1tcl6/fInzZ88AQIHflKZQ28kJNWrWRHpaGlaqueVi6vfvWLea2n1drSG7r/lY29igZ+8+IEkS3h4eTMvRIwdHDh5AWloaajvXQdv27ZmWoxAjx4yBeenSuH71Cj7Gx6t17YdxD/Dm9WtYWllh7ERmOyApSpu2beHgWBXv373DhXNn1bp2UlIizpw+/a9gVVOwtbWFa7v2SE9Px/q1a9S6dk5ODlavWAEA2LB1m1rXLil8Ph8Tp0yBWCxGmBq7wqglSJRKJQVJyXsOHVbHkipn5br1AIAFYWEQ5uaqbd3QwABIpVLWefvJS/4XcfeO7fialKS2dWOWLIZQKMSfgwaxtjtCUfgEUFXYd2Nv41FcHMNq9BRHRAhlmRW+YIHGfU+NSpWCx8xZAIARQwardW0vWYehwLAwRvszKwOXy0VgKHX0F+jjA5EajaLneHlBKpVi3MSJrM99/RWCIApa3+Wf9qiL6IULkJ2VBdd27VC2XDm1rasqRowZCwMDA9y6cR3/3LunljXVEiRuXr8BKSkpcKxaFZWrVFHHkiqnWvXqaNm6NTIzMrBjm3reQG7duI4njx/D1NQUXbprzrb4zxgaGWHMhIkQiUSInK+ePNSkxEQcO3wYBMHBlBkeGvfQBqi+pyvXrQdJkgV5lXrYybSJVHVpi1YtYVe5MsNqlKNH796obG+PjPR0nDx2VC1rblizBj9+/ICFhQVatmK2wE1Zajs7w7Vde4hEIkRHLlTLmteuXMbjhw8BAKPHq6ldm4qxtLLCpGlU8cpsL/UUjnz48B5HDh4EAIQtjFTLmqqGz+dj8XJqJ3TuTC+1FLHQHiT+SE3F6hVUblr+bpwmQhAE5vkHgMPhYNXyGKSn0Wt9IBKJMHM6VY27ZMVKjXvLzocgCIwaOxZ8Ph+Xzp/H82dPaV9z9PBhAICZc+bAxMSE9vXookmzZihtYYF3b9+q7cGtRzGSEhNx8/p1EASBmNVrmZajNFQFJZXOEhYUBIlEQut6OTk52LyBeh4cO6Peo1pVQhAEgiMiwOPxsH/PHgiFQlrXk0gkmC/btd6xd59GvgDnM3LMWJiXLo0njx7hy5cvtK5FkiTCAqic29m+vjAyMqJ1PTpp1qIFqlWvjpSUFJw/S/93h9YgkSRJRMmKPoYMG6aRx34/U87WFkOHUQHIbE96c8X27toJoVCIxk2bon7DhrSuRTeGhoYIDAsHAMzy8KD1AfQwLg5JCQmwLV8BA4cwYz6qKgiCwLrNmwEA80NDkZOdzbAiPb8yawb1IuflPZthJSWnShV71G/YEHl5ebTnPEWGh0EoFKJz166s9vaTBxMTEwwcMhQAMHzQQFrX2r9nN5KSklC9eg1Ur1mT1rXohsvlwnsuVXzTvwe9J2Vx9+/jn/v3YGlpib79+tO6ljoIDA2jNq5mzaT9hY7WIPHzp0/4+9RJmJiYYPwkdrUxUpZJ06bD3Lw07t65g/gP9PQ9FYvFWBIVxcr+pcrSqUsXOFarhsQvX3Dl0kXa1hkr20UMCA7W6LfsfBwcq6KDmxtycnKwcf06puXo+YmL58/h2dOnMDYxwWDZy6Omk1/kdfL4MdragL198wbHjhyh7m8yX1BNx9PbGwKBAG9ev8bdO3doWSM9PR2LI6lj0oVLFmvF/a1L9+6wd3SESCTCnp07aVlDIpHAcxqV++ofEsq6NsDKULN2bXRwo3wx81sc0wWtQeJ4meXNVA9PmJia0rmU2jAQCODpTfU9HT3MnZY1Jo6mWiv17NMHFe3saFlD3XA4HATI+mHP8fKiZY2li6IglUpRs1ZNNG7WjJY1mGDWPB9wuVxs2bAB2frdRFaQl5eHBWFUMd6q9RsYVqM6+Hw+ZsycBYlEgtBA1bewlEqlCJg3FwAw189P44ouiiJmFWVIHkzTQzsyIhwSiQT9/vgTdpU0M/e1MJbIcuxiFkfT0td5766dyMjIQN169dHa1VXl8zOFb1AQBAJDnDpxAj9SU2lbh7Yg8eqlS/ialAS7SpU0xlhWXnr07g1LSyv8SE3Fvt27VTr3xw8f8OCff2BkZIQ5vn4qnZtpnOrUQZNmzSCVSuE/V7WmuVlZWdi9g3oTXbt5q0rnZhobGxu4j6BeuIYPHsSwGj0AsG/3bqQkJ6Nho0ao7eTEtByVMtjdHQYGBrgbG4s7sbEqnftR3AM8f/YMZcqWRc8+fVU6N9O4NGmCMmXKICEhATu2qvYelJOTg9MnTsDQ0BAzZs1S6dxMU9HODs2aN4dQKEQADebW0QupgqLwheopLFIXpqamGDFmNABgnGxDjg5oCxLzK5bmRy1idR9OZdl7mLLyWb5ksUrnnSqrlPT28QWfz1fp3GwgZvUacDgcnD55ErkqtBLy8Z4FsViE3v36wdjYWGXzsoWpHh4wNzfH+7dvaTsG1CMfGRkZWBJFHfsFhIRqxbHfz/B4PCxfQxXhzPH0UGkF5ZjhwwEA/sEh4PF4KpuXLeyQGUXHLFms0hxitzZU9ffYCRO18v62fC2VSnP29Cl8+vhRZfPmn2a2cm0D2woVVDYvWxg3cRIIDgfv3rzB9atXaVmDluhtQVgYRCIRatSspVFO8IpQ2sIC9Rs2RHZ2NuaHqCav5ujhw/j86ROMSpVCrz59VDIn2+DxeBgybDhIksQE2bF6SXn86BGuX70KHo+nNTmcv0IQBOb6U8d/Qwf8qe/rzCBBfr4AgAGDB2tNOsivuDRujNpOTkhPT8fJE8dVMuem9VQ1cwMXFzRv2VIlc7INC0tL9OjdGxKJBDGLF6vke3rr+nXk5ubCxsYGIzWsEYW8EASBOX7UyVmwn69KPrfPHz/i/t274HC5WLpiVYnnYyMEQWDH3n0AgIiQYFo6/6g8SExOTsbhgwcAAJu2b1f19Kxi5br1IAgCB/fvx6cS7u7k5OQgJnoRAGDvwUOqkMdaPGbNAp/Px5NHj3D75s0SzSWRSBAq8xEMj4zUyl3rfNw6d0Y5W1tkZmRgp5q8OvX8m29fv+LyhQswNjHBNA/1+LsxBbVLykGQj0+JHz45OTlYFbMMXC4XYQu069jvVzxmzoKBQIB9e3YjoYTWLhKJBD6zqRz4iEXRqpDHWvr064/SFhb45/593Lp+vcTzzZI5kMzx8S3xXGymeo0acHB0RFJiosrTHAAagsTQAH+IRSKMGDNGY/qXKotAIMB0r5kgSRLhwUElevvZuG4tfvz4geYtW6Jc+fIqVMlO8j0zS/r2c/HcObx5/RqVKldG23aa1Q5NGbbk512uXoUsBvqe6jruA6j86slTp8FIi4ouCqNq9ero3K0rAGCed8ny4PKtgrp0666RnS4UobSFBSZPnQYA8Jo2tUTPhVXLY5Ceng4HR0c00HArtOLg8/mIkFVvB/j6IK8EHWzOnD6FVy9ewMzMDP0HDFCVRNayfC2VHrJ21Uqkfv+u0rlVGiQ+uH+/4Nhv0pSpqpyatQwYPBjmpUvjzq1bePL4sVJzJCUlYdumTQCAoLBwrctxKoz6DRvCsVo1fP70qcAFX1GEQmHB0V9weAS4Wpjj9CvWNjbo4NYJ2VlZWBqlWT1bNZ1TJ04gJSUFllZWGDh0KNNy1IKPfwCMjIxw8dw5pKSkKDXHs6dPEXvrFgAgQNbGTtsZ5O4OW1tbvH71Ck+fPFFqjpSUFOz66y8AwNZdqi2QZCuNmzaDS6NGSP3+HQf371NqDqFQiIXhlC9vvqWTtlO2bDkMGDwEeXl5WLJokUrnVlmQKJVK4SerWF28YgV4Wlh0URgCgQD+Mq+vyePGKpXkHegzD1KpFBOmTIGVtbWqJbISDoeDBbLjk8j5EcjMyFB4jtXLlyM3Nxdt2rWDc926qpbIWvIftIcPHsC7d+8YVqM7RMr6z2/Y9hfDStRHKWPjgtZv+R6kihLk6wOSJLE4ZrnGdo5SFB6PB58AypB8tLtyLxRREeHIy8vDsBEjNbpDiCIQBAH/EOr+Fr1ggVJz7NqxHWk/fqBxs2YabziuCFNmzACPx8PJY0eR/O2byuZVWZB4+dJFJCYkoHKVKmjRspWqptUI2nbogNpOzsjOysLpEycUGpuUlIi7sbEwNjHBqLHjaFLITuwdHNCrT19IxGKFk7wlYjG2b90CDodT4D6vKxgbG2Oevz/V19nfT1/EogYWLZiPjIwMVKpSBZUqVWJajlrJb6v5MT4eF8+fV2jsyePH8eb1axgbG6N127Y0KWQnzb5WX+AAACAASURBVFu1QhV7e0gkEqyWtTyUlxfPn+PcmTPgcDiYMGUKTQrZSUU7O3Tu3h0kSWLsiOEKjU1LS8OKJUtAEAQCgkN07rngMXMmAGBw/34qm1clQaJIJIL3jBkAgFAlo39NJyg8nDKM9pmnUI5d/x49AACz5/lopSVEcXjMopK8D+7fh4z0dLnHDZXlhv05aBDMzc3pksdaevftB0srKzyKi8OjuDim5Wg1375+xd5duwAAe7S8qOx35FdQLgwPk9vwODc3BwvDqF2hzTt26tQDO59N23cAAP7aukXuHGKpRIK5M6mGAyHz58NQR3YRfyY4LByGhoZ4cP8+EhIS5B4XIDvNHOw+DLY6kNv/K4Pch8G2QgWkpqbiwf37KplTJUFi5PwIAEAHNzfUdnJWxZQah4OjI1xlhRPz5DQ7PXLwIHJzc2Hv4IDuvXrRKY+1mJmbY8z48QAA94HyJRg/iovD61evYGRkBO959LYkYis8Pr+gg83UCeP1u4k0Mj8sFFKpFGMnTtRK71J5cKhaFTVr1ULyt28F+dPFsXXTZmRlZaG1qyscHB1pVshOzMzM0KVbN+Tl5SFQzk4s169fw8f4eFSxt0enLl1pVshOeDwepsk6c00ZJ5/tT8KXL7h+7RrMzMwwefp0OuWxmiBZOtKE0aNU8lwocZCYkZGBQ/v2QSAQFORg6CphCxeCw+Hg8sUL+BgfX+S1YrEYC8OpY9KopcvUpJCdjBo7DlbW1vjy+TNi5bDEmSezhFig5ZYQxdHK1RV169VHdnY2ttNgfaAHeP70Ca5cvAhjY2OMGD2GaTmMsmQl5TW3Ye0apCQnF3ltRkYG1q9eBQ6Hg7l+/uqQx1rCFlIVu5cvXMBzOYpYZskCnICQEK229CqOgYOHQGBoiPgPH3BKDq/O/E2GqR6eMDQ0pFsea3Fp3AQ1a9WCRCLBkkUlL24s8V9gfv/iwcOGwbx06RIL0mQEAgG8Zs+BVCot8Lb6HcF+vsjLy0PDRo1Rxd5eTQrZCYfDwYJoKuArzmpj1/btSPzyBRaWlmjZpo065LGaiKgocDgcLItepNLOGHooj7oZsnww38BAnSke+B02NjYYNnIkRCIRFi0sOq1osmz3x33ECK23vJGHBdHRIEkSwQFFB8zhwcGQSCRo0rQp6tZvoCZ17GXvIaqz2aIFC4tM4zp68CDSfvyAtY2N1rUBVoa1mzcDAPbt2oW0tLQSzVWiIPHOrVt49+YN+Hw+pkyfUSIh2sKgoUNBEASePXmCC2fPFnpNwpcvOH3yJABglawLga7ToKELLCwsqcTjZYXvrObk5CBmMRVM5t88dJ1ytrZo064dAGDyWN3e6VI1169dRUpyMqpVrwE3HT32+5Xxk6eAx+Ph7OnT+Pb1a6HXJCUm4tmTJzA3N8eUGR5qVshO2nd0g5W1NV69fIkbV68Ueo1QKMThA/vB4XCweMVKNStkJ+UrVEDd+vWR9iMVm9av++110ZGUQfvWnbvUJY3VGBubYMDgIRCJRAiSM83hdxBkMYfWmRkZCPTzxeULF/7zOy6XC4lEgk3bd6BuvXolEqJNvHn9GgP79gGPxyv07Sf/516zZ2PIMMWqt7QZiUSCpvV//3eU/7l16toVEZF6j8CfaVSHygXO/07+jJWVFVauWw/HatV0snigKNJ+/MC0SRPx9DcepwRBYOvu3ahd20nNytjLvj27sTAsDDw+H+IiilhCIiLQradu5loXRtw//2BMETZCHA4HUqkUfw4ciDk6fkT/M8nfvqFrh/YgSRIEQfwnzy7/uVC9Rg3s3H+AIZXsQywWo2UjF0gkkkJjEUsrK8SsXo0aNWv9/7kgeQ1wHQH8/zlR5E7ijWvX0K5li0IDRAAFDyNtbDheEjiyD/x32+P5P69UqbLaNGkCGRkZRVZ4539utWo76Qs1fiI3N7egwvvXABGgTHkH9e+HyPDwQn+vqxw9dAgdWrf6bYAIAEalSsHM1EyNqthPlSr2IAiiyACRw+HATn9/+xfm5uZFFj7lp4s0atpMXZI0Ah6PV5DKVth9P/+50KV7d7XqYj0kCXtZwVhhscj3lBS4DxiA0KDAIp+n3KCgoKDCfvH86VOMGzlCLi0H9+1Ft549YWamv5mmpaWhRyc3ua49ffIkGjdtqpOl+r+Sl5eHTq5t5LLXuH3zBqytbVDbSb+7Q5IkBvfvh6TExGKvffrkMdLS0tCyVWud31E8deI4gnyL7+kqEolw8tgxdO/dG6W0vA2fPDx9/BjjRo4o9iWNJEmcPHYMbdq21ZkGAUXxPSUF/Xv3gkiOVnPnz5xBteo1YO/goAZl7EYqlaJX1y74kZpa7LW3b94E34CPBg1d1KCM/Qzq3w9vXr8u9roXz57h/du36NipM0B+BziW+Hkn8bfHzS1cGirUO9GuUiUcOnFS7uu1lW4dOuDr1yS5rzcwMMCNe6rxM9Jkpk+aiBvXrik05sa9+zAwMKBJkWawKiamyFydwjhy6jQqVKxIkyL2k/r9O3p0coNQKJR7TNPmzQv6jesqeXl56Naxg1wP7HwqVrTDwRMndLpKFwD+7N0L796+lft6Y2NjnL54SeeLpWbOmIbLFy7KfT2Xy8XR03/rfLHU1k0bsXzJEoXGbNi6DfXrmcl33Hz+7FmFm2t/jI/H3dhYhcZoG+/fvVMoQASoG++ObbptX5KdnY1bN24oPM6nmEpobYckSezdtVPhcUXlRekCx44cUShABKhdikQFTH21kedPnyoUIALAp08fcef2bZoUaQZisVihABEAsrKylPpuaxuKBIgAlW4TXUzlvS6wSYmC2GB/v0J/XmiQuEhmjq0oJ44dVWqctqDojk4+J48dU7ESzeLU8WNK2bfo+kvJw7g4ZGZmKjxOlX09NZGd27YpNe5OrG4HO2tWLFdq3Nm//1axEs1i3SrlKpUvKdgCUdu4evmSUuPi/nmgYiWaxefPn5ClxHMh4cuXQn9e6HFz66ZNkJOdrbg6PXr0aAR3H/2+WEObycvLQwuXhkzL0KNHjx7WceT4GlSo3BI/HzcXWkpakpR2XU6IL0nFrf5zUw7956ZHnej/3pRD/7kph/5zUw7956Yc0kLGFhoklipVCtlK7CR27d4DoQt0Nx9gjpcnzv/GQLsoqlarht0HD9GgSDPY+ddfWCwzQ1UEY2NjXL6lu0eA9+7cwYTRo5iWoVHw+XyYm5sr1YVgjq8f/hw0iAZVmsHIoUPx+GGcwuO69eiJkPnzaVCkGSxasAC7d2xXeFzNWrWwfe8+GhRpBmdOn1Yq79zc3Bznr12nQZFm8PbtGwzo3VvhcRwuF+XLl/nvzwu7eOzESYorA9BBTusXbWXYqNFKjcvvmKGrdOneTalxNWrXVrESzaJOvXoQKNGj1NjEhAY1mgFBEPhjwEClxjZr0ULFajSL8ZMmKjWug5tuPxcmTJ6s1DhdbzvavmNHpcbVcnJWsRLNwsHBEUZK2HXZ2NiAy+X+5+eFBon9BwxQeAFra2u4tmuv8DhtwrlOHYUtWXg8HsZPUu4moi1YWlqheo0aCo9bquOtqwwMDNClm+IGshu3/UWDGs2h/0DFg8TqNWqgop0dDWo0B5fGTRS2sjEzN0crV1eaFGkGpmZmMDE1VWgMl8uF+4iRNCnSDHg8HqpVV/y54D1vLg1qNIsevRTfSfSeV3j7vkK/8QRBYP1WxWxZVm7YqNN5APmcUrBkP2xhZJFdRnSFbbv3KPQAGjp8uN7cGIB/cDAsLCzkvr5RkyaoWq0ajYrYT5myZTHd00vu6zkcDqKWLtP5+5tAIMDyNWvlH0AQWLAoutDdCV1jz8FDCv39TPP0hKmCgaU2smPvXoX+fjp06oTKVexpVKQZzPH1LbK7z6+ULVcObdsXvsn326dyg4YumO3jU+yDm8PhIDomBo6y9i+6jrm5OdZu2izXP9DEqVPRsVMnNahiPzweDyfOnkMpOVo8duvZEx6zvNWgSjM49vcZWFpZFXtdfRcXrFirnE2TtjF89GgMGjK02Ae3oaEh1m7arNPm4z/TtHlzzPXzL/bBzeFw4BcYhCbN9C3mAOohvHrDRhjKkR4yZPhwnd9FzIfD5eLwqVMwk7UdLYoWrVphYfRiNajSDK7G3pHLVLx6jZo4fub3tRS/bcsHAE516qB127Z4/fIlkpL+bRJNEASaNm+B9Vu2oLazbucA/Er5ChXQq09fvH/3Dp8/ffpPtZFTnTqIjlmOzl2Vy8XTVoyNjTFoqDsSEhLw4d17SKX/7jNcxd4e/iGhGDV2rM7v6vwMj8/HsJGjkJ7+A2/fvPlPa8MyZcpgqqcn5vn563zni59p0bo16tVvgJfPX+D795R//Y4gCLTr2BFrN25CFX17tH9R29kZ7dp3wOvXrwo1GG/UpAlWr9+AxvoA8V+Ur1ABPfr0wcf4eMR/+PCf39esVQtRS5ehT7/+DKhjL6ampvhjwECkpCTj3du3kP7Sf96uUiX4BARg8vQZ+ufCT3A4HAwYPBiiPBFev371n5aQ1tbWmDRtGgJCQv//XFCkLd+vJCcn49WLF8jKyoK5mRlq1KolV3Sv66Snp+Pl82f48eMHShkbo1q16rAp898KIj3/JjcnBy+eP0dy8jcYGAhg7+Cg8zlh8iASifDyxXMkJSaBy+HArlIlOFStyrQsVkOSJBITE/Hu9Wvk5ObAwsIStZycdL4lmjykfv+OF8+fIyszEyZmZqhZqxbM9c+FYsnKzMTzZ8/w40cqjIxKoWq1aihTtizTsliPUCjEi2fPkJz8DXy+AarY28OuUiWmZbEesViMVy+eIyEhERwOBxXt7ODg6PjfTQPJ6/+05ZM7SNSjR8//2rvrqKiWOA7g34UlFUxUbMXGFgsbURADFVRQMVGxu8AObMVO7MYCxcJAbLAxsJ6kKGUAK8vGfX+Al73sLrmE+vuc4zk3Zwbf8/K7d2Z+QwghhPylFASJ1PdECCGEEELkUJBICCGEEELkUJBICCGEEELkUJBICCGEEELkUJBICCGEEELkUJBICCGEEELkUJBICCGEEELkUJBICCGEEELkUJBICCGEEELkUJBICCGEEELkUJBICCGEEELkUJBICCGEEELkUJBICCGEEELkUJBICCGEEELkUJD4BxOJRLh96xYYhinophBCyD9FKpXi2ePHiAgPL+imEJJn+AXdgL/Nwwf3cfPaNcTGxEJDUwM1atSEzYABKFasmMrqiI6Owt5du+Dt5QWBQIAHT5+Bz6f/lIQQosjWjRvx38cP6D9wIFq2ap2rskQiEQ7t24czpzzwJTISs5xd0N/eXkUtJaRwochCReJiYzFq2FCEBAdzjl/FJezYugU2/QdgtotLrup4/+4dFjjPxcf37yGVSnNVFiGE/Avu3b2LfXt2AwDad+qU43JiYmKwyMUFjwP8IRKJVNU8Qgo16m5Wge/fv6OXpYVcgPibVCqFx/Fj2LB2ba7qqVqtGvYeOoyDx47nqhxCCPkXJCYmYsq4sSopq2TJklixZg1u3L2nkvII+RNQkJhLUqkUo4YOQVE9PXj7XMOjwJfsnxVr13G6gY8dOojEhIQc16WhoQEdHR3UqVcPpUqXVkXzCSHkr+U4dIjKel3U1NSgp68PHR0d1KhVSyVlElLYUZCYS743brABYtly5TjnulhYYOvu3eDxeABSAspTJ06opN6iRYuqpBxCCPkbXfb2xod372DSooXKy65YqZLKyySkMKIgMRcYhoG3lyd27HGHurq6wmuamTRHhYoV2f0vXyJVUreGhoZKyiGEkL9NTEwM5s+dg27de6BVa1OVl6+jo6PyMgkpjChIzAUej4d1mzZDS1s7w+tMWrZkt2vXqauiuuk/HSGEKDJ6+DBoa2tjyYoVeVI+ZZMg/wr6Pz0faKQ+ULS0tNC9Vy+VlJnag00IIUTGZrcNCA0OxlXfW3lWB72kk38FBYn54HFAAABg5JgxBdZNHBcXhysXLyIsNAS6RYqgmUlztDI1ZcdLFoS3b17jus81CAQCNGrSGOZdLbLUnk8fP+L40SOYO38Be+yMhweivn7FmPHjFZbxJTISZ0+dglCYhA4dO6GJiQkAwP/BA9SrX5/GeBLyF3j/9i0OuLvDecFClChZsqCbwxKJRLh66RKCgt5ATU0NderWg6WVVYE+f6O+foW3lxeio6NQzcgIPXpZZ6kbXZCYiK2bNmLqzJng81N+nz28fx/37tyB/eDBKGdoKHdPQnw8zp4+jcjPEWjUuAksrKwAABHh4YiPj0eduqrpYSOqx2NouY48lZSUhE5tTFGzZk0cPK6aSSsAMNDWBu/evgUApcm0GYaB740bmDV1CtTV1VGlWjWULFkKoSHB+PrlCwCgrrEx3A8egqamJnvfzevXsGLpUsTFxnLKU1dXR+06dTDLZR7qN2jAObdjyxZcvuiN8LAwAICmpiaqGRnhyEkPznXCpCSsWLoUF7w8YWBgAHU+H7GxsRAlJwMAjI3rY9uePSgiE7QxDIPv37/h/Llz2LpxIyQSCQDgUeBL/PfhA+xtbdhjAHDHPwDaqQ+7sLAwDOid8vCrXbcedHV18TboDb5ERrIr1Vy56UuzxQn5wwmFQvSy6AqDMmVw6MRJNgDbv2cPtmx0AwDMX7IE1n365rquJQsWwOvsGQDIMJl2aEgI+ve2hkQiQYWKFVG+QgVEfv6M8LAwMAwDPX19HPXwgGH5Cuw9P378wKB+tvgSyR2/zuPxULVaNfS2tcUghyGcc08fP8Zq1+X4+OEDpFIpe+3RU6c5HyYkEgk8z56B6+LFKFGiBLR1dPDz508260bJkiWx7/ARVEg3MUcgECDA/yGcZ8yEUJgEALgb8AgSqRRWnc2QIJO1Y/3mLWjfsWPqfYkYNmgQIsLDUatWLRiWr4C3QW8QER4OsVgMAFi9YQPMzLtk/S+f5B3JB0DdCEDaywt9ScxDEokE0ydNRPMWLbBp+458r//UyRNYtWwZ1NTUcPikB2rUrMme275lM9x37sSbV6/g0L8/Tpw7x57r1NkcnTqbw8lxJB49fMgeX7BkqdLucqcJE+Do5IRWTRpDTV0dh096oLqREeea79++YVA/W0ilDM5fuQrD8uUBpATSM6dMxv27d/Hq1UvY9OqJk2fPQT91lZpJY53w5vVrfP/2jVPezx8/YG9rAz6fzwkSL3t7o7etLWJjYzHQpi+qVq+Oox6nOPc+vH8PE52cKCk5IX8BhmGwYc1qCAQCbNi8pUC/0P32MvAFRjg4QCqRYM68+bAdMIA998jfH04jRyD+5084DLDDhatX2RfbYsWK4cJVHxw5eBAb1qxm76lVpy6OnDypsK4mzZrh2OkzsOvbBx/ev4fLwoXobWPLuUYqlWLmlMkIePgQ6zZvRoeOndjj27dsxr7duxEXFwdrq2446+2NSpWrAAB279gOjxMn8C02lrMErEQiwcB+tkj/lenyRW+079gRDMNgQJ8++CUQwOvyFZQqVYq9JiY6Gg52AxAdFZX9v1iSr2hgRR75FheHsY4j8fD+fYR8+oTrV6/mextWLVsGAKhdty4nQASAkaPHsBNuPn78oPD+HXvcOV8Yk1O/9ikjTEp5w7To1k0uQBSLxXAaOQKxcXE4ff48GyACgLa2Njbv2Al9/ZSgMCY6GgtdnNnza9w24prfbQwdOZL7MwxxwOoNG3DN7zYsU7svAMDc0hIAsG3TJvz69QvrNm6Sa2vL1qaYM29+hj8PIeTP8OrlS5w6cQIuixbDoGzZgm4OAMBl9mxIU19eZQNEADBp0QLFihcHAHz//g0P7t+Xu3/QkCFo3LQpuy8WZfz8BYCEhASoq6vLBYgAsHj+PNy+dQubtu9gA0QgJf/j+EmTYds/rY221tbstsOw4bh60xe7DxzklLdloxvMu3aF7737mDJ9Bnu8p3VvAClBcuTnz7Ds3p0TIAJAaQMDbNy2PdOfhxQ8ChJV7PmzZ5gxeTKszDvjyaNHAICIiAjMnj4Nc6ZPz7d2xMbEpO0oGFGgqakJoxo12P34nz8VlrPGbSO7vXPb1gy/vD3y9wcAOAwdJnfO6+xZfHj/HtNnz4ZukSIK71+4bCm7ffvWLbbrWjs1mG1tyk1l0dLUFB06mUFHVxfLVq3G+as+8HvwkB1f+PDeXQAp3TeK9O3XT+nPQgj5czgOcYBpm7acl8WClJCQgIjU55cyPXqlBWKREREKr1mxZi3U1FJ+TYeGhCBZKFRaXlhoKL5++YIFS5bKnYuOioK3lxdq1KyFJs2aKbzf3sGB3ZaIxbh66RKAtOdv4yZNONe/CwrC2ImTwOPxMHjYMFy/fQeXb/qidZs2AICNa9cBAL6l6wH6rVbt2mjazETpz0MKBwoSVUwiFqOVaWuUk/lS9tu1q1ew2nV5vrSjpMyg7epGNRReUyz1yx0AxMbFKbymZevW0NJKeUjEREfjc0S40jpdZs9ClWrVUKtOHc5xqVSKjetSliRsIZMOKL12HTpy9l8GBnL2tbW5g6qnz5rN2Tc0NOQEoPGp42ScRgxXWmcXC0ul5wghhZ99P1uoq6tj/ZYtBd0UVpEiRdjhMspUrVaN3Y5PiFd4jUGZMqiZ2gskEomwZeNGhdcBwJ4d28EwDDspRNb0yZMAAL1tbJTeX7lKFTYgBQD3XTszbL/zwkWc/MDFihdHaZmx3ZGRKYHvdR8fRCnpVu7VN/fjQ0neoiBRxZqamMB2gB3OXvDGg6fP5N7aTh47hq9fv+R5O3hqavC55Qe3rduw2NWVc45hGCQnJyNZpvtCrKQrmc/nY878eez+sIGDFF6XnJyMpKQk2Ck4//XrFyQmJgIAbHr2hEmD+gr/tGjUkHNf0JvXnH11PjdheWbjjn6vipCQkIBWTRojOioK6edprVi7liatEPKHuuDpifdBQTjrfbFQ5S7k8Xi4fOMGlq9ajYAXgXLnxWIxEhPTJnvIjqlOb7v7Xnb79MkTEIlECsu7dvUqzLp0Ufj3EPzpEwBgzQpXpc/f5g0bcHqKfirpXfqtQoUKGZ5v0659SttEIlh1NsOD+/fleqJ69OpFk1YKucLzr+ovxOfzsXv/AezdtQvbNqeNi/P2Oo8Ro0blef0lSpZE2/bt2X2pVIp3b99i/aqVCHzxQukqMel1teyGNa6uEAgE+P79G2Kio1HawIBzzeRxY6GlpYV+dnZy98dER7Pbu/btR/HUsTiZ0Uv3Js5D9gaj2/TvD9fFiwGkPES7dTZD7Tp1sGjZctSoVatQDG4nhORMXGwsXJcsxoBBg1CmkIxDlKWpqcX5qscwDMLDwrB/z254nj3L6e3JiH6xYihtYICY6GgIhUIcO3wIQ4aP4Fzjc/kyhEIhxk+aLHe/UCiEIPUlfeGy5TA2Ns5SvVn9/aDMzLnOOOORlt1iwuhR0NXVxbpNm9HUxCTX5ZP8QUFiPhgxejROHDvKjhN8/vRpvtYvFotx5eJFbFizGhKpFP3s7LBh6zY4z5yBu7dvZ3q/lpYWHIYPx86tWwEAjkOH4NzFS+x5qVSKxwEBaN2mrcL7P35ImxhjWL48Z9JKXupr2w/vgoI462W/DQqCva0NjBs0wCxnZxjXb5BBCYSQwohhGEydOAHJyckwMjKC55kzSq99/fIlu/308WP8no5brFgxdOzcOa+bCiAlH+tmtw34+P49LKy64+K16/B/+ACLXFyydP/B4ydg1dkMALBn5070t7NnZ0MzDIMD+/bCsHx5VKpcWe7esNBQdltXVwfVaygefqRqGhoaWL5qNebPncN+QRQIBBjrOBIlSpbEbBcXdO7SlV7WCzkKEvPJ9j3u6N87ZaDyz5+KJ1LkhSePH2PB3Dn4EhmJ6bPnwG7QoBz9oxw8dBgO7tuHXwIBwsPCEB4WxnbnnjpxHFKpVOkSWPE/08bb/Pj+Pd+CRACYM28+OnU2x5wZ0zjteBUYiKH29hgwcCBmznXOoARCSGEjlUrxKnXMsuuSJVm+74KnJy54egIAatepk+dBYkxUFGZMmYKXgS/Qx9YWW3buQrFMxioqYmBggPIVKuBzRAQEiYnw8bmKnqkTX8JCQ/Hh3TssWLqUM6bwt99DfQDgxbPn6Nyla85/oGyysLJCXWNjLJg7hzPG/FtcHOZMnw6TFi3gtnUbOzmGFD40JjGfyA5S1tPTy5c69+3ZjdHDhiI6Kgonz3nCfvDgHL+16ejooFv37uy+bIqawwcOQEdHR+nDr4jMZJKnTx7nqP7caNm6Na753cGKtes4KX0A4MTRo/k2mYgQ8u94eO8eenazxMvAF1jjthEuCxflKEAEUsY4rlizlt1ftXQpm4z62OFD4PP5MO9qofBeHd20CX/3797JUf25UblKFew7chQHjh5FyXSpcB75+2OovT3lqy3EKEjMJ7LBWX4sQfTu7VtsTZ0JN8vZWS5vYU7MdpnHjiN5/vQpIj9/xof37/E5IgJbdiqfCVezdi12e+vGjVl6ICQkJODihQu5bvNv6urq6GJhAb+H/hg5xolzzuP4ccTERCu5kxBS2KipqcHvoX+W/owZO469b/a8eexx90OH86x9MTExmDjWCaLkZNQ1NkYnFXyxrFe/PgxSx4InJSXhsb8/kpOT4XH8OLpYWEJXV1fhfVWrpn2g+PTfJwgEgizVNyN1RrQq8Hg8GDdoiCs3feF+kJtv8eOH93jz6pXK6iKqRUFiPpGdVZs+1UteGNw/LQdgO5nEqcpIshC4qaurszmwAGDDmtVw37WTfQAoU6ZM2qDypKQk3Ll1K9O69u3ZDU2N3I2GGGpvJzebmc/nY+yECfC6fJntmmEYBn43fXNVFyEk//B4POjq6mbpj4ZM74GmpiZ7PC+7OA/udWdfhuenTp7LSFZWx+XxeJgzP20BgPFjRuPlixcAILfQgCxNTU12mVOGkWLB3LmZ1hf5+TO+fMldFo4xI4bLfRDgy596GgAAHKRJREFU8Xho1KQpbvsHcLJKrF+9Ov3tpJCgIDGfxMamTFqpWasWGjRqlOf1yT4ERJmslAIAoixk8weAdZs2s9s3rl3DzWvXYD94cIbpJwzKlGHfgAFg2qSJeBsUpPT64E+fcGjffjRuqjjpa1bFxcYhJDhY4bnyFSpi3MS0N+Wk1NViCCEkU5kEWUEyz7eE+IQMrkwhSe06zky7Dh05mSUmjRuLylWqyK2olV6Dhmkv8b43ruPIwYNKA8Xk5GT0tuqGGbPnZFhm5mEtcFrJMoI6Ojqc3yX5OU6fZA8FibkkFoszzScFAANtbcHn87FslWremGTzamUWBF68cF7u2JPHj/Hi2TN2PzY2JZl2aEgIYmNjlZalrq6O5jIJscViMewGDc6wfjU1NbnJIYP798P+vXshTLeCgJ/vTTgM6A/rvn3k0uxIs/C2nd6OrVuVPgz72duz27XTJQAnhBBlkoRpL5WKchzqyCT+X7Zwodz56Kgo7Nmxg93/PalOKpXi1Uv5vIq/qampwXHMmLR2/PoFh3TpcBRZuW49Z99t7RosnjcPP9OtRvX+3Tv0s+4FXV1dzpKAimS0+stvu7ZvU/r8rVW7Nrvd1ZIWNSisKEjMBWFSEszbtYVZG1PY9e2De3fkBwVLJBKMHTkC3+LisHqDG2cpvNyQDeTev38nd75CxYrs9u7t2+Fx7BikUim+REZi5pTJmD1tKgzLpyVDdd+xHVcuX8KEMaOhraWVYd2yD5y69eplabZyJ3NztO3Qgd1nGAZbNqyHWRtTDOpni2ED7WHRsQOmTZwI3aJFMXXmLLkyEhMyfyNP79qVy7juo3jd7KuXLgJIScujbKkqQghJT7Yn5KuCbtkWrdJepENDQ7B04UIkC4VIiI+H29o16NG1C2foju/NG3hw7y56WVqgVKmMk/v3trFlc83yNTRg3adPpu0tWrQoZjtz0+1c8PKEWds26N/bGsMGDYR1N0vY2/RFRHg4Tp7zzLTM4E//ZXrNt7g4LJZZjEFWqEwvT1YCXVIwKEjMBZFIhITUwOXD+/eYNNYJVuad4bp4MQ4fPIBZU6egc9s2ePrkCc56X0T7jqoZi+jnexPfZdbDdJk5U+6awyfTkphKpVKscl2OVk2boEfXLoiNjYXnxUto2Lgxe83rV6+wcO5cbN6+gx2/ooy+vj5MWrQAAAx3HJWlGdM8Hg9rNrjJBWNCoRBvg4LwMjAQsbGx0NLSwpGTJ+UGYacsSeXGOTZ53NhM6wWAOdOnY8FcbtdJ0JvXWLF0KTQ0NOB+8JDC1BGEEJJeQkICQlJXMAFSUoB9S7esab8Bdpxk2Z5nTqNNcxN0NG0Nby8vnL9yFUNHpI0jjIuNxYQxYzDHZR7KGRpmWD+fz8eA1JWtTNu0zfKzy9bODhOnTpU7/t/Hj3j54gUiwlOWXN3h7i7XiwMAK5dx14ReMHcuJ72OMhc8PTFs8CBOj9vPnz8xaVzKhKJN23dQCpxCjMdkZcQsUYhhGJw8fgxr0i1791tpAwOs3rABDRo2UknCUKFQiDYmyr94aWvr4E5AALsfHRWFHl27cLpD3LZuQ5t27cDj8RAfHw+Ljh2QnJyMonp6uHLjJrSy+I91oYszrvv4wO/Bw2wFWAzD4PYtX0ybOFHuXMPGjeF+8JDc35VJg/oZlmnSvDl27N0nd7xn166oXacO7tz2Y9NFyGrUuDH2KKiPEPL32L9nD/uCOX/JElj3ydl6wQzDoHnDjJPvPwpMS9wtFovQy8KCs26xw7BhmDRtOng8HiQSCazMOyM2JgY8Hg8nz3miarVqWXoeeZ45g6ULF8D/+YtsP38jwsPhYDcA8emGSRmUKYOjHqdQvEQJThsWujjD28srw3Jlf+7fxowYDj6fj48fPnBW3fqttIEBjnqcQomSJekZXFhIPgDqRoDM6mYUJJJsS04WwrRZM/Szs8NsF8VdCVkVHx8PbW1taGhoqKh1mdenpaUlly+REEL+FP2seyE6Ohq+9+7nqhyBQAAejwcdHZ3ML1aBX79+QSwW51uuYJJNCoJEWnGFZNv9u3ehpqaG4Y6OuS4rvx8W9HAihPzJgj99wqf//sNOBb0n2aUst2Jeya9glKgODcQi2eY8axZq1KyJMmXLFXRTCCHkn7J31y6oqanlSyo1QihIJNlyydsbwqQkTM8khxYhhBDVCv70CZcvesNxjBMNmSH5grqbiUJSqRTdzDpBKBSitIEBJk2dho8fP2Dbpk0oVqwYmjVvXtBNJISQvxLDMBjrOBJvXr+GjrY2hjmOQqXKlTF7+jTweDwMHDKkoJtI/hE0cYUotGr5MngcPy53XE1NDf7PXxRAiwgh5N/w4tkzjHBQvEiB25atnJyzhKiMgokr1N1MFGrWzETuWIkSJXDhqk8BtIYQQv4dpUqVkktto6GhgcXLXSlAJPmKviQSpfbs2A6fK1fA19BA2/btMXLUaGhmshoLIYSQ3Lvj54fdO7bjl0AA4/oNMHnGDHalFULyBOVJJIQQQgghcqi7mRBCCCGEZAUFiYQQQgghRA4FiYQQQgghRA4FiYQQQgghRA4FiYQQQgghRA4FiYQQQgghRA4FiSTLwsJCsWzRwoJuBiGE/HN+/fqFdatWITw0tKCbQv4hFCTmof8+fkRH09aI+vo1R/czDIM9O3agZeNGMGlQH+1btUTAw4cqbmXmbt+6BdNmTdHHygrnTp/O9/oJISS7pFIprLtZ4sSRIzku4/u3bwj+9CnDP4mJiSpstbyI8HB0aNUS7Vo0x7HDhxD3LS5P6yNEFr+gG/C3YRgGr1+9xOSx4/D9+7cclxP44jmGDxoEbW1t2A0chMZNm+LcmdMY6zgSFStVwsHjJ6Cvr6/ClsvbsnEjTp88AUFiIiQSSZ7WRQghucUwDCLCwzBr6lS8e/s21+V16dAeGa03oaWlhRt37ua6HkX8HzyA86yZECQKkJwszJM6CMkMBYkqIpVKce/2bSxaMB/f43L3pnfvzh1MGusEbR0dHPM4hUpVqgAAOpmb47qPD2ZPm4r+1r3g4ekFvTwMFEePHYsJkyfD/+FDjHMcmWf1EEJIbjAMg9cvX2L96lV4/uyZSsq8eOF8hgEiAFj3tYGWtrZK6kuvmYkJrvndhkgkQuumTfKkDkIyQ93NKhL86RNiYmJwzOMUFruuyHE5UV+/YvK4sQAAp/ET2ADxNzNzc9SrXx8xMTGY4DQGUqk0V+3OiKamJgCgTt26eVZHRn78+IEjBw8USN2EkD+HSCTCw/v3sHDpMrgfPMQ+u3Jj49q1MChTBnXq1lP4p55xfThNmKCC1iumzk/5hqOhoZFndWRELBZjoYtLgdRNCg/6kqgi1Y2MUN3ICADQ1dISC53n5qicyePGgmEYaOvoYKCDg9x5Ho+HUU5OmDphAl4FBuKO3y2079gpV23PjI6OTp6Wr8ymdeugo1swdRNC/hyampoYMXoMAKBy1aqoWKkS/vv4McfleXt5ITY2Fr73H6Bo0aKqauYf5cO7dwh6/bqgm0EKGH1JzAN8Ph8aGtl/kw18/hzv370DABgaGkJNTfF/nuYtW7HbM6dMyVkjs0FdXT3P60gv6dcvXPK+kO/1EkL+fLq6RXJ1/85tW9HMxARFiuSunD/Z+DGjC7oJpBCgIDEP8Hg86BbRzfZ97rt2sts9e/dWep22tjZq1a4NAJBIJIj8/Dn7jcwGZcFqXmEYBs6zZyE5OTlf6yWE/B1y8/Xvho8PPkdEYMHSZeDxeCps1Z/jgqcnfnz/XtDNIIUABYl5hM/PXk++WCyG/4MH7H77jh0zvN6oRk12e/GC+dlrXCHGMAz27dkNv5s3C7ophJA/lHo2n7+/SSQSbNqwAQAw0mEw1q9ehbdBb/6pF9bnz55h0Twai0hS0JjEPJLd9883r15xHkRVq1XP8PoKlSqx20GvXmWzNsUiwsNx3ecqnj99hvj4nyhfvgLMLSzQtn37bJcV+OI5/G764s2rVxBLxChnaAiT5i3QwcwMenp6Cu9hGAbrVq3C8SOH2WNRUVF4+vgxu1+hUiWUKVOGc9/LwEBcueiND+/eQ0NTE40aN0bzli1RuUoVLF+8CCvXrS+QLnNCSMHI6fe/J48eITwsJVl1TEwMjh46hKOHDkFHVxeOY5xgN2gQtLS0VNdQGfE/f+LG9Wvwf/AAMdHRKF68ONq0a49uPXpku6yw0FDcunEDT588QUJCPIoXL47GTZuhfceOqFCxosJ7GIaB17mzWL5oEXvs1y8B5/mrzldHw0aNOfd9iYzEec9zePHsOSQSMWrVroMWrVrBuEED7N+zGyPHjEHRooqf+aTwoyCxkPg9FjGrypUry24nJSXluv5FLs644OWF8hUrwm7gIBQpUgQ+Vy5jyvhxaNS4ceYFpAoPC8PsaVPxNigInbt0QdsO7RH5+TPOnj6NC56e4PP5GDl6NEaNHSd3r0WnjoiLjeUcu+Hjgxs+Puz+9NlzYD94MICUtEOuixfh3Jkz6GvbD3362UKULMKNaz7YvmVzWiGZpLEghBCpVKr0C9ovgQCbN6zH8cOHsHH7Dna4j6ocPXQIm902gJFKMXL0GLQ2NcWTR4+xdOECbN20McvliEQizJ42FX6+vjBu0ACdu3SFMCkJ586cwXUfH6xfvQoW3bph/uIlcql7nEaOwOOAAM6xzxERGDVsKLtftGhR+N5P6/E64+GBFUuXoKWpKay694A6n4+njx9hyvhxbOaNoSMpfdqfjILEQiL406dsXa+vX4zdFovFEIvF2e7i/q2ftTU+/fcRFt26YbHrCrYc67594ed7E9MmTsxSOcHBwbDv2wc8Hg8enl6oVj3ta6jThImYNnECAh4+xM5t2/Ds6VNs3bWbc/+FqynB4Plz57Bi6RIAgE3//pgyYyZ4PB54PB7nZzx14gTOnTmDlevWwbyrBXvcqmdP3PHzw9QJ43P090EI+fcwDIMlK1biS+RnvAoMxG1fX0RGRnKuiY6OxkBbG6zbtBkdOqkmq8SaFStw4ugRVK5SBUc8TrHZJHpY98YwR0fY9e2TpXIEiYno0707YmNjsHHbdrRp14495+jkhAN73bHFzQ2XL15E4ItAHD9zhpO5YsuOnWCQssqMlXlnAEC16kY4ePw4+/yVHaP5MjAQK5ctRT87e8xydmaPW3TrhhGjRrNlkD8bjUksJL5++ZKt6zXTdXl8Tfcwy6rJ48fh038fUaJESSxbtVou0GzXoSN69embpbL6W/eCSCTCvMWLOQEikJJGZ8vOXShZqhQA4OH9+1i/ejXnGk1NTWhqanLaoKGhAR0dHWhra0NLS4vTbbzadTl0dHXRuUtXTjk8Hg/tOnSAdd+stZsQQtTV1dHMxATde/bCLGcXnL/qg3uPn2D1Bje5a6dPmojQ4OBc13nrxg2cOJqybOD+o8fk0o1VrlIFC5Yuy1JZI4c4IDY2Bp06m3MCRCDlmTh0xEg0b9kSABARHgbHIQ6cZOEaqc9fDZkck2pqapznr2z+ye2bNkEqlWLcpElybSlTtiwOHj+epXaTwo2CxEIiISE+W9enn3WXKBBku86nT57grp8fAGD73r0KZ/LxeDzYDRyYaVkjBg+CVCqFvr4+rHr0VHiNuro65i1ewu4fO3wIMTEx2W63rF8CAb5/U7z8oeMYp1yVTQj5t2lqasLM3BwBLwLRqbM555zjsKG5WsxAKBRi+uSUAGvU2HFKl1m1tLLKtCyvc2fZIUvL0718/8bj8bBsVdq5t0FBePniRXabzXrzOmUsfGhoqMLzdesZ/7Ozw/8mFCQWEtl92EhVsJbyupUr2e0aNWoova5q9Ywn0SQlJSEw9WFTPYNyAKB9hw7Q0UlJD8QwDLZuzPp4G2WcZ86AUCi/tqlh+fKoUatWrssnhPzbeDwe1ri5YdCQIeyxuNhYeJ45k+MyN61fx26b5aJrViKRYItb2tfOjIYdlSpVipM5Y/SI4TmuV5z6O2iYvZ3CF3UejwebAQOQ82lEpDCgILGQ0NbO3soiSemCImVvocqEBH9C0JuUbPqZpYvIbImrA+7ubLeFYfnymdZdr74xu+3nezPT9VEzE+Dvj37WvfDg3j25so6fPpPjdBiEECJr6sxZqN+wIbufm4T/J44eBZDSpVutulGOy/n033/shD99/WKZ5rW16tmL3RYlJ+f4+Vu1WjUAKR84LDub4bTHSUjSfbyY4zIPxYsXz1H5pHCgILGQKG1QOlvXJyQkcPYN0qWFyYzsLLZqqf/Yc+rm9WvsdvESJTK9vq9tP3b7x/fviImOzlG99jLLFn6OiMCEMaMx0NYG9+7cyVF5hBCSme2797DbOV36TyAzPKhYseI5nnQIAE8fP2K3S5XO/PdIjZo1Ofs57XIeOTptRRaxSIQVS5agexdzHD98OFfd8KRwoSCxkKhSNXuB2re4OHabr6GR7TyALwMD2W3dXC499ePHD3Y7K93gJqmDpxXdnx1TZ8xEHxtbzrH3795h0lgn9LK0oHVHCSEqp6OrC8MKFQAAiele1rPq3m0/dltDUyNX7Xn29Bm7LZaIM72+bNmynP2PHz7kqN4OncywYBl3Uk1MdDTWrloJ8/btcP7cuRyVSwoXChILCaNMxvKlFx0VxW7nJLlrdFTa17sf33MWpP0m+9YoW64yJUuW5OzndNk/NTU1OC9ciJPnzkE7Xc6vzxERGDygP/a771FyNyGE5IzD0GEAcvbsBYDg4BB2O1mYu9VcBIlpgWpWslxo6+hwnrm5CVJ7WfdGwItAGBhwe7J+/viBxfPnwd6GMkz86ShILCQaNm7EmQkmFmf8RvhF5mFQt169bNenzk/78hgSnL0cjenJpuOJivqa6fXpZ7ylX0ElO3g8Hqob1cCdgEdYuW69XHf3Fjc3+N64kePyCSEkvapVqwIAKlWunKP7+Rpp3cvfv39TOPFOqXRDCMuWLcduJycny40LTI/H43F6npo0bZb1upWUd+nGDZz19kblKlU4596/e4cZk+VT5JA/BwWJhUSRIkVRv2Ejdj+zcXWhIWk5umbNdc7gSsXKl6+Q7XuUkX2LDAsJyXQgtGwAXKVqVRRVskxfZmLTrc5i3rUrrvndxnBHR04gSg8pQogqfUwdi9i6bdsc3V+nTl3O/odsrLiV/vnaonVrzn5mQaJUKoVIJGL3y1fI2e+CqK/cDwKVKlfBmQvecF2zFrq6uuxx3xs3EBYWlqM6SMGjILEQGSCTj/DEkSNKrxMIBAgNSemu4PF4maadUaRx06ac/Uf+/tku47fBMmkhfvz4gVeBGQ+EfvvmDbudPhF2dkwYM1rh8fGTp2C7+94cl0sIIRnZ774HWlpaGDJ8RI7ub55uXPaVSxezfK9Eyg0CjevX5+yfO30qw/tllz41NMw8G4Uy40eNUhiQdrW0hNflK5xjL54+zXE9pGBRkJhHZMfpZTXFgEW3bihtYAAAeJ2aqFSR50+fsmXKJkfNjlamppxxKXNnzshROQBg1qULZ3be4QMHMrz+3OnTAFIm3DgMGyZ3XrZdggyShIdksJShSfPmaN9RNctmEUL+LBIm7fkrZVQ70zYkOBixMTEY5uiIokWL5qgMdXV1zjPzxNGjWV5YIP0YxjJly3K+Jq5btSrD+z/KzMjeuH273HnZ569ILJI7/1t8fDz7sSK94iVKYLGra9oBSpX4x6IgMY8kJaWNMclqOgAej4f1mzYBAOJ//sSTR48UXndw3z4AQMlSpWDeNWdf4vT19WEts9zet7g4TBk/TuG1IVlYfspt6zZ2+7qPD/7LYMbc1cuXAAB9bG2hpyC/o2z3851babMAGYaB04gRbICcnJyMzRs2KK0n/fgYQsi/QfjrF7st+yzOyKkTJ9DNrBO2bd6k9Jr4nz8xqJ8tqlU3yvWKTvsOp/UWSSQSDLTpm2lXMcCdtAik/N5wWbCQU5bHCeVL4nmlJgCvUbOm3PKpAKCvn/b8/RoZyfnIMXaUI2d/oYuz0o8g7TqkJe2uW89Y4TWk8KMgMQ+IxWIIBIns/i+ZB1Zm6tVvAItu3QAASxbM5zw0GIbBk0cBCHj4AOrq6jh26nS2U9/Iclm0CGXLpQ16vuPnB5uePREXFweRSITk5GRc9PZG/97WnPv697bG00ePcGj/fvZYK1NTtG3Xnm3nEHt7CBITOfcxDIPVrq5ITExE2XKGmO3sorBdhoaG7HZcXCz27t6NkOBg9OluBeu+fTnjDQ/sdcfjgAC5BxXDMHgUkNKFPn327Oz8tRBC/nA/f6YtcxoepnjZuPRWLluK6Oho7N21C22bN0dIcDDEYjGkEknKs/D8eXRqY4qq1avDw9Mz10vO1TU2RgczM3Y/Li4OLRs3QkhICEQiEUQiEd6+eY3WTZtw7nNbtxZPHz3CkoUL2GMVKlbELJnn6erlyxEayv3KxzAMAp8/x5VLF6GpqYXd+w8oWYpVjT0uFAox0ckJX75EYuJYJ4iEyZx7Xr98icP79ysMFLdtSllNq0mzZqhulPNk4aRg8RipKHfLXRBWZORXCAQCnD55EiePHWOP6+npYeuuXdDT14dBmdLQzkLahLkzZ8HnylVUr1EDi5Ytg66uLjzPnMWh/ftgaFgOuw/sRzmZAC+nxGIxbHtZIzw8QuF5PX097D9yCDY9e7PH9PX1YGZuhhlznTk/i5RhsGieCy5euMjOwHNZtAj16zfAr1+/sGnDejx78gTNWzbH9t27M2zXwP4D8C7oLedYV8uucJVZl9SkYWN2u7+9PewHD0axYvpITBRg26bNuOR9AZZWlli6ciX1dhDyl4uKjoEgUQD/Bw+x2nU5e1xDQxPL16xGjRpGKFGiBPT0FHcRO9jZ483rNwrPAYCeXlFMmDIZNv36Kb0mu6QMg1lTp8D3xi2F5zU0NOC6ZhVmTpnGHtPS0kSTZk2xxNVVLp3Y8SNHsH7NOrb3aqCDA6x69gQPPHieO4uTR4+iarWq2L1/H0pksPDBfGdnXLrAHSdpWL4czl++zO5bmpmzXeT1jOtjwdIlKG1QGmKRCNevXsOalStgVKM6jnh4gJ+LjxkkH0mDAXUjyI4P4DHiTxQkqsj6tXshFCofwwEAtv0tUbNm1rpBAwIC4b7zON6+/QiRWIQqVSqhVx8LDBjQTRXN5Tiw7yzOe11FSHA4GIZBmTKl0dHMFNNmjASfrw6Txj1Qu04NDBzcG917dMywrDdvPmLPzhN4/vwVvn9LycFYomQxNGxkjJGO/VHPOPOJNkKhCJvc9uFRwAvo6RWFbX8rWHZrz7lm7Jj56GRmiiePA/E26CM+R3yBRCIBn8+HcYM6GDXaDq1aN1ZSAyHkb7Jzx3HExWac87V1mybo2LGFwnMSqRTbNh+G360H+PolGmKxBMWK68HIqCrMu7ZFj55m4PPzJti55euPfe4eePP6LSQSKfT0iqJlq6aYNsMRZcqWhEnjHjAoUxq2/btj4OBe0NFW/qEhPj4RG9btRcDDp4iMTOma1tXVQZ26NWBjawWLbu2y1KYjh7xw+ZIvAKB9h1YYMcoW6jLjFSdPXIIOHVvhVeBbvHr9HuGhEUhKEoLH46FatcrobWOJgYN65uJvhRQI9SrgBom5XTiX/FXEYjGkUqnces2/BALoyKQ1yCqRSASGYTJd/1lVkpJ+QUtLO9ddQYQQkt8YhoFQKJRbHEAgEHDSymSVRCKBWCyCpqZWvjwThUIh+Hx+roZBkcKFgkRCCCGEECKHJq4QQgghhBA5FCQSQgghhBA5FCQSQgghhBA5FCQSQgghhBA5/wNbiBqki6b21QAAAABJRU5ErkJggg==;" vertex="1" parent="mub_gCMMnNci_3UeIq6J-2">
                    <mxGeometry x="460" y="230.47" width="278.37" height="164.28" as="geometry"/>
                </mxCell>
            </root>
        </mxGraphModel>
    </diagram>
</mxfile>